<svg width="25" height="25" viewBox="0 0 25 25" fill="none" xmlns="http://www.w3.org/2000/svg">
<path d="M16.5637 8.79358C16.5637 8.69045 16.4794 8.60608 16.3762 8.60608L14.8294 8.61311L12.4997 11.3905L10.1723 8.61545L8.62311 8.60842C8.51998 8.60842 8.43561 8.69045 8.43561 8.79592C8.43561 8.84045 8.45201 8.88264 8.48014 8.9178L11.5294 12.5506L8.48014 16.1811C8.45182 16.2154 8.4361 16.2584 8.43561 16.303C8.43561 16.4061 8.51998 16.4905 8.62311 16.4905L10.1723 16.4834L12.4997 13.7061L14.827 16.4811L16.3739 16.4881C16.477 16.4881 16.5614 16.4061 16.5614 16.3006C16.5614 16.2561 16.545 16.2139 16.5169 16.1787L13.4723 12.5483L16.5215 8.91545C16.5497 8.88264 16.5637 8.83811 16.5637 8.79358Z" fill="#D44454"/>
<path d="M12.5 2C6.70156 2 2 6.70156 2 12.5C2 18.2984 6.70156 23 12.5 23C18.2984 23 23 18.2984 23 12.5C23 6.70156 18.2984 2 12.5 2ZM12.5 21.2188C7.68594 21.2188 3.78125 17.3141 3.78125 12.5C3.78125 7.68594 7.68594 3.78125 12.5 3.78125C17.3141 3.78125 21.2188 7.68594 21.2188 12.5C21.2188 17.3141 17.3141 21.2188 12.5 21.2188Z" fill="#D44454"/>
</svg>
