<svg width="21" height="23" viewBox="0 0 21 23" fill="none" xmlns="http://www.w3.org/2000/svg">
<path d="M6.23047 11.4765V10.2031L9.98264 12.3493L6.23047 14.4722V13.2685" fill="white"/>
<path d="M20.8738 9.29996H0.0854372L0.016409 8.46737C0.00550978 8.31681 -0.263337 4.73069 1.86564 2.26376C3.01369 0.932346 4.61587 0.190453 6.62495 0.0562231C8.44875 -0.0634956 13.624 0.0435257 14.1181 0.0544092C14.496 0.0398978 16.9628 0.0253865 18.8411 1.86833C20.3416 3.34123 21.0373 5.54877 20.9102 8.43109L20.8738 9.29996ZM1.83112 7.48604H19.1082C19.0609 5.58323 18.5487 4.13573 17.5841 3.17798C16.1763 1.78307 14.1981 1.8647 14.1781 1.86651H14.1072C14.0527 1.86651 8.54139 1.74498 6.74484 1.86651C5.24439 1.96628 4.06727 2.49594 3.24802 3.43918C2.15083 4.7053 1.88562 6.46117 1.83112 7.48604Z" fill="white"/>
<path d="M11.2679 22.9961C8.29545 22.9961 5.72365 22.8709 5.56985 22.8637C5.50367 22.8637 -0.176453 22.4524 0.0578341 16.2196L0.0900263 15.3594H20.9809L20.9988 16.2339C21.0471 18.4069 20.0492 22.5865 15.9411 22.8619C14.4602 22.9621 12.8131 22.9961 11.2679 22.9961ZM1.86775 17.1478C2.16821 20.7247 5.29442 21.052 5.67536 21.0824C5.72186 21.0824 11.5773 21.3668 15.8213 21.0824C18.3412 20.9036 18.9904 18.4945 19.1549 17.1478H1.86775Z" fill="white"/>
<path d="M6.23334 11.5071H0.240234V13.0577H6.23334V11.5071Z" fill="white"/>
<path d="M13.9477 13.1988V14.4722L10.1973 12.326L13.9477 10.2031V11.4068" fill="white"/>
<path d="M13.9488 13.1685H20.1172V11.6179H13.9488V13.1685Z" fill="white"/>
</svg>
