<svg width="18" height="18" viewBox="0 0 18 18" fill="none" xmlns="http://www.w3.org/2000/svg">
<path fill-rule="evenodd" clip-rule="evenodd" d="M1.45758 1.79086C0.936882 2.31156 0.936882 3.15578 1.45758 3.67648L14.6569 16.8758C15.1776 17.3965 16.0218 17.3965 16.5425 16.8758C17.0632 16.3551 17.0632 15.5109 16.5425 14.9902L3.3432 1.79086C2.8225 1.27016 1.97828 1.27016 1.45758 1.79086Z" fill="#0F0F21"/>
<path fill-rule="evenodd" clip-rule="evenodd" d="M16.5425 1.79086C16.0218 1.27016 15.1776 1.27016 14.6569 1.79086L1.4576 14.9902C0.936899 15.5109 0.9369 16.3551 1.4576 16.8758C1.9783 17.3965 2.82252 17.3965 3.34322 16.8758L16.5425 3.67648C17.0632 3.15578 17.0632 2.31156 16.5425 1.79086Z" fill="#0F0F21"/>
</svg>
