<svg width="32" height="32" viewBox="0 0 32 32" fill="none" xmlns="http://www.w3.org/2000/svg">
<path d="M21.4916 23.082L8.91837 10.5088C8.47864 10.0691 8.47864 9.35754 8.91837 8.91781C9.3581 8.47808 10.0696 8.47808 10.5094 8.91781L23.0826 21.4911C23.5223 21.9308 23.5223 22.6423 23.0826 23.082C22.6429 23.5218 21.9313 23.5218 21.4916 23.082Z" fill="#000033"/>
<path d="M8.9182 21.4914L21.4914 8.91813C21.9312 8.4784 22.6427 8.4784 23.0824 8.91813C23.5222 9.35786 23.5222 10.0694 23.0824 10.5091L10.5092 23.0824C10.0695 23.5221 9.35793 23.5221 8.9182 23.0824C8.47847 22.6426 8.47847 21.9311 8.9182 21.4914Z" fill="#000033"/>
</svg>
