<svg width="10" height="10" viewBox="0 0 10 10" fill="none" xmlns="http://www.w3.org/2000/svg">
<path d="M9.91936 7.85295H9.09272V2.06657C9.09272 1.40529 8.51408 0.82664 7.85279 0.82664H2.06641V0H7.85279C9.01008 0 9.91934 0.909286 9.91934 2.06656V7.85294L9.91936 7.85295Z" fill="#323232"/>
<path fill-rule="evenodd" clip-rule="evenodd" d="M1.23994 9.91957H7.02631C7.68761 9.91957 8.26625 9.34092 8.26625 8.67964V2.89326C8.26625 2.23196 7.6876 1.65332 7.02631 1.65332H1.23994C0.578636 1.65332 0 2.23197 0 2.89326V8.67964C0 9.34093 0.578653 9.91957 1.23994 9.91957ZM0.826607 2.89327C0.826607 2.6453 0.991932 2.47996 1.23994 2.47996H7.02632C7.27429 2.47996 7.43963 2.64527 7.43963 2.89327V8.67965C7.43963 8.92764 7.27432 9.09298 7.02632 9.09298H1.23994C0.991948 9.09298 0.826607 8.92765 0.826607 8.67965V2.89327Z" fill="#323232"/>
</svg>
