<svg width="14" height="16" viewBox="0 0 14 16" fill="none" xmlns="http://www.w3.org/2000/svg">
<path fill-rule="evenodd" clip-rule="evenodd" d="M9.02299 15.7154C8.70558 15.5821 8.49861 15.2667 8.49861 14.9184L8.49961 14.9174L8.49961 0.330348C8.49961 0.148258 8.64588 -2.31048e-07 8.82498 -2.23219e-07L9.87175 -1.77464e-07C10.0523 0.00218531 10.1972 0.149769 10.1961 0.330348L10.1961 12.8348L12.6339 10.3572C12.6952 10.2945 12.7791 10.2591 12.8668 10.2591C12.9544 10.2591 13.0384 10.2945 13.0996 10.3572L13.8349 11.1045C13.9639 11.236 13.9639 11.4466 13.8349 11.5781L9.94836 15.5284C9.70761 15.7749 9.34059 15.8491 9.02299 15.7154ZM5.43394 1.00298L5.43394 15.5851L5.43493 15.5871C5.43604 15.7702 5.28874 15.9198 5.10558 15.9214L4.06478 15.9214C3.88202 15.9192 3.73532 15.7698 3.73642 15.5871L3.73642 3.08657L1.29861 5.56418C1.23738 5.62691 1.15344 5.66227 1.06578 5.66227C0.978121 5.66227 0.894171 5.62691 0.832942 5.56418L0.0976188 4.81791C-0.0319769 4.68624 -0.0319769 4.47495 0.0976189 4.34328L3.98419 0.393034C4.22517 0.146879 4.59216 0.0730878 4.90956 0.206965C5.22821 0.343092 5.43465 0.656479 5.43394 1.00298Z" fill="#242424"/>
</svg>
