<svg width="48" height="48" viewBox="0 0 48 48" fill="none" xmlns="http://www.w3.org/2000/svg">
<g id="Group 2">
<path id="Oval" fill-rule="evenodd" clip-rule="evenodd" d="M48 24C48 37.2548 37.2548 48 24 48C10.7452 48 0 37.2548 0 24C0 10.7452 10.7452 0 24 0C37.2548 0 48 10.7452 48 24ZM1.92188 24.0001C1.92188 36.1945 11.8074 46.0801 24.0019 46.0801C36.1963 46.0801 46.0819 36.1945 46.0819 24.0001C46.0819 11.8056 36.1963 1.92008 24.0019 1.92008C11.8074 1.92008 1.92188 11.8056 1.92188 24.0001Z" fill="#FFC13D"/>
<g id="down">
<path id="Shape" d="M17.2797 20.0203C17.2797 20.2005 17.3397 20.3827 17.4598 20.5348L23.8574 28.4931C24.0131 28.6865 24.2477 28.7992 24.4973 28.7992C24.745 28.7992 24.9815 28.6865 25.1354 28.4931L31.4991 20.5686C31.7825 20.2155 31.7262 19.6991 31.3734 19.4156C31.0206 19.132 30.5045 19.1884 30.2211 19.5414L24.4954 26.6697L18.7379 19.5057C18.4545 19.1527 17.9384 19.0963 17.5856 19.3799C17.3848 19.5433 17.2797 19.7799 17.2797 20.0203Z" fill="#FFC13D"/>
</g>
</g>
</svg>
