<svg width="43" height="38" viewBox="0 0 43 38" fill="none" xmlns="http://www.w3.org/2000/svg">
<path d="M42.192 13.1697L31.5043 23.2624C30.3777 24.3263 28.5 23.5375 28.5 21.9674V16.6264C17.7698 16.6984 13.2431 19.2324 16.2706 29.344C16.6033 30.4553 15.3172 31.3158 14.4147 30.6302C11.5226 28.4333 8.90625 24.2313 8.90625 19.9898C8.90625 9.30695 17.6343 7.18704 28.5 7.12678V1.78191C28.5 0.210405 30.379 -0.575868 31.5043 0.486945L42.192 10.5798C42.9357 11.2821 42.9363 12.4668 42.192 13.1697ZM28.5 28.1382V33.2498H4.75V9.49977H8.52892C8.64886 9.4997 8.76754 9.47538 8.87784 9.42828C8.98813 9.38118 9.08777 9.31226 9.17077 9.22568C10.2806 8.07025 11.5634 7.15572 12.957 6.42942C13.783 5.99887 13.4769 4.74977 12.5454 4.74977H3.5625C1.59496 4.74977 0 6.34473 0 8.31227V34.4373C0 36.4048 1.59496 37.9998 3.5625 37.9998H29.6875C31.655 37.9998 33.25 36.4048 33.25 34.4373V27.8462C33.25 27.2311 32.6416 26.8022 32.0617 27.0074C31.2486 27.2949 30.3779 27.381 29.5242 27.258C28.9846 27.1804 28.5 27.593 28.5 28.1382Z" fill="#00E599"/>
</svg>
