<svg width="364" height="304" viewBox="0 0 364 304" fill="none" xmlns="http://www.w3.org/2000/svg">
<path d="M264.128 273.65L337.739 212.941L242.48 238.954L294.444 147.895L212.174 208.605L181.858 95.8563L151.552 208.605L69.2816 147.895L121.235 238.954L25.9766 212.941L99.5876 273.65L0 286.657L49.0574 304H181.858H313.617L363.726 286.657L264.128 273.65Z" fill="#0F0F21"/>
<path d="M219.56 233.983C214.537 242.227 206.644 250.486 196.597 257.325C173.188 273.256 146.939 275.464 137.955 262.254C136.714 260.455 135.883 258.405 135.522 256.25C135.161 254.094 135.279 251.885 135.866 249.78C136.173 248.544 136.581 247.336 137.085 246.167C137.204 245.885 137.33 245.595 137.464 245.312C137.895 244.39 138.386 243.461 138.95 242.525C141.574 238.064 145.527 233.492 150.469 228.906C151.696 227.776 152.974 226.676 154.311 225.508C158.592 221.92 163.057 218.558 167.688 215.435C176.814 209.236 185.821 204.203 193.959 201.162H194.003C197.673 199.726 201.499 198.727 205.403 198.189H205.552C212.983 197.304 219.047 199.118 222.748 204.567C227.832 212.113 226.226 223.018 219.56 233.983Z" fill="#FFC13D"/>
<path d="M158.101 271.294C149.042 271.294 141.633 268.41 137.612 262.507C136.343 260.659 135.493 258.556 135.122 256.344C134.751 254.133 134.868 251.867 135.465 249.706C135.773 248.434 136.188 247.191 136.706 245.989C136.825 245.706 136.951 245.409 137.085 245.119C137.531 244.175 138.029 243.224 138.571 242.302C141.128 237.968 145.029 233.381 150.172 228.579C151.413 227.427 152.713 226.282 154.029 225.167C158.31 221.57 162.775 218.198 167.405 215.064C177.066 208.5 185.902 203.698 193.676 200.783L193.81 200.739C197.51 199.303 201.366 198.305 205.299 197.765H205.455C213.533 196.814 219.463 199.029 223.075 204.344C228.128 211.778 226.984 222.669 219.939 234.236C214.655 242.911 206.674 251.029 196.849 257.712C183.673 266.663 169.553 271.294 158.101 271.294ZM194.196 201.571L194.099 201.616C186.363 204.5 177.557 209.288 167.926 215.837C163.316 218.953 158.871 222.305 154.608 225.88C153.3 226.988 152.015 228.11 150.781 229.27C145.705 233.976 141.863 238.525 139.351 242.785C138.809 243.676 138.313 244.594 137.865 245.535C137.731 245.811 137.605 246.093 137.493 246.368C136.994 247.516 136.594 248.705 136.297 249.921C135.732 251.962 135.62 254.101 135.969 256.189C136.319 258.277 137.12 260.264 138.318 262.009C147.147 274.981 173.172 272.721 196.336 256.961C205.916 250.442 214.023 242.198 219.173 233.753L219.552 233.983L219.173 233.753C226.025 222.505 227.177 211.964 222.324 204.835C218.913 199.817 213.265 197.728 205.551 198.65L205.351 198.219L205.403 198.665C201.558 199.197 197.787 200.172 194.166 201.571H194.196Z" fill="black"/>
<path d="M180.641 240.778C163.125 251.111 140.02 255.133 135.866 249.81C136.173 248.574 136.58 247.366 137.085 246.197C137.204 245.915 137.33 245.625 137.464 245.342C137.895 244.42 138.385 243.491 138.95 242.555C141.573 238.094 145.527 233.522 150.469 228.936C151.695 227.806 152.973 226.705 154.311 225.538C158.591 221.95 163.056 218.588 167.688 215.465C176.814 209.266 185.821 204.233 193.958 201.192H194.003C197.672 199.756 201.499 198.757 205.403 198.219C225.237 200.048 200.869 228.839 180.641 240.778Z" fill="#FFC13D"/>
<path d="M144.049 252.635C139.947 252.635 136.878 251.832 135.518 250.092L135.384 249.921L135.436 249.706C135.744 248.434 136.159 247.19 136.677 245.989C136.796 245.706 136.922 245.409 137.056 245.119C137.502 244.175 138 243.223 138.542 242.302C141.099 237.968 145 233.381 150.143 228.579C151.384 227.426 152.685 226.282 154 225.167C158.281 221.57 162.746 218.198 167.377 215.064C177.038 208.5 185.874 203.697 193.647 200.783L193.781 200.739C197.482 199.303 201.338 198.305 205.27 197.765C209.766 198.167 212.33 199.876 212.999 202.843C215.057 212.046 197.036 231.597 180.843 241.149C168.9 248.226 153.643 252.635 144.049 252.635ZM136.357 249.698C140.593 254.411 162.843 250.754 180.419 240.391C196.025 231.181 214.099 211.748 212.152 203.051C211.579 200.508 209.283 199.029 205.315 198.665C201.501 199.209 197.761 200.184 194.167 201.571L194.071 201.616C186.334 204.5 177.528 209.288 167.897 215.837C163.287 218.953 158.842 222.305 154.58 225.88C153.272 226.988 151.986 228.11 150.752 229.27C145.677 233.976 141.835 238.525 139.323 242.785C138.78 243.676 138.284 244.594 137.836 245.535C137.703 245.81 137.576 246.093 137.465 246.368C137.013 247.449 136.642 248.562 136.357 249.698V249.698Z" fill="black"/>
<g opacity="0.3">
<path opacity="0.3" d="M149.234 248.289C150.82 247.935 151.976 247.064 151.815 246.342C151.654 245.621 150.238 245.323 148.652 245.677C147.065 246.031 145.91 246.902 146.07 247.624C146.231 248.345 147.648 248.643 149.234 248.289Z" fill="#F76854"/>
<path opacity="0.3" d="M164.046 243.588C164.136 243.982 163.504 244.458 162.634 244.651C161.765 244.844 160.992 244.651 160.903 244.287C160.814 243.922 161.453 243.417 162.315 243.216C163.177 243.016 163.98 243.187 164.046 243.588Z" fill="#F76854"/>
<path opacity="0.3" d="M156.68 240.762C157.549 240.569 158.182 240.09 158.094 239.693C158.005 239.296 157.229 239.132 156.36 239.326C155.491 239.52 154.857 239.999 154.946 240.395C155.034 240.792 155.811 240.956 156.68 240.762Z" fill="#F76854"/>
<path opacity="0.3" d="M147.021 240.86C147.088 241.135 146.65 241.462 146.055 241.603C145.461 241.744 144.933 241.603 144.874 241.358C144.814 241.112 145.245 240.763 145.84 240.614C146.434 240.466 146.954 240.607 147.021 240.86Z" fill="#F76854"/>
<path opacity="0.3" d="M161.877 236.042C161.914 236.206 161.654 236.407 161.297 236.481C160.941 236.555 160.614 236.481 160.554 236.332C160.495 236.184 160.777 235.975 161.134 235.894C161.491 235.812 161.818 235.879 161.877 236.042Z" fill="#F76854"/>
<path opacity="0.3" d="M170.921 235.544C170.981 235.812 170.55 236.139 169.955 236.288C169.361 236.436 168.826 236.288 168.766 236.042C168.707 235.797 169.145 235.44 169.732 235.299C170.319 235.158 170.862 235.277 170.921 235.544Z" fill="#F76854"/>
</g>
<path d="M246.299 174.921C240.517 176.549 240.688 179.976 241.981 185.091C243.727 191.261 243.393 193.491 236.222 195.23C229.355 196.792 229.377 202.456 232.55 210.277C237.849 222.981 230.321 228.163 220.95 219.457C216.417 215.242 209.059 214.469 200.929 214.677C197.112 214.776 193.36 215.696 189.931 217.376C181.674 221.42 174.362 222.892 168.677 219.933C159.276 215.339 150.358 212.024 144.442 216.484C131.616 226.059 126.332 216.216 131.363 208.671C129.765 205.199 118.811 208.872 118.811 208.872C104.416 211.659 107.745 194.807 127.201 192.74C120.253 189.023 125.67 181.775 133.704 185.841C134.269 186.124 134.841 186.384 135.428 186.585C137.042 187.249 138.745 187.678 140.481 187.856C145.901 188.392 151.359 188.392 156.779 187.856C167.964 186.599 178.447 181.771 186.676 174.088C191.677 169.502 198.566 165.168 204.422 168.528C215.101 174.646 225.929 170.223 228.508 168.907C229.713 168.211 230.968 167.602 232.261 167.086C248.023 160.789 261.979 171.353 246.299 174.921Z" fill="#00E599"/>
<path d="M229.444 224.215C226.887 224.215 223.751 222.684 220.637 219.755C215.844 215.294 207.595 214.923 200.937 215.101C197.182 215.219 193.496 216.144 190.131 217.815C180.923 222.312 173.834 223.152 168.468 220.357C158.138 215.317 150.135 212.789 144.687 216.87C138.928 221.175 133.77 222.074 130.894 219.376C128.383 216.997 128.36 212.529 130.805 208.686C129.319 206.456 121.783 208.366 118.915 209.325C114.946 210.068 111.966 209.489 110.45 207.638C109.298 206.24 109.135 204.233 109.997 202.137C111.483 198.42 116.552 193.811 125.848 192.472C123.448 190.725 123.114 188.473 123.946 186.867C125.224 184.399 129.148 183.069 133.867 185.462C134.432 185.752 135.004 186.005 135.554 186.206C137.129 186.852 138.788 187.27 140.481 187.447C145.871 187.979 151.3 187.979 156.689 187.447C167.788 186.222 178.191 181.434 186.341 173.799C193.401 167.324 199.718 165.376 204.608 168.179C215.755 174.579 227.021 169.19 228.262 168.55C229.481 167.848 230.748 167.232 232.052 166.707C240.554 163.309 248.729 164.618 252.117 167.576C253.299 168.617 253.797 169.807 253.5 170.996C253.165 172.327 251.649 174.178 246.373 175.375C241.238 176.861 240.992 179.515 242.39 185.039C243.326 188.362 243.683 190.621 242.687 192.331C241.802 193.818 239.893 194.851 236.303 195.729C233.947 196.264 232.409 197.282 231.599 198.836C230.365 201.2 230.804 204.909 232.937 210.165C235.493 216.298 235.278 221.375 232.357 223.405C231.492 223.968 230.475 224.251 229.444 224.215V224.215ZM203.3 214.202C209.624 214.202 216.788 214.982 221.247 219.13C225.371 222.966 229.422 224.334 231.867 222.617C234.416 220.833 234.52 216.172 232.134 210.448C229.86 204.85 229.444 201.014 230.826 198.368C231.755 196.583 233.539 195.394 236.117 194.792C239.447 193.989 241.186 193.097 241.936 191.818C242.769 190.384 242.427 188.309 241.542 185.21C240.324 180.392 239.826 176.289 246.165 174.49C249.881 173.642 252.244 172.26 252.63 170.773C252.898 169.725 252.177 168.825 251.523 168.253C248.796 165.867 241.067 164.068 232.394 167.509C231.116 168.024 229.875 168.625 228.678 169.308C227.37 169.978 215.733 175.56 204.154 168.922C198.44 165.651 191.64 170.111 186.936 174.43C178.649 182.198 168.067 187.068 156.778 188.309C151.341 188.839 145.866 188.839 140.429 188.309C138.642 188.127 136.89 187.689 135.227 187.009C134.655 186.778 134.06 186.51 133.466 186.206C129.408 184.154 125.848 185.113 124.749 187.224C123.842 188.979 124.875 190.978 127.379 192.309L128.672 193L127.186 193.156C117.473 194.19 112.286 198.791 110.8 202.412C110.056 204.225 110.175 205.853 111.119 207.006C112.42 208.597 115.102 209.095 118.662 208.396C119.769 208.024 129.995 204.716 131.704 208.455L131.816 208.678L131.675 208.886C129.356 212.366 129.274 216.573 131.474 218.662C134.016 221.078 138.735 220.104 144.108 216.097C150.536 211.25 160.227 215.309 168.81 219.502C173.908 222.149 180.7 221.316 189.67 216.945C193.16 215.242 196.974 214.306 200.855 214.202C201.695 214.209 202.497 214.202 203.307 214.202H203.3Z" fill="black"/>
<g opacity="0.3">
<path opacity="0.3" d="M227.868 167.547C228.27 171.011 226.783 172.631 221.291 173.962C218.512 174.594 216.833 175.902 216.089 177.746C215.971 174.133 217.576 171.62 221.812 170.661C225.163 169.851 227.021 168.929 227.868 167.547Z" fill="#6B184E"/>
</g>
<g opacity="0.3">
<path opacity="0.3" d="M231.354 153.994C228.909 154.686 227.527 155.697 226.85 157.02C226.627 154.002 227.69 151.876 231.874 150.694C234.884 150.01 236.801 149.073 237.819 148.04C239.105 150.166 237.477 152.604 231.354 153.994Z" fill="#6B184E"/>
</g>
<path d="M134.492 196.256C134.351 196.251 134.213 196.218 134.086 196.16C133.958 196.101 133.844 196.018 133.749 195.914C133.654 195.813 133.581 195.693 133.534 195.563C133.487 195.432 133.466 195.294 133.473 195.155C133.48 195.017 133.514 194.881 133.574 194.756C133.635 194.631 133.719 194.519 133.823 194.428C137.605 191.008 142.391 192.458 144.398 193.684C144.522 193.751 144.631 193.843 144.718 193.953C144.805 194.064 144.869 194.191 144.906 194.327C144.942 194.463 144.95 194.605 144.929 194.744C144.909 194.884 144.86 195.017 144.786 195.137C144.712 195.257 144.614 195.36 144.499 195.441C144.383 195.522 144.252 195.578 144.114 195.606C143.977 195.634 143.834 195.634 143.696 195.605C143.559 195.576 143.428 195.52 143.313 195.439C143.12 195.32 138.765 192.733 135.213 195.951C135.021 196.143 134.762 196.252 134.492 196.256V196.256Z" fill="#00AF92"/>
<path d="M146.613 204.723C146.353 204.724 146.103 204.626 145.913 204.449C145.723 204.273 145.606 204.031 145.587 203.772C145.501 203.078 145.565 202.374 145.774 201.707C145.983 201.04 146.332 200.426 146.799 199.906C148.456 198.137 151.176 198.137 151.258 198.137C151.518 198.159 151.76 198.278 151.936 198.47C152.112 198.662 152.21 198.913 152.21 199.174C152.21 199.435 152.112 199.686 151.936 199.878C151.76 200.07 151.518 200.189 151.258 200.211V200.211C150.165 200.213 149.11 200.609 148.285 201.326C148.016 201.637 147.818 202.003 147.704 202.398C147.59 202.794 147.563 203.209 147.624 203.616C147.644 203.889 147.556 204.159 147.377 204.366C147.199 204.574 146.945 204.702 146.672 204.723H146.613Z" fill="#00AF92"/>
<path d="M202.096 202.203C201.909 202.203 201.726 202.153 201.565 202.057C201.404 201.962 201.272 201.825 201.182 201.661C199.651 198.806 194.68 199.044 194.628 199.044C194.483 199.072 194.334 199.069 194.19 199.034C194.047 199 193.912 198.935 193.796 198.844C193.68 198.753 193.584 198.639 193.516 198.508C193.447 198.377 193.408 198.233 193.4 198.086C193.392 197.938 193.415 197.791 193.469 197.653C193.523 197.516 193.605 197.392 193.711 197.289C193.817 197.186 193.943 197.107 194.082 197.057C194.221 197.007 194.369 196.987 194.516 197C194.776 197 200.855 196.68 203.01 200.716C203.14 200.957 203.169 201.239 203.091 201.501C203.013 201.763 202.834 201.983 202.594 202.114C202.438 202.183 202.267 202.214 202.096 202.203V202.203Z" fill="#00AF92"/>
<path d="M220.742 182.957C220.521 182.957 220.305 182.886 220.125 182.756C220.01 182.675 219.913 182.572 219.839 182.452C219.766 182.332 219.717 182.199 219.697 182.059C219.677 181.92 219.686 181.778 219.722 181.643C219.759 181.507 219.823 181.38 219.91 181.27C220.044 181.091 223.224 176.913 230.262 179.292C230.397 179.33 230.522 179.395 230.631 179.484C230.74 179.572 230.829 179.681 230.894 179.805C230.96 179.929 230.999 180.065 231.01 180.205C231.021 180.344 231.004 180.485 230.959 180.617C230.914 180.75 230.842 180.872 230.749 180.977C230.655 181.081 230.542 181.165 230.415 181.224C230.288 181.283 230.15 181.315 230.01 181.319C229.87 181.323 229.731 181.299 229.6 181.247C223.982 179.352 221.597 182.466 221.575 182.496C221.484 182.635 221.361 182.749 221.215 182.83C221.07 182.91 220.908 182.954 220.742 182.957V182.957Z" fill="#00AF92"/>
<g opacity="0.2">
<path opacity="0.2" d="M224.242 208.559C225.305 207.875 227.156 208.864 228.382 210.789C229.608 212.715 229.734 214.781 228.672 215.465C227.609 216.149 227.081 214.313 225.862 212.41C224.644 210.507 223.15 209.243 224.242 208.559Z" fill="#00AF92"/>
</g>
<g opacity="0.2">
<path opacity="0.2" d="M182.432 212.135C182.469 214.016 179.772 215.599 176.405 215.666C173.039 215.733 170.281 214.261 170.244 212.38C170.207 210.5 172.957 211.265 176.316 211.198C179.675 211.132 182.395 210.254 182.432 212.135Z" fill="#00AF92"/>
</g>
<g opacity="0.2">
<path opacity="0.2" d="M116.559 201.341C116.195 200.129 117.652 198.62 119.814 197.966C121.977 197.312 124.028 197.765 124.392 198.97C124.756 200.174 122.846 200.181 120.676 200.836C118.506 201.49 116.931 202.545 116.559 201.341Z" fill="#00AF92"/>
</g>
<path d="M192.799 198.65C174.414 204.694 156.444 203.422 146.241 196.42C142.64 194.101 139.917 190.644 138.505 186.6C137.628 183.872 137.414 180.974 137.88 178.147C142.042 189.885 163.891 193.268 186.995 185.678C199.495 181.574 209.803 175.077 216.053 168.097C221.411 162.098 223.774 155.742 221.961 150.255C221.334 148.384 220.277 146.686 218.877 145.297C224.034 147.988 227.75 151.868 229.362 156.767C234.267 171.643 217.888 190.398 192.799 198.65Z" fill="#C24F58"/>
<path d="M212.173 189.134C209.832 190.756 207.392 192.231 204.868 193.55C200.992 195.578 196.956 197.281 192.799 198.642C174.414 204.686 156.452 203.415 146.233 196.412C142.634 194.094 139.916 190.637 138.512 186.592C137.63 183.865 137.413 180.967 137.88 178.14C142.042 189.878 163.891 193.26 186.995 185.67C193.207 183.663 199.15 180.902 204.69 177.448C207.11 175.952 209.422 174.288 211.609 172.468V172.468C213.189 171.131 214.679 169.691 216.067 168.156V168.156C221.433 162.157 223.796 155.801 222.013 150.315C221.39 148.442 220.333 146.743 218.929 145.356C224.086 148.047 227.802 151.928 229.414 156.827C232.848 167.308 225.617 179.812 212.173 189.134Z" fill="#D44454"/>
<path d="M169.694 202.947C160.323 202.947 151.926 200.88 145.98 196.821C142.296 194.451 139.514 190.911 138.081 186.77C137.181 183.976 136.959 181.007 137.434 178.11L137.709 176.356L138.304 178.028C142.369 189.491 164.143 192.755 186.854 185.284C193.032 183.288 198.942 180.542 204.451 177.106C206.792 175.639 209.027 174.009 211.14 172.23L211.296 172.096C212.857 170.772 214.33 169.347 215.703 167.829C221.165 161.726 223.231 155.533 221.537 150.382C220.932 148.578 219.914 146.941 218.564 145.602L216.557 143.565L219.092 144.888C224.494 147.705 228.195 151.764 229.793 156.611C233.234 167.085 226.575 179.656 212.418 189.506C210.135 191.085 207.76 192.527 205.306 193.825L205.068 193.952C201.171 195.991 197.112 197.704 192.933 199.074C185.438 201.578 177.596 202.885 169.694 202.947V202.947ZM138.14 179.901C137.974 182.13 138.244 184.37 138.935 186.495C140.309 190.447 142.967 193.824 146.486 196.085C156.89 203.184 175.015 204.032 192.658 198.233C196.713 196.902 200.654 195.246 204.444 193.283L204.66 193.171C207.167 191.858 209.591 190.393 211.92 188.785V188.785C225.728 179.158 232.26 166.974 228.953 156.894C227.645 152.939 224.858 149.527 220.831 146.925C221.505 147.905 222.035 148.976 222.406 150.106C224.197 155.57 222.064 162.068 216.394 168.409C215.041 169.917 213.589 171.332 212.046 172.646L211.89 172.78C209.691 174.635 207.364 176.334 204.927 177.865C199.355 181.341 193.378 184.12 187.129 186.139C165.012 193.416 143.699 190.547 138.14 179.901V179.901Z" fill="black"/>
<path d="M216.067 168.112C209.817 175.092 199.51 181.589 187.01 185.693C163.935 193.283 142.057 189.9 137.895 178.162C138.549 173.955 140.541 169.658 143.647 165.525C150.083 156.998 161.267 149.252 175.105 144.71C191.93 139.179 208.405 139.774 218.906 145.26C220.318 146.653 221.382 148.359 222.012 150.241C223.789 155.756 221.425 162.112 216.067 168.112Z" fill="#D44454"/>
<path d="M163.378 190.168C150.328 190.168 140.169 185.983 137.457 178.326V178.177C138.111 173.903 140.051 169.628 143.209 165.413L143.313 165.302C150.046 156.381 161.587 148.746 174.971 144.345C191.269 138.986 208.183 139.209 219.122 144.925L219.233 145.007C220.683 146.445 221.778 148.201 222.429 150.136C224.22 155.608 222.087 162.105 216.424 168.446C209.899 175.739 199.235 182.191 187.174 186.161C179.501 188.737 171.471 190.089 163.378 190.168ZM138.341 178.132C142.503 189.514 164.218 192.733 186.854 185.284C198.745 181.366 209.298 175.003 215.718 167.829L216.068 168.112L215.733 167.814C221.181 161.718 223.246 155.533 221.552 150.382C220.954 148.599 219.952 146.978 218.624 145.646C207.886 140.071 191.269 139.885 175.231 145.163C162.063 149.49 150.707 156.968 144.086 165.703L143.982 165.807C140.89 169.94 138.995 174.074 138.341 178.132Z" fill="black"/>
<path d="M211.862 182.578C211.683 186.235 211.267 190.22 210.695 194.353C210.212 200.345 203.865 200.858 204.304 194.242C204.192 190.183 204.489 186.064 204.594 182.451C204.809 175.345 204.296 170.029 198.596 170.245C188.668 171.04 180.181 181.983 176.941 175.813C176.537 175.011 176.354 174.115 176.413 173.218C176.413 173.152 176.413 173.077 176.413 173.01C177.104 164.736 171.36 165.242 162.769 172.007C156.081 177.493 151.057 178.177 148.835 169.777C148.151 167.584 147.794 165.584 147.126 164.573C146.598 163.77 145.87 163.599 144.621 164.469L141.686 167.933C138.624 163.473 143.276 156.611 148.567 156.611C150.864 156.611 153.271 157.897 155.256 161.228C157.574 164.945 160.361 166.06 165.875 163.584C169.186 162.044 172.165 159.873 174.644 157.191C184.959 146.256 198.752 147.75 189.084 163.027C188.556 163.941 188.475 164.632 188.75 165.123C189.738 166.87 195.304 166.045 201.383 163.636C210.175 160.573 212.501 169.494 211.862 182.578Z" fill="#F76854"/>
<path d="M207.076 199.475H206.867C205.203 199.349 203.627 197.676 203.858 194.219C203.776 191.372 203.902 188.51 204.021 185.745C204.066 184.615 204.118 183.515 204.148 182.444C204.296 177.382 204.029 173.65 202.238 171.866C201.751 171.427 201.177 171.096 200.553 170.895C199.929 170.694 199.27 170.627 198.618 170.699C194.405 171.033 190.444 173.256 186.966 175.211C183.689 177.047 180.85 178.631 178.732 178.006C178.249 177.846 177.805 177.588 177.428 177.248C177.051 176.907 176.748 176.492 176.539 176.029C176.095 175.159 175.887 174.187 175.937 173.211V173.077C176.183 170.141 175.655 168.349 174.384 167.666C172.333 166.55 168.29 168.231 163.021 172.386C158.786 175.865 155.501 177.173 152.967 176.348C150.841 175.672 149.348 173.568 148.381 169.94C148.158 169.234 147.965 168.535 147.787 167.881C147.567 166.848 147.212 165.848 146.732 164.908C146.673 164.793 146.591 164.691 146.491 164.61C146.391 164.528 146.276 164.467 146.152 164.432C145.694 164.433 145.252 164.597 144.903 164.893L141.619 168.751L141.292 168.268C139.924 166.275 139.895 163.607 141.203 161.109C142.733 158.202 145.661 156.247 148.545 156.247C150.462 156.247 153.242 157.087 155.59 161.079C157.604 164.305 159.982 165.792 165.637 163.257C168.898 161.744 171.829 159.604 174.265 156.961C180.062 150.82 187.642 148.04 191.128 150.746C193.795 152.82 193.164 157.436 189.411 163.346C189.128 163.837 188.831 164.536 189.091 164.982C189.79 166.231 194.509 165.941 201.197 163.302C204.036 162.313 206.399 162.484 208.153 163.815C211.423 166.253 212.768 172.416 212.27 182.652C212.099 186.116 211.72 189.975 211.103 194.465C210.866 197.743 208.889 199.475 207.076 199.475ZM198.901 169.784C199.622 169.744 200.344 169.851 201.022 170.099C201.701 170.347 202.322 170.73 202.847 171.226C204.876 173.241 205.181 177.017 205.017 182.466C205.017 183.537 204.943 184.637 204.891 185.774C204.779 188.525 204.653 191.38 204.735 194.227C204.527 197.312 205.782 198.486 206.912 198.568C208.398 198.665 210.004 197.119 210.227 194.316C210.843 189.856 211.222 185.983 211.386 182.556C211.869 172.78 210.606 166.699 207.633 164.476C206.102 163.339 204.051 163.205 201.524 164.097C195.869 166.327 189.574 167.591 188.326 165.376C187.954 164.714 188.066 163.889 188.66 162.834C192.146 157.318 192.852 153.169 190.592 151.4C187.835 149.259 180.894 151.214 174.927 157.526C172.412 160.258 169.381 162.467 166.009 164.023C160.673 166.417 157.44 165.681 154.825 161.495C153.13 158.611 150.96 157.087 148.545 157.087C146.003 157.087 143.343 158.856 141.998 161.481C141.483 162.336 141.189 163.307 141.141 164.304C141.093 165.302 141.293 166.296 141.723 167.197L144.339 164.134C144.61 163.902 144.926 163.726 145.267 163.617C145.608 163.509 145.967 163.47 146.323 163.503C146.564 163.555 146.792 163.659 146.991 163.806C147.189 163.954 147.354 164.142 147.475 164.357C148.02 165.384 148.418 166.483 148.656 167.621C148.827 168.268 149.02 168.959 149.243 169.665C150.113 172.958 151.473 174.869 153.242 175.479C155.471 176.185 158.444 174.943 162.457 171.658C166.403 168.558 171.739 165.205 174.808 166.855C176.421 167.725 177.104 169.829 176.837 173.055V173.241C176.785 174.059 176.949 174.877 177.312 175.612C177.469 175.966 177.697 176.284 177.983 176.547C178.268 176.809 178.604 177.01 178.97 177.136C180.738 177.649 183.428 176.162 186.505 174.423C190.072 172.416 194.115 170.148 198.537 169.792L198.901 169.784Z" fill="black"/>
<g opacity="0.2">
<path opacity="0.2" d="M159.194 181.084C158.555 182.756 155.091 182.987 151.443 181.604C147.794 180.221 145.356 177.746 145.988 176.073C146.619 174.4 149.302 176.252 152.944 177.634C156.585 179.017 159.825 179.411 159.194 181.084Z" fill="white"/>
</g>
<path d="M232.566 149.229L232.499 153.437C219.366 153.668 206.291 155.237 193.476 158.12L192.807 153.66C207.893 150.166 223.202 148.345 232.566 149.229Z" fill="#F9D97C"/>
<path d="M232.566 149.229L232.499 153.437C219.366 153.668 206.291 155.237 193.476 158.12L192.807 153.66C207.893 150.166 223.202 148.345 232.566 149.229Z" fill="#FFC13D"/>
<path d="M193.104 158.663L192.286 153.326L192.687 153.229C208.554 149.586 223.461 147.921 232.595 148.769L233.003 148.813L232.922 153.868H232.491C219.388 154.1 206.343 155.664 193.557 158.537L193.104 158.663ZM193.312 154.01L193.847 157.578C206.399 154.791 219.197 153.257 232.052 152.998L232.112 149.638C223.12 148.88 208.695 150.501 193.312 154.01V154.01Z" fill="black"/>
<path d="M184.216 155.831L184.134 160.492C176.4 162.669 168.814 165.343 161.424 168.498L140.118 136.235L140.266 127.991L163.096 163.146C169.946 160.191 177.006 157.746 184.216 155.831V155.831Z" fill="#F9D97C"/>
<path d="M184.216 155.831L184.134 160.492C176.4 162.669 168.814 165.343 161.424 168.498L140.118 136.235L140.266 127.991L163.096 163.146C169.946 160.191 177.006 157.746 184.216 155.831V155.831Z" fill="#FFC13D"/>
<path d="M161.252 169.055L139.701 136.346L139.872 126.496L163.303 162.58C170.059 159.684 177.012 157.274 184.111 155.37L184.691 155.206L184.594 160.796L184.275 160.893C176.559 163.065 168.99 165.732 161.616 168.877L161.252 169.055ZM140.57 136.101L161.594 167.94C168.791 164.884 176.173 162.282 183.695 160.15L183.755 156.433C176.778 158.316 169.943 160.694 163.303 163.547L162.954 163.703L140.711 129.455L140.57 136.101Z" fill="black"/>
<path d="M172.571 133.492C172.211 133.282 171.839 133.096 171.456 132.934C171.84 133.095 172.212 133.281 172.571 133.492V133.492ZM171.084 132.786C170.788 132.665 170.486 132.561 170.178 132.473C170.497 132.57 170.802 132.674 171.092 132.786H171.084ZM231.562 147.862L230.96 147.066C228.79 144.187 226.519 141.461 224.145 138.889C221.816 139.41 219.383 139.213 217.167 138.324C213.719 137.06 211.222 134.763 210.687 132.607C210.526 132 210.549 131.358 210.754 130.764C211.005 130.194 211.39 129.693 211.877 129.304C212.363 128.916 212.937 128.651 213.548 128.533L213.236 128.258C204.735 120.855 193.936 116.621 182.67 116.275C180.679 116.208 178.694 116.208 176.725 116.275C175.87 116.275 175.016 116.334 174.176 116.386H173.871C173.604 116.386 173.336 116.386 173.076 116.431H172.89L171.976 116.498L171.56 116.535L170.691 116.617L170.341 116.654L169.338 116.758H169.279L168.119 116.899C167.376 116.989 166.7 117.093 165.986 117.204L165.726 117.249C165.295 117.316 164.857 117.39 164.426 117.472L163.415 117.658L162.672 117.814C162.39 117.873 162.115 117.925 161.84 117.992H161.75C161.446 118.052 161.148 118.119 160.851 118.193C160.554 118.267 160.361 118.304 160.108 118.371L159.796 118.446L159.053 118.646C157.893 118.959 156.749 119.301 155.627 119.672L154.557 120.037C154.267 120.141 153.977 120.237 153.695 120.349L153.345 120.475L152.677 120.735L152.327 120.877L151.584 121.181L151.19 121.352C150.945 121.449 150.707 121.553 150.447 121.665L150.217 121.769L149.474 122.133C148.775 122.46 148.084 122.809 147.408 123.174C147.043 123.367 146.664 123.568 146.323 123.776C145.981 123.984 145.721 124.125 145.423 124.311L144.807 124.683L144.561 124.839L143.892 125.277C143.64 125.441 143.392 125.612 143.149 125.79C142.912 125.954 142.674 126.117 142.443 126.288L142.087 126.556L141.752 126.809L141.15 127.27C140.875 127.493 140.593 127.716 140.325 127.946L161.758 160.945L163.155 163.101C170.007 160.149 177.066 157.704 184.275 155.786C183.432 155.553 182.633 155.181 181.912 154.686C181.787 154.6 181.668 154.506 181.555 154.403V154.403C181.439 154.31 181.327 154.211 181.221 154.106C180.8 153.732 180.461 153.275 180.227 152.763C179.993 152.251 179.868 151.696 179.861 151.132C179.906 148.419 183.049 146.271 186.869 146.338C190.518 146.397 193.476 148.456 193.699 150.991C193.702 151.053 193.702 151.115 193.699 151.177C193.702 151.239 193.702 151.301 193.699 151.363C193.677 152.145 193.417 152.902 192.955 153.534L192.874 153.645C207.982 150.174 223.269 148.322 232.632 149.185L231.562 147.862ZM162.56 136.785L162.003 136.688C161.863 136.668 161.724 136.641 161.587 136.607C161.349 136.562 161.119 136.503 160.888 136.443L160.517 136.346L160.368 136.302L159.952 136.168L159.484 135.997L158.993 135.796L158.637 135.625C158.381 135.51 158.132 135.379 157.893 135.231L157.7 135.112C157.609 135.06 157.522 135 157.44 134.934C157.347 134.873 157.257 134.806 157.173 134.733C157.173 134.733 157.173 134.733 157.173 134.733C157.072 134.659 156.978 134.577 156.89 134.488C158.377 132.867 161.684 131.767 165.563 131.834C165.815 131.834 166.068 131.834 166.306 131.834H166.648H166.975L167.436 131.886H167.755H167.963L168.312 131.946L168.729 132.02C168.87 132.02 169.011 132.072 169.152 132.109L169.509 132.198C169.747 132.25 169.977 132.317 170.207 132.384C170.438 132.451 170.824 132.585 171.114 132.696C171.134 132.692 171.154 132.692 171.174 132.696L171.478 132.823C171.862 132.983 172.235 133.169 172.593 133.38L172.838 133.536C172.995 133.635 173.146 133.742 173.292 133.856L173.507 134.02L173.7 134.191C172.214 135.826 168.9 136.926 165.028 136.859C164.82 136.859 164.612 136.859 164.403 136.859H164.307C163.683 136.904 163.088 136.845 162.56 136.785Z" fill="#FFC13D"/>
<path d="M162.925 163.711L139.671 127.902L139.976 127.649C140.251 127.418 140.534 127.18 140.816 126.957L141.425 126.489L141.76 126.236L142.124 125.969C142.354 125.798 142.599 125.627 142.867 125.463C143.135 125.3 143.365 125.114 143.61 124.95C143.855 124.787 144.056 124.653 144.294 124.504L144.539 124.341L145.156 123.962L146.07 123.426C146.427 123.218 146.813 123.017 147.155 122.824C147.839 122.452 148.537 122.081 149.243 121.769L150.031 121.404L150.269 121.293C150.499 121.189 150.752 121.077 151.012 120.981L151.406 120.81L152.149 120.505L152.513 120.356L152.944 120.185L153.167 120.103C153.286 120.051 153.405 120.014 153.531 119.97L154.386 119.687L155.463 119.315C156.563 118.951 157.73 118.572 158.919 118.289L159.164 118.223L159.699 118.089L159.989 118.014L160.732 117.829L161.646 117.62H161.758L162.568 117.449L163.311 117.293L164.322 117.1L165.637 116.877L165.897 116.832C166.64 116.721 167.317 116.617 168.045 116.528L169.204 116.386L170.282 116.275L170.639 116.238L171.501 116.156L171.917 116.119L172.838 116.052L173.054 116.483L173.017 116.037L173.827 115.985H174.131C174.971 115.933 175.833 115.896 176.688 115.866C178.657 115.814 180.664 115.814 182.633 115.866C194.002 116.22 204.9 120.493 213.481 127.961C213.585 128.043 213.689 128.139 213.793 128.236L214.395 128.779L213.615 129.002C213.077 129.106 212.571 129.337 212.138 129.674C211.706 130.011 211.359 130.445 211.126 130.942C210.948 131.45 210.929 132 211.074 132.518C211.586 134.577 214.046 136.755 217.264 137.922C219.387 138.774 221.717 138.969 223.952 138.48L224.212 138.406L224.406 138.606C226.813 141.253 229.11 144.018 231.243 146.843C231.48 147.155 231.666 147.401 231.845 147.646C232.186 148.099 232.521 148.56 232.848 149.021L233.428 149.824L232.447 149.735C223.417 148.873 208.606 150.53 192.822 154.195L191.566 154.485L192.443 153.385C192.856 152.829 193.089 152.159 193.112 151.467V151.318C193.112 151.251 193.112 151.207 193.112 151.17C192.903 148.82 190.094 146.955 186.713 146.895C185.065 146.828 183.436 147.274 182.053 148.174C181.511 148.494 181.055 148.942 180.725 149.478C180.395 150.014 180.2 150.623 180.158 151.251C180.164 151.755 180.277 152.252 180.488 152.709C180.699 153.167 181.005 153.574 181.385 153.905C181.445 153.971 181.51 154.033 181.578 154.091V154.091L181.704 154.203L181.741 154.24L182.009 154.44C182.689 154.909 183.443 155.261 184.238 155.481L185.806 155.912L184.238 156.344C177.095 158.234 170.098 160.642 163.304 163.547L162.925 163.711ZM140.853 128.08L163.304 162.581C169.639 159.87 176.152 157.595 182.797 155.771C182.39 155.577 182 155.351 181.63 155.095L181.37 154.901H181.258L181.169 154.73C181.065 154.649 180.968 154.559 180.864 154.463C180.4 154.042 180.028 153.53 179.772 152.958C179.516 152.386 179.382 151.767 179.378 151.14C179.419 150.368 179.649 149.619 180.046 148.957C180.444 148.294 180.998 147.74 181.66 147.341C183.197 146.322 185.019 145.82 186.862 145.906C190.696 145.973 193.892 148.203 194.13 150.976C194.138 151.05 194.138 151.125 194.13 151.199C194.134 151.261 194.134 151.323 194.13 151.385C194.113 151.941 193.99 152.489 193.766 152.998C208.695 149.631 222.674 148.055 231.666 148.702L231.243 148.129L230.7 147.386C228.59 144.591 226.36 141.912 224.012 139.35C221.669 139.801 219.246 139.577 217.026 138.703C213.511 137.409 210.858 135.045 210.271 132.667C210.085 131.973 210.113 131.24 210.353 130.563C210.562 130.049 210.878 129.584 211.278 129.2C211.679 128.816 212.156 128.52 212.679 128.333C204.289 121.153 193.699 117.053 182.663 116.714C180.686 116.654 178.702 116.654 176.718 116.714C175.87 116.714 175.023 116.773 174.183 116.825C174.087 116.825 173.99 116.825 173.901 116.825L173.091 116.87H172.905L171.999 116.937H171.59L170.772 117.011L170.386 117.055L169.375 117.16L168.164 117.308C167.421 117.397 166.745 117.502 166.046 117.606L165.778 117.65L164.493 117.873L163.482 118.066L162.739 118.215L161.907 118.394L160.918 118.617L159.12 119.07C157.946 119.382 156.801 119.724 155.716 120.081L154.653 120.445L153.799 120.75L152.796 121.137L152.454 121.27L151.711 121.575L151.309 121.754L150.603 122.058L150.41 122.148L149.607 122.519C148.916 122.846 148.233 123.196 147.556 123.553C147.2 123.746 146.813 123.939 146.494 124.147C146.174 124.356 145.892 124.497 145.594 124.675L144.985 125.047C144.911 125.099 144.836 125.136 144.769 125.188C144.517 125.344 144.301 125.486 144.086 125.634C143.87 125.783 143.58 125.969 143.343 126.14C143.105 126.311 142.867 126.474 142.644 126.638L142.302 126.891L141.96 127.151C141.752 127.299 141.559 127.455 141.366 127.604L140.853 128.08ZM165.333 137.417H164.998C164.738 137.417 164.545 137.417 164.344 137.417H164.218C163.628 137.388 163.04 137.328 162.457 137.238L161.877 137.142L161.453 137.053C161.215 137.001 160.97 136.949 160.71 136.882L160.45 136.815L160.331 136.778V136.309L160.205 136.733C160.056 136.733 159.915 136.644 159.774 136.599L159.358 136.45C159.083 136.346 158.912 136.272 158.756 136.205L158.377 136.027C158.122 135.904 157.874 135.767 157.633 135.618L157.418 135.477C157.342 135.436 157.27 135.389 157.202 135.335L157.091 135.254L156.861 135.083H156.816L156.526 134.83L156.214 134.533L156.504 134.205C158.087 132.436 161.706 131.366 165.518 131.395H166.187L167.436 131.5L167.785 131.544L169.598 131.894L170.341 132.087C170.676 132.183 170.995 132.295 171.293 132.414L171.664 132.563C172.062 132.734 172.45 132.93 172.823 133.15V133.15L173.069 133.306C173.255 133.425 173.418 133.536 173.574 133.655C173.73 133.774 173.745 133.789 173.797 133.841L173.998 134.012L174.332 134.317L174.035 134.644C172.474 136.324 169.093 137.417 165.333 137.417ZM162.561 136.317C163.14 136.398 163.72 136.458 164.277 136.488C164.835 136.517 164.976 136.525 165.266 136.525C168.565 136.525 171.478 135.685 172.987 134.295C172.816 134.161 172.682 134.079 172.549 133.99L172.311 133.841L172.147 133.745C171.902 133.611 171.642 133.484 171.352 133.351H171.315L171.025 133.232C170.713 133.113 170.438 133.016 170.156 132.934H170.089L169.42 132.748L166.261 132.28C165.957 132.28 165.749 132.28 165.518 132.28C162.115 132.228 159.068 133.068 157.515 134.466L157.633 134.555L157.47 134.986L157.73 134.622L157.923 134.748C157.982 134.793 158.044 134.832 158.109 134.867C158.333 135.005 158.564 135.132 158.8 135.246L159.142 135.41L159.61 135.603L160.056 135.767L160.472 135.9L160.74 135.975L160.978 136.034C161.215 136.101 161.438 136.153 161.669 136.198L162.011 136.272L162.613 136.376L162.561 136.317Z" fill="black"/>
<path d="M193.639 151.392C193.625 152.174 193.365 152.931 192.896 153.556C191.482 152.482 189.751 151.912 187.976 151.935C185.13 151.883 182.7 153.058 181.86 154.723C181.248 154.345 180.739 153.821 180.378 153.199C180.018 152.576 179.817 151.874 179.794 151.155C179.839 148.441 182.982 146.293 186.81 146.352C190.637 146.412 193.691 148.679 193.639 151.392Z" fill="#F9D97C"/>
<path d="M193.639 151.392C193.625 152.174 193.365 152.931 192.896 153.556C191.482 152.482 189.751 151.912 187.976 151.935C185.13 151.883 182.7 153.058 181.86 154.723C181.248 154.345 180.739 153.821 180.378 153.199C180.018 152.576 179.817 151.874 179.794 151.155C179.839 148.441 182.982 146.293 186.81 146.352C190.637 146.412 193.691 148.679 193.639 151.392Z" fill="#FFC13D"/>
<path d="M182.016 155.37L181.592 155.072C180.925 154.649 180.372 154.067 179.983 153.378C179.594 152.69 179.381 151.916 179.363 151.125C179.407 148.211 182.662 145.921 186.653 145.921H186.831C188.665 145.924 190.454 146.487 191.959 147.535C192.607 147.957 193.141 148.532 193.517 149.208C193.892 149.884 194.097 150.642 194.114 151.415C194.09 152.291 193.794 153.138 193.267 153.838L192.985 154.225L192.621 153.92C191.287 152.911 189.655 152.374 187.983 152.396H187.827C185.308 152.396 183.041 153.43 182.283 154.939L182.016 155.37ZM186.631 146.784C183.131 146.784 180.277 148.717 180.232 151.14C180.244 151.704 180.383 152.259 180.641 152.761C180.898 153.264 181.267 153.701 181.719 154.039C182.833 152.433 185.278 151.363 187.968 151.467C189.67 151.463 191.336 151.956 192.762 152.887C193.026 152.422 193.172 151.898 193.185 151.363V151.363C193.167 150.733 192.995 150.117 192.684 149.569C192.373 149.021 191.933 148.557 191.402 148.218C190.047 147.279 188.436 146.778 186.787 146.784H186.631Z" fill="black"/>
<path d="M174.451 132.511C174.43 133.179 174.166 133.816 173.708 134.302C172.132 132.853 169.07 131.834 165.533 131.767C161.661 131.708 158.309 132.808 156.86 134.429C156.525 134.158 156.251 133.819 156.056 133.435C155.862 133.05 155.751 132.629 155.731 132.198C155.775 129.649 160.011 127.649 165.191 127.738C170.371 127.827 174.495 129.953 174.451 132.511Z" fill="#FFC13D"/>
<path d="M156.861 135.068L156.526 134.763C156.141 134.448 155.828 134.054 155.609 133.608C155.39 133.162 155.269 132.673 155.255 132.176C155.255 130.764 156.37 129.478 158.317 128.556C160.481 127.637 162.819 127.201 165.169 127.277C170.676 127.374 174.949 129.671 174.897 132.481C174.87 133.26 174.555 134.002 174.013 134.562L173.708 134.904L173.373 134.592C171.82 133.165 168.803 132.236 165.496 132.183C161.78 132.117 158.585 133.105 157.165 134.696L156.861 135.068ZM164.827 128.169C162.722 128.118 160.631 128.521 158.696 129.351C157.076 130.095 156.169 131.12 156.155 132.169C156.168 132.77 156.41 133.344 156.831 133.774C158.548 132.198 161.929 131.217 165.511 131.299C168.788 131.358 171.828 132.243 173.611 133.641C173.851 133.3 173.988 132.897 174.005 132.481C174.042 130.213 169.992 128.236 165.154 128.154L164.827 128.169Z" fill="black"/>
<g opacity="0.3">
<path opacity="0.3" d="M190.146 132.63C190.162 131.69 188.412 130.898 186.237 130.861C184.062 130.824 182.286 131.556 182.27 132.496C182.254 133.436 184.004 134.228 186.179 134.265C188.354 134.302 190.13 133.57 190.146 132.63Z" fill="#F76854"/>
</g>
<g opacity="0.3">
<path opacity="0.3" d="M173.819 148.624C173.835 147.684 172.085 146.892 169.91 146.855C167.735 146.818 165.958 147.55 165.942 148.49C165.926 149.43 167.676 150.222 169.851 150.259C172.026 150.296 173.802 149.564 173.819 148.624Z" fill="#F76854"/>
</g>
<g opacity="0.3">
<path opacity="0.3" d="M196.411 129.965C196.421 129.399 195.371 128.921 194.066 128.899C192.761 128.877 191.695 129.318 191.685 129.884C191.676 130.451 192.726 130.928 194.031 130.95C195.336 130.973 196.402 130.532 196.411 129.965Z" fill="#F76854"/>
</g>
<g opacity="0.3">
<path opacity="0.3" d="M215.159 143.567C215.169 143 214.119 142.523 212.814 142.501C211.509 142.478 210.443 142.919 210.433 143.486C210.424 144.052 211.474 144.53 212.779 144.552C214.084 144.574 215.149 144.133 215.159 143.567Z" fill="#F76854"/>
</g>
<g opacity="0.3">
<path opacity="0.3" d="M194.925 135.083C194.925 135.387 194.316 135.618 193.573 135.603C192.829 135.588 192.235 135.335 192.242 135.038C192.25 134.741 192.852 134.51 193.587 134.525C194.323 134.54 194.925 134.785 194.925 135.083Z" fill="#F76854"/>
</g>
<g opacity="0.3">
<path opacity="0.3" d="M220.124 144.68C220.124 144.985 219.515 145.215 218.779 145.2C218.044 145.185 217.442 144.933 217.442 144.635C217.442 144.338 218.051 144.107 218.794 144.115C219.537 144.122 220.132 144.382 220.124 144.68Z" fill="#F76854"/>
</g>
<g opacity="0.3">
<path opacity="0.3" d="M176.8 144.561C176.8 144.903 176.057 145.17 175.247 145.156C174.437 145.141 173.708 144.851 173.716 144.509C173.723 144.167 174.414 143.899 175.269 143.914C176.124 143.929 176.807 144.219 176.8 144.561Z" fill="#F76854"/>
</g>
<g opacity="0.3">
<path opacity="0.3" d="M163.519 145.416C163.519 145.713 162.91 145.943 162.166 145.936C161.423 145.929 160.836 145.668 160.836 145.371C160.836 145.074 161.446 144.836 162.189 144.851C162.932 144.866 163.526 145.118 163.519 145.416Z" fill="#F76854"/>
</g>
<path d="M163.921 112.03C162.747 117.762 155.783 125.768 145.766 132.198C135.748 138.629 125.574 141.647 119.882 140.331C118.343 140.067 116.972 139.204 116.069 137.93C115.657 137.274 115.402 136.53 115.326 135.759C114.724 130.035 122.171 120.646 133.623 113.286C143.588 106.886 153.688 103.875 159.41 105.109C160.19 105.233 160.937 105.511 161.608 105.927C162.279 106.344 162.861 106.889 163.319 107.533C163.713 108.205 163.969 108.949 164.072 109.721C164.176 110.493 164.124 111.278 163.921 112.03Z" fill="#F76854"/>
<path d="M122.876 141.089C121.837 141.1 120.8 140.993 119.785 140.77C118.963 140.63 118.179 140.327 117.476 139.881C116.772 139.434 116.165 138.852 115.69 138.168C115.239 137.454 114.961 136.644 114.88 135.804C114.248 129.857 122.029 120.193 133.377 112.907C143.224 106.589 153.494 103.377 159.506 104.73C160.344 104.865 161.146 105.167 161.865 105.616C162.585 106.065 163.208 106.654 163.697 107.347C164.12 108.064 164.396 108.857 164.509 109.682C164.623 110.506 164.572 111.345 164.359 112.149C163.118 118.215 155.917 126.274 146.01 132.607C137.635 137.96 128.992 141.089 122.876 141.089ZM156.615 105.303C150.67 105.303 142.027 108.44 133.897 113.666C122.817 120.787 115.214 130.02 115.809 135.715C115.876 136.415 116.107 137.091 116.485 137.685C116.897 138.273 117.421 138.773 118.029 139.156C118.636 139.539 119.314 139.797 120.022 139.915C125.73 141.238 135.993 137.997 145.564 131.849C155.136 125.701 162.337 117.725 163.519 111.963C163.744 111.269 163.81 110.533 163.712 109.81C163.615 109.086 163.357 108.394 162.957 107.783C162.557 107.173 162.025 106.66 161.401 106.282C160.777 105.904 160.076 105.671 159.35 105.6C158.452 105.4 157.535 105.301 156.615 105.303Z" fill="black"/>
<path d="M168.23 119.338C168.141 119.702 168.022 120.081 167.889 120.453C165.919 126.021 159.32 133.195 150.179 139.075C146.486 141.469 142.556 143.477 138.452 145.067C133.25 147.052 128.509 147.869 125.12 147.356C119.049 147.044 114.85 140.25 115.326 135.953C115.322 135.888 115.322 135.824 115.326 135.759C115.322 135.826 115.322 135.893 115.326 135.96C115.427 136.663 115.68 137.336 116.069 137.93C116.971 139.204 118.342 140.068 119.881 140.331C122.549 140.948 126.205 140.621 130.359 139.424C135.812 137.767 140.998 135.334 145.758 132.199C154.051 126.869 160.256 120.468 162.805 115.175C163.301 114.176 163.673 113.12 163.913 112.03C164.111 111.284 164.16 110.506 164.056 109.74C163.953 108.975 163.7 108.237 163.311 107.57C162.853 106.927 162.271 106.381 161.6 105.965C160.929 105.549 160.182 105.271 159.402 105.147C165.667 105.942 170.95 112.253 168.23 119.338Z" fill="#F76854"/>
<path d="M127.223 147.936C126.492 147.939 125.762 147.887 125.038 147.78C123.633 147.665 122.266 147.263 121.022 146.598C119.778 145.933 118.684 145.019 117.808 143.914C115.742 141.491 114.59 138.346 114.835 135.885C114.83 135.814 114.83 135.742 114.835 135.67L115.363 132.406L115.719 135.692C115.717 135.742 115.717 135.791 115.719 135.841C115.797 136.492 116.021 137.117 116.373 137.67C116.785 138.258 117.31 138.759 117.917 139.141C118.525 139.524 119.202 139.782 119.911 139.9C122.482 140.495 126.034 140.19 130.159 139H130.226C135.615 137.352 140.742 134.944 145.453 131.849C153.405 126.734 159.714 120.438 162.337 114.996C162.814 114.032 163.173 113.014 163.407 111.963C163.632 111.269 163.698 110.533 163.601 109.809C163.503 109.086 163.245 108.394 162.845 107.783C162.445 107.173 161.914 106.66 161.29 106.282C160.665 105.904 159.964 105.671 159.238 105.6L159.394 104.715C161.13 104.943 162.793 105.56 164.258 106.518C165.723 107.477 166.954 108.754 167.859 110.253C168.688 111.631 169.187 113.183 169.316 114.786C169.445 116.39 169.2 118.001 168.602 119.494C168.505 119.858 168.386 120.237 168.253 120.624C166.172 126.496 159.335 133.715 150.365 139.469C146.669 141.862 142.74 143.875 138.638 145.475L138.564 145.55H138.452C134.875 146.986 131.076 147.793 127.223 147.936V147.936ZM115.972 138.569C116.441 140.332 117.302 141.966 118.491 143.349C119.294 144.366 120.297 145.207 121.439 145.818C122.581 146.429 123.837 146.799 125.128 146.903C128.464 147.408 133.116 146.605 138.274 144.672H138.363C142.413 143.09 146.29 141.098 149.934 138.725C158.733 133.075 165.451 126.028 167.465 120.334C167.595 119.984 167.704 119.626 167.792 119.263V119.204C168.349 117.836 168.582 116.357 168.471 114.884C168.36 113.411 167.909 111.983 167.153 110.714C166.245 109.23 164.993 107.986 163.504 107.087L163.682 107.347C164.105 108.064 164.381 108.857 164.494 109.682C164.608 110.506 164.557 111.345 164.344 112.149C164.099 113.274 163.717 114.365 163.207 115.398C160.516 120.973 154.081 127.411 145.995 132.607C141.195 135.764 135.967 138.215 130.471 139.885H130.411C126.161 141.089 122.475 141.372 119.769 140.777C118.288 140.498 116.948 139.718 115.972 138.569V138.569Z" fill="black"/>
<g opacity="0.3">
<path opacity="0.3" d="M137.754 122.765L126.131 127.225C125.236 127.567 124.491 128.215 124.028 129.054C121.055 134.443 124.942 136.034 133.607 133.589C134.104 133.448 134.562 133.194 134.944 132.845C135.326 132.497 135.621 132.064 135.807 131.581C136.602 129.559 137.992 125.991 138.824 123.88C138.885 123.728 138.901 123.563 138.87 123.402C138.839 123.242 138.762 123.094 138.649 122.976C138.536 122.858 138.392 122.776 138.233 122.738C138.074 122.701 137.907 122.71 137.754 122.765Z" fill="#BE184E"/>
</g>
<g opacity="0.3">
<path opacity="0.3" d="M142.213 119.977L153.643 116.349C154.522 116.065 155.273 115.477 155.761 114.692C158.897 109.666 155.263 107.927 146.791 109.808C146.306 109.914 145.852 110.13 145.466 110.441C145.079 110.752 144.769 111.148 144.561 111.599C143.684 113.502 142.146 116.862 141.239 118.855C141.171 118.997 141.146 119.156 141.167 119.313C141.189 119.469 141.255 119.616 141.358 119.735C141.462 119.854 141.598 119.941 141.75 119.984C141.901 120.027 142.062 120.024 142.213 119.977V119.977Z" fill="#BE184E"/>
</g>
<g opacity="0.3">
<path opacity="0.3" d="M141.901 122.111L151.123 120.579C151.255 120.556 151.391 120.574 151.513 120.63C151.635 120.686 151.737 120.778 151.805 120.893C151.874 121.008 151.906 121.142 151.897 121.275C151.888 121.409 151.838 121.537 151.755 121.642C149.384 124.675 145.706 127.314 141.722 129.403C141.49 129.526 141.228 129.578 140.966 129.555C140.705 129.532 140.456 129.433 140.249 129.271C140.042 129.109 139.887 128.891 139.802 128.643C139.716 128.394 139.704 128.127 139.768 127.872L140.979 123.01C141.02 122.783 141.131 122.574 141.296 122.413C141.461 122.251 141.673 122.146 141.901 122.111V122.111Z" fill="#BE184E"/>
</g>
<g opacity="0.3">
<path opacity="0.3" d="M127.692 122.571C130.98 118.654 135.135 115.556 139.827 113.524C139.948 113.475 140.08 113.463 140.208 113.488C140.335 113.514 140.452 113.577 140.544 113.669C140.637 113.761 140.699 113.878 140.725 114.006C140.751 114.134 140.738 114.266 140.689 114.387L139.337 119.39C139.285 119.566 139.19 119.726 139.06 119.856C138.93 119.986 138.77 120.081 138.594 120.133L128.427 123.59C128.295 123.632 128.152 123.631 128.02 123.587C127.888 123.544 127.773 123.459 127.691 123.347C127.61 123.234 127.566 123.098 127.566 122.959C127.566 122.82 127.61 122.684 127.692 122.571Z" fill="#BE184E"/>
</g>
<g opacity="0.3">
<path opacity="0.3" d="M168.231 119.338C168.141 119.702 168.022 120.081 167.889 120.453C167.465 114.818 162.976 115.16 162.813 115.175C163.309 114.176 163.681 113.12 163.92 112.03C164.118 111.284 164.167 110.506 164.064 109.74C163.961 108.975 163.707 108.237 163.318 107.57C162.86 106.927 162.279 106.381 161.608 105.965C160.936 105.549 160.189 105.271 159.409 105.147C165.667 105.942 170.951 112.253 168.231 119.338Z" fill="#6B184E"/>
</g>
<g opacity="0.8">
<path opacity="0.8" d="M135.376 125.701C135.299 126.372 135.092 127.021 134.767 127.612C134.194 128.645 133.109 129.307 132.441 128.682C131.772 128.058 132.188 126.98 133.265 126.526C134.343 126.073 135.376 125.701 135.376 125.701" fill="#F6B5BA"/>
</g>
<g opacity="0.8">
<path opacity="0.8" d="M137.992 119.048C137.51 119.189 137.006 119.237 136.506 119.189C135.614 119.1 134.826 118.535 135.064 117.881C135.302 117.226 136.179 117.204 136.818 117.821C137.457 118.438 138.022 119.048 138.022 119.048" fill="#F6B5BA"/>
</g>
<g opacity="0.8">
<path opacity="0.8" d="M144.316 117.665C144.502 117.12 144.789 116.616 145.163 116.178C145.81 115.435 146.821 115.086 147.259 115.717C147.698 116.349 147.17 117.16 146.196 117.338C145.223 117.516 144.316 117.65 144.316 117.65" fill="#F6B5BA"/>
</g>
<g opacity="0.8">
<path opacity="0.8" d="M142.733 123.553C143.217 123.534 143.7 123.613 144.153 123.783C144.94 124.073 145.513 124.787 145.126 125.337C144.74 125.887 143.93 125.709 143.513 124.98C143.097 124.252 142.733 123.553 142.733 123.553" fill="#F6B5BA"/>
</g>
<path d="M205.664 123.404C201.71 123.828 195.103 120.966 188.868 115.807C182.633 110.648 178.591 104.656 178.271 100.723C178.116 99.673 178.383 98.6037 179.014 97.7499C179.352 97.3483 179.78 97.0324 180.263 96.8281C183.837 95.2521 191.455 98.1439 198.574 104.039C204.772 109.168 208.807 115.101 209.164 119.055C209.247 119.585 209.224 120.126 209.096 120.646C208.969 121.167 208.739 121.657 208.421 122.088C207.711 122.873 206.72 123.346 205.664 123.404Z" fill="#F76854"/>
<path d="M204.861 123.865C200.632 123.865 194.383 120.891 188.601 116.126C182.403 110.997 178.197 104.975 177.84 100.731C177.685 99.5636 177.997 98.3825 178.709 97.4449C179.094 96.9874 179.58 96.626 180.129 96.3893C183.963 94.7092 191.692 97.6977 198.908 103.667C205.054 108.759 209.275 114.773 209.654 118.996C209.741 119.584 209.71 120.183 209.562 120.759C209.414 121.335 209.152 121.875 208.792 122.348C208.406 122.789 207.935 123.147 207.408 123.403C206.881 123.658 206.308 123.805 205.723 123.835V123.835C205.436 123.861 205.149 123.87 204.861 123.865V123.865ZM182.663 96.813C181.917 96.7957 181.176 96.9323 180.486 97.2145C180.066 97.393 179.694 97.668 179.401 98.0173C179.121 98.3914 178.918 98.8172 178.803 99.2701C178.688 99.723 178.664 100.194 178.732 100.656C179.051 104.596 183.243 110.529 189.173 115.435C195.103 120.341 201.71 123.345 205.626 122.928C206.568 122.888 207.455 122.477 208.094 121.783C208.378 121.399 208.583 120.962 208.696 120.497C208.81 120.032 208.83 119.55 208.755 119.078C208.398 115.145 204.207 109.228 198.351 104.358C192.681 99.6825 186.579 96.813 182.663 96.813V96.813Z" fill="black"/>
<path d="M201.836 127.671C201.584 127.671 201.324 127.671 201.049 127.671C197.043 127.537 191.038 124.75 185.346 120.036C183.036 118.139 180.926 116.009 179.051 113.68C176.688 110.707 175.194 107.823 174.83 105.503C173.775 101.504 177.305 97.3854 180.188 96.8055H180.315L180.188 96.865C179.754 97.0636 179.37 97.3585 179.066 97.7273C178.435 98.5812 178.168 99.6504 178.323 100.701C178.479 102.559 179.445 104.856 181.073 107.302C183.27 110.49 185.913 113.347 188.92 115.784C194.085 120.059 199.503 122.757 203.457 123.315C204.194 123.429 204.943 123.452 205.686 123.382C206.747 123.33 207.743 122.859 208.458 122.073C208.776 121.642 209.006 121.152 209.133 120.631C209.261 120.111 209.284 119.57 209.201 119.04C209.981 123.255 206.964 127.976 201.836 127.671Z" fill="#F76854"/>
<path d="M201.338 128.132H201.034C196.775 127.991 190.629 125.032 185.063 120.401C182.762 118.509 180.658 116.39 178.784 114.075L178.605 114.015V113.844C176.257 110.871 174.756 107.897 174.384 105.592C174.165 104.642 174.144 103.656 174.321 102.697C174.499 101.738 174.872 100.826 175.417 100.017C176.449 98.2468 178.128 96.9462 180.099 96.3893H180.233L183.636 95.7797L180.5 97.2665L180.359 97.1104L180.396 97.3037L180.196 96.932L180.381 97.326C180.007 97.501 179.675 97.7545 179.408 98.0694C179.128 98.4435 178.925 98.8692 178.81 99.3221C178.695 99.775 178.671 100.246 178.739 100.708C178.888 102.478 179.809 104.686 181.414 107.094L181.489 107.213C183.648 110.321 186.238 113.107 189.18 115.487C194.107 119.568 199.458 122.341 203.486 122.921C204.199 123.03 204.923 123.053 205.641 122.988C206.583 122.948 207.47 122.536 208.108 121.843C208.393 121.458 208.597 121.021 208.711 120.556C208.824 120.092 208.844 119.609 208.77 119.137L209.654 119.018C209.872 120.21 209.817 121.436 209.494 122.603C209.171 123.771 208.588 124.85 207.789 125.761C207.05 126.594 206.13 127.246 205.099 127.666C204.068 128.086 202.954 128.264 201.844 128.184L201.338 128.132ZM179.497 113.532C181.331 115.792 183.387 117.862 185.635 119.709C191.083 124.214 196.991 127.099 201.063 127.233C201.316 127.233 201.569 127.233 201.806 127.233H201.858C202.838 127.312 203.822 127.162 204.733 126.794C205.643 126.427 206.456 125.851 207.105 125.114C207.723 124.4 208.195 123.571 208.495 122.676C207.72 123.355 206.743 123.76 205.715 123.828C204.925 123.9 204.129 123.878 203.345 123.761C199.161 123.166 193.647 120.312 188.593 116.134C185.549 113.666 182.873 110.775 180.649 107.548L180.575 107.436C178.94 104.946 177.988 102.626 177.832 100.746C177.74 99.9028 177.866 99.0505 178.197 98.2701C177.388 98.8831 176.697 99.6389 176.16 100.5C175.679 101.214 175.35 102.019 175.193 102.866C175.035 103.712 175.054 104.582 175.246 105.421C175.61 107.652 177.074 110.499 179.393 113.413L179.497 113.532Z" fill="black"/>
<g opacity="0.3">
<path opacity="0.3" d="M193.335 108.648L188.073 102.032C187.668 101.521 187.093 101.173 186.453 101.05C182.359 100.248 182.128 103.08 185.495 108.187C185.688 108.478 185.945 108.72 186.246 108.895C186.548 109.071 186.886 109.174 187.234 109.198L192.844 109.562C192.953 109.568 193.061 109.543 193.156 109.49C193.252 109.437 193.329 109.357 193.381 109.261C193.432 109.165 193.455 109.057 193.447 108.948C193.439 108.839 193.4 108.735 193.335 108.648Z" fill="#BE184E"/>
</g>
<g opacity="0.3">
<path opacity="0.3" d="M196.062 110.96L200.766 117.65C201.125 118.158 201.651 118.524 202.252 118.684C206.154 119.68 206.525 116.966 203.568 111.867C203.402 111.57 203.17 111.315 202.888 111.124C202.607 110.933 202.285 110.811 201.948 110.767L196.567 110.112C196.465 110.104 196.362 110.125 196.271 110.172C196.18 110.219 196.104 110.291 196.051 110.379C195.999 110.467 195.972 110.568 195.974 110.671C195.976 110.774 196.006 110.874 196.062 110.96V110.96Z" fill="#BE184E"/>
</g>
<g opacity="0.3">
<path opacity="0.3" d="M194.62 111.19L197.511 116.855C197.55 116.936 197.564 117.026 197.551 117.115C197.539 117.203 197.5 117.286 197.441 117.353C197.381 117.42 197.303 117.467 197.216 117.49C197.13 117.512 197.038 117.509 196.954 117.479C194.28 116.349 191.865 114.685 189.857 112.588C189.731 112.462 189.644 112.303 189.606 112.129C189.568 111.955 189.581 111.774 189.643 111.608C189.705 111.441 189.813 111.296 189.955 111.189C190.097 111.082 190.267 111.018 190.444 111.004L193.848 110.781C194.003 110.759 194.162 110.787 194.3 110.86C194.439 110.933 194.551 111.049 194.62 111.19V111.19Z" fill="#BE184E"/>
</g>
<g opacity="0.3">
<path opacity="0.3" d="M191.388 102.091C194.591 103.416 197.443 105.467 199.718 108.083C199.779 108.15 199.818 108.234 199.83 108.324C199.842 108.414 199.827 108.505 199.786 108.586C199.745 108.666 199.68 108.733 199.6 108.776C199.52 108.819 199.429 108.836 199.339 108.826L195.817 108.982C195.693 108.989 195.57 108.964 195.459 108.911C195.347 108.858 195.251 108.778 195.178 108.678L190.845 102.797C190.759 102.723 190.705 102.618 190.693 102.505C190.681 102.392 190.714 102.278 190.783 102.188C190.852 102.098 190.954 102.037 191.066 102.019C191.179 102.001 191.294 102.027 191.388 102.091V102.091Z" fill="#BE184E"/>
</g>
<g opacity="0.8">
<path opacity="0.8" d="M191.469 108.031C191.047 108.114 190.613 108.114 190.191 108.031C189.448 107.875 188.853 107.324 189.113 106.804C189.374 106.284 190.109 106.343 190.6 106.923C191.09 107.503 191.484 108.06 191.484 108.06" fill="#F6B5BA"/>
</g>
<g opacity="0.8">
<path opacity="0.8" d="M198.105 111.354C198.285 111.743 198.537 112.093 198.848 112.387C199.406 112.893 200.193 113.071 200.468 112.551C200.743 112.03 200.275 111.473 199.532 111.421C198.789 111.369 198.09 111.354 198.09 111.354" fill="#F6B5BA"/>
</g>
<g opacity="0.8">
<path opacity="0.8" d="M196.151 107.793C195.965 107.6 195.823 107.37 195.735 107.116C195.601 106.693 195.787 106.247 196.255 106.262C196.724 106.276 196.917 106.678 196.664 107.057C196.411 107.436 196.151 107.8 196.151 107.8" fill="#F6B5BA"/>
</g>
<g opacity="0.8">
<path opacity="0.8" d="M193.773 111.867C193.971 112.08 194.12 112.334 194.211 112.61C194.345 113.078 194.122 113.569 193.609 113.532C193.097 113.495 192.866 113.056 193.178 112.64C193.49 112.224 193.773 111.852 193.773 111.852" fill="#F6B5BA"/>
</g>
<path d="M169.442 59.3538C174.867 62.0449 173.217 76.4517 165.763 91.4533C158.309 106.455 147.875 116.506 142.45 113.814C140.778 112.989 139.782 111.056 139.411 108.336C139.645 109.024 140.113 109.608 140.734 109.986C141.759 110.492 143.193 109.986 144.888 108.752C149.02 105.659 154.69 97.8316 159.58 87.9371C164.841 77.3289 167.68 67.427 167.16 62.5578C166.997 61.071 166.521 60.0228 165.674 59.5842C165.441 59.4696 165.189 59.3966 164.931 59.3687C165.639 59.0487 166.407 58.882 167.185 58.8794C167.962 58.8768 168.731 59.0385 169.442 59.3538Z" fill="#A09BE2"/>
<path d="M144.413 114.699C143.664 114.708 142.924 114.543 142.25 114.216C140.504 113.346 139.367 111.331 138.973 108.395L138.52 105.027L139.828 108.157C140.019 108.747 140.411 109.252 140.935 109.584C141.76 109.986 143.038 109.584 144.651 108.388C148.835 105.258 154.55 97.1624 159.209 87.7734C164.233 77.6261 167.265 67.5235 166.745 62.6394C166.641 61.6804 166.351 60.4538 165.519 60.045C165.339 59.955 165.146 59.8971 164.946 59.874L163.178 59.6436L164.842 59.0117C166.7 58.3055 168.328 58.2683 169.665 58.9522C175.402 61.7994 173.879 76.1617 166.195 91.6613C159.373 105.362 150.366 114.699 144.413 114.699ZM140.281 110.239C140.441 110.901 140.733 111.524 141.14 112.069C141.548 112.615 142.062 113.072 142.652 113.413C147.757 115.94 158.154 105.793 165.362 91.2525C172.571 76.7118 174.347 62.2603 169.242 59.7551C168.31 59.3294 167.26 59.2375 166.269 59.4949C167.012 60.0599 167.428 61.0857 167.585 62.5428C168.127 67.6573 165.14 77.7228 159.96 88.1674C155.174 97.8314 149.496 105.853 145.134 109.109C143.239 110.536 141.686 110.967 140.519 110.387L140.281 110.239Z" fill="black"/>
<path d="M164.969 59.428C165.227 59.4559 165.479 59.5289 165.712 59.6435C166.544 60.0524 167.02 61.0783 167.198 62.6171C162.167 66.23 156.371 73.6416 151.726 83.0082C146.799 92.9548 144.406 102.604 144.926 108.782C143.232 110.045 141.797 110.521 140.772 110.016C140.151 109.637 139.683 109.053 139.449 108.365V108.365C138.624 102.247 140.995 92.1594 146.137 81.7519C151.845 70.1551 159.343 61.5689 164.969 59.428Z" fill="#AFA6DB"/>
<path d="M141.634 110.633C141.256 110.636 140.882 110.552 140.541 110.387C139.826 109.972 139.28 109.316 139.003 108.536L138.966 108.365C138.104 101.994 140.682 91.691 145.721 81.5438C151.414 70.103 158.845 61.2715 164.79 59.0116H164.954C165.274 59.0404 165.587 59.1286 165.875 59.2718C166.834 59.7476 167.414 60.8552 167.592 62.5725V62.8327L167.384 62.9813C162.226 66.6983 156.497 74.2437 152.053 83.2089C147.363 92.6723 144.77 102.463 145.297 108.737V108.99L145.097 109.138C144.124 109.982 142.914 110.504 141.634 110.633V110.633ZM139.85 108.217C140.045 108.783 140.428 109.266 140.935 109.584C141.73 109.971 142.927 109.584 144.421 108.536C143.96 102.009 146.516 92.4047 151.287 82.7778C155.746 73.8125 161.468 66.2151 166.678 62.3792C166.559 61.4723 166.247 60.4166 165.489 60.045C165.342 59.9687 165.184 59.9161 165.021 59.8888C159.38 62.119 151.964 70.9356 146.524 81.908C141.582 91.8843 139.025 101.95 139.85 108.217Z" fill="black"/>
<path d="M151.317 111.51C149.6 111.51 146.605 110.625 146.323 107.146L147.564 107.042C147.832 110.387 151.317 110.276 151.473 110.268L151.525 111.51H151.317Z" fill="#967CE2"/>
<path d="M172.162 68.0066C169.792 65.204 167.406 66.3637 167.384 66.3786L166.819 65.2709C166.819 65.2709 170.111 63.6577 173.106 67.2037L172.162 68.0066Z" fill="#967CE2"/>
<path d="M160.183 101.333C158.869 101.326 157.586 100.94 156.486 100.221C155.387 99.5025 154.518 98.4816 153.985 97.2812L155.099 96.746C155.548 97.7608 156.287 98.6196 157.224 99.2138C158.16 99.808 159.252 100.111 160.361 100.084L160.458 101.318C160.367 101.331 160.275 101.336 160.183 101.333Z" fill="#967CE2"/>
<path d="M168.193 84.3687C168.156 84.2275 167.272 80.8599 162.687 81.5215L162.508 80.2875C168.245 79.4623 169.39 84.0045 169.397 84.0788L168.193 84.3687Z" fill="#967CE2"/>
<path d="M151.175 82.6887L151.071 88.7993C151.019 91.706 149.101 94.293 146.055 96.1143C143.951 97.3371 141.637 98.1564 139.232 98.5303C137.984 98.7384 136.722 98.8503 135.457 98.8648H134.714C133.627 98.8449 132.542 98.7555 131.467 98.5972C124.251 97.5341 118.833 93.4306 118.684 88.5614V87.9221L118.773 82.1311C118.761 83.192 118.99 84.2419 119.442 85.2013C121.107 88.8068 125.752 91.6316 131.556 92.4865C132.631 92.6449 133.716 92.7342 134.803 92.7541H135.546C136.812 92.7396 138.074 92.6278 139.322 92.4196C141.725 92.0447 144.038 91.2281 146.144 90.011C147.933 89.0116 149.404 87.5275 150.387 85.7291C150.879 84.7893 151.148 83.7491 151.175 82.6887Z" fill="#00E599"/>
<path d="M135.064 99.3107H134.677C133.57 99.2902 132.466 99.2008 131.37 99.0431C123.783 97.928 118.365 93.6238 118.209 88.5762L118.313 82.1533H119.205C119.195 83.1453 119.411 84.1265 119.837 85.0228C121.457 88.5316 125.968 91.2301 131.608 92.0627C132.664 92.2148 133.729 92.2992 134.796 92.3154C135.041 92.3154 135.301 92.3154 135.539 92.3154C136.784 92.3083 138.027 92.2014 139.255 91.9958C141.61 91.6276 143.877 90.8287 145.943 89.6392C147.66 88.6857 149.072 87.2656 150.016 85.5432C150.48 84.664 150.734 83.6896 150.759 82.696H151.651L151.547 88.7992C151.495 91.7728 149.637 94.5084 146.345 96.4933C144.192 97.7417 141.825 98.5786 139.367 98.9613C138.097 99.1783 136.812 99.2927 135.524 99.3033L135.064 99.3107ZM119.16 85.6621L119.116 88.5688C119.257 93.0811 124.466 97.1177 131.511 98.1585C132.568 98.3112 133.633 98.3956 134.7 98.4112H135.443C136.688 98.406 137.931 98.2966 139.158 98.0841C141.514 97.7219 143.782 96.9254 145.847 95.735C148.894 93.9063 150.603 91.4457 150.648 88.7918L150.692 86.1899C149.664 87.9456 148.186 89.3954 146.412 90.3901C144.258 91.6384 141.892 92.4777 139.433 92.8655C138.163 93.0757 136.879 93.1875 135.591 93.2001H134.811C133.707 93.1792 132.605 93.0898 131.511 92.9325C125.693 92.0776 121.011 89.3047 119.16 85.6621Z" fill="black"/>
<path d="M151.175 82.6886C151.163 83.7456 150.908 84.7856 150.432 85.7291C149.611 87.2658 148.414 88.57 146.954 89.5204C145.013 90.8022 142.847 91.7052 140.57 92.1817C139.447 92.4334 138.307 92.6024 137.159 92.6872C136.416 92.7393 135.621 92.769 134.826 92.7541C134.031 92.7393 133.451 92.7021 132.775 92.6352C126.413 92.0108 121.241 89.0521 119.465 85.2013C119.012 84.2419 118.783 83.192 118.796 82.1311C118.832 80.7883 119.244 79.4825 119.985 78.3621C120.579 77.4514 121.314 76.6409 122.163 75.961C122.919 75.3495 123.736 74.8164 124.6 74.3701C126.759 73.2738 129.093 72.5643 131.497 72.2738C132.728 72.1115 133.97 72.042 135.212 72.0656C144.1 72.2217 151.272 76.972 151.175 82.6886Z" fill="#00E599"/>
<path d="M135.22 93.2076H134.789C134.098 93.2076 133.4 93.1555 132.709 93.0886C126.265 92.4568 120.9 89.4386 119.027 85.3946C118.545 84.3753 118.303 83.2587 118.321 82.1311C118.355 80.7062 118.79 79.3197 119.577 78.1316C120.197 77.1785 120.964 76.3303 121.851 75.619C122.631 74.9908 123.473 74.4429 124.363 73.9835C126.57 72.8603 128.957 72.1356 131.415 71.8426C132.646 71.673 133.889 71.601 135.131 71.627C144.309 71.7831 151.696 76.7564 151.592 82.7035C151.572 83.8324 151.292 84.9415 150.775 85.9447C149.912 87.5415 148.666 88.8981 147.148 89.8921C145.162 91.2123 142.942 92.1408 140.608 92.6277C139.463 92.8823 138.3 93.0537 137.13 93.1407C136.551 93.1778 135.874 93.2076 135.22 93.2076ZM134.7 72.5116C133.639 72.5084 132.579 72.578 131.527 72.7198C129.175 73.0024 126.891 73.6969 124.779 74.7715C123.941 75.2022 123.149 75.7179 122.416 76.3103C121.605 76.9608 120.903 77.7362 120.335 78.6074C119.636 79.6553 119.247 80.8793 119.213 82.1385C119.204 83.1305 119.419 84.1117 119.845 85.008C121.584 88.7695 126.667 91.587 132.79 92.1891C133.467 92.256 134.143 92.2932 134.804 92.3007C135.547 92.3007 136.343 92.3006 137.093 92.2412C138.221 92.1555 139.341 91.9891 140.445 91.7431C142.667 91.2825 144.78 90.4019 146.672 89.1487C148.065 88.2371 149.21 86.9929 150.002 85.5284C150.465 84.6492 150.72 83.6748 150.745 82.6812C150.841 77.2247 143.848 72.6603 135.139 72.5116H134.7Z" fill="black"/>
<path d="M135.012 87.9443C128.375 87.8328 123.493 84.9708 122.274 82.3243C122.063 81.8968 121.957 81.4256 121.962 80.949C122.014 77.7525 127.707 74.2585 135.25 74.3998C142.793 74.541 148.359 78.1985 148.299 81.3951C148.29 81.8728 148.168 82.3415 147.943 82.7629C146.635 85.3648 141.655 88.0559 135.012 87.9443Z" fill="#00AF92"/>
<g opacity="0.3">
<path opacity="0.3" d="M135.064 86.0189C129.959 85.9297 126.206 83.7219 125.269 81.6924C125.107 81.3645 125.026 81.0026 125.032 80.6368C125.032 78.1762 129.446 75.5074 135.242 75.6041C141.039 75.7007 145.32 78.5256 145.275 80.9862C145.267 81.3524 145.173 81.7116 145 82.0344C143.982 84.0044 140.155 86.1007 135.064 86.0189Z" fill="white"/>
</g>
<path d="M136.467 83.0673C136.48 82.4434 136.327 81.9343 136.126 81.9303C135.925 81.9263 135.752 82.4288 135.739 83.0528C135.727 83.6767 135.879 84.1857 136.081 84.1897C136.282 84.1938 136.455 83.6912 136.467 83.0673Z" fill="#11101F"/>
<path d="M132.129 80.8599C131.519 80.741 131.051 80.4808 131.088 80.2875C131.126 80.0942 131.653 80.0273 132.263 80.1463C132.872 80.2652 133.34 80.5254 133.303 80.7187C133.266 80.912 132.738 80.9789 132.129 80.8599Z" fill="#11101F"/>
<path d="M132.009 81.9824C131.429 82.2054 130.902 82.2351 130.827 82.0493C130.753 81.8634 131.169 81.5289 131.756 81.3059C132.343 81.0829 132.864 81.0606 132.938 81.2464C133.012 81.4323 132.589 81.7742 132.009 81.9824Z" fill="#11101F"/>
<path d="M133.021 82.8299C132.575 83.2611 132.099 83.4915 131.965 83.3503C131.832 83.209 132.077 82.7407 132.523 82.3095C132.969 81.8783 133.444 81.6405 133.578 81.7817C133.712 81.923 133.467 82.3913 133.021 82.8299Z" fill="#11101F"/>
<path d="M137.085 82.1461C137.591 82.6739 137.881 83.2091 137.747 83.3429C137.613 83.4767 137.078 83.1645 136.573 82.5995C136.067 82.0345 135.77 81.5439 135.911 81.4101C136.052 81.2763 136.55 81.6257 137.085 82.1461Z" fill="#11101F"/>
<path d="M137.888 81.4248C138.527 81.7371 138.973 82.1236 138.899 82.2797C138.824 82.4358 138.237 82.2797 137.606 81.9972C136.974 81.7148 136.521 81.3059 136.602 81.1423C136.684 80.9788 137.294 81.1126 137.888 81.4248Z" fill="#11101F"/>
<path d="M137.056 78.8677C137.658 78.6967 138.185 78.7116 138.245 78.8677C138.304 79.0238 137.858 79.3583 137.256 79.5293C136.654 79.7002 136.134 79.6854 136.075 79.5293C136.015 79.3732 136.461 79.0386 137.056 78.8677Z" fill="#11101F"/>
<path d="M134.09 78.7039C134.053 78.2356 134.187 77.849 134.38 77.8342C134.573 77.8193 134.759 78.191 134.796 78.6519C134.833 79.1128 134.692 79.5068 134.499 79.5217C134.306 79.5365 134.12 79.1648 134.09 78.7039Z" fill="#11101F"/>
<path d="M135.391 78.5032C135.658 78.1018 136 77.8639 136.134 77.968C136.268 78.0721 136.216 78.4884 135.956 78.8898C135.695 79.2913 135.346 79.5366 135.212 79.4251C135.079 79.3136 135.131 78.9047 135.391 78.5032Z" fill="#11101F"/>
<path d="M132.902 79.202C132.449 78.9567 132.159 78.6296 132.24 78.4586C132.322 78.2876 132.753 78.3768 133.207 78.6222C133.66 78.8675 133.95 79.1872 133.868 79.3656C133.786 79.544 133.355 79.4399 132.902 79.202Z" fill="#11101F"/>
<path d="M138.78 80.6443C139.345 80.6963 139.783 80.8673 139.768 81.016C139.753 81.1647 139.292 81.2539 138.728 81.1944C138.163 81.1349 137.724 80.9714 137.739 80.8153C137.754 80.6592 138.23 80.5848 138.78 80.6443Z" fill="#11101F"/>
<path d="M231.517 106.499C229.288 112.12 214.818 111.629 199.242 105.392C183.666 99.1548 172.853 89.5502 175.097 83.9302C175.788 82.1981 177.639 81.0458 180.299 80.466C179.621 80.7584 179.072 81.2866 178.753 81.9528C178.33 83.0084 178.917 84.406 180.314 85.9968C183.725 89.8699 191.974 94.9175 202.192 98.9838C213.191 103.385 223.283 105.422 228.091 104.515C229.577 104.24 230.566 103.682 230.908 102.82C231 102.582 231.053 102.331 231.064 102.076C231.442 102.742 231.677 103.479 231.755 104.24C231.833 105.002 231.752 105.771 231.517 106.499Z" fill="#CD7BB1"/>
<path d="M231.517 106.5C229.964 110.395 222.548 111.354 212.939 109.473C208.249 108.536 203.659 107.16 199.227 105.362C193.066 102.977 187.278 99.723 182.038 95.6981C176.628 91.3716 173.864 87.0079 175.082 83.8782C175.774 82.1461 177.624 80.9939 180.284 80.414C179.607 80.7065 179.057 81.2346 178.739 81.9008C178.315 82.9564 178.902 84.354 180.299 85.9449C181.869 87.6181 183.633 89.098 185.553 90.3531C190.774 93.7965 196.347 96.6724 202.178 98.9319C207.23 100.993 212.451 102.61 217.784 103.764C222.124 104.649 225.706 104.909 228.047 104.463C229.533 104.188 230.522 103.63 230.863 102.768C230.956 102.53 231.009 102.279 231.019 102.024C231.412 102.693 231.659 103.438 231.745 104.209C231.831 104.98 231.753 105.76 231.517 106.5V106.5Z" fill="#A09BE2"/>
<path d="M221.478 110.856C218.625 110.821 215.781 110.523 212.983 109.964V109.964H212.865C208.149 109.017 203.531 107.633 199.072 105.83C192.874 103.431 187.048 100.162 181.771 96.1217C175.982 91.4903 173.403 86.9928 174.681 83.7814C175.425 81.9675 177.32 80.674 180.225 80.0644L183.54 79.3211L180.523 80.8747C179.951 81.1143 179.481 81.5453 179.192 82.0939C178.85 82.9488 179.363 84.1903 180.679 85.677C182.219 87.3246 183.954 88.7799 185.844 90.011C191.04 93.4338 196.585 96.2945 202.386 98.5451C207.421 100.592 212.626 102.194 217.94 103.333C222.273 104.225 225.766 104.47 228.032 104.039C228.976 103.868 230.173 103.474 230.514 102.611C230.593 102.425 230.636 102.226 230.641 102.024L230.737 100.255L231.481 101.861C231.885 102.586 232.133 103.388 232.208 104.215C232.284 105.042 232.185 105.876 231.919 106.663C230.841 109.406 227.044 110.856 221.478 110.856ZM213.095 109.079C222.622 110.9 229.675 109.822 231.079 106.328C231.425 105.367 231.425 104.316 231.079 103.355C230.574 104.098 229.593 104.633 228.151 104.901C225.766 105.347 222.154 105.102 217.747 104.195C212.379 103.038 207.122 101.413 202.037 99.3405C196.176 97.0624 190.574 94.1693 185.323 90.7098C183.371 89.4447 181.579 87.9469 179.988 86.2494C178.419 84.4727 177.87 82.9562 178.345 81.7891C178.383 81.6979 178.425 81.6086 178.471 81.5215C177.825 81.7322 177.228 82.0722 176.717 82.5207C176.206 82.9693 175.792 83.5171 175.499 84.1308C174.377 86.9482 176.859 91.0666 182.314 95.4377C187.53 99.4221 193.284 102.646 199.406 105.013C203.778 106.78 208.303 108.141 212.924 109.079L213.013 109.042L213.095 109.079Z" fill="black"/>
<path d="M231.087 102.046C231.076 102.301 231.023 102.552 230.931 102.79C230.589 103.652 229.608 104.21 228.114 104.485C224.116 99.7642 216.261 94.5679 206.563 90.6874C196.255 86.5691 186.453 84.9559 180.337 85.9669C178.94 84.3761 178.353 82.9934 178.776 81.9229C179.095 81.2567 179.644 80.7285 180.322 80.4361C186.349 79.1277 196.597 80.6889 207.38 85.0079C219.352 89.8177 228.508 96.642 231.087 102.046Z" fill="#AFA6DB"/>
<path d="M227.957 104.968L227.786 104.767C223.692 99.9279 215.695 94.8134 206.413 91.0965C196.596 87.1714 186.645 85.3724 180.403 86.3983H180.158L179.994 86.2124C178.426 84.4357 177.876 82.9192 178.352 81.7521C178.716 80.9979 179.338 80.3992 180.106 80.0646L180.314 80.0125C186.549 78.6447 197.02 80.3991 207.535 84.6141C219.359 89.3421 228.76 96.1069 231.487 101.853L231.532 101.987V102.076C231.516 102.375 231.451 102.669 231.339 102.946C230.945 103.942 229.852 104.604 228.188 104.924L227.957 104.968ZM184.334 85.2088C190.525 85.2088 198.558 86.993 206.733 90.2639C216.015 93.9808 224.048 99.1028 228.284 103.987C229.176 103.794 230.202 103.4 230.514 102.612C230.577 102.46 230.617 102.299 230.633 102.136C227.972 96.6868 218.586 89.9963 207.208 85.4467C196.886 81.3135 186.645 79.5665 180.455 80.8897C179.907 81.1301 179.456 81.5494 179.177 82.0792C178.85 82.8969 179.311 84.0715 180.5 85.4765C181.769 85.291 183.051 85.2015 184.334 85.2088Z" fill="black"/>
<path d="M178.107 92.7988C177.899 91.1336 178.457 87.8404 182.039 87.2605L182.239 88.4871C178.947 89.0224 179.319 92.494 179.334 92.6426L178.107 92.7988Z" fill="#967CE2"/>
<path d="M208.695 91.8548L207.818 90.9701C210.397 88.4129 209.111 86.1678 209.052 86.0786L210.115 85.4319C210.115 85.4319 211.987 88.5764 208.695 91.8548Z" fill="#A09BE2"/>
<path d="M188.98 100.887C188.825 99.535 189.077 98.168 189.703 96.9603C190.33 95.7526 191.301 94.7591 192.495 94.107L193.119 95.1774C192.143 95.7034 191.344 96.5079 190.826 97.4887C190.307 98.4695 190.091 99.5824 190.206 100.686L188.98 100.887Z" fill="#967CE2"/>
<path d="M206.875 108.432L206.496 107.25C206.637 107.198 209.922 106.053 208.896 101.526L210.108 101.251C211.386 106.908 206.92 108.417 206.875 108.432Z" fill="#967CE2"/>
<path d="M224.918 128.437C227.591 127.986 230.155 127.035 232.476 125.634C236.489 123.159 238.941 118.669 236.303 116.104C233.264 113.13 229.451 115.42 227.846 119.821C226.337 123.976 224.918 128.437 224.918 128.437Z" fill="#F76854"/>
<path d="M224.28 128.972L224.495 128.296C224.495 128.251 225.937 123.783 227.423 119.672C228.449 116.862 230.299 114.892 232.38 114.417C233.143 114.252 233.935 114.29 234.679 114.527C235.422 114.765 236.09 115.193 236.616 115.77C237.075 116.207 237.423 116.747 237.632 117.346C237.841 117.944 237.906 118.583 237.82 119.211C237.56 121.583 235.591 124.244 232.715 125.999C230.347 127.444 227.723 128.421 224.986 128.875L224.28 128.972ZM233.324 115.227C233.074 115.227 232.824 115.257 232.581 115.316C230.82 115.718 229.17 117.509 228.271 119.999C227.134 123.122 226.041 126.459 225.58 127.879C227.941 127.387 230.203 126.5 232.269 125.255C234.847 123.672 236.728 121.211 236.958 119.137C237.03 118.644 236.982 118.141 236.819 117.67C236.656 117.199 236.383 116.774 236.022 116.431C235.674 116.062 235.257 115.765 234.794 115.558C234.331 115.351 233.831 115.239 233.324 115.227V115.227Z" fill="black"/>
<path d="M135.109 164.328C132.741 165.649 130.143 166.507 127.454 166.855C122.772 167.442 118.053 165.472 118.536 161.822C119.064 157.607 123.456 156.998 127.454 159.444C131.215 161.741 135.109 164.328 135.109 164.328Z" fill="#F76854"/>
<path d="M125.819 167.413C123.129 167.413 120.677 166.602 119.28 165.183C118.82 164.747 118.47 164.209 118.258 163.612C118.046 163.015 117.979 162.376 118.061 161.748C118.11 160.966 118.363 160.211 118.797 159.559C119.23 158.906 119.827 158.379 120.528 158.031C122.445 157.094 125.121 157.474 127.677 159.027C131.393 161.302 135.317 163.896 135.361 163.926L135.949 164.313L135.339 164.684C132.918 166.041 130.259 166.919 127.506 167.271C126.948 167.355 126.384 167.402 125.819 167.413ZM122.847 158.492C122.178 158.479 121.515 158.616 120.907 158.893C120.346 159.183 119.87 159.613 119.526 160.143C119.182 160.672 118.982 161.281 118.945 161.912C118.879 162.404 118.931 162.905 119.098 163.374C119.265 163.842 119.541 164.263 119.904 164.603C121.39 166.089 124.363 166.833 127.387 166.446C129.771 166.122 132.084 165.404 134.232 164.32C132.983 163.495 130.04 161.585 127.202 159.86C125.904 159.013 124.402 158.53 122.854 158.462L122.847 158.492Z" fill="black"/>
<path d="M230.759 131.581C231.344 133.456 232.277 135.204 233.509 136.733C235.664 139.38 239.127 140.703 240.71 138.569C242.538 136.094 240.539 133.581 237.217 132.853C234.096 132.198 230.759 131.581 230.759 131.581Z" fill="#F76854"/>
<path d="M238.525 140.108C236.779 140.108 234.683 138.919 233.16 137.045C231.885 135.471 230.923 133.667 230.328 131.73L230.143 131.046L230.834 131.172C230.871 131.172 234.215 131.767 237.314 132.444C239.469 132.919 241.089 134.087 241.647 135.573C241.847 136.125 241.899 136.72 241.798 137.298C241.696 137.876 241.444 138.417 241.067 138.867C240.785 139.252 240.416 139.566 239.99 139.782C239.564 139.998 239.092 140.11 238.614 140.108H238.525ZM231.428 132.191C232.002 133.741 232.82 135.189 233.851 136.48C235.196 138.123 237.061 139.216 238.525 139.216H238.592C238.933 139.221 239.271 139.144 239.576 138.992C239.882 138.839 240.146 138.615 240.346 138.339C240.629 138.007 240.821 137.606 240.901 137.177C240.982 136.748 240.95 136.305 240.807 135.893C240.368 134.711 238.956 133.73 237.091 133.328C234.914 132.838 232.58 132.399 231.428 132.191Z" fill="black"/>
<path d="M117.532 70.4301C115.583 70.6705 113.606 70.5394 111.706 70.0436C108.407 69.1664 105.761 66.5571 107.076 64.2377C108.563 61.5541 111.684 62.3346 113.713 65.0628C115.623 67.6498 117.532 70.4301 117.532 70.4301Z" fill="#F76854"/>
<path d="M115.668 70.9951C114.294 70.9994 112.925 70.827 111.595 70.4822C109.225 69.8503 107.248 68.3932 106.557 66.7652C106.362 66.3287 106.271 65.8526 106.293 65.375C106.315 64.8973 106.449 64.4315 106.683 64.0147C106.938 63.4861 107.328 63.0341 107.813 62.7039C108.299 62.3738 108.862 62.1772 109.447 62.1339C111.03 62.0298 112.762 63.026 114.077 64.7952C115.965 67.3451 117.882 70.1476 117.905 70.1774L118.306 70.7572L117.607 70.8687C116.965 70.9619 116.317 71.0042 115.668 70.9951V70.9951ZM109.67 63.026H109.507C109.072 63.0669 108.655 63.2199 108.297 63.47C107.939 63.7202 107.651 64.0589 107.463 64.4533C107.294 64.7503 107.199 65.0838 107.186 65.4255C107.173 65.7671 107.243 66.1068 107.389 66.4158C107.961 67.7762 109.745 69.0549 111.848 69.6124C113.45 70.0267 115.109 70.1774 116.76 70.0584C116.084 69.092 114.724 67.1444 113.379 65.3305C112.286 63.9329 110.889 63.026 109.67 63.026Z" fill="black"/>
<path d="M205.098 60.4091L209.275 64.126C213.184 67.62 211.92 75.4181 206.443 81.5436C200.966 87.6692 193.661 89.7209 189.685 86.5095L189.247 86.1155L185.278 82.5844C186.009 83.2453 186.881 83.7309 187.827 84.0043C191.959 85.1863 197.823 82.8446 202.282 77.8564C206.741 72.8683 208.405 66.7725 206.741 62.7954C206.381 61.8856 205.82 61.0695 205.098 60.4091V60.4091Z" fill="#71A68C"/>
<path d="M205.098 60.4091L209.275 64.126C213.184 67.62 211.92 75.4181 206.443 81.5436C200.966 87.6692 193.661 89.7209 189.685 86.5095L189.247 86.1155L185.278 82.5844C186.009 83.2453 186.881 83.7309 187.827 84.0043C191.959 85.1863 197.823 82.8446 202.282 77.8564C206.741 72.8683 208.405 66.7725 206.741 62.7954C206.381 61.8856 205.82 61.0695 205.098 60.4091V60.4091Z" fill="#00E599"/>
<path d="M194.271 88.4648C192.513 88.5109 190.793 87.9461 189.404 86.8666L185.004 82.9415L185.599 82.2724C186.279 82.8695 187.084 83.3064 187.955 83.551C192.005 84.7033 197.757 82.2352 201.955 77.5296C206.154 72.8239 207.96 66.8322 206.355 62.9443C206.021 62.0924 205.494 61.3292 204.817 60.7141L205.419 60.0451L209.602 63.762C213.69 67.4121 212.434 75.515 206.801 81.8189C202.996 86.1083 198.232 88.4648 194.271 88.4648ZM188.103 84.5026L189.983 86.2347C193.699 89.2603 200.975 87.0673 206.117 81.306C211.416 75.3589 212.701 67.8432 208.978 64.5203L207.314 63.0335C208.8 67.2857 206.949 73.2997 202.602 78.1763C198.255 83.053 192.488 85.4913 188.103 84.5174V84.5026Z" fill="black"/>
<path d="M205.092 60.4093C205.815 61.0621 206.382 61.8703 206.749 62.7733C207.319 64.2642 207.506 65.8747 207.291 67.4566C207.026 69.5769 206.354 71.6263 205.315 73.493C204.816 74.4251 204.249 75.3195 203.62 76.1692C203.197 76.7341 202.751 77.2842 202.268 77.8343C201.785 78.3845 201.406 78.7562 200.96 79.1799C196.746 83.2611 191.544 85.0527 187.828 84.0045C186.889 83.7427 186.022 83.2697 185.294 82.6218C184.377 81.796 183.711 80.7298 183.369 79.5441C183.094 78.578 182.974 77.5744 183.013 76.5706C183.04 75.6785 183.16 74.7917 183.369 73.9241C183.899 71.7656 184.805 69.7172 186.045 67.8729C186.668 66.9299 187.358 66.0331 188.111 65.1893C193.58 59.0563 201.205 56.9154 205.092 60.4093Z" fill="#71A68C"/>
<path d="M205.092 60.4093C205.815 61.0621 206.382 61.8703 206.749 62.7733C207.319 64.2642 207.506 65.8747 207.291 67.4566C207.026 69.5769 206.354 71.6263 205.315 73.493C204.816 74.4251 204.249 75.3195 203.62 76.1692C203.197 76.7341 202.751 77.2842 202.268 77.8343C201.785 78.3845 201.406 78.7562 200.96 79.1799C196.746 83.2611 191.544 85.0527 187.828 84.0045C186.889 83.7427 186.022 83.2697 185.294 82.6218C184.377 81.796 183.711 80.7298 183.369 79.5441C183.094 78.578 182.974 77.5744 183.013 76.5706C183.04 75.6785 183.16 74.7917 183.369 73.9241C183.899 71.7656 184.805 69.7172 186.045 67.8729C186.668 66.9299 187.358 66.0331 188.111 65.1893C193.58 59.0563 201.205 56.9154 205.092 60.4093Z" fill="#00E599"/>
<path d="M190.057 84.7479C189.253 84.749 188.453 84.6415 187.679 84.4283C186.675 84.1479 185.749 83.6391 184.974 82.9415C184 82.0596 183.294 80.9208 182.937 79.6557C182.648 78.6489 182.517 77.603 182.551 76.5558C182.585 75.634 182.71 74.7177 182.923 73.8201C183.47 71.6179 184.401 69.5293 185.672 67.65C186.303 66.6862 187.006 65.7717 187.775 64.9143C193.401 58.6104 201.308 56.4546 205.396 60.1046C206.166 60.8049 206.77 61.6684 207.164 62.6321C207.763 64.1938 207.96 65.8809 207.736 67.5385C207.456 69.7144 206.768 71.8179 205.708 73.7384C205.198 74.6892 204.62 75.6011 203.976 76.4666C203.553 77.039 203.092 77.604 202.601 78.1615C202.111 78.7191 201.717 79.0982 201.264 79.5368C197.778 82.8374 193.617 84.7479 190.057 84.7479ZM200.29 59.1754C196.574 59.1754 192.041 61.4501 188.444 65.4793C187.703 66.3024 187.027 67.1823 186.423 68.1109C185.209 69.9084 184.324 71.9068 183.807 74.0134C183.602 74.8539 183.485 75.7134 183.458 76.5781C183.425 77.5269 183.54 78.475 183.8 79.3881C184.11 80.4948 184.726 81.4917 185.576 82.265C186.253 82.8677 187.058 83.3076 187.931 83.5511C191.573 84.5918 196.567 82.7482 200.647 78.8603C201.085 78.4366 201.516 77.9905 201.932 77.5296C202.349 77.0687 202.847 76.4517 203.255 75.9016C203.872 75.0705 204.429 74.196 204.92 73.2849C205.927 71.4666 206.58 69.4738 206.845 67.4121C207.048 65.9058 206.872 64.3726 206.332 62.9518C205.997 62.0999 205.471 61.3367 204.794 60.7216V60.7216C203.537 59.6629 201.931 59.1115 200.29 59.1754V59.1754Z" fill="black"/>
<path d="M206.346 58.4244C209.404 59.0412 212.551 59.074 215.621 58.521C220.949 57.5249 225.431 53.7113 223.662 49.8754C221.611 45.4151 216.58 46.3146 213.042 50.3958C209.713 54.2688 206.346 58.4244 206.346 58.4244Z" fill="#F76854"/>
<path d="M211.237 59.3611C209.559 59.3748 207.885 59.2078 206.243 58.863L205.559 58.6995L205.997 58.1494C206.034 58.1048 209.401 53.8972 212.686 50.0985C214.915 47.5189 217.702 46.1808 220.117 46.5228C220.992 46.6634 221.815 47.0293 222.506 47.5845C223.196 48.1398 223.731 48.8652 224.056 49.6896C224.364 50.3392 224.513 51.0528 224.491 51.7715C224.469 52.4901 224.277 53.1932 223.93 53.8228C222.681 56.2463 219.471 58.2832 215.695 58.9597C214.224 59.2286 212.732 59.363 211.237 59.3611V59.3611ZM207.149 58.1271C209.923 58.5866 212.755 58.5715 215.525 58.0825C219.017 57.4283 221.997 55.5921 223.127 53.414C223.411 52.9057 223.569 52.3368 223.589 51.7549C223.608 51.1729 223.488 50.5948 223.238 50.0687C222.975 49.3807 222.535 48.7737 221.964 48.3081C221.393 47.8426 220.71 47.5346 219.983 47.4148C217.917 47.1323 215.376 48.3738 213.362 50.6857C210.813 53.6444 208.204 56.8484 207.149 58.1271Z" fill="black"/>
<path d="M222.615 33.0229C225.208 52.351 201.137 62.0151 174.57 65.5387C148.002 69.0624 123.538 66.0591 120.951 46.731C120.708 44.9044 120.681 43.0555 120.87 41.2225C122.631 23.2845 143.454 4.14967 167.54 0.923359C185.071 -1.42575 202.327 4.89306 212.783 15.0478C218.163 20.2292 221.738 26.4513 222.615 33.0229Z" fill="#FFC13D"/>
<path d="M157.017 67.2485C140.303 67.2485 122.705 63.2193 120.506 46.7904C120.262 44.9314 120.235 43.0505 120.424 41.1852C122.274 22.3032 143.826 3.65153 167.473 0.484693C183.986 -1.74547 201.896 3.84481 213.095 14.6909C218.743 20.1696 222.191 26.4884 223.061 32.9634C224.287 42.0922 219.806 49.7045 209.751 55.5847C201.479 60.4167 189.336 64.0147 174.629 65.9921C168.792 66.7952 162.909 67.2149 157.017 67.2485V67.2485ZM174.763 0.900991C172.367 0.89649 169.974 1.05295 167.599 1.36933C144.324 4.46182 123.129 22.7641 121.316 41.267C121.132 43.0653 121.156 44.8789 121.39 46.6714C124.318 68.5048 155.932 67.5904 174.51 65.1001C189.099 63.145 201.13 59.5841 209.305 54.8041C219.04 49.1321 223.343 41.8171 222.176 33.0823C221.329 26.8081 217.977 20.6751 212.471 15.3376C203.062 6.22366 188.838 0.900991 174.763 0.900991Z" fill="black"/>
<path d="M183.079 12.8621C183.822 14.059 184.127 15.1889 183.822 15.3748C183.518 15.5606 182.663 14.7503 181.942 13.5535C181.221 12.3566 180.894 11.2266 181.199 11.0334C181.504 10.8401 182.358 11.6578 183.079 12.8621Z" fill="#11101F"/>
<path d="M183.079 22.3775C183.822 23.5744 184.126 24.7043 183.822 24.8976C183.517 25.0909 182.625 24.2657 181.927 23.0466C181.228 21.8274 180.879 20.7198 181.184 20.5265C181.488 20.3332 182.358 21.1807 183.079 22.3775Z" fill="#11101F"/>
<path d="M195.616 15.7538C196.686 16.6533 197.37 17.6123 197.102 17.8947C196.835 18.1772 195.802 17.6866 194.724 16.7871C193.647 15.8876 192.97 14.9361 193.238 14.6461C193.505 14.3562 194.516 14.8691 195.616 15.7538Z" fill="#11101F"/>
<path d="M166.277 17.3669C165.771 18.6753 165.058 19.5971 164.671 19.4633C164.285 19.3295 164.389 18.14 164.894 16.8317C165.4 15.5233 166.121 14.6015 166.5 14.7353C166.879 14.8691 166.812 16.066 166.277 17.3669Z" fill="#11101F"/>
<path d="M158.881 25.4923C158.376 26.8007 157.655 27.7225 157.276 27.5887C156.897 27.4549 156.994 26.2654 157.499 24.9571C158.004 23.6487 158.718 22.7269 159.104 22.8607C159.491 22.9945 159.387 24.184 158.881 25.4923Z" fill="#11101F"/>
<path d="M174.451 16.4603C174.681 17.843 174.562 19.0101 174.191 19.077C173.819 19.1439 173.328 18.066 173.091 16.6907C172.853 15.3154 172.979 14.1335 173.351 14.074C173.722 14.0145 174.198 15.0776 174.451 16.4603Z" fill="#11101F"/>
<path d="M172.452 25.1132C172.683 26.4884 172.571 27.663 172.2 27.7225C171.828 27.7819 171.33 26.7189 171.1 25.3362C170.869 23.9535 170.988 22.7864 171.36 22.7269C171.731 22.6674 172.222 23.7305 172.452 25.1132Z" fill="#11101F"/>
<path d="M159.817 15.3347C160.812 14.3502 161.408 13.3392 161.149 13.0765C160.889 12.8138 159.872 13.3988 158.876 14.3832C157.881 15.3676 157.285 16.3787 157.545 16.6414C157.805 16.9041 158.822 16.3191 159.817 15.3347Z" fill="#11101F"/>
<path d="M146.748 20.4854C147.743 19.501 148.339 18.49 148.079 18.2273C147.819 17.9645 146.802 18.5496 145.807 19.534C144.812 20.5184 144.216 21.5294 144.475 21.7921C144.735 22.0549 145.752 21.4698 146.748 20.4854Z" fill="#11101F"/>
<path d="M146.748 20.4854C147.743 19.501 148.339 18.49 148.079 18.2273C147.819 17.9645 146.802 18.5496 145.807 19.534C144.812 20.5184 144.216 21.5294 144.475 21.7921C144.735 22.0549 145.752 21.4698 146.748 20.4854Z" fill="#11101F"/>
<g opacity="0.3">
<path opacity="0.3" d="M144.302 52.4548C144.407 52.7217 144.431 53.014 144.371 53.2946C144.31 53.5752 144.167 53.8314 143.961 54.0308C143.755 54.2303 143.494 54.3639 143.211 54.4148C142.929 54.4657 142.638 54.4315 142.375 54.3167C142.112 54.2018 141.889 54.0115 141.734 53.7697C141.579 53.5279 141.5 53.2456 141.505 52.9586C141.511 52.6716 141.602 52.3928 141.767 52.1575C141.931 51.9223 142.162 51.7411 142.429 51.6371C142.786 51.4983 143.183 51.5064 143.534 51.6596C143.885 51.8128 144.161 52.0987 144.302 52.4548V52.4548Z" fill="#F76854"/>
</g>
<g opacity="0.3">
<path opacity="0.3" d="M159.729 54.0383C159.767 54.136 159.785 54.2401 159.783 54.3449C159.781 54.4496 159.758 54.5529 159.716 54.6489C159.674 54.7449 159.613 54.8316 159.538 54.9041C159.462 54.9766 159.373 55.0336 159.275 55.0716C159.178 55.1097 159.074 55.1282 158.969 55.126C158.864 55.1238 158.761 55.101 158.665 55.0589C158.569 55.0168 158.482 54.9562 158.41 54.8806C158.337 54.805 158.28 54.7158 158.242 54.6182C158.166 54.421 158.17 54.2014 158.255 54.0076C158.34 53.8138 158.499 53.6618 158.696 53.5849C158.893 53.508 159.112 53.5126 159.306 53.5976C159.5 53.6826 159.652 53.8412 159.729 54.0383Z" fill="#F76854"/>
</g>
<g opacity="0.3">
<path opacity="0.3" d="M186.75 49.37C186.829 49.5713 186.847 49.7916 186.801 50.003C186.756 50.2145 186.648 50.4076 186.492 50.5578C186.337 50.7081 186.14 50.8087 185.927 50.847C185.714 50.8853 185.495 50.8595 185.296 50.7729C185.098 50.6863 184.93 50.5427 184.814 50.3605C184.697 50.1782 184.637 49.9654 184.642 49.7491C184.646 49.5328 184.715 49.3226 184.838 49.1453C184.962 48.9679 185.136 48.8314 185.338 48.753C185.471 48.7001 185.613 48.6742 185.757 48.6766C185.9 48.6791 186.041 48.7099 186.172 48.7672C186.304 48.8246 186.422 48.9074 186.521 49.0109C186.62 49.1143 186.698 49.2364 186.75 49.37V49.37Z" fill="#F76854"/>
</g>
<g opacity="0.3">
<path opacity="0.3" d="M188.667 40.6426C188.713 40.7649 188.709 40.9005 188.657 41.0201C188.604 41.1397 188.506 41.2337 188.385 41.2819C188.325 41.306 188.26 41.318 188.196 41.3172C188.131 41.3165 188.067 41.3029 188.008 41.2773C187.948 41.2518 187.895 41.2147 187.85 41.1683C187.805 41.1219 187.769 41.067 187.745 41.0068C187.697 40.8846 187.698 40.7479 187.749 40.6267C187.801 40.5055 187.898 40.4096 188.02 40.3601C188.144 40.3135 188.28 40.317 188.401 40.3698C188.522 40.4225 188.617 40.5204 188.667 40.6426V40.6426Z" fill="#F76854"/>
</g>
<g opacity="0.3">
<path opacity="0.3" d="M155.129 48.1806C155.176 48.3029 155.172 48.4385 155.119 48.5581C155.066 48.6777 154.969 48.7718 154.847 48.8199C154.787 48.844 154.723 48.856 154.658 48.8553C154.594 48.8545 154.53 48.8409 154.47 48.8154C154.411 48.7898 154.357 48.7527 154.312 48.7063C154.267 48.6599 154.232 48.605 154.208 48.5449C154.159 48.4226 154.16 48.2859 154.212 48.1647C154.264 48.0435 154.361 47.9476 154.483 47.8981C154.606 47.8516 154.743 47.855 154.864 47.9078C154.984 47.9606 155.08 48.0585 155.129 48.1806Z" fill="#F76854"/>
</g>
<g opacity="0.3">
<path opacity="0.3" d="M203.768 34.6806C203.814 34.8029 203.81 34.9385 203.758 35.0581C203.705 35.1778 203.607 35.2718 203.485 35.3199C203.425 35.3441 203.361 35.3561 203.297 35.3553C203.232 35.3545 203.168 35.3409 203.109 35.3154C203.049 35.2898 202.996 35.2528 202.95 35.2063C202.905 35.1599 202.87 35.105 202.846 35.0449C202.797 34.9226 202.799 34.7859 202.85 34.6647C202.902 34.5435 202.999 34.4477 203.121 34.3981C203.245 34.3516 203.381 34.3551 203.502 34.4078C203.623 34.4606 203.718 34.5585 203.768 34.6806V34.6806Z" fill="#F76854"/>
</g>
<g opacity="0.3">
<path opacity="0.3" d="M173.262 46.7235C173.391 47.0521 173.419 47.4115 173.344 47.7561C173.268 48.1008 173.092 48.4153 172.838 48.6599C172.583 48.9044 172.262 49.0681 171.915 49.1302C171.568 49.1922 171.21 49.1499 170.887 49.0085C170.564 48.8671 170.29 48.6331 170.099 48.3359C169.909 48.0387 169.811 47.6918 169.818 47.339C169.825 46.9863 169.936 46.6434 170.138 46.3539C170.34 46.0644 170.623 45.8412 170.951 45.7125C171.169 45.6261 171.402 45.5837 171.637 45.5878C171.871 45.5918 172.102 45.6423 172.317 45.7363C172.532 45.8303 172.726 45.966 172.889 46.1354C173.051 46.3048 173.178 46.5047 173.262 46.7235V46.7235Z" fill="#F76854"/>
</g>
<g opacity="0.3">
<path opacity="0.3" d="M201.999 42.7984C202.799 42.7984 203.448 42.1494 203.448 41.3488C203.448 40.5482 202.799 39.8992 201.999 39.8992C201.199 39.8992 200.55 40.5482 200.55 41.3488C200.55 42.1494 201.199 42.7984 201.999 42.7984Z" fill="#F76854"/>
</g>
<path d="M199.057 74.794C195 79.3435 190.058 81.031 187.516 80.2877C187.091 80.1792 186.699 79.9701 186.372 79.6781C184.142 77.723 185.175 71.6792 189.79 66.5201C194.405 61.361 200.291 59.6883 202.476 61.6434C202.803 61.9376 203.058 62.3042 203.219 62.7139C204.23 65.1745 203.122 70.2445 199.057 74.794Z" fill="#00AF92"/>
<g opacity="0.4">
<path opacity="0.4" d="M197.733 73.5971C194.612 77.091 190.837 78.3771 188.86 77.8121C188.536 77.724 188.237 77.5639 187.983 77.3438C186.304 75.857 187.069 71.196 190.614 67.2263C194.159 63.2566 198.685 61.9779 200.364 63.5093C200.612 63.7359 200.805 64.0154 200.929 64.327C201.709 66.2152 200.862 70.118 197.733 73.5971Z" fill="white"/>
</g>
<path d="M196.792 71.9705C196.922 71.8166 196.64 71.366 196.163 70.964C195.686 70.562 195.194 70.3609 195.064 70.5148C194.935 70.6687 195.217 71.1193 195.694 71.5213C196.171 71.9232 196.663 72.1243 196.792 71.9705Z" fill="#11101F"/>
<path d="M192.324 72.4967C191.849 72.8982 191.358 73.0989 191.224 72.9428C191.091 72.7866 191.38 72.3406 191.863 71.9466C192.346 71.5526 192.83 71.3445 192.956 71.5006C193.082 71.6567 192.8 72.1102 192.324 72.4967Z" fill="#11101F"/>
<path d="M193.127 73.2998C192.934 73.8945 192.621 74.3182 192.428 74.2587C192.235 74.1993 192.242 73.664 192.428 73.0693C192.614 72.4746 192.941 72.0509 193.127 72.1178C193.313 72.1847 193.32 72.7125 193.127 73.2998Z" fill="#11101F"/>
<path d="M194.42 73.0469C194.472 73.6639 194.353 74.1843 194.152 74.1992C193.951 74.214 193.751 73.7308 193.699 73.1064C193.647 72.4819 193.758 71.969 193.959 71.9541C194.16 71.9393 194.36 72.4299 194.42 73.0469Z" fill="#11101F"/>
<path d="M196.449 69.4637C197.192 69.4042 197.779 69.5157 197.794 69.709C197.809 69.9023 197.237 70.1104 196.516 70.1699C195.795 70.2294 195.185 70.1253 195.171 69.932C195.156 69.7387 195.728 69.5306 196.449 69.4637Z" fill="#11101F"/>
<path d="M196.403 68.3936C197.042 68.0962 197.622 67.9921 197.696 68.1482C197.771 68.3044 197.31 68.6835 196.671 68.9734C196.032 69.2633 195.445 69.3748 195.37 69.2187C195.296 69.0626 195.757 68.6761 196.403 68.3936Z" fill="#11101F"/>
<path d="M193.892 67.4119C194.137 66.8395 194.479 66.4381 194.635 66.5198C194.791 66.6016 194.769 67.122 194.524 67.6944C194.278 68.2668 193.937 68.6682 193.78 68.5939C193.624 68.5195 193.647 67.9843 193.892 67.4119Z" fill="#11101F"/>
<path d="M191.892 69.6199C191.506 69.3448 191.29 69.0029 191.402 68.8393C191.513 68.6758 191.915 68.7724 192.294 69.0401C192.673 69.3077 192.896 69.6571 192.784 69.7834C192.673 69.9098 192.286 69.8801 191.892 69.6199Z" fill="#11101F"/>
<path d="M192.562 68.4825C192.413 68.0216 192.451 67.6053 192.636 67.5458C192.822 67.4864 193.09 67.806 193.238 68.2892C193.387 68.7724 193.35 69.159 193.164 69.2185C192.978 69.2779 192.711 68.936 192.562 68.4825Z" fill="#11101F"/>
<path d="M191.543 70.8538C191.068 71.0471 190.629 71.0768 190.562 70.9132C190.495 70.7497 190.822 70.4524 191.305 70.2591C191.788 70.0658 192.212 70.0361 192.279 70.1996C192.346 70.3631 191.996 70.6233 191.543 70.8538Z" fill="#11101F"/>
<path d="M196.359 67.189C196.761 66.795 197.169 66.5572 197.281 66.6612C197.392 66.7653 197.155 67.1816 196.753 67.583C196.352 67.9845 195.951 68.2224 195.839 68.1109C195.728 67.9993 196.003 67.5905 196.359 67.189Z" fill="#11101F"/>
</svg>
