<svg width="55" height="55" viewBox="0 0 55 55" fill="none" xmlns="http://www.w3.org/2000/svg">
<circle cx="27.8234" cy="27.7043" r="26.5637" fill="white" stroke="black"/>
<path d="M22.5508 27.666V26.0737L27.2426 28.7573L22.5508 31.4119V29.9068" fill="black"/>
<path d="M40.861 24.9448H14.8666L14.7803 23.9038C14.7667 23.7155 14.4305 19.2313 17.0926 16.1466C18.5282 14.4817 20.5316 13.5541 23.0438 13.3862C25.3243 13.2365 31.7957 13.3703 32.4135 13.384C32.8859 13.3658 35.9706 13.3477 38.3192 15.6521C40.1954 17.4939 41.0654 20.2543 40.9064 23.8584L40.861 24.9448ZM17.0495 22.6767H38.6531C38.5941 20.2974 37.9535 18.4873 36.7474 17.2898C34.987 15.5455 32.5134 15.6476 32.4884 15.6499H32.3999C32.3317 15.6499 25.4402 15.4979 23.1937 15.6499C21.3175 15.7746 19.8456 16.4369 18.8212 17.6164C17.4492 19.1996 17.1176 21.3951 17.0495 22.6767Z" fill="black"/>
<path d="M28.8523 42.0716C25.1355 42.0716 21.9197 41.915 21.7274 41.9061C21.6446 41.9061 14.542 41.3917 14.835 33.5981L14.8752 32.5225H40.9978L41.0202 33.616C41.0806 36.3332 39.8327 41.5595 34.6958 41.9039C32.8442 42.0291 30.7845 42.0716 28.8523 42.0716ZM17.0982 34.7588C17.4739 39.2315 21.383 39.6407 21.8593 39.6787C21.9175 39.6787 29.2392 40.0343 34.546 39.6787C37.697 39.4551 38.5088 36.4427 38.7145 34.7588H17.0982Z" fill="black"/>
<path d="M22.5564 27.7036H15.0625V29.6425H22.5564V27.7036Z" fill="black"/>
<path d="M32.2033 29.8196V31.4119L27.5137 28.7283L32.2033 26.0737V27.5788" fill="black"/>
<path d="M32.2068 29.7817H39.9199V27.8428H32.2068V29.7817Z" fill="black"/>
</svg>
