<svg width="32" height="32" viewBox="0 0 32 32" fill="none" xmlns="http://www.w3.org/2000/svg">
<circle cx="16" cy="16" r="16" fill="black"/>
<path d="M12.3379 15.836V14.7446L15.5537 16.584L12.3379 18.4035V17.3719" fill="#FFC13E"/>
<path d="M24.8902 13.9707H7.07323L7.01406 13.2571C7.00472 13.1281 6.7743 10.0545 8.59897 7.94019C9.58293 6.79908 10.9561 6.16323 12.678 6.04819C14.2411 5.94558 18.6767 6.0373 19.1002 6.04663C19.424 6.0342 21.5383 6.02176 23.1481 7.60128C24.4341 8.86365 25.0304 10.7557 24.9214 13.226L24.8902 13.9707ZM8.56939 12.416H23.3769C23.3365 10.7852 22.8974 9.54459 22.0707 8.72374C20.8641 7.52821 19.1687 7.59817 19.1515 7.59973H19.0908C19.0441 7.59973 14.3205 7.49556 12.7808 7.59973C11.4948 7.68523 10.4859 8.13919 9.78376 8.9476C8.8434 10.0327 8.6161 11.5376 8.56939 12.416Z" fill="#FFC13E"/>
<path d="M16.6548 25.7087C14.1072 25.7087 11.903 25.6014 11.7712 25.5953C11.7145 25.5953 6.84626 25.2427 7.04706 19.9009L7.07465 19.1636H24.9795L24.9949 19.9131C25.0362 21.7755 24.1809 25.3577 20.66 25.5938C19.3909 25.6796 17.9791 25.7087 16.6548 25.7087ZM8.59828 20.6964C8.85579 23.762 11.5352 24.0425 11.8617 24.0686C11.9015 24.0686 16.92 24.3123 20.5573 24.0686C22.7171 23.9153 23.2735 21.8506 23.4145 20.6964H8.59828Z" fill="#FFC13E"/>
<path d="M12.3416 15.8618H7.20508V17.1908H12.3416V15.8618Z" fill="#FFC13E"/>
<path d="M18.9565 17.3121V18.4035L15.7422 16.5641L18.9565 14.7446V15.7762" fill="#FFC13E"/>
<path d="M18.9535 17.2866H24.2402V15.9577H18.9535V17.2866Z" fill="#FFC13E"/>
</svg>
