<svg width="328" height="218" viewBox="0 0 328 218" fill="none" xmlns="http://www.w3.org/2000/svg">
<path d="M89.1216 51.373L15.501 66.2478L72.6906 86.2557L146.097 69.187L89.1216 51.373Z" fill="#F76854"/>
<path d="M72.7087 86.4464H72.661L14.8516 66.2298L15.4952 66.0986L89.1575 51.1941H89.2052L146.812 69.2048L72.7087 86.4464ZM16.1806 66.2954L72.7087 86.0648L145.417 69.1571L89.1099 51.5578L16.1806 66.2954Z" fill="black"/>
<path d="M146.991 137.492L157.564 114.026L129.422 102.943L70.2715 128.454L71.8687 164.111L146.991 137.492Z" fill="#FFC13D"/>
<path d="M71.7018 164.362V164.117L70.0986 128.346L70.2119 128.299L129.428 102.758H129.499L157.814 113.913L157.737 114.08L147.14 137.617H147.069L71.7018 164.362ZM70.4562 128.591L72.0355 163.879L146.86 137.366L157.337 114.127L129.422 103.14L70.4562 128.591Z" fill="black"/>
<path d="M7.61621 115.367L15.5009 133.986L71.8681 164.111L70.2709 128.453L7.61621 110.872V115.367Z" fill="#FFC13D"/>
<path d="M72.0649 164.415L71.7848 164.266L15.358 134.141V134.081L7.4375 115.367V110.634L7.66397 110.699L70.4438 128.316V128.447L72.0649 164.415ZM15.6441 133.861L71.6656 163.801L70.0862 128.591L7.79508 111.11V115.331L15.6441 133.861Z" fill="black"/>
<path d="M69.4961 129.992L72.6905 86.2557L146.097 69.187L161.562 104.922L160.495 115.057L139.171 122.033L133.128 117.263L133.247 112.44L100.934 121.973L103.318 127.529L99.0266 134.529L75.581 142.094L69.4961 129.992Z" fill="#FFC13D"/>
<path d="M75.4918 142.314L75.4203 142.177L69.3115 130.027V129.967L72.5238 86.0944L72.6549 86.0646L146.204 68.978L146.264 69.1152L161.759 104.886V104.928L160.68 115.182L160.567 115.218L139.136 122.217L132.944 117.334V117.245L133.063 112.66L101.178 122.068L103.52 127.529L103.473 127.607L99.146 134.659L75.4918 142.314ZM69.6751 129.967L75.6884 141.891L98.9314 134.391L103.139 127.535L100.713 121.871L100.91 121.818L133.456 112.213L133.331 117.197L139.231 121.847L160.317 114.92L161.378 104.928L146.013 69.3954L72.8635 86.3985L69.6751 129.967Z" fill="black"/>
<path d="M15.5022 66.2478L0.179688 101.75V111.838L63.9548 142.094L69.4974 129.992L72.6918 86.2557L15.5022 66.2478Z" fill="#FFC13D"/>
<path d="M64.0433 142.332L0 111.951V101.679L15.394 66.0271L15.549 66.0808L72.8697 86.1304V86.2675L69.6514 130.069L64.0433 142.332ZM0.357584 111.724L63.8705 141.856L69.3177 129.932L72.5061 86.3629L15.6026 66.4742L0.357584 101.792V111.724Z" fill="black"/>
<path d="M242.215 84.5386L133.391 140.413L136.186 90.6792L240.243 25.8623L242.215 84.5386Z" fill="#F76854"/>
<path d="M133.194 140.699V140.383L135.995 90.5543L136.073 90.5066L240.368 25.5227V25.8327L242.401 84.658L242.299 84.7117L133.194 140.699ZM136.359 90.7629L133.588 140.103L242.055 84.4255L240.1 26.1785L136.359 90.7629Z" fill="black"/>
<path d="M133.045 140.943L135.882 90.4945L240.541 25.302L242.561 84.7295L242.382 84.8189L133.045 140.943ZM136.49 90.8642L133.736 139.882L241.894 84.3539L239.945 26.4288L136.49 90.8642Z" fill="#F76854"/>
<path d="M132.849 141.247V140.937L135.691 90.393L135.769 90.3393L240.708 24.9858V25.2959L242.71 84.8366L242.43 84.9797L132.849 141.247ZM136.055 90.5719L133.242 140.615L242.359 84.5743L240.368 25.5522L136.055 90.5719ZM133.54 140.156V139.846L136.299 90.7328L136.377 90.6792L240.076 26.0828V26.3928L242.031 84.4312L241.93 84.4848L133.54 140.156ZM136.669 90.9355L133.933 139.548L241.709 84.2404L239.778 26.7386L136.669 90.9355Z" fill="black"/>
<path d="M131.508 91.6631L232.859 49.7157L209.509 29.7913L131.508 91.6631Z" fill="#F76854"/>
<path d="M130.387 92.3247L131.394 91.5199L209.508 29.5527L209.621 29.6541L233.198 49.7693L232.924 49.8825L130.387 92.3247ZM209.502 30.0237L132.622 91.0072L232.519 49.662L209.502 30.0237Z" fill="black"/>
<path d="M129.541 92.8196L209.515 29.3799L233.455 49.8111L129.541 92.8196ZM209.497 30.2205L133.498 90.5065L232.257 49.6203L209.497 30.2205Z" fill="#F76854"/>
<path d="M128.42 93.4812L129.427 92.6824L209.514 29.1472L209.627 29.2426L233.794 49.8645L233.526 49.9778L128.42 93.4812ZM209.508 29.6122L130.655 92.1637L233.115 49.7572L209.508 29.6122ZM132.353 91.168L133.361 90.3632L209.502 29.964L209.615 30.0594L232.602 49.6738L232.328 49.787L132.353 91.168ZM209.496 30.4052L134.594 89.8505L231.917 49.5665L209.496 30.4052Z" fill="black"/>
<path d="M308.792 31.4844L309.305 43.2113L234.456 101.524L233.407 89.3319L203.65 62.1579L283.243 18.7559L308.792 31.4844Z" fill="#F76854"/>
<path d="M234.307 101.87V101.536L233.235 89.4274L203.347 62.1222L203.567 61.997L283.237 18.5532L283.326 18.595L308.953 31.3711V31.4725L309.472 43.3007L234.307 101.87ZM203.961 62.1938L233.58 89.2426V89.3141L234.594 101.178L309.09 43.1279L308.613 31.5977L283.249 18.9586L203.961 62.1938Z" fill="black"/>
<path d="M234.218 102.132L233.127 89.481L203.138 62.0924L283.237 18.3982L309.096 31.2817L309.626 43.3603L234.218 102.132ZM204.216 62.2235L233.741 89.1829L234.748 100.916L309.006 43.0861L308.506 31.705L283.248 19.1136L204.216 62.2235Z" fill="#F76854"/>
<path d="M234.039 102.478L234.009 102.144L232.93 89.5645L202.804 62.0567L203.024 61.9315L283.23 18.1956L283.32 18.2373L309.274 31.1685V31.2758L309.805 43.4498L234.039 102.478ZM203.418 62.1282L233.276 89.4274V89.493L234.337 101.816L309.429 43.3067L308.911 31.4248L283.242 18.601L203.418 62.1282ZM234.569 101.262V100.928L233.568 89.2664L203.918 62.1878L204.139 62.0626L283.248 18.905L283.332 18.9527L308.655 31.5977V31.705L309.161 43.1816L234.569 101.262ZM204.502 62.2594L233.884 89.0876V89.1591L234.861 100.564L308.762 42.9729L308.267 31.7945L283.236 19.3104L204.502 62.2594Z" fill="black"/>
<path d="M211.41 68.6385L243.122 63.3206L257.378 71.8639L233.211 89.332L211.41 68.6385Z" fill="#F76854"/>
<path d="M233.193 89.5646L211.028 68.5194L211.38 68.4598L243.157 63.1299L243.211 63.1657L257.705 71.8461L257.484 72.007L233.193 89.5646ZM211.797 68.7578L233.252 89.0996L257.091 71.8759L243.127 63.5293L211.797 68.7578Z" fill="black"/>
<path d="M233.181 89.7435L210.736 68.43L243.157 62.9868L257.931 71.8401L233.181 89.7435ZM212.089 68.8771L233.234 88.9506L256.805 71.9176L243.056 63.6843L212.089 68.8771Z" fill="#F76854"/>
<path d="M233.169 89.9758L210.379 68.3105L210.736 68.2568L243.247 62.8018H243.306L258.307 71.7922L258.087 71.9532L233.169 89.9758ZM211.118 68.549L233.199 89.5048L257.634 71.8518L243.157 63.1952L211.118 68.549ZM233.223 89.153L211.708 68.7278L212.06 68.6682L243.092 63.4635L243.151 63.4993L257.133 71.8458L256.913 72.0068L233.223 89.153ZM212.477 68.9663L233.252 88.688L256.495 71.8995L243.038 63.8391L212.477 68.9663Z" fill="black"/>
<path d="M233.21 131.679L310.245 167.277L322.91 132.18L327.082 134.731L327.481 132.233C327.731 130.635 326.784 129.252 325.222 128.591L323.595 127.994L233.425 89.3379L233.21 131.679Z" fill="#F76854"/>
<path d="M310.353 167.527L310.174 167.45L233.025 131.792V131.679L233.228 89.0579L233.478 89.1652L323.649 127.828L325.264 128.424C326.987 129.169 327.892 130.636 327.648 132.269L327.213 135.035L323.041 132.454L310.353 167.527ZM233.389 131.56L310.144 167.033L322.815 131.911L326.933 134.439L327.285 132.204C327.511 130.749 326.689 129.425 325.133 128.752L323.518 128.155L233.586 89.5944L233.389 131.56Z" fill="black"/>
<path d="M310.431 167.712L310.115 167.563L232.895 131.882L233.097 88.8491L233.532 89.0399L323.703 127.696L325.312 128.293C327.1 129.062 328.042 130.588 327.773 132.281L327.303 135.262L323.077 132.663L310.431 167.712ZM233.55 131.476L310.091 166.848L322.767 131.709L326.85 134.213L327.172 132.186C327.392 130.791 326.576 129.521 325.103 128.877L323.494 128.281L233.723 89.809L233.55 131.476Z" fill="#F76854"/>
<path d="M310.532 167.956L310.038 167.73L232.71 131.995V131.876L232.919 88.5808L233.604 88.8729L323.775 127.535L325.378 128.132C327.249 128.942 328.233 130.516 327.953 132.305L327.44 135.542L323.173 132.919L310.532 167.956ZM233.073 131.756L310.33 167.468L322.982 132.382L327.154 134.958L327.583 132.251C327.833 130.647 326.927 129.193 325.199 128.453L323.602 127.857L233.234 89.1055L233.073 131.756ZM310.169 167.086L309.99 167.003L233.348 131.583V131.47L233.544 89.5287L233.795 89.6361L323.542 128.12L325.14 128.716C326.725 129.395 327.559 130.737 327.327 132.215L326.963 134.517L322.839 131.983L310.169 167.086ZM233.705 131.351L309.99 166.597L322.678 131.422L326.719 133.909L326.999 132.12C327.202 130.808 326.445 129.622 325.032 129.008L323.435 128.412L233.902 90.0832L233.705 131.351Z" fill="black"/>
<path d="M150.483 170.258L233.211 131.679L310.252 167.277L227.441 216.545L150.483 170.258Z" fill="#F76854"/>
<path d="M227.441 216.754L227.352 216.7L150.096 170.24L150.406 170.097L233.21 131.476L233.282 131.512L310.633 167.283L310.341 167.456L227.441 216.754ZM150.865 170.282L227.441 216.337L309.864 167.301L233.21 131.876L150.865 170.282Z" fill="black"/>
<path d="M227.441 216.915L227.28 216.82L149.804 170.222L233.204 131.327L233.335 131.387L310.925 167.247L227.441 216.915ZM151.157 170.294L227.441 216.2L309.572 167.313L233.21 132.025L151.157 170.294Z" fill="#F76854"/>
<path d="M227.442 217.124L227.185 216.975L149.423 170.204L149.733 170.061L233.211 131.16L233.419 131.256L311.313 167.253L311.021 167.426L227.442 217.124ZM150.186 170.246L227.436 216.706L310.538 167.265L233.211 131.524L150.186 170.246ZM227.448 216.414L227.352 216.361L150.782 170.276L151.086 170.133L233.217 131.828L233.294 131.864L309.966 167.295L309.668 167.468L227.448 216.414ZM151.539 170.317L227.448 215.967L309.185 167.337L233.211 132.221L151.539 170.317Z" fill="black"/>
<path d="M233.21 131.679L233.407 89.332L133.152 129.711L150.483 170.258L233.21 131.679Z" fill="#F76854"/>
<path d="M150.388 170.508L132.902 129.616L133.069 129.544L233.622 89.0635L233.419 131.792L150.388 170.508ZM133.391 129.818L150.573 170.025L233.026 131.559L233.229 89.6L133.391 129.818Z" fill="black"/>
<path d="M150.317 170.687L132.735 129.551L233.729 88.873L233.526 131.894L233.342 131.977L150.317 170.687ZM133.57 129.884L150.644 169.829L232.889 131.47L233.085 89.7971L133.57 129.884Z" fill="#F76854"/>
<path d="M150.227 170.926L132.497 129.443L132.664 129.372L233.908 88.5928V88.8611L233.705 131.995L233.419 132.126L150.227 170.926ZM132.974 129.64L150.412 170.443L233.348 131.756L233.544 89.1234L132.974 129.64ZM150.549 170.079L133.331 129.789L133.504 129.717L233.27 89.5347L233.074 131.589L150.549 170.079ZM133.808 129.968L150.74 169.572L232.716 131.339L232.907 90.0475L133.808 129.968Z" fill="black"/>
<path d="M143.033 134.183L142.765 138.648L133.289 129.664L143.033 134.183Z" fill="white"/>
<path d="M142.766 138.97C142.725 138.971 142.684 138.963 142.646 138.948C142.609 138.932 142.574 138.91 142.545 138.881L133.069 129.89C133.012 129.839 132.975 129.769 132.965 129.693C132.956 129.617 132.974 129.54 133.017 129.476C133.06 129.413 133.125 129.367 133.199 129.348C133.274 129.328 133.352 129.337 133.421 129.371L143.171 133.896C143.228 133.923 143.276 133.966 143.308 134.021C143.34 134.075 143.354 134.138 143.35 134.201L143.082 138.672C143.076 138.732 143.054 138.789 143.018 138.837C142.982 138.885 142.934 138.923 142.879 138.946C142.843 138.96 142.805 138.968 142.766 138.97ZM134.905 130.761L142.492 137.956L142.706 134.379L134.905 130.761Z" fill="black"/>
<path d="M322.785 132.269C322.785 132.269 320.246 127.559 320.008 127.535L303.017 123.815L297.867 128.865L296.753 138.815L306.849 154.614L308.172 158.036L322.785 132.269Z" fill="#F76854"/>
<path d="M308.118 158.453L306.658 154.68L296.526 138.863V138.797L297.653 128.781L297.694 128.74L302.909 123.618H303.005L320.038 127.356C320.127 127.356 320.353 127.392 322.934 132.186L322.982 132.275L322.934 132.358L308.118 158.453ZM296.914 138.779L306.98 154.524L308.172 157.619L322.547 132.275C321.744 130.709 320.863 129.185 319.906 127.708L303.07 124.006L298.04 128.942L296.914 138.779Z" fill="black"/>
<path d="M308.119 158.769L306.569 154.763L296.438 138.892L297.582 128.722L302.946 123.469L320.038 127.219C320.229 127.249 320.503 127.416 323.018 132.12L323.095 132.275L308.119 158.769ZM297.081 138.743L307.135 154.471L308.226 157.297L322.422 132.257C321.355 130.278 320.157 128.173 319.865 127.815L303.112 124.149L298.172 129.002L297.081 138.743Z" fill="#F76854"/>
<path d="M308.118 159.181L306.425 154.811L296.294 138.928V138.863L297.391 128.638L297.432 128.59L302.85 123.272H302.945L320.091 127.028C320.353 127.058 320.556 127.088 323.214 132.018L323.345 132.257L323.297 132.346L308.118 159.181ZM296.61 138.851L306.741 154.661L308.172 158.352L322.964 132.275L322.928 132.209C321.825 130.158 320.33 127.44 320.061 127.398L302.993 123.666L297.76 128.805L296.61 138.851ZM308.196 157.714L306.968 154.536L296.89 138.785L297.987 128.93L298.034 128.883L303.046 123.964H303.142L319.954 127.648L319.99 127.696C320.3 128.072 321.521 130.23 322.57 132.162L322.618 132.251L322.564 132.34L308.196 157.714ZM297.265 138.696L307.284 154.375L308.255 156.879L322.219 132.263C321.092 130.194 320.067 128.406 319.763 127.988L303.171 124.358L298.344 129.097L297.265 138.696Z" fill="black"/>
<path d="M233.062 123.94V123.696L233.228 89.022L233.503 89.177L255.768 102.049V102.114L260.47 115.952L260.291 116.005L233.062 123.94ZM233.586 89.642L233.425 123.457L260.029 115.707L255.464 102.287L233.586 89.642Z" fill="black"/>
<path d="M232.739 124.364V124.119L232.912 88.4734L233.18 88.6284L256.018 101.834V101.899L260.869 116.166L260.684 116.214L232.739 124.364ZM233.276 89.0934L233.103 123.881L260.44 115.922L255.732 102.078L233.276 89.0934ZM233.377 123.517V123.279L233.544 89.5644L233.812 89.7194L255.505 102.239V102.305L260.065 115.719L259.886 115.767L233.377 123.517ZM233.901 90.1904L233.741 123.034L259.624 115.498L255.207 102.508L233.901 90.1904Z" fill="black"/>
<path d="M243.837 126.563C245.562 128.146 247.589 129.362 249.797 130.141C256.281 132.567 264.636 132.239 271.222 130.486C271.699 130.361 272.164 130.23 272.622 130.087C274.333 129.575 275.988 128.894 277.563 128.054C278.444 127.589 279.273 127.031 280.036 126.391C284.298 122.724 285.054 117.877 281.145 113.978C279.684 112.586 277.984 111.469 276.127 110.681C276.127 111.11 276.127 111.54 276.127 111.975C276.157 117.835 269.732 121.871 260.22 124.232C257.622 124.868 254.992 125.365 252.341 125.723C249.63 126.104 246.775 126.391 243.837 126.563Z" fill="#F76854"/>
<path d="M260.44 132.054C256.79 132.111 253.158 131.521 249.713 130.313C247.491 129.522 245.452 128.291 243.717 126.695L243.413 126.408H243.83C246.81 126.23 249.653 125.943 252.323 125.568C254.966 125.212 257.588 124.717 260.178 124.083C267.395 122.295 275.983 118.718 275.953 111.999C275.953 111.569 275.953 111.14 275.953 110.711V110.425L276.216 110.544C278.091 111.339 279.807 112.466 281.281 113.871C282.11 114.625 282.769 115.547 283.217 116.574C283.665 117.601 283.891 118.712 283.88 119.833C283.79 122.217 282.509 124.554 280.167 126.563C279.392 127.214 278.551 127.781 277.658 128.257C276.073 129.102 274.408 129.787 272.687 130.302C272.234 130.439 271.764 130.576 271.281 130.701C267.739 131.611 264.096 132.066 260.44 132.054ZM244.277 126.718C245.916 128.141 247.806 129.245 249.85 129.974C256.781 132.561 265.405 131.846 271.168 130.313C271.644 130.188 272.109 130.051 272.556 129.914C274.256 129.407 275.901 128.732 277.467 127.899C278.335 127.434 279.153 126.883 279.911 126.253C282.169 124.304 283.415 122.08 283.486 119.779C283.492 118.711 283.273 117.654 282.843 116.676C282.414 115.699 281.785 114.822 280.995 114.103C279.622 112.792 278.031 111.731 276.293 110.967C276.293 111.301 276.293 111.635 276.293 111.975C276.323 117.496 270.774 121.794 260.249 124.411C257.645 125.046 255.009 125.544 252.353 125.902C249.814 126.259 247.09 126.534 244.265 126.718H244.277Z" fill="black"/>
<path d="M178.53 123.559C179.323 124.206 180.155 124.803 181.021 125.347C184.782 127.69 189.848 129.521 196.111 130.302C201.979 130.97 207.912 130.808 213.734 129.819C211.355 128.258 209.248 126.319 207.495 124.077C199.282 122.378 192.118 119.904 187.327 116.727C184.347 114.747 182.273 112.488 181.451 109.966C181.136 109.03 181.005 108.042 181.063 107.056C181.063 106.659 181.087 106.283 181.135 105.93C171.271 108.911 170.967 117.358 178.53 123.559Z" fill="#F76854"/>
<path d="M202.923 130.88C200.638 130.884 198.355 130.747 196.087 130.469C190.252 129.741 185.038 128.036 180.991 125.526L180.925 125.484C180.051 124.943 179.213 124.346 178.416 123.696C174.399 120.405 172.504 116.464 173.213 112.893C173.863 109.626 176.658 107.086 181.086 105.739L181.337 105.661V105.924C181.301 106.299 181.277 106.669 181.259 107.05C181.208 108.014 181.338 108.978 181.641 109.894C182.421 112.279 184.376 114.527 187.445 116.56C191.969 119.54 198.918 122.098 207.548 123.887H207.613L207.655 123.94C209.396 126.165 211.49 128.091 213.853 129.64L214.234 129.896L213.781 129.968C210.191 130.557 206.561 130.862 202.923 130.88ZM181.056 125.145L181.122 125.18C185.127 127.684 190.318 129.383 196.129 130.111C201.828 130.758 207.589 130.62 213.251 129.699C211.028 128.19 209.052 126.346 207.393 124.232C198.751 122.444 191.778 119.886 187.231 116.87C184.084 114.783 182.088 112.476 181.271 110.014C180.955 109.053 180.819 108.042 180.872 107.033C180.872 106.74 180.907 106.436 180.931 106.162C176.76 107.48 174.173 109.888 173.559 112.959C172.88 116.399 174.751 120.208 178.643 123.416C179.41 124.042 180.216 124.62 181.056 125.145Z" fill="black"/>
<path d="M232.228 134.994C233.367 135.24 234.379 135.89 235.076 136.824C237.246 139.477 237.895 143.614 242.109 140.693C242.704 140.286 243.402 140.054 244.122 140.023C244.843 139.993 245.558 140.165 246.185 140.52C246.674 140.798 247.189 141.026 247.723 141.2C255.19 143.644 260.834 133.336 264.243 137.098C264.436 137.316 264.608 137.551 264.756 137.802L264.929 138.04C265.552 138.898 266.308 139.651 267.169 140.27C270.072 142.345 273.505 142.166 274.005 137.939C274.041 134.958 275.4 133.903 276.616 133.169C277.921 132.352 279.071 131.858 278.278 129.658C278.16 129.332 278.022 129.014 277.867 128.704C277.772 128.507 277.659 128.298 277.539 128.078C274.574 129.584 271.394 130.624 268.111 131.16C262.95 132.108 257.121 132.18 252.085 130.856C251.303 130.651 250.531 130.406 249.773 130.123C249.058 130.534 248.331 130.916 247.604 131.267C244.864 132.608 241.969 133.605 238.986 134.236C236.762 134.698 234.499 134.952 232.228 134.994Z" fill="#F76854"/>
<path d="M239.581 141.891C239.415 141.891 239.249 141.875 239.086 141.844C237.835 141.575 237.066 140.3 236.256 138.952C235.857 138.257 235.409 137.592 234.915 136.961C234.252 136.048 233.276 135.411 232.173 135.172L230.475 134.845H232.203C234.462 134.805 236.713 134.554 238.926 134.093C241.894 133.471 244.774 132.486 247.502 131.16C248.241 130.802 248.968 130.421 249.665 130.021L249.736 129.98H249.82C250.57 130.261 251.334 130.504 252.108 130.707C256.775 131.935 262.443 132.043 268.063 131.005C271.327 130.456 274.489 129.41 277.437 127.905L277.592 127.822L277.676 127.977C277.801 128.197 277.914 128.412 278.01 128.608C278.168 128.924 278.307 129.248 278.427 129.58C279.213 131.756 278.176 132.394 276.973 133.128L276.692 133.3C275.435 134.087 274.201 135.089 274.165 137.945C273.897 140.198 272.866 141.104 272.044 141.468C270.679 142.064 268.808 141.683 267.05 140.419C266.172 139.791 265.401 139.026 264.767 138.153L264.588 137.909C264.446 137.665 264.278 137.438 264.088 137.229C262.568 135.554 260.547 136.872 257.985 138.547C255.166 140.389 251.656 142.72 247.651 141.379C247.106 141.198 246.579 140.966 246.077 140.687C245.481 140.344 244.801 140.178 244.114 140.206C243.427 140.235 242.763 140.457 242.197 140.848C241.45 141.451 240.538 141.815 239.581 141.891ZM233.258 135.155C234.016 135.523 234.679 136.062 235.195 136.728C235.701 137.373 236.157 138.054 236.56 138.767C237.37 140.097 238.061 141.254 239.164 141.486C239.933 141.653 240.856 141.349 241.989 140.562C242.61 140.133 243.34 139.888 244.094 139.857C244.848 139.825 245.595 140.008 246.25 140.383C246.733 140.652 247.24 140.875 247.764 141.051C251.584 142.297 254.886 140.151 257.788 138.255C260.387 136.562 262.627 135.095 264.344 136.997C264.545 137.222 264.724 137.466 264.88 137.724C264.93 137.8 264.984 137.874 265.041 137.945C265.654 138.789 266.398 139.53 267.246 140.139C268.903 141.331 270.631 141.701 271.883 141.152C272.944 140.681 273.599 139.572 273.796 137.939C273.832 134.922 275.208 133.813 276.49 133.008L276.77 132.835C277.962 132.102 278.76 131.613 278.081 129.711C277.978 129.393 277.859 129.081 277.723 128.775C277.652 128.626 277.568 128.471 277.485 128.31C274.547 129.786 271.405 130.815 268.164 131.363C262.496 132.412 256.775 132.299 252.073 131.059C251.298 130.856 250.541 130.618 249.826 130.355C249.141 130.737 248.431 131.112 247.716 131.458C244.962 132.806 242.051 133.807 239.051 134.439C237.147 134.825 235.216 135.058 233.276 135.137L233.258 135.155Z" fill="black"/>
<path d="M207.494 124.065C209.025 126.026 210.832 127.755 212.858 129.199L213.144 129.401C213.341 129.538 213.537 129.676 213.74 129.807C216.607 131.691 219.77 133.081 223.097 133.92C224.527 134.29 225.981 134.565 227.447 134.743L228.413 134.844C229.677 134.963 230.946 135.013 232.215 134.993C238.378 134.873 244.412 133.205 249.761 130.141C247.553 129.362 245.526 128.146 243.801 126.563C243.02 126.611 242.233 126.653 241.417 126.683C238.801 126.796 236.125 126.832 233.431 126.79C227.313 126.702 221.206 126.234 215.146 125.389C212.524 125.019 209.961 124.602 207.494 124.065Z" fill="#A09BE2"/>
<path d="M231.691 135.172C230.594 135.172 229.498 135.125 228.431 135.029H228.312L227.43 134.934C225.965 134.757 224.514 134.484 223.085 134.117H223.043C219.696 133.272 216.515 131.87 213.633 129.968C213.43 129.837 213.234 129.7 213.037 129.562L212.995 129.533L212.763 129.372C210.726 127.917 208.909 126.176 207.369 124.203L207.071 123.815L207.548 123.917C209.986 124.417 212.56 124.864 215.194 125.234H215.224C221.284 126.08 227.391 126.545 233.509 126.629C236.226 126.671 238.908 126.629 241.489 126.522C242.281 126.492 243.062 126.45 243.843 126.403H243.92L243.974 126.456C245.678 128.018 247.678 129.223 249.856 129.998L250.214 130.135L249.88 130.326C244.521 133.383 238.485 135.057 232.317 135.196H231.721L231.691 135.172ZM228.312 134.654H228.437C229.671 134.768 230.911 134.816 232.15 134.797L232.186 134.761L232.269 134.797C238.255 134.67 244.119 133.08 249.35 130.165C247.284 129.392 245.385 128.232 243.753 126.748C242.997 126.796 242.234 126.832 241.465 126.862C238.884 126.975 236.191 127.011 233.467 126.969C227.325 126.886 221.194 126.418 215.111 125.568H215.075C212.62 125.222 210.218 124.811 207.924 124.346C209.378 126.135 211.065 127.722 212.942 129.062L213.18 129.229L213.222 129.258C213.418 129.395 213.615 129.533 213.818 129.664C216.659 131.534 219.793 132.915 223.091 133.748H223.145C224.554 134.108 225.985 134.377 227.43 134.552L228.27 134.642L228.312 134.654Z" fill="black"/>
<path d="M179.388 129.789C179.746 130.201 180.196 130.523 180.701 130.73C181.206 130.937 181.752 131.023 182.296 130.981C184.322 130.939 185.783 131.458 186.665 132.567C188 134.588 188.667 135.101 190.974 134.195L191.057 134.165C191.741 133.943 192.469 133.889 193.179 134.007C193.888 134.125 194.559 134.412 195.136 134.843C195.712 135.274 196.176 135.837 196.49 136.484C196.804 137.132 196.958 137.845 196.939 138.565C196.892 140.872 197.386 142.327 198.191 143.203C198.597 143.616 199.089 143.937 199.631 144.143C200.173 144.349 200.753 144.435 201.332 144.395C204.443 144.395 206.29 141.879 207.834 139.709C209.377 137.539 210.623 135.673 212.524 136.913C219.229 141.683 216.976 133.64 223.073 133.968C219.746 133.129 216.583 131.739 213.716 129.854C209.562 130.534 205.354 130.823 201.147 130.719C190.866 130.415 183.184 127.44 178.5 123.606C177.51 125.276 177.898 128.179 179.388 129.789Z" fill="#F76854"/>
<path d="M201.296 144.532C200.703 144.568 200.109 144.476 199.553 144.263C198.998 144.051 198.495 143.722 198.078 143.298C197.166 142.315 196.731 140.711 196.778 138.529C196.793 137.832 196.637 137.143 196.326 136.52C196.014 135.897 195.556 135.359 194.991 134.952C194.444 134.54 193.805 134.267 193.129 134.155C192.453 134.044 191.761 134.099 191.111 134.314L191.033 134.344C188.56 135.321 187.827 134.654 186.51 132.651C185.681 131.607 184.257 131.101 182.296 131.142C181.728 131.189 181.156 131.103 180.627 130.891C180.097 130.679 179.624 130.347 179.245 129.92C177.707 128.269 177.29 125.258 178.357 123.475L178.458 123.291L178.625 123.428C183.846 127.708 191.844 130.218 201.147 130.498C205.337 130.598 209.526 130.309 213.662 129.634H213.734L213.794 129.676C216.645 131.548 219.789 132.93 223.097 133.765L223.043 134.123C220.451 133.962 219.42 135.417 218.514 136.681C217.322 138.356 216.285 139.799 212.399 137.033C210.7 135.924 209.544 137.551 208.084 139.608L207.959 139.781C206.541 141.784 204.598 144.521 201.308 144.55L201.296 144.532ZM192.499 133.73C193.493 133.733 194.458 134.057 195.253 134.654C195.858 135.103 196.348 135.691 196.679 136.368C197.011 137.046 197.176 137.793 197.16 138.547C197.118 140.622 197.523 142.124 198.352 143.054C198.734 143.442 199.195 143.743 199.705 143.935C200.214 144.128 200.759 144.207 201.302 144.169H201.362C204.461 144.169 206.266 141.599 207.721 139.554L207.846 139.381C209.354 137.253 210.659 135.417 212.655 136.717C216.231 139.28 217.101 138.094 218.275 136.454C219.044 135.375 219.98 134.069 221.94 133.789C219.023 132.94 216.247 131.662 213.704 129.998C209.568 130.668 205.378 130.955 201.189 130.856C191.903 130.576 183.905 128.084 178.613 123.833C177.755 125.514 178.172 128.179 179.567 129.67C179.911 130.055 180.34 130.356 180.82 130.548C181.299 130.74 181.817 130.819 182.332 130.779C184.412 130.719 185.944 131.285 186.85 132.43C188.185 134.451 188.763 134.868 190.956 134.004L191.057 133.968C191.522 133.811 192.009 133.73 192.499 133.73Z" fill="black"/>
<path d="M180.533 139.066C185.932 146.184 201.642 151.043 218.919 153.046C215.576 148.044 213.27 140.878 207.852 139.662C206.309 141.832 204.461 144.324 201.35 144.348C201.089 144.354 200.828 144.342 200.569 144.312C198.543 144.068 196.868 142.684 196.958 138.541C196.976 137.822 196.822 137.108 196.509 136.461C196.195 135.813 195.73 135.25 195.154 134.819C194.578 134.388 193.907 134.102 193.197 133.984C192.488 133.866 191.76 133.92 191.075 134.141L190.992 134.171C188.686 135.077 188.012 134.564 186.683 132.543C185.801 131.434 184.341 130.916 182.315 130.958C181.77 130.999 181.224 130.913 180.719 130.706C180.214 130.499 179.764 130.177 179.406 129.765C178.746 131.171 178.459 132.723 178.572 134.272C178.753 136.025 179.434 137.688 180.533 139.066Z" fill="#D44454"/>
<path d="M219.282 153.272L218.895 153.225C199.776 151.007 185.377 145.749 180.389 139.173C179.275 137.776 178.583 136.09 178.393 134.314C178.278 132.734 178.569 131.152 179.239 129.717L179.352 129.467L179.537 129.669C179.881 130.055 180.31 130.355 180.79 130.548C181.269 130.74 181.787 130.819 182.302 130.778C184.382 130.719 185.914 131.285 186.82 132.43C188.155 134.451 188.733 134.868 190.926 134.004L191.027 133.968C191.731 133.734 192.481 133.674 193.213 133.793C193.944 133.913 194.636 134.208 195.229 134.654C195.835 135.103 196.324 135.691 196.656 136.368C196.987 137.046 197.152 137.793 197.136 138.547C197.065 142.016 198.191 143.847 200.593 144.133C200.844 144.161 201.097 144.173 201.35 144.169C204.449 144.169 206.254 141.599 207.709 139.554L207.774 139.459H207.893C211.988 140.377 214.342 144.64 216.618 148.759C217.399 150.172 218.204 151.633 219.068 152.932L219.282 153.272ZM180.675 138.964C185.574 145.427 199.717 150.601 218.555 152.837C217.769 151.645 217.024 150.274 216.303 148.968C214.086 144.956 211.797 140.812 207.929 139.876C206.517 141.867 204.58 144.514 201.373 144.544C201.093 144.544 200.819 144.544 200.569 144.502C197.988 144.192 196.725 142.189 196.802 138.541C196.816 137.844 196.661 137.155 196.35 136.531C196.038 135.908 195.58 135.37 195.014 134.964C194.467 134.552 193.829 134.278 193.153 134.167C192.477 134.056 191.785 134.11 191.135 134.326L191.057 134.355C188.584 135.333 187.851 134.666 186.534 132.662C185.705 131.619 184.281 131.112 182.32 131.154C181.798 131.197 181.273 131.127 180.78 130.949C180.288 130.771 179.839 130.489 179.465 130.123C178.888 131.434 178.643 132.867 178.75 134.296C178.933 136.006 179.601 137.628 180.675 138.97V138.964Z" fill="black"/>
<path d="M233.204 154.035C253.837 154.518 273.331 150.798 277.306 141.897C278.42 139.399 278.301 136.484 276.633 133.145C275.441 133.902 274.058 134.934 274.022 137.915C273.373 143.429 267.729 142.052 264.773 137.778C261.411 132.209 255.595 143.739 247.74 141.176C239.903 144.276 236.553 150.13 233.204 154.035Z" fill="#D44454"/>
<path d="M236.792 154.262C235.6 154.262 234.408 154.246 233.216 154.214H232.835L233.085 153.928C233.681 153.201 234.325 152.408 234.986 151.543C237.782 147.966 241.268 143.543 247.675 141.009H247.734H247.8C251.638 142.261 254.922 140.109 257.824 138.213C259.821 136.907 261.549 135.78 263.039 136.12C263.445 136.242 263.821 136.447 264.143 136.722C264.465 136.997 264.727 137.336 264.91 137.718C266.698 140.294 269.44 141.802 271.466 141.295C272.789 140.967 273.611 139.799 273.85 137.927C273.886 134.91 275.262 133.801 276.544 132.996L276.716 132.889L276.8 133.068C278.427 136.329 278.653 139.328 277.479 141.981C275.608 146.19 270.107 149.54 261.567 151.669C254.689 153.374 246.191 154.262 236.792 154.262ZM233.586 153.863C244.254 154.089 253.849 153.207 261.46 151.311C269.881 149.206 275.298 145.945 277.122 141.826C278.236 139.328 278.04 136.496 276.526 133.402C275.334 134.177 274.196 135.19 274.142 137.939C273.903 139.966 272.95 141.271 271.502 141.641C269.356 142.171 266.436 140.604 264.565 137.903C264.399 137.565 264.166 137.266 263.878 137.024C263.591 136.781 263.256 136.602 262.896 136.496C261.567 136.18 259.916 137.277 257.961 138.541C255.154 140.377 251.662 142.654 247.687 141.39C241.411 143.888 238.115 148.086 235.207 151.788C234.677 152.521 234.128 153.219 233.586 153.863Z" fill="black"/>
<path d="M207.852 139.662C209.284 140.004 210.594 140.737 211.636 141.778C214.425 144.425 216.267 148.867 218.519 152.432C218.651 152.64 218.782 152.843 218.919 153.028C220.76 155.788 222.918 157.887 226.07 157.976C229.11 158.06 231.148 156.396 233.186 154.018C236.536 150.113 239.885 144.276 247.704 141.182C247.17 141.008 246.655 140.78 246.167 140.502C245.539 140.147 244.824 139.975 244.104 140.005C243.383 140.036 242.686 140.268 242.09 140.675C240.35 141.867 239.218 141.867 238.33 141.271C236.369 139.936 235.642 135.631 232.209 134.97C229.135 135.021 226.068 134.66 223.091 133.897C216.994 133.569 219.247 141.611 212.542 136.842C210.963 135.81 209.836 136.919 208.614 138.577C208.37 138.91 208.114 139.292 207.852 139.662Z" fill="#FFC13D"/>
<path d="M226.297 158.179H226.082C222.506 158.078 220.295 155.442 218.77 153.153C218.633 152.95 218.495 152.742 218.364 152.557C217.649 151.424 216.964 150.172 216.302 148.98C214.872 146.392 213.4 143.722 211.535 141.933C210.518 140.913 209.239 140.195 207.839 139.858L207.571 139.799L207.822 139.453C208.048 139.131 208.275 138.815 208.495 138.517C209.633 136.979 210.879 135.584 212.667 136.728C216.243 139.292 217.113 138.105 218.287 136.466C219.157 135.274 220.23 133.741 222.757 133.741H223.12H223.156H223.21C226.13 134.487 229.136 134.842 232.149 134.797L232.185 134.755L232.286 134.803C234.468 135.232 235.588 137.086 236.577 138.726C237.039 139.635 237.675 140.446 238.449 141.11C239.045 141.51 240.028 141.879 242.025 140.514C242.646 140.085 243.375 139.841 244.129 139.809C244.883 139.777 245.631 139.96 246.286 140.335C246.769 140.604 247.276 140.827 247.8 141.003L248.276 141.158L247.805 141.337C241.488 143.835 238.186 148.044 235.29 151.758C234.628 152.599 234.009 153.392 233.383 154.143C231.547 156.247 229.449 158.179 226.297 158.179ZM208.155 139.548C209.507 139.929 210.739 140.652 211.731 141.647C213.662 143.477 215.152 146.172 216.594 148.801C217.256 149.993 217.935 151.227 218.644 152.378C218.776 152.581 218.907 152.789 219.044 152.974C221.243 156.265 223.406 157.744 226.07 157.845C229.008 157.929 230.993 156.349 233.043 153.952C233.639 153.225 234.283 152.432 234.944 151.567C237.674 148.086 241.065 143.769 247.198 141.212C246.812 141.057 246.436 140.88 246.071 140.681C245.475 140.338 244.795 140.171 244.108 140.2C243.421 140.228 242.757 140.451 242.191 140.842C240.547 141.981 239.289 142.171 238.222 141.438C237.4 140.741 236.727 139.886 236.244 138.922C235.248 137.271 234.217 135.566 232.185 135.166C229.11 135.218 226.041 134.859 223.061 134.099C220.48 133.974 219.485 135.399 218.555 136.663C217.363 138.338 216.326 139.781 212.44 137.014C211.064 136.114 210.086 136.919 208.763 138.702C208.59 138.976 208.358 139.256 208.155 139.548Z" fill="black"/>
<path d="M188.095 166.031C207.589 186.659 269.183 182.384 274.165 154.608C274.165 154.512 274.195 154.417 274.213 154.322C274.412 153.102 274.502 151.867 274.481 150.631C269.714 152.211 267.926 159.878 258.009 157.112C253.712 155.866 249.88 156.051 246.578 157.839C246.411 157.929 246.25 158.024 246.089 158.119C245.678 158.364 245.28 158.631 244.897 158.918L244.73 159.043L244.438 159.276L244.218 159.461L244.057 159.604C243.979 159.669 243.902 159.735 243.83 159.807L243.544 160.069C241.202 162.454 238.896 162.358 236.625 159.914C234.891 158.221 232.531 159.282 229.986 161.106C226.589 163.211 223.716 163.115 221.005 159.592C217.155 154.405 211.541 164.898 205.849 159.556C205.15 158.888 204.482 158.268 203.847 157.696L203.614 157.493L203.435 157.332L203.227 157.154C202.631 156.653 202.088 156.194 201.546 155.77L201.296 155.58L201.051 155.395L200.807 155.21C200.396 154.912 199.997 154.614 199.615 154.381L199.168 154.095C198.662 153.791 198.167 153.499 197.684 153.284L197.44 153.171L197.195 153.064L196.909 152.945L196.689 152.855C196.261 152.689 195.823 152.552 195.378 152.444L195.163 152.39L194.943 152.342L194.49 152.259H194.293L193.864 152.205L193.429 152.175H192.952C192.827 152.175 192.702 152.175 192.577 152.175H192.332H192.124L191.677 152.223L191.456 152.259C191.236 152.259 191.009 152.336 190.783 152.384L190.449 152.462C190.356 152.48 190.265 152.504 190.175 152.533L189.937 152.599L189.555 152.718C186.48 154.137 183.923 153.457 182.225 151.895C182.241 153.254 182.39 154.608 182.672 155.937C183.502 159.742 185.381 163.238 188.095 166.031Z" fill="#FFC13D"/>
<path d="M227.49 179.123C223.559 179.128 219.634 178.853 215.743 178.3C203.609 176.565 193.752 172.255 187.988 166.156C184.244 162.365 182.12 157.266 182.064 151.937V151.52L182.374 151.8C183.477 152.819 185.879 154.268 189.526 152.593L189.937 152.468L190.176 152.396L190.45 152.325H190.497L190.795 152.253C191.022 152.205 191.254 152.164 191.475 152.128L191.701 152.092L192.154 152.044H192.327H192.613H193.483H193.93L194.371 152.098H194.568L195.033 152.181L195.253 152.235L195.48 152.289C195.93 152.397 196.372 152.536 196.803 152.706L197.023 152.796L197.566 153.028L197.81 153.141C198.299 153.38 198.799 153.654 199.306 153.958L199.765 154.244C200.158 154.501 200.569 154.787 200.957 155.085L201.702 155.645C202.25 156.075 202.822 156.546 203.388 157.034L203.984 157.577C204.646 158.173 205.319 158.769 205.999 159.443C208.853 162.12 211.643 160.713 214.342 159.348C216.857 158.078 219.235 156.879 221.178 159.503C223.657 162.728 226.357 163.181 229.927 160.975C232.073 159.407 234.802 157.845 236.781 159.783C237.907 160.975 239.04 161.613 240.148 161.631H240.178C241.251 161.631 242.347 161.065 243.438 159.944L243.73 159.675C243.819 159.592 243.891 159.526 243.968 159.467C244.019 159.416 244.073 159.368 244.129 159.324L244.35 159.139C244.445 159.055 244.546 158.978 244.648 158.9L244.815 158.775C245.196 158.482 245.594 158.211 246.006 157.964C246.167 157.863 246.334 157.768 246.495 157.684C249.761 155.896 253.647 155.663 258.063 156.939C264.619 158.769 267.599 155.937 270.251 153.445C271.58 152.181 272.837 150.995 274.423 150.464L274.655 150.387V150.637C274.671 151.883 274.579 153.128 274.381 154.358L274.327 154.644C272.605 164.266 263.975 171.855 250.023 176.017C242.698 178.12 235.11 179.166 227.49 179.123ZM182.41 152.336C182.562 157.433 184.641 162.282 188.227 165.906C193.93 171.945 203.722 176.22 215.773 177.948C227.162 179.576 239.612 178.741 249.934 175.665C263.749 171.545 272.289 164.057 273.987 154.578L274.035 154.298C274.219 153.171 274.309 152.03 274.303 150.888C272.891 151.43 271.723 152.539 270.495 153.708C267.789 156.265 264.726 159.169 257.98 157.285C253.659 156.033 249.856 156.277 246.656 158C246.495 158.084 246.334 158.179 246.179 158.274C245.767 158.514 245.369 158.777 244.987 159.061L244.826 159.187C244.725 159.258 244.63 159.336 244.54 159.413L244.32 159.598L244.165 159.735C244.087 159.801 244.016 159.86 243.95 159.926L243.652 160.2C242.496 161.392 241.31 161.989 240.136 161.989H240.094C238.902 161.989 237.669 161.315 236.477 160.033C235.076 158.668 233.157 159.038 230.076 161.285C226.357 163.586 223.431 163.074 220.844 159.729C219.057 157.344 216.935 158.429 214.456 159.681C211.786 161.035 208.752 162.567 205.707 159.717C205.033 159.067 204.36 158.441 203.71 157.857L203.114 157.321C202.548 156.832 201.982 156.367 201.434 155.943L200.701 155.389C200.295 155.091 199.89 154.793 199.509 154.56L199.074 154.286C198.595 153.992 198.102 153.723 197.596 153.481L197.357 153.368L196.827 153.135L196.618 153.058C196.197 152.89 195.765 152.753 195.325 152.646C195.257 152.626 195.187 152.61 195.116 152.599L194.896 152.551C194.747 152.515 194.598 152.491 194.449 152.468H194.264C194.124 152.443 193.983 152.427 193.841 152.42C193.692 152.42 193.555 152.42 193.412 152.39H192.923H192.571H192.339H192.13L191.689 152.438L191.469 152.468L190.813 152.593L190.515 152.658L190.211 152.742L189.973 152.807L189.615 152.915C186.975 154.143 184.371 153.928 182.41 152.336Z" fill="black"/>
<g opacity="0.5">
<path opacity="0.5" d="M275.936 114.598L279.291 115.463C278.898 118.038 277.819 119.582 273.659 121.424L271.395 119.749L275.936 114.598Z" fill="#BE184E"/>
</g>
<g opacity="0.5">
<path opacity="0.5" d="M266.299 122.098L259.463 124.167L260.315 126.868C263.778 126.426 266.74 125.52 269.13 123.726L266.299 122.098Z" fill="#BE184E"/>
</g>
<g opacity="0.5">
<path opacity="0.5" d="M182.964 112.035L179.149 112.631C179.567 115.206 181.611 117.084 184.227 118.724L187.332 116.089" fill="#BE184E"/>
</g>
<g opacity="0.5">
<path opacity="0.5" d="M189.52 118.205L194.609 120.369L194.937 123.106C191.851 122.666 188.861 121.709 186.093 120.274L189.52 118.205Z" fill="#BE184E"/>
</g>
<path d="M238.419 161.869C239.879 163.443 241.357 164.045 242.847 163.658C240.749 165.363 238.675 165.047 236.637 162.853C235.559 161.804 234.253 161.816 232.781 162.424C234.939 161.005 236.917 160.403 238.419 161.869Z" fill="white"/>
<path d="M247.484 161.047C246.717 161.549 245.999 162.121 245.339 162.758C244.668 163.51 243.808 164.068 242.848 164.374C243.097 164.172 243.334 163.955 243.557 163.724C244.7 162.609 246.029 161.704 247.484 161.047Z" fill="white"/>
<path d="M231.786 163.825C231.271 164.15 230.731 164.433 230.171 164.671C230.981 164.064 231.857 163.551 232.781 163.139C232.43 163.354 232.12 163.58 231.786 163.825Z" fill="white"/>
<path d="M176.157 150.035C177.004 149.815 177.903 149.929 178.668 150.354C179.432 150.779 180.004 151.483 180.264 152.318C180.642 153.494 181.315 154.553 182.218 155.395C183.917 156.957 186.474 157.636 189.549 156.217C189.966 156.08 190.377 155.973 190.777 155.884C195.592 154.834 199.645 157.076 205.861 163.038C211.552 168.403 217.184 157.887 221.016 163.074C223.728 166.603 226.601 166.698 229.998 164.594C232.542 162.74 234.903 161.679 236.637 163.366C238.907 165.81 241.214 165.923 243.556 163.527C247.466 159.765 252.329 158.924 258.008 160.546C267.943 163.312 269.737 155.651 274.481 154.065C274.961 153.905 275.46 153.813 275.965 153.791C285.465 153.374 288.725 146.679 277.288 141.683C273.331 150.578 253.837 154.304 233.186 153.821C231.148 156.206 229.11 157.863 226.07 157.774C224.368 157.722 222.742 157.054 221.493 155.896C220.496 154.995 219.624 153.964 218.901 152.831C201.617 150.822 185.914 145.963 180.514 138.845C179.858 139.191 179.245 139.536 178.661 139.876C178.249 140.121 177.856 140.365 177.469 140.603C168.064 146.661 169.399 151.883 176.157 150.035Z" fill="#00E599"/>
<path d="M225.903 166.162C224.044 166.162 222.399 165.178 220.873 163.181C219.085 160.796 216.964 161.881 214.485 163.133C211.815 164.487 208.781 166.019 205.736 163.163C199.24 156.927 195.33 155.067 190.836 156.051C190.434 156.139 190.036 156.249 189.644 156.379C186.879 157.66 184.132 157.344 182.141 155.514C181.212 154.655 180.52 153.571 180.133 152.366C179.89 151.573 179.351 150.904 178.626 150.499C177.902 150.095 177.049 149.986 176.247 150.196C173.458 150.959 171.414 150.578 170.794 149.171C170.079 147.567 171.39 144.324 177.445 140.461C177.82 140.222 178.22 139.978 178.637 139.733C179.191 139.405 179.799 139.065 180.496 138.696L180.627 138.624L180.723 138.749C185.657 145.248 199.961 150.453 218.984 152.664H219.068L219.115 152.736C219.832 153.855 220.691 154.875 221.672 155.771C222.892 156.9 224.48 157.55 226.142 157.601H226.356C229.187 157.601 231.124 156.039 233.115 153.702L233.168 153.636H233.252C244.063 153.893 253.819 153.004 261.507 151.084C269.928 148.986 275.345 145.719 277.169 141.605L277.246 141.438L277.407 141.51C282.569 143.763 285.238 146.607 284.738 149.302C284.237 151.997 280.828 153.749 276.019 153.964C275.532 153.986 275.05 154.076 274.588 154.232C273.069 154.739 271.841 155.902 270.542 157.136C267.836 159.699 264.773 162.597 258.026 160.713C252.293 159.05 247.484 160.027 243.723 163.628C242.567 164.821 241.381 165.417 240.207 165.417H240.165C238.973 165.417 237.739 164.749 236.547 163.467C235.147 162.096 233.228 162.472 230.147 164.713C228.896 165.585 227.426 166.087 225.903 166.162ZM218.394 161.393C218.949 161.402 219.492 161.55 219.975 161.823C220.458 162.095 220.865 162.484 221.159 162.955C223.639 166.18 226.338 166.639 229.908 164.427C232.054 162.859 234.789 161.303 236.762 163.235C237.888 164.427 239.021 165.065 240.129 165.077H240.177C241.25 165.077 242.346 164.481 243.437 163.396C247.281 159.699 252.198 158.686 258.068 160.415C264.624 162.245 267.604 159.419 270.256 156.921C271.585 155.663 272.842 154.471 274.428 153.94C274.92 153.772 275.434 153.676 275.953 153.654C280.59 153.445 283.886 151.734 284.339 149.284C284.559 148.092 284.339 145.033 277.378 141.957C275.441 146.088 269.97 149.379 261.543 151.496C253.849 153.416 244.081 154.298 233.282 154.053C231.464 156.17 229.318 158.108 226.082 158.012C224.338 157.958 222.672 157.274 221.392 156.086C220.403 155.194 219.537 154.173 218.817 153.052C199.853 150.84 185.55 145.641 180.484 139.131C179.847 139.465 179.292 139.781 178.774 140.085C178.363 140.329 177.969 140.568 177.582 140.806C172.099 144.306 170.365 147.478 171.068 149.069C171.604 150.262 173.529 150.596 176.098 149.892C176.987 149.656 177.933 149.773 178.739 150.217C179.545 150.661 180.149 151.399 180.425 152.277C180.794 153.417 181.448 154.443 182.326 155.258C183.434 156.271 185.836 157.72 189.477 156.045C189.919 155.908 190.336 155.794 190.747 155.705C195.401 154.691 199.394 156.575 205.992 162.907C208.847 165.59 211.636 164.177 214.336 162.817C215.742 162.108 217.113 161.41 218.394 161.41V161.393Z" fill="black"/>
<path d="M207.494 124.065C219.458 126.431 231.673 127.271 243.848 126.563C261.596 125.484 276.18 120.798 276.138 111.975C276.138 111.54 276.138 111.11 276.138 110.681C275.715 96.7006 269.29 86.2376 259.969 79.3637C258.555 78.3155 257.081 77.352 255.553 76.4781C228.961 61.1801 185.586 70.3136 181.372 103.968C181.289 104.606 181.223 105.256 181.17 105.918C181.142 106.287 181.118 106.663 181.098 107.044C180.639 115.111 192.255 120.912 207.494 124.065Z" fill="#FFC13D"/>
<path d="M235.618 126.987C226.164 127.005 216.731 126.087 207.458 124.244C190.175 120.667 180.497 114.395 180.878 107.038C180.878 106.657 180.926 106.275 180.956 105.9C181.003 105.268 181.075 104.612 181.158 103.944C182.761 91.1383 190.342 80.7468 202.512 74.6836C218.603 66.659 239.951 67.3148 255.607 76.3172C257.139 77.1979 258.619 78.1653 260.041 79.2146C270.274 86.7861 275.888 97.6664 276.287 110.675C276.287 111.104 276.287 111.54 276.287 111.975C276.329 119.988 264.189 125.508 243.825 126.742C241.155 126.903 238.389 126.987 235.618 126.987ZM207.53 123.893C219.474 126.253 231.67 127.091 243.825 126.385C263.975 125.156 276.007 119.773 275.948 111.975C275.948 111.546 275.948 111.116 275.948 110.687C275.554 97.7916 269.988 87.0067 259.856 79.5067C258.446 78.4667 256.977 77.5073 255.458 76.6331C239.903 67.6904 218.699 67.0286 202.703 75.0056C190.646 81.0151 183.131 91.3052 181.546 103.992C181.462 104.654 181.397 105.304 181.349 105.93C181.313 106.305 181.289 106.675 181.271 107.056C180.902 114.211 190.479 120.351 207.56 123.893H207.53Z" fill="black"/>
<path d="M237.972 79.7453C238.045 80.1887 238.183 80.6187 238.383 81.0212C238.569 81.405 238.79 81.7703 239.045 82.1122C239.296 82.4558 239.582 82.7734 239.897 83.0601C240.227 83.3655 240.603 83.617 241.011 83.8053C241.042 83.8192 241.076 83.8268 241.109 83.8277C241.143 83.8286 241.177 83.8228 241.209 83.8106C241.24 83.7984 241.269 83.7801 241.293 83.7567C241.318 83.7332 241.337 83.7052 241.351 83.6742C241.365 83.6296 241.365 83.5817 241.351 83.5371C241.285 83.091 241.148 82.6583 240.946 82.2553C240.763 81.8705 240.539 81.5067 240.278 81.1702C240.022 80.8284 239.733 80.5129 239.414 80.2282C239.085 79.9211 238.711 79.6657 238.306 79.4711C238.244 79.4443 238.174 79.4423 238.111 79.4656C238.048 79.4889 237.996 79.5357 237.966 79.5963C237.956 79.6457 237.958 79.6968 237.972 79.7453Z" fill="#11101F"/>
<path d="M231.154 81.4743C230.982 81.8907 230.873 82.3309 230.832 82.7799C230.797 83.2045 230.797 83.6312 230.832 84.0558C230.865 84.4801 230.943 84.8998 231.065 85.3077C231.185 85.7334 231.374 86.1363 231.625 86.5001C231.644 86.5286 231.668 86.5531 231.696 86.572C231.724 86.5908 231.756 86.6037 231.79 86.6099C231.823 86.616 231.858 86.6153 231.891 86.6077C231.924 86.6001 231.955 86.5858 231.983 86.5657C232.023 86.5402 232.054 86.5027 232.072 86.4584C232.249 86.0452 232.36 85.6065 232.4 85.1587C232.445 84.7346 232.445 84.307 232.4 83.8829C232.359 83.4591 232.279 83.04 232.161 82.6309C232.042 82.1981 231.857 81.786 231.613 81.4087C231.595 81.3797 231.571 81.3547 231.543 81.3353C231.515 81.3158 231.483 81.3023 231.45 81.2956C231.416 81.2889 231.382 81.2892 231.348 81.2963C231.315 81.3035 231.283 81.3174 231.256 81.3372C231.205 81.3679 231.169 81.4171 231.154 81.4743Z" fill="#11101F"/>
<path d="M217.667 81.164C217.303 81.427 216.978 81.7401 216.702 82.0941C216.439 82.4295 216.207 82.7887 216.011 83.1672C215.812 83.5475 215.652 83.947 215.534 84.3595C215.4 84.7915 215.339 85.2429 215.355 85.695C215.356 85.7289 215.363 85.7623 215.377 85.7933C215.391 85.8242 215.412 85.8519 215.437 85.8748C215.462 85.8976 215.491 85.9151 215.523 85.9262C215.555 85.9374 215.589 85.9418 215.623 85.9394C215.67 85.9374 215.715 85.923 215.754 85.8977C216.127 85.6433 216.457 85.3314 216.732 84.9736C216.991 84.638 217.219 84.2787 217.411 83.9005C217.602 83.5181 217.758 83.1189 217.876 82.7081C218.007 82.2771 218.073 81.8291 218.073 81.3786C218.072 81.345 218.064 81.3118 218.051 81.281C218.037 81.2502 218.018 81.2223 217.993 81.1991C217.969 81.1758 217.94 81.1576 217.909 81.1455C217.878 81.1333 217.844 81.1275 217.81 81.1282C217.76 81.1275 217.711 81.1398 217.667 81.164Z" fill="#11101F"/>
<path d="M224.348 81.1763C224.067 81.5375 223.842 81.9396 223.681 82.3687C223.524 82.7543 223.402 83.1534 223.317 83.5611C223.229 83.9785 223.185 84.4042 223.186 84.8309C223.178 85.2819 223.244 85.7312 223.383 86.1604C223.393 86.1924 223.409 86.2221 223.431 86.2477C223.453 86.2732 223.48 86.2941 223.51 86.3091C223.54 86.3242 223.573 86.333 223.606 86.3351C223.64 86.3372 223.673 86.3325 223.705 86.3214C223.752 86.3086 223.793 86.2815 223.824 86.2439C224.111 85.8975 224.341 85.5069 224.503 85.0873C224.664 84.6916 224.782 84.2799 224.855 83.8592C224.939 83.4411 224.981 83.0157 224.98 82.5893C224.985 82.1409 224.921 81.6945 224.789 81.2658C224.77 81.2012 224.726 81.1468 224.667 81.1145C224.608 81.0821 224.538 81.0744 224.474 81.0929C224.425 81.1085 224.382 81.1374 224.348 81.1763Z" fill="#11101F"/>
<path d="M190.616 60.8464L195.426 59.5945L202.148 67.5893L197.38 69.2824C197.38 69.2824 201.63 76.1803 217.757 71.6314L313.047 32.3489C313.047 32.3489 318.798 29.4694 315.598 25.2365L312.022 27.3291L304.924 22.6133L307.713 21.1586L273.599 0.548584L174.847 34.8708L190.616 60.8464Z" fill="#FFC13D"/>
<path d="M207.75 73.3721C199.8 73.3721 197.35 69.5863 197.219 69.3776L197.1 69.1869L201.868 67.5056L195.36 59.797L190.532 61.049L190.467 60.9357L174.572 34.7752L174.787 34.6977L273.617 0.345703L273.689 0.393398L308.118 21.1703L305.299 22.6548L312.051 27.1381L315.627 25.0217L315.729 25.1528C316.135 25.6221 316.43 26.1779 316.59 26.7781C316.75 27.3783 316.771 28.007 316.652 28.6167C316.092 31.0014 313.243 32.468 313.124 32.5336L217.81 71.7981C214.544 72.7802 211.16 73.3097 207.75 73.3721ZM197.66 69.3717C198.501 70.421 203.411 75.4885 217.691 71.4583L312.975 32.1938C312.975 32.1938 315.782 30.757 316.301 28.5213C316.407 27.9904 316.395 27.4426 316.266 26.9169C316.136 26.3913 315.891 25.9008 315.55 25.4807L312.04 27.5495L304.596 22.6012L307.367 21.1525L273.552 0.745145L175.115 34.966L190.711 60.6376L195.479 59.3916L195.556 59.4751L202.446 67.6726L197.66 69.3717Z" fill="black"/>
<path d="M207.828 73.4914C205.64 73.536 203.462 73.1866 201.397 72.46C198.257 71.2677 197.148 69.5208 197.1 69.4493L196.898 69.1154L201.612 67.4402L195.306 59.9521L190.473 61.2101L174.382 34.6978L273.635 0.196777L308.381 21.1764L305.568 22.655L312.058 26.9594L315.675 24.8251L315.866 25.0397C316.286 25.5239 316.589 26.0986 316.751 26.7189C316.914 27.3393 316.931 27.9887 316.802 28.6168C316.206 31.079 313.327 32.5635 313.226 32.6231L217.846 71.9294C214.594 72.9081 211.223 73.4337 207.828 73.4914ZM197.863 69.4314C198.901 70.5578 200.207 71.4028 201.66 71.8877C204.413 72.9072 209.407 73.6405 217.614 71.3273L312.916 32.0627C313.089 31.9733 315.681 30.5901 316.17 28.4856C316.272 27.991 316.265 27.4802 316.151 26.9883C316.037 26.4964 315.818 26.035 315.508 25.6359L312.04 27.6867L304.328 22.5655L307.093 21.1228L273.552 0.894311L175.318 35.0436L190.765 60.4768L195.533 59.2367L202.685 67.7323L197.863 69.4314Z" fill="#FFC13D"/>
<path d="M207.828 73.6702C205.619 73.7122 203.421 73.3589 201.338 72.6269C198.107 71.4346 196.993 69.646 196.945 69.5387L196.629 69.02L201.302 67.3567L195.247 60.1548L190.384 61.4068L190.318 61.2935L174.102 34.5786L174.31 34.507L273.653 0L273.724 0.0417328L308.75 21.1883L305.925 22.6549L312.063 26.7328L315.723 24.5687L315.991 24.9264C316.427 25.4327 316.742 26.0324 316.91 26.6794C317.079 27.3265 317.097 28.0035 316.962 28.6585C316.366 31.2101 313.387 32.7185 313.267 32.7841L217.912 72.0844C214.638 73.0688 211.245 73.6023 207.828 73.6702ZM197.166 69.2108L197.255 69.3539C197.255 69.3539 198.352 71.1424 201.463 72.2871C205.474 73.7954 211.159 73.6285 217.78 71.7625L313.094 32.48C313.226 32.4144 316.074 30.9717 316.611 28.5869C316.73 27.9833 316.71 27.3605 316.553 26.7656C316.396 26.1707 316.106 25.6192 315.705 25.1529L315.627 25.0397L312.052 27.1501L305.216 22.6549L308.017 21.1883L273.611 0.39348L174.62 34.7992L190.533 61.0014L195.348 59.7494L195.425 59.8328L201.892 67.5236L197.166 69.2108ZM207.822 73.0383C205.712 73.0819 203.611 72.7488 201.618 72.0546C200.138 71.5589 198.808 70.6977 197.75 69.5506L197.577 69.3539L202.38 67.6488L195.479 59.4394L190.711 60.6854L190.64 60.5721L175.079 34.9363L175.288 34.8647L273.623 0.691571L273.695 0.733304L307.498 21.1466L304.721 22.5953L312.081 27.484L315.604 25.4093L315.699 25.5464C316.019 25.9656 316.246 26.4483 316.366 26.9623C316.485 27.4763 316.493 28.0098 316.39 28.5273C315.884 30.6855 313.327 32.0746 313.035 32.2236L217.709 71.4942C214.499 72.4575 211.172 72.9771 207.822 73.0383ZM198.203 69.5148C199.198 70.5122 200.409 71.2669 201.743 71.7207C204.478 72.7283 209.449 73.4556 217.59 71.1245L312.844 31.8958C312.94 31.8481 315.52 30.4828 315.997 28.4439C316.085 28.005 316.082 27.5527 315.989 27.1149C315.896 26.6771 315.714 26.263 315.455 25.8982L312.034 27.9133L303.976 22.5476L306.724 21.1108L273.552 1.09101L175.591 35.139L190.848 60.2681L195.616 59.034L195.688 59.1234L203 67.8157L198.203 69.5148Z" fill="black"/>
<path d="M227.441 217.142L310.842 167.873L323.22 132.204L227.876 185.693L227.441 217.142Z" fill="#FFC13D"/>
<path d="M227.257 217.457L227.698 185.591L227.787 185.538L323.548 131.81L323.393 132.257L310.991 168.028H310.938L227.257 217.457ZM228.055 185.8L227.626 216.802L310.693 167.73L322.899 132.555L228.055 185.8Z" fill="black"/>
<path d="M227.441 217.35C227.405 217.352 227.369 217.342 227.34 217.32C227.307 217.302 227.28 217.275 227.261 217.243C227.242 217.21 227.232 217.173 227.232 217.135L227.662 185.693C227.662 185.655 227.673 185.619 227.691 185.586C227.71 185.554 227.737 185.527 227.769 185.508L323.125 132.018C323.16 131.994 323.201 131.981 323.244 131.981C323.286 131.981 323.328 131.994 323.363 132.018C323.396 132.046 323.42 132.083 323.432 132.125C323.443 132.166 323.442 132.21 323.429 132.251L311.044 167.944C311.026 167.992 310.993 168.032 310.949 168.058L227.548 217.32C227.517 217.343 227.479 217.353 227.441 217.35ZM228.085 185.818L227.662 216.766L310.669 167.73L322.839 132.656L228.085 185.818Z" fill="#FFC13D"/>
<path d="M227.441 217.529C227.372 217.529 227.304 217.51 227.245 217.475C227.184 217.442 227.135 217.393 227.101 217.332C227.067 217.272 227.051 217.204 227.054 217.135L227.483 185.687C227.484 185.619 227.503 185.552 227.538 185.494C227.572 185.435 227.621 185.387 227.68 185.353L323.036 131.857C323.105 131.82 323.184 131.804 323.263 131.812C323.341 131.82 323.416 131.852 323.476 131.902C323.536 131.953 323.58 132.021 323.602 132.097C323.623 132.173 323.621 132.254 323.596 132.328L311.212 168.004C311.182 168.093 311.12 168.167 311.039 168.213L227.662 217.475C227.595 217.514 227.519 217.533 227.441 217.529ZM323.208 132.173L227.853 185.669L227.406 217.141H227.435L310.872 167.879L323.262 132.185L323.208 132.173ZM227.477 217.088L227.906 185.711L227.996 185.663L323.167 132.269L323.012 132.716L310.818 167.855L310.759 167.885L227.477 217.088ZM228.258 185.925L227.841 216.45L310.502 167.611L322.499 133.032L228.258 185.925Z" fill="black"/>
<path d="M133.152 129.711L150.477 170.848L227.441 217.136L228.586 188.173L232.537 190.558C232.97 189.452 232.971 188.224 232.537 187.119C232.104 186.013 231.27 185.112 230.201 184.596L133.152 129.711Z" fill="#FFC13D"/>
<path d="M227.608 217.451L227.352 217.296L150.334 170.979V170.925L132.795 129.294L133.26 129.556L230.308 184.471C231.403 185.014 232.257 185.945 232.704 187.084C233.151 188.222 233.16 189.485 232.728 190.629L232.656 190.844L228.77 188.489L227.608 217.451ZM150.626 170.729L227.275 216.831L228.419 187.863L232.43 190.301C232.787 189.259 232.749 188.122 232.323 187.106C231.896 186.09 231.111 185.267 230.117 184.793L133.498 130.129L150.626 170.729Z" fill="black"/>
<path d="M227.74 217.69L150.227 171.069L132.497 128.978L230.35 184.352C231.477 184.906 232.356 185.861 232.817 187.03C233.277 188.198 233.286 189.497 232.841 190.671L232.71 191.047L228.884 188.728L227.74 217.69ZM150.734 170.634L227.15 216.593L228.288 187.631L232.352 190.087C232.653 189.095 232.588 188.028 232.169 187.079C231.75 186.131 231.005 185.364 230.07 184.918L133.802 130.445L150.734 170.634Z" fill="#FFC13D"/>
<path d="M227.906 218L227.644 217.845L150.084 171.194V171.14L132.127 128.567L132.586 128.823L230.439 184.221C230.594 184.298 234.515 186.301 233.007 190.779L232.811 191.375L229.05 189.097L227.906 218ZM150.37 170.949L227.572 217.38L228.71 188.394L232.614 190.779L232.668 190.618C233.095 189.485 233.088 188.235 232.648 187.107C232.208 185.98 231.365 185.055 230.284 184.513L132.902 129.372L150.37 170.949ZM227.316 216.903L227.054 216.748L150.59 170.759V170.705L133.432 130.028L133.891 130.29L230.135 184.745C231.104 185.211 231.876 186.006 232.313 186.989C232.75 187.972 232.823 189.079 232.519 190.111L232.453 190.343L228.448 187.917L227.316 216.903ZM150.876 170.508L226.982 216.277L228.12 187.309L232.239 189.801C232.459 188.875 232.357 187.901 231.948 187.041C231.54 186.181 230.849 185.486 229.992 185.073L134.177 130.862L150.876 170.508Z" fill="black"/>
<path d="M190.616 60.8463L174.847 34.8706L120.852 101.643L128.933 152.253C128.971 152.49 129.076 152.711 129.234 152.89C129.393 153.07 129.599 153.201 129.83 153.269C130.06 153.336 130.304 153.337 130.535 153.271C130.765 153.205 130.972 153.076 131.132 152.897L187.154 90.2142L188.417 65.2819L190.616 60.8463Z" fill="#FFC13D"/>
<path d="M130.191 153.499C130.052 153.497 129.913 153.477 129.78 153.439C129.512 153.362 129.272 153.208 129.091 152.996C128.91 152.784 128.795 152.524 128.76 152.247L120.661 101.572L120.709 101.506L174.865 34.5786L174.996 34.7932L190.825 60.8106L188.626 65.2999L187.363 90.2561L187.321 90.3038L131.264 153.016C131.129 153.168 130.963 153.289 130.779 153.372C130.594 153.455 130.393 153.499 130.191 153.499ZM121.043 101.691L129.112 152.223C129.144 152.426 129.234 152.616 129.37 152.77C129.506 152.924 129.683 153.037 129.88 153.094C130.077 153.152 130.287 153.152 130.484 153.095C130.682 153.038 130.859 152.926 130.995 152.772L187.017 90.1309L188.298 65.1985L190.426 60.8524L174.823 35.1748L121.043 101.691Z" fill="black"/>
<path d="M88.5202 72.0845L88.9612 72.2037L87.0898 72.3825L87.4891 71.7923L87.9004 71.9056L88.9433 71.5598L89.5512 71.7267L88.5202 72.0845Z" fill="#DFDFDF"/>
<path d="M77.8699 66.3848L77.1309 66.1821L80.3491 65.9556L79.5982 66.8618L78.9009 66.671" fill="#DFDFDF"/>
<path d="M81.368 62.8317L63.4113 67.7144L62.5471 67.5057C62.3922 67.47 58.7746 66.5936 58.5482 65.4191C58.429 64.8229 59.2752 64.2267 61.0393 63.7259C62.6067 63.2788 67.2971 62.1699 67.7321 62.0626C69.5577 61.6366 71.4306 61.4482 73.3045 61.5022C75.7848 61.5286 78.2496 61.8977 80.629 62.5992L81.368 62.8317ZM63.3755 66.7724L78.3226 62.784C76.7153 62.357 75.0625 62.1248 73.3998 62.0924C72.0586 62.055 70.7182 62.1933 69.4128 62.5038H69.377C69.3293 62.5038 64.3768 63.6961 62.8213 64.1492C61.528 64.5248 60.9142 64.9362 61.0334 65.3416C61.1347 65.9735 62.4756 66.4863 63.3755 66.7724Z" fill="#DFDFDF"/>
<path d="M101.846 72.7342C99.5872 73.5748 97.4656 74.2903 97.3285 74.332C93.6769 75.3092 89.8248 75.2452 86.2076 74.1472L85.3613 73.8908L101.828 68.239L102.651 68.4596C104.653 68.9842 107.782 70.2839 105.136 71.4405C104.164 71.8519 102.99 72.3109 101.846 72.7342ZM88.7345 73.855C91.0002 74.4214 93.3723 74.405 95.63 73.8074C95.6717 73.8074 100.487 72.2096 103.342 70.9934C104.284 70.5939 104.254 70.1468 103.27 69.6341C102.91 69.4469 102.536 69.2894 102.15 69.1631L88.7345 73.855Z" fill="#DFDFDF"/>
<path d="M77.5124 65.133L73.3167 66.3015L71.9639 65.9259L76.1893 64.7693L77.5124 65.133Z" fill="#DFDFDF"/>
<path d="M83.389 69.3776L71.4814 66.0628L72.7747 65.7051L84.6167 68.99L83.389 69.3776Z" fill="#DFDFDF"/>
<path d="M84.5744 73.4021L78.4775 71.6851L79.1152 71.4824L85.1942 73.1935L84.5744 73.4021Z" fill="#DFDFDF"/>
<path d="M77.1843 71.3213L64.9072 67.8635L66.3018 67.4819L78.4954 70.91L77.1843 71.3213Z" fill="#DFDFDF"/>
<path d="M81.0408 70.111L68.9902 66.7426L70.3252 66.3789L82.2983 69.7175L81.0408 70.111Z" fill="#DFDFDF"/>
<path d="M81.0402 70.1111L64.9072 67.8635L66.3018 67.4819L82.2978 69.7176L81.0402 70.1111Z" fill="#DFDFDF"/>
<path d="M92.0485 70.9397L88.127 70.6834L88.9017 70.427L92.7994 70.6893L92.0485 70.9397Z" fill="#DFDFDF"/>
<path d="M79.8898 66.4566L76.9516 67.3151L75.5928 66.9335L78.5548 66.0869L79.8898 66.4566Z" fill="#DFDFDF"/>
<path d="M87.864 67.9766L84.5504 69.0139L83.1797 68.6324L86.5171 67.6069L87.864 67.9766Z" fill="#DFDFDF"/>
<path d="M95.6477 69.6936L89.8906 68.1078L90.4508 67.929L96.1901 69.5088L95.6477 69.6936Z" fill="#DFDFDF"/>
<path d="M92.5968 67.631L90.7552 68.2212L90.0996 68.0424L91.9471 67.4521L92.5968 67.631Z" fill="#DFDFDF"/>
<path d="M97.6505 69.0141L96.1606 69.5208L95.499 69.336L96.9949 68.8352L97.6505 69.0141Z" fill="#DFDFDF"/>
<path d="M91.3751 66.9214H91.3274C89.8601 67.2889 88.3249 67.2889 86.8576 66.9214L79.4556 64.8825L79.3781 64.8348C79.3304 64.8348 78.2279 64.1432 79.8191 63.702C81.0722 63.4392 82.3627 63.4069 83.6274 63.6066H83.7406L91.2201 65.6515C91.3095 65.6515 92.1201 65.9079 92.2095 66.2477C92.275 66.516 91.9949 66.7306 91.3751 66.9214ZM88.0197 66.5935C88.2448 66.6483 88.4741 66.6842 88.7051 66.7008C89.1465 66.7396 89.5913 66.6951 90.0163 66.5697C90.6122 66.3849 90.493 66.2477 90.4454 66.206C90.3404 66.1262 90.221 66.0674 90.0937 66.0331L82.7811 64.0299C82.23 63.9495 81.6691 63.9677 81.1243 64.0836C80.5283 64.2565 80.7906 64.5367 80.9276 64.638L88.0197 66.5935Z" fill="#DFDFDF"/>
<path d="M87.1787 71.6909C86.4898 71.8542 85.7773 71.8926 85.0749 71.8042H84.9914L81.499 70.8265L82.095 70.6297L85.4623 71.5419C85.8064 71.5841 86.1554 71.566 86.4933 71.4882C86.7972 71.3869 86.6423 71.2676 86.5767 71.2259L83.0962 70.2541L83.6922 70.0574L87.2681 71.059C87.5541 71.202 87.8283 71.4763 87.1787 71.6909Z" fill="#DFDFDF"/>
<path d="M83.2817 72.1739L82.2268 72.5197L81.5295 72.3229L82.5606 71.9831C82.8347 71.8758 82.7334 71.8222 82.644 71.7923H82.5963C82.5963 71.7923 81.9706 71.5837 81.3031 71.4287C81.0259 71.3884 80.7432 71.4087 80.4747 71.4883L79.5628 71.7804L78.8477 71.542L79.7655 71.2558C80.4402 71.0626 81.1514 71.034 81.8394 71.1723C82.5129 71.3273 83.1089 71.5181 83.234 71.5598C83.3592 71.6016 83.5916 71.6672 83.6572 71.7864C83.7227 71.9056 83.5916 72.0249 83.2936 72.1441L83.2817 72.1739Z" fill="#DFDFDF"/>
<path d="M90.2598 71.5181L84.3418 69.8727L84.9378 69.6819L90.8439 71.3214L90.2598 71.5181Z" fill="#DFDFDF"/>
<path d="M89.3957 70.4685L88.4123 70.7964L87.7329 70.6056L88.6865 70.2897C88.8057 70.242 88.9427 70.1525 88.6507 70.081H88.615C88.615 70.081 87.8819 69.8485 87.125 69.6696C86.8318 69.5939 86.5242 69.5939 86.2311 69.6696L85.3788 69.9439L84.6875 69.7531L85.5457 69.4788C85.7411 69.4258 85.9404 69.3879 86.1417 69.3656C86.6391 69.3067 87.1429 69.3329 87.6316 69.4431C88.3825 69.6219 89.0738 69.8366 89.205 69.8783C89.3361 69.92 89.6221 69.9975 89.6996 70.1346C89.7771 70.2718 89.7294 70.3254 89.4076 70.4566L89.3957 70.4685Z" fill="#DFDFDF"/>
<path d="M99.7477 68.3284L96.0586 68.066L96.7559 67.8335L100.427 68.0958L99.7477 68.3284Z" fill="#DFDFDF"/>
<path d="M98.1269 68.853L92.4473 67.2969L92.9896 67.124L98.6514 68.6741L98.1269 68.853Z" fill="#DFDFDF"/>
<path d="M97.2275 67.8813L96.3336 68.1734L95.678 67.9946L96.5481 67.7084C96.6495 67.6667 96.6852 67.6309 96.6673 67.5951C96.6494 67.5594 96.5005 67.5117 96.5005 67.5117H96.4409C96.4409 67.5117 95.7436 67.2911 95.0165 67.1182C94.7429 67.0467 94.4556 67.0467 94.1821 67.1182L93.4073 67.3686L92.7637 67.1897L93.5384 66.9393C93.7202 66.8907 93.9055 66.8568 94.0927 66.838C94.5586 66.7852 95.0301 66.8114 95.4873 66.9155C96.2084 67.0824 96.87 67.2911 97.0011 67.3269C97.18 67.363 97.3464 67.4452 97.4838 67.5653C97.5315 67.6369 97.5255 67.7501 97.2335 67.8694L97.2275 67.8813Z" fill="#DFDFDF"/>
<path d="M85.9573 72.9249L84.9203 73.2767L84.217 73.0799L85.2242 72.7341C85.4984 72.6268 85.3971 72.5672 85.3077 72.5434H85.254C85.254 72.5434 84.6581 72.3347 83.9548 72.1797C83.7876 72.1466 83.6155 72.1466 83.4482 72.1797C83.3416 72.1974 83.2362 72.2212 83.1324 72.2512L82.2324 72.5493L81.5352 72.3526L82.441 72.0545C83.1111 71.8578 83.8193 71.8292 84.5031 71.971C85.1766 72.126 85.7785 72.3168 85.9036 72.3585C86.0288 72.4003 86.2612 72.4659 86.3268 72.5911C86.3923 72.7163 86.2731 72.8295 85.9752 72.9488L85.9573 72.9249Z" fill="#DFDFDF"/>
<path d="M94.1217 70.2364C93.3935 70.4306 92.627 70.4306 91.8988 70.2364L88.162 69.199H88.1263C88.1263 69.199 87.5303 68.8353 88.2872 68.6028C88.9057 68.453 89.5477 68.4266 90.1764 68.5253H90.236L90.5698 68.6207L89.9738 68.7996L89.7413 68.7399C89.4671 68.7 89.1877 68.7142 88.9189 68.7817C88.7699 68.8234 88.7163 68.889 88.752 68.9665C88.7742 69.0098 88.807 69.0467 88.8474 69.0738L92.4232 70.0694C92.5372 70.0948 92.6526 70.1127 92.7689 70.1231C92.988 70.1423 93.2088 70.118 93.4185 70.0516C93.5854 69.9919 93.6628 69.9383 93.6509 69.8906C93.6509 69.819 93.4543 69.7654 93.4543 69.7654L92.0478 69.3779L92.602 69.193L94.0085 69.5806C94.0502 69.5806 94.4674 69.7117 94.5151 69.8906C94.5628 70.0694 94.4316 70.1291 94.1217 70.2364Z" fill="#DFDFDF"/>
<path d="M83.389 69.3776L71.4814 66.0628L72.7747 65.7051L84.6167 68.99L83.389 69.3776Z" fill="#DFDFDF"/>
<path d="M84.5744 73.4021L78.4775 71.6851L79.1152 71.4824L85.1942 73.1935L84.5744 73.4021Z" fill="#DFDFDF"/>
<path d="M77.1843 71.3213L64.9072 67.8635L66.3018 67.4819L78.4954 70.91L77.1843 71.3213Z" fill="#DFDFDF"/>
<path d="M81.0408 70.111L68.9902 66.7426L70.3252 66.3789L82.2983 69.7175L81.0408 70.111Z" fill="#DFDFDF"/>
<path d="M81.0402 70.1111L64.9072 67.8635L66.3018 67.4819L82.2978 69.7176L81.0402 70.1111Z" fill="#DFDFDF"/>
<path d="M92.0485 70.9397L88.127 70.6834L88.9017 70.427L92.7994 70.6893L92.0485 70.9397Z" fill="#DFDFDF"/>
<path d="M79.8898 66.4566L76.9516 67.3151L75.5928 66.9335L78.5548 66.0869L79.8898 66.4566Z" fill="#DFDFDF"/>
<path d="M92.7391 69.2289L91.726 69.5628L91.0645 69.3839L92.0776 69.05L92.7391 69.2289Z" fill="#DFDFDF"/>
<path d="M87.864 67.9766L84.5504 69.0139L83.1797 68.6324L86.5171 67.6069L87.864 67.9766Z" fill="#DFDFDF"/>
<path d="M95.6477 69.6936L89.8906 68.1078L90.4508 67.929L96.1901 69.5088L95.6477 69.6936Z" fill="#DFDFDF"/>
<path d="M92.5968 67.631L90.7552 68.2212L90.0996 68.0424L91.9471 67.4521L92.5968 67.631Z" fill="#DFDFDF"/>
<path d="M94.7657 68.4954L93.389 68.9485L92.7334 68.7636L94.116 68.3105L94.7657 68.4954Z" fill="#DFDFDF"/>
<path d="M97.6505 69.0141L96.1606 69.5208L95.499 69.336L96.9949 68.8352L97.6505 69.0141Z" fill="#DFDFDF"/>
<path d="M91.3751 66.9214H91.3274C89.8601 67.2889 88.3249 67.2889 86.8576 66.9214L79.4556 64.8825L79.3781 64.8348C79.3304 64.8348 78.2279 64.1432 79.8191 63.702C81.0722 63.4392 82.3627 63.4069 83.6274 63.6066H83.7406L91.2201 65.6515C91.3095 65.6515 92.1201 65.9079 92.2095 66.2477C92.275 66.516 91.9949 66.7306 91.3751 66.9214ZM88.0197 66.5935C88.2448 66.6483 88.4741 66.6842 88.7051 66.7008C89.1465 66.7396 89.5913 66.6951 90.0163 66.5697C90.6122 66.3849 90.493 66.2477 90.4454 66.206C90.3404 66.1262 90.221 66.0674 90.0937 66.0331L82.7811 64.0299C82.23 63.9495 81.6691 63.9677 81.1243 64.0836C80.5283 64.2565 80.7906 64.5367 80.9276 64.638L88.0197 66.5935Z" fill="#DFDFDF"/>
<path d="M87.1787 71.6909C86.4898 71.8542 85.7773 71.8926 85.0749 71.8042H84.9914L81.499 70.8265L82.095 70.6297L85.4623 71.5419C85.8064 71.5841 86.1554 71.566 86.4933 71.4882C86.7972 71.3869 86.6423 71.2676 86.5767 71.2259L83.0962 70.2541L83.6922 70.0574L87.2681 71.059C87.5541 71.202 87.8283 71.4763 87.1787 71.6909Z" fill="#DFDFDF"/>
<path d="M83.2817 72.1739L82.2268 72.5197L81.5295 72.3229L82.5606 71.9831C82.8347 71.8758 82.7334 71.8222 82.644 71.7923H82.5963C82.5963 71.7923 81.9706 71.5837 81.3031 71.4287C81.0259 71.3884 80.7432 71.4087 80.4747 71.4883L79.5628 71.7804L78.8477 71.542L79.7655 71.2558C80.4402 71.0626 81.1514 71.034 81.8394 71.1723C82.5129 71.3273 83.1089 71.5181 83.234 71.5598C83.3592 71.6016 83.5916 71.6672 83.6572 71.7864C83.7227 71.9056 83.5916 72.0249 83.2936 72.1441L83.2817 72.1739Z" fill="#DFDFDF"/>
<path d="M90.2598 71.5181L84.3418 69.8727L84.9378 69.6819L90.8439 71.3214L90.2598 71.5181Z" fill="#DFDFDF"/>
<path d="M89.3957 70.4685L88.4123 70.7964L87.7329 70.6056L88.6865 70.2897C88.8057 70.242 88.9427 70.1525 88.6507 70.081H88.615C88.615 70.081 87.8819 69.8485 87.125 69.6696C86.8318 69.5939 86.5242 69.5939 86.2311 69.6696L85.3788 69.9439L84.6875 69.7531L85.5457 69.4788C85.7411 69.4258 85.9404 69.3879 86.1417 69.3656C86.6391 69.3067 87.1429 69.3329 87.6316 69.4431C88.3825 69.6219 89.0738 69.8366 89.205 69.8783C89.3361 69.92 89.6221 69.9975 89.6996 70.1346C89.7771 70.2718 89.7294 70.3254 89.4076 70.4566L89.3957 70.4685Z" fill="#DFDFDF"/>
<path d="M99.7477 68.3284L96.0586 68.066L96.7559 67.8335L100.427 68.0958L99.7477 68.3284Z" fill="#DFDFDF"/>
<path d="M98.1269 68.853L92.4473 67.2969L92.9896 67.124L98.6514 68.6741L98.1269 68.853Z" fill="#DFDFDF"/>
<path d="M97.2275 67.8813L96.3336 68.1734L95.678 67.9946L96.5481 67.7084C96.6495 67.6667 96.6852 67.6309 96.6673 67.5951C96.6494 67.5594 96.5005 67.5117 96.5005 67.5117H96.4409C96.4409 67.5117 95.7436 67.2911 95.0165 67.1182C94.7429 67.0467 94.4556 67.0467 94.1821 67.1182L93.4073 67.3686L92.7637 67.1897L93.5384 66.9393C93.7202 66.8907 93.9055 66.8568 94.0927 66.838C94.5586 66.7852 95.0301 66.8114 95.4873 66.9155C96.2084 67.0824 96.87 67.2911 97.0011 67.3269C97.18 67.363 97.3464 67.4452 97.4838 67.5653C97.5315 67.6369 97.5255 67.7501 97.2335 67.8694L97.2275 67.8813Z" fill="#DFDFDF"/>
<path d="M85.9573 72.9249L84.9203 73.2767L84.217 73.0799L85.2242 72.7341C85.4984 72.6268 85.3971 72.5672 85.3077 72.5434H85.254C85.254 72.5434 84.6581 72.3347 83.9548 72.1797C83.7876 72.1466 83.6155 72.1466 83.4482 72.1797C83.3416 72.1974 83.2362 72.2212 83.1324 72.2512L82.2324 72.5493L81.5352 72.3526L82.441 72.0545C83.1111 71.8578 83.8193 71.8292 84.5031 71.971C85.1766 72.126 85.7785 72.3168 85.9036 72.3585C86.0288 72.4003 86.2612 72.4659 86.3268 72.5911C86.3923 72.7163 86.2731 72.8295 85.9752 72.9488L85.9573 72.9249Z" fill="#DFDFDF"/>
<path d="M94.1217 70.2364C93.3935 70.4306 92.627 70.4306 91.8988 70.2364L88.162 69.199H88.1263C88.1263 69.199 87.5303 68.8353 88.2872 68.6028C88.9057 68.453 89.5477 68.4266 90.1764 68.5253H90.236L90.5698 68.6207L89.9738 68.7996L89.7413 68.7399C89.4671 68.7 89.1877 68.7142 88.9189 68.7817C88.7699 68.8234 88.7163 68.889 88.752 68.9665C88.7742 69.0098 88.807 69.0467 88.8474 69.0738L92.4232 70.0694C92.5372 70.0948 92.6526 70.1127 92.7689 70.1231C92.988 70.1423 93.2088 70.118 93.4185 70.0516C93.5854 69.9919 93.6628 69.9383 93.6509 69.8906C93.6509 69.819 93.4543 69.7654 93.4543 69.7654L92.0478 69.3779L92.602 69.193L94.0085 69.5806C94.0502 69.5806 94.4674 69.7117 94.5151 69.8906C94.5628 70.0694 94.4316 70.1291 94.1217 70.2364Z" fill="#DFDFDF"/>
</svg>
