<svg width="137" height="151" viewBox="0 0 137 151" fill="none" xmlns="http://www.w3.org/2000/svg">
<path d="M40.644 75.0266V66.7205L65.119 80.7196L40.644 94.567V86.7158" fill="black"/>
<path d="M136.157 60.8293H0.556931L0.106668 55.3984C0.0355735 54.4163 -1.71808 31.0245 12.169 14.9329C19.6576 6.24825 30.1084 1.40896 43.2135 0.533394C55.1099 -0.247518 88.8678 0.45057 92.0908 0.521562C94.5554 0.426906 110.646 0.33225 122.898 12.3536C132.686 21.9611 137.224 36.3607 136.394 55.1618L136.157 60.8293ZM11.9439 48.9973H124.64C124.332 36.5855 120.991 27.1436 114.699 20.8963C105.516 11.7975 92.6121 12.3299 92.4818 12.3417H92.0197C91.6642 12.3417 55.7142 11.549 43.9955 12.3417C34.2082 12.9925 26.53 16.4474 21.1861 22.6001C14.0293 30.8588 12.2993 42.3122 11.9439 48.9973Z" fill="black"/>
<path d="M73.4951 150.167C54.1064 150.167 37.3309 149.35 36.3276 149.303C35.896 149.303 -1.15489 146.62 0.373337 105.965L0.583323 100.353H136.853L136.969 106.058C137.284 120.232 130.775 147.495 103.978 149.292C94.3187 149.945 83.5744 150.167 73.4951 150.167ZM12.1792 112.019C14.1391 135.351 34.5311 137.486 37.0159 137.684C37.3192 137.684 75.5133 139.539 103.196 137.684C119.634 136.517 123.868 120.804 124.942 112.019H12.1792Z" fill="black"/>
<path d="M40.6556 75.2249H1.56323V85.3393H40.6556V75.2249Z" fill="black"/>
<path d="M90.9823 86.2609V94.567L66.5189 80.5679L90.9823 66.7205V74.5716" fill="black"/>
<path d="M90.9823 86.0625H131.218V75.9482H90.9823V86.0625Z" fill="black"/>
</svg>
