<svg width="24" height="26" viewBox="0 0 24 26" fill="none" xmlns="http://www.w3.org/2000/svg">
<path d="M6.93164 12.7672V11.3506L11.106 13.7382L6.93164 16.1V14.7609" fill="#FFC13D"/>
<path d="M23.2226 10.3464H0.0950509L0.0182554 9.42015C0.00612976 9.25265 -0.292969 5.26301 2.07557 2.51849C3.3528 1.03726 5.13526 0.211884 7.37041 0.0625495C9.39943 -0.0706403 15.1571 0.0484233 15.7068 0.0605315C16.1271 0.0443873 18.8715 0.028243 20.9612 2.07856C22.6305 3.7172 23.4045 6.17314 23.263 9.37979L23.2226 10.3464ZM2.03717 8.32839H21.2583C21.2057 6.21148 20.6358 4.6011 19.5627 3.53558C17.9965 1.98371 15.7957 2.07452 15.7735 2.07654H15.6946C15.634 2.07654 9.5025 1.94133 7.5038 2.07654C5.8345 2.18753 4.52494 2.7768 3.6135 3.82617C2.39285 5.23476 2.0978 7.18821 2.03717 8.32839Z" fill="#FFC13D"/>
<path d="M12.534 25.5829C9.22708 25.5829 6.36589 25.4436 6.19478 25.4357C6.12116 25.4357 -0.198116 24.978 0.062534 18.044L0.0983485 17.0869H23.34L23.3599 18.0599C23.4136 20.4774 22.3034 25.1273 17.733 25.4337C16.0856 25.5451 14.253 25.5829 12.534 25.5829ZM2.07611 19.0766C2.41038 23.056 5.88836 23.4201 6.31217 23.4539C6.3639 23.4539 12.8782 23.7703 17.5997 23.4539C20.4032 23.255 21.1255 20.5749 21.3085 19.0766H2.07611Z" fill="#FFC13D"/>
<path d="M6.93505 12.8008H0.267578V14.5258H6.93505V12.8008Z" fill="#FFC13D"/>
<path d="M15.5181 14.6833V16.1L11.3457 13.7124L15.5181 11.3506V12.6897" fill="#FFC13D"/>
<path d="M15.5184 14.6504H22.3809V12.9253H15.5184V14.6504Z" fill="#FFC13D"/>
</svg>
