<svg width="158" height="158" viewBox="0 0 158 158" fill="none" xmlns="http://www.w3.org/2000/svg">
<path d="M79 158C68.3381 158 57.9848 155.917 48.2486 151.797C38.8365 147.816 30.3965 142.107 23.1445 134.855C15.8926 127.604 10.1836 119.163 6.20273 109.751C2.08301 100.015 0 89.6619 0 79C0 75.9295 2.48418 73.4453 5.55469 73.4453C8.6252 73.4453 11.1094 75.9295 11.1094 79C11.1094 88.1652 12.8992 97.0527 16.448 105.431C19.8734 113.516 24.7647 120.784 30.9982 127.017C37.2318 133.251 44.4992 138.157 52.5844 141.567C60.9473 145.101 69.8348 146.891 79 146.891C88.1652 146.891 97.0527 145.101 105.431 141.552C113.516 138.127 120.784 133.235 127.017 127.002C133.251 120.768 138.157 113.501 141.567 105.416C145.101 97.0527 146.891 88.1652 146.891 79C146.891 69.8348 145.101 60.9473 141.552 52.5689C138.127 44.4838 133.235 37.2318 127.002 30.9828C120.768 24.7492 113.501 19.8426 105.416 16.4326C97.0527 12.8992 88.1652 11.1094 79 11.1094C75.9295 11.1094 73.4453 8.6252 73.4453 5.55469C73.4453 2.48418 75.9295 0 79 0C89.6619 0 100.015 2.08301 109.751 6.20273C119.163 10.1836 127.604 15.8926 134.855 23.1445C142.107 30.3965 147.801 38.852 151.782 48.2486C155.902 57.9848 157.985 68.3381 157.985 79C157.985 89.6619 155.902 100.015 151.782 109.751C147.816 119.163 142.107 127.604 134.855 134.855C127.604 142.107 119.148 147.801 109.751 151.782C100.015 155.917 89.6619 158 79 158Z" fill="#00E599"/>
</svg>
