<svg width="10" height="10" viewBox="0 0 10 10" fill="none" xmlns="http://www.w3.org/2000/svg">
<path fill-rule="evenodd" clip-rule="evenodd" d="M3.75 0.5C3.75 0.223858 3.97386 0 4.25 0H5.75C6.02614 0 6.25 0.223858 6.25 0.5V9.5C6.25 9.77614 6.02614 10 5.75 10H4.25C3.97386 10 3.75 9.77614 3.75 9.5V0.5Z" fill="black"/>
<path fill-rule="evenodd" clip-rule="evenodd" d="M9.5 3.75C9.77614 3.75 10 3.97386 10 4.25V5.75C10 6.02614 9.77614 6.25 9.5 6.25H0.5C0.223858 6.25 0 6.02614 0 5.75V4.25C0 3.97386 0.223858 3.75 0.5 3.75L9.5 3.75Z" fill="black"/>
</svg>
