<svg width="178" height="324" viewBox="0 0 178 324" fill="none" xmlns="http://www.w3.org/2000/svg">
<path d="M155.105 115.101H69.2422V274.479C70.219 280.188 74.3705 285.77 81.9409 290.133C98.7617 299.858 125.942 299.863 142.655 290.133C150.152 285.77 154.26 280.188 154.997 274.479C155.105 274.479 155.105 115.101 155.105 115.101Z" fill="white"/>
<path d="M112.315 297.579C101.292 297.579 90.2537 295.133 81.8383 290.275C74.605 286.092 70.1458 280.545 69.252 274.621C69.0762 274.479 69.0762 115.101 69.0762 115.101C69.2422 114.92 155.105 114.92 155.105 114.92C155.266 115.081 155.266 274.46 155.266 274.46C154.289 280.525 149.894 286.073 142.714 290.255C134.347 295.142 123.339 297.579 112.315 297.579ZM69.4034 274.318C70.3802 280.31 74.8003 285.833 81.9995 289.972C98.7471 299.658 125.908 299.658 142.562 289.972C149.713 285.814 154.069 280.296 154.826 274.44C154.958 274.298 154.958 115.243 154.958 115.243H69.4034V274.318Z" fill="#2D2D2D"/>
<path d="M142.436 97.4906C159.252 107.216 159.34 122.987 142.626 132.712C125.913 142.437 98.7327 142.437 81.9167 132.712C65.1007 122.987 65.003 107.211 81.7116 97.4906C98.4201 87.7704 125.61 87.7606 142.436 97.4906Z" fill="white"/>
<path d="M112.31 140.158C101.287 140.158 90.2537 137.712 81.8335 132.859C73.6184 128.129 69.0762 121.769 69.0762 115.038C69.0762 108.307 73.5256 102.065 81.6283 97.3488C98.3613 87.609 125.673 87.609 142.518 97.3488C150.729 102.099 155.261 108.424 155.271 115.16C155.281 121.896 150.817 128.138 142.709 132.854C134.342 137.727 123.334 140.158 112.31 140.158ZM112.056 90.3631C101.091 90.3631 90.1364 92.7846 81.8188 97.6325C73.7942 102.285 69.3888 108.468 69.3985 115.038C69.4083 121.608 73.8821 127.884 81.9946 132.575C98.7422 142.261 125.908 142.261 142.558 132.575C150.563 127.918 154.963 121.73 154.953 115.16C154.944 108.59 150.475 102.319 142.362 97.6325C133.981 92.7846 122.997 90.3631 112.056 90.3631Z" fill="#2D2D2D"/>
<g opacity="0.5">
<path opacity="0.5" d="M136.843 100.245C148.893 107.211 148.956 118.511 136.98 125.482C125.004 132.453 105.531 132.448 93.4823 125.482C81.4332 118.516 81.3649 107.211 93.3358 100.245C105.307 93.2785 124.789 93.2785 136.843 100.245Z" fill="#2D2D2D"/>
</g>
<path d="M141.219 100.734H136.12V103.802C135.038 102.883 133.876 102.065 132.648 101.356C121.268 94.776 102.855 94.776 91.5675 101.356C90.3973 102.034 89.2863 102.809 88.2463 103.674V100.734H83.1473V112.705C82.9031 117.21 85.7505 121.769 91.6994 125.208C103.079 131.793 121.492 131.788 132.78 125.208C138.43 121.916 141.244 117.606 141.219 113.292V100.734Z" fill="#F76854"/>
<path d="M112.261 130.281C104.793 130.281 97.3206 128.632 91.6209 125.335C85.9211 122.038 82.7513 117.4 82.9858 112.68V100.734C83.147 100.572 88.246 100.572 88.246 100.572C88.4071 100.734 88.4071 103.351 88.4071 103.351C89.3762 102.567 90.405 101.86 91.4841 101.237C102.82 94.6383 121.321 94.6383 132.73 101.237C133.864 101.889 134.943 102.63 135.959 103.454V100.734C136.12 100.572 141.219 100.572 141.219 100.572C141.385 100.734 141.385 113.291 141.385 113.291C141.385 117.85 138.381 122.136 132.857 125.35C127.197 128.617 119.729 130.281 112.261 130.281ZM83.3081 100.88V112.689C83.059 117.293 86.1458 121.798 91.7821 125.056C103.099 131.597 121.453 131.597 132.696 125.056C138.113 121.906 141.082 117.718 141.058 113.281V100.88H136.281V103.786C134.987 103.038 133.839 102.231 132.569 101.502C121.248 94.9563 102.893 94.9563 91.6502 101.502C90.4876 102.174 89.3846 102.945 88.3534 103.806C88.0848 103.679 88.0848 100.871 88.0848 100.871L83.3081 100.88Z" fill="#2D2D2D"/>
<path d="M132.647 89.4185C144.027 95.9981 144.086 106.662 132.779 113.247C121.473 119.831 103.084 119.831 91.704 113.247C80.324 106.662 80.2605 95.9932 91.5672 89.4136C102.874 82.834 121.267 82.834 132.647 89.4185Z" fill="white"/>
<path d="M112.267 118.345C104.799 118.345 97.3261 116.696 91.6214 113.399C86.0487 110.175 82.9717 105.88 82.9668 101.302C82.9619 96.7227 85.9852 92.4961 91.4896 89.2821C102.821 82.6879 121.322 82.6879 132.726 89.2821C138.304 92.5059 141.376 96.801 141.386 101.38C141.395 105.959 138.362 110.185 132.863 113.389C127.197 116.687 119.734 118.345 112.267 118.345ZM112.057 84.6495C104.647 84.6495 97.2528 86.2834 91.6312 89.5414C86.2587 92.682 83.2647 96.8499 83.2696 101.282C83.2745 105.714 86.2929 109.936 91.7631 113.101C103.08 119.641 121.434 119.641 132.682 113.101C138.055 109.96 141.049 105.792 141.039 101.36C141.029 96.9282 138.016 92.7065 132.545 89.5414C126.904 86.2834 119.485 84.6495 112.057 84.6495Z" fill="#2D2D2D"/>
<g opacity="0.5">
<path opacity="0.5" d="M118.254 96.9915C120.842 98.4884 120.852 100.905 118.283 102.417C115.714 103.928 111.524 103.914 108.935 102.417C106.346 100.92 106.332 98.5031 108.906 96.9915C111.48 95.4799 115.66 95.4946 118.254 96.9915Z" fill="#2D2D2D"/>
</g>
<path d="M107.348 69.4258L106.444 100C106.444 100.851 107.016 101.703 108.139 102.353C110.381 103.65 114 103.65 116.242 102.353C117.355 101.703 117.907 100.851 117.902 100L117.004 69.4258H107.348Z" fill="#F76854"/>
<path d="M112.193 103.459C110.753 103.49 109.33 103.153 108.056 102.48C106.918 101.825 106.288 100.939 106.283 99.9903L107.172 69.3963C107.333 69.2397 116.989 69.2397 116.989 69.2397C117.15 69.3963 118.049 99.9707 118.049 99.9707C118.049 100.949 117.424 101.815 116.305 102.466C115.042 103.143 113.626 103.485 112.193 103.459ZM107.504 69.5626L106.61 99.9805C106.61 100.802 107.187 101.59 108.222 102.187C110.415 103.454 113.976 103.459 116.159 102.187C117.185 101.59 117.746 100.807 117.741 99.9756L116.843 69.5626H107.504Z" fill="#F76854"/>
<path d="M115.573 67.3906C117.458 68.4766 117.473 70.2523 115.573 71.3432C114.514 71.8843 113.342 72.1665 112.154 72.1665C110.965 72.1665 109.794 71.8843 108.735 71.3432C106.845 70.2523 106.84 68.4766 108.735 67.3906C109.793 66.8464 110.965 66.5625 112.154 66.5625C113.343 66.5625 114.515 66.8464 115.573 67.3906Z" fill="white"/>
<path d="M112.193 72.3212C110.977 72.3452 109.774 72.0573 108.701 71.4847C107.724 70.9221 107.196 70.1687 107.196 69.3567C107.196 68.5446 107.719 67.8059 108.662 67.2483C109.743 66.6983 110.938 66.4116 112.151 66.4116C113.364 66.4116 114.56 66.6983 115.641 67.2483C116.618 67.8059 117.14 68.5642 117.14 69.3713C117.14 70.1785 116.618 70.927 115.675 71.4847C114.605 72.0573 113.406 72.3453 112.193 72.3212ZM112.159 66.7297C111.002 66.7084 109.859 66.9828 108.837 67.5271C107.988 68.0163 107.519 68.6718 107.519 69.3567C107.519 70.0415 108.007 70.7019 108.862 71.2009C109.892 71.7267 111.032 72.0007 112.188 72.0007C113.344 72.0007 114.484 71.7267 115.514 71.2009C116.364 70.7117 116.833 70.0562 116.833 69.3713C116.833 68.6865 116.344 68.0261 115.49 67.5271C114.465 66.9826 113.318 66.7082 112.159 66.7297Z" fill="#2D2D2D"/>
<path d="M114.581 67.6641C115.915 68.437 115.924 69.6894 114.581 70.4623C113.834 70.8433 113.007 71.0419 112.169 71.0419C111.33 71.0419 110.503 70.8433 109.756 70.4623C108.422 69.6894 108.418 68.437 109.756 67.6641C110.503 67.2831 111.33 67.0845 112.169 67.0845C113.007 67.0845 113.834 67.2831 114.581 67.6641Z" fill="#F76854"/>
<path d="M112.188 71.2017C111.319 71.218 110.461 71.0126 109.693 70.6049C109.376 70.4902 109.103 70.2808 108.91 70.0051C108.717 69.7294 108.613 69.4007 108.613 69.0639C108.613 68.7271 108.717 68.3985 108.91 68.1228C109.103 67.847 109.376 67.6376 109.693 67.523C110.465 67.131 111.318 66.9268 112.183 66.9268C113.049 66.9268 113.902 67.131 114.674 67.523C114.991 67.6376 115.264 67.847 115.457 68.1228C115.65 68.3985 115.754 68.7271 115.754 69.0639C115.754 69.4007 115.65 69.7294 115.457 70.0051C115.264 70.2808 114.991 70.4902 114.674 70.6049C113.91 71.013 113.054 71.2185 112.188 71.2017ZM112.188 67.249C111.379 67.2326 110.578 67.4246 109.864 67.8067C109.615 67.9162 109.4 68.0898 109.24 68.3099C109.081 68.5299 108.982 68.7884 108.955 69.059C108.983 69.3325 109.084 69.5934 109.246 69.8152C109.408 70.037 109.626 70.2116 109.878 70.3211C110.6 70.69 111.398 70.8824 112.208 70.8824C113.018 70.8824 113.816 70.69 114.538 70.3211C114.787 70.2129 115.003 70.0396 115.163 69.8193C115.323 69.5991 115.42 69.3399 115.446 69.0688C115.415 68.7927 115.311 68.5299 115.145 68.3079C114.978 68.0859 114.755 67.9128 114.499 67.8067C113.78 67.425 112.977 67.2331 112.164 67.249H112.188Z" fill="#F76854"/>
<path d="M115.162 121.319H114.84V127.272H115.162V121.319Z" fill="#2D2D2D"/>
<path d="M120.555 120.834H120.232V126.787H120.555V120.834Z" fill="#2D2D2D"/>
<path d="M125.678 119.367H125.355V125.32H125.678V119.367Z" fill="#2D2D2D"/>
<path d="M134.035 115.625H133.713V121.578H134.035V115.625Z" fill="#2D2D2D"/>
<path d="M137.273 112.851H136.95V118.805H137.273V112.851Z" fill="#2D2D2D"/>
<path d="M139.495 109.255H139.173V115.209H139.495V109.255Z" fill="#2D2D2D"/>
<path d="M130.127 117.659H129.805V123.608H130.127V117.659Z" fill="#2D2D2D"/>
<path d="M109.302 121.319H108.979V127.272H109.302V121.319Z" fill="#2D2D2D"/>
<path d="M103.909 120.834H103.587V126.787H103.909V120.834Z" fill="#2D2D2D"/>
<path d="M98.7862 119.367H98.4639V125.32H98.7862V119.367Z" fill="#2D2D2D"/>
<path d="M90.4298 115.625H90.1074V121.578H90.4298V115.625Z" fill="#2D2D2D"/>
<path d="M87.1964 112.851H86.874V118.805H87.1964V112.851Z" fill="#2D2D2D"/>
<path d="M84.9688 109.255H84.6465V115.209H84.9688V109.255Z" fill="#2D2D2D"/>
<path d="M94.337 117.659H94.0146V123.608H94.337V117.659Z" fill="#2D2D2D"/>
<path d="M155.105 173.491C155.105 179.85 150.958 186.21 142.626 191.038C125.917 200.763 98.7324 200.763 81.9164 191.038C73.5304 186.19 69.3057 179.84 69.2422 173.491V231.005C70.4583 236.523 74.6147 241.894 81.9409 246.121C98.7568 255.851 125.942 255.851 142.65 246.121C149.918 241.894 154.001 236.523 154.924 231.005C155.105 231.005 155.105 173.491 155.105 173.491Z" fill="#00E599"/>
<path d="M112.31 253.567C101.287 253.567 90.2537 251.121 81.8335 246.263C74.8394 242.217 70.4046 236.861 69.335 231.171C69.0762 231.005 69.0762 173.491 69.0762 173.491C69.4669 180.056 73.9603 186.244 81.9898 190.901C98.7374 200.582 125.903 200.582 142.553 190.901C150.553 186.244 154.953 180.061 154.949 173.491C155.09 173.281 155.271 173.354 155.271 173.491V231.005C154.035 236.875 149.664 242.217 142.714 246.263C134.347 251.13 123.334 253.567 112.31 253.567ZM69.4034 230.858C70.6391 236.641 75.0299 241.968 81.9946 245.999C98.7422 255.685 125.908 255.685 142.558 245.999C149.473 241.968 153.791 236.641 154.768 230.995C154.973 230.858 154.973 176.612 154.973 176.612C153.815 182.12 149.576 187.218 142.738 191.195C126.01 200.93 98.7032 200.935 81.8628 191.195C74.9224 187.179 70.6293 182.032 69.4327 176.46L69.4034 230.858Z" fill="#2D2D2D"/>
<path d="M116.09 237.174C116.09 232.654 107.919 220.288 107.919 220.288C107.919 220.288 99.748 232.654 99.748 237.174C99.748 239.345 100.609 241.427 102.141 242.962C103.674 244.496 105.752 245.359 107.919 245.359C110.086 245.359 112.165 244.496 113.697 242.962C115.229 241.427 116.09 239.345 116.09 237.174Z" fill="#F76854"/>
<path d="M107.919 245.534C105.71 245.531 103.592 244.651 102.03 243.087C100.468 241.522 99.5895 239.401 99.5869 237.188C99.5869 232.673 107.45 220.717 107.782 220.213C107.798 220.192 107.819 220.175 107.843 220.163C107.866 220.151 107.893 220.145 107.919 220.145C107.946 220.145 107.972 220.151 107.996 220.163C108.019 220.175 108.04 220.192 108.056 220.213C108.388 220.703 116.251 232.673 116.251 237.188C116.249 239.401 115.37 241.522 113.808 243.087C112.246 244.651 110.128 245.531 107.919 245.534ZM107.919 220.585C106.854 222.219 99.9093 233.074 99.9093 237.174C99.9093 239.301 100.753 241.342 102.255 242.847C103.757 244.351 105.795 245.196 107.919 245.196C110.044 245.196 112.081 244.351 113.583 242.847C115.085 241.342 115.929 239.301 115.929 237.174C115.929 233.074 108.984 222.219 107.919 220.585Z" fill="#11101F"/>
<path d="M111.631 234.899C111.631 234.899 113.888 239.341 110.2 241.826L111.631 234.899Z" fill="#F76854"/>
<path d="M110.293 241.963L110.112 241.694C113.639 239.316 111.509 235.016 111.485 234.972L111.778 234.826C111.797 234.87 114.054 239.424 110.293 241.963Z" fill="#11101F"/>
<path d="M128.769 217.65C128.769 214.715 123.465 206.688 123.465 206.688C123.465 206.688 118.161 214.715 118.161 217.65C118.161 219.059 118.72 220.411 119.715 221.407C120.709 222.403 122.059 222.963 123.465 222.963C124.872 222.963 126.221 222.403 127.216 221.407C128.211 220.411 128.769 219.059 128.769 217.65Z" fill="#F76854"/>
<path d="M123.465 223.085C122.754 223.084 122.049 222.943 121.393 222.67C120.736 222.396 120.139 221.995 119.637 221.491C119.135 220.986 118.737 220.387 118.466 219.728C118.195 219.069 118.057 218.363 118.059 217.65C118.059 214.715 123.163 206.957 123.377 206.629C123.387 206.615 123.4 206.603 123.416 206.595C123.431 206.587 123.448 206.583 123.465 206.583C123.483 206.583 123.5 206.587 123.515 206.595C123.53 206.603 123.543 206.615 123.553 206.629C123.773 206.957 128.877 214.72 128.877 217.65C128.879 218.363 128.74 219.07 128.469 219.729C128.198 220.388 127.8 220.988 127.297 221.492C126.794 221.997 126.197 222.398 125.54 222.671C124.882 222.944 124.177 223.085 123.465 223.085ZM123.465 206.898C122.777 207.959 118.269 215.004 118.269 217.66C118.328 219.001 118.902 220.268 119.871 221.196C120.84 222.123 122.129 222.641 123.47 222.639C124.811 222.638 126.099 222.118 127.066 221.189C128.034 220.259 128.605 218.992 128.662 217.65C128.662 215.004 124.159 207.959 123.465 206.888V206.898Z" fill="#11101F"/>
<path d="M125.878 216.183C125.878 216.183 127.343 219.069 124.95 220.679L125.878 216.183Z" fill="#F76854"/>
<path d="M125.009 220.776L124.892 220.604C127.177 219.059 125.795 216.265 125.785 216.241L125.971 216.143C125.986 216.182 127.446 219.117 125.009 220.776Z" fill="#11101F"/>
<path d="M96.9741 218.042C96.9741 216.574 94.2927 212.499 94.2927 212.499C94.2927 212.499 91.6113 216.559 91.6113 218.042C91.6113 218.755 91.8943 219.439 92.3981 219.944C92.9019 220.449 93.5851 220.732 94.2976 220.732C95.01 220.732 95.6933 220.449 96.1971 219.944C96.7008 219.439 96.9838 218.755 96.9838 218.042H96.9741Z" fill="#F76854"/>
<path d="M94.2927 220.776C93.9327 220.778 93.5759 220.709 93.2427 220.572C92.9095 220.436 92.6064 220.235 92.351 219.981C92.0955 219.727 91.8926 219.425 91.754 219.092C91.6153 218.759 91.5436 218.402 91.543 218.042C91.543 216.574 94.1218 212.636 94.2341 212.47C94.2391 212.463 94.2456 212.457 94.2533 212.453C94.261 212.449 94.2694 212.447 94.2781 212.447C94.2867 212.447 94.2952 212.449 94.3028 212.453C94.3105 212.457 94.3171 212.463 94.322 212.47C94.4295 212.636 97.0083 216.559 97.0083 218.042C97.007 218.764 96.721 219.456 96.2124 219.969C95.7038 220.481 95.0139 220.771 94.2927 220.776ZM94.2927 212.597C93.9411 213.135 91.6651 216.696 91.6651 218.042C91.6651 218.74 91.9419 219.409 92.4347 219.903C92.9275 220.396 93.5958 220.673 94.2927 220.673C94.9896 220.673 95.658 220.396 96.1507 219.903C96.6435 219.409 96.9204 218.74 96.9204 218.042C96.9155 216.696 94.6395 213.135 94.2927 212.597Z" fill="#11101F"/>
<path d="M95.5089 217.293C95.5089 217.293 96.2464 218.761 95.0205 219.568L95.5089 217.293Z" fill="#F76854"/>
<path d="M95.0694 219.607L95.0107 219.519C96.1683 218.736 95.4698 217.327 95.4601 217.313L95.5578 217.264C95.5578 217.264 96.305 218.78 95.0694 219.607Z" fill="#11101F"/>
<path d="M79.3331 142.785H79.0107V184.44H79.3331V142.785Z" fill="#00E599"/>
<path d="M79.3331 248.606H79.0107V270.409H79.3331V248.606Z" fill="#00E599"/>
<path d="M125.854 40.9644C135.337 41.6637 144.866 40.5548 153.937 37.6966C169.683 32.6384 181.777 19.3716 174.939 8.42839C167.051 -4.20739 152.169 0.342079 143.016 14.0639C134.415 26.9589 125.854 40.9644 125.854 40.9644Z" fill="#F76854" stroke="black" stroke-width="0.25" stroke-miterlimit="10"/>
<path d="M143.075 56.7065C143.491 63.5896 145.202 70.3318 148.12 76.5775C153.263 87.4032 163.925 94.8243 171.11 88.861C179.413 81.9781 174.714 71.7394 164.004 66.461C153.937 61.5055 143.075 56.7065 143.075 56.7065Z" fill="#F76854" stroke="black" stroke-width="0.25" stroke-miterlimit="10"/>
<path d="M81.6364 275.314L41.1276 281.014L0.638341 275.314C0.638341 275.314 -4.68534 297.328 20.0136 312.948C20.8537 315.281 22.8317 317.507 25.9624 319.307C34.4754 324.229 48.234 324.229 56.6884 319.307C59.9167 317.429 61.8997 315.11 62.6567 312.684C86.8917 297.074 81.6364 275.314 81.6364 275.314Z" fill="white"/>
<path d="M41.3426 323.162C35.7503 323.162 30.1531 321.925 25.8844 319.454C22.8464 317.703 20.7756 315.487 19.8818 313.056C7.10986 304.96 2.51391 295.132 0.907037 288.308C-0.83659 280.901 0.467469 275.334 0.482122 275.276C0.662834 275.153 41.1374 280.847 41.1374 280.847L81.612 275.153C81.8074 275.334 83.0773 280.843 81.3922 288.185C79.8196 294.946 75.3213 304.705 62.7936 312.792C61.9828 315.33 59.9022 317.63 56.7715 319.454C52.5272 321.925 46.9398 323.162 41.3426 323.162ZM0.765401 275.496C0.0351768 279.734 0.191512 284.079 1.22451 288.254C2.82161 295.019 7.39313 304.774 20.1016 312.811C21.0247 315.257 23.0565 317.449 26.0455 319.171C34.4999 324.063 48.2096 324.063 56.6103 319.171C59.6922 317.38 61.7288 315.12 62.5005 312.64C75.0429 304.515 79.5167 294.824 81.0601 288.112C82.0665 283.981 82.2144 279.687 81.4948 275.496L41.1472 281.175C41.1277 281.175 0.765401 275.496 0.765401 275.496Z" fill="#2D2D2D"/>
<path d="M69.9436 259.71C85.8658 268.916 85.9489 283.841 70.1292 293.048C54.3096 302.255 28.5801 302.259 12.6628 293.048C-3.25446 283.836 -3.34726 268.906 12.4724 259.7C28.292 250.493 53.997 250.503 69.9436 259.71Z" fill="#FF6457"/>
<path d="M41.4015 300.102C30.969 300.102 20.5219 297.798 12.556 293.189C4.77557 288.694 0.487324 282.701 0.477556 276.322C0.467788 269.943 4.69254 264.034 12.3655 259.567C28.2046 250.346 54.0562 250.351 69.9979 259.567C77.7783 264.068 82.0666 270.056 82.0763 276.435C82.0861 282.814 77.8614 288.718 70.1884 293.189C62.2664 297.798 51.8388 300.102 41.4015 300.102ZM41.128 252.973C30.7541 252.973 20.3949 255.263 12.5218 259.822C4.94651 264.225 0.799901 270.095 0.799901 276.298C0.799901 282.501 5.0442 288.449 12.7171 292.886C28.5661 302.054 54.276 302.049 70.0224 292.886C77.5976 288.483 81.7442 282.613 81.7442 276.415C81.7442 270.217 77.4999 264.269 69.827 259.832C61.9099 255.267 51.5165 252.973 41.128 252.973Z" fill="#2D2D2D"/>
<path d="M40.7272 319.062C37.9228 319.063 35.1263 318.765 32.3851 318.172C24.7513 316.509 19.9649 313.114 19.9209 313.085L20.1065 312.82C20.1553 312.855 24.8978 316.245 32.4682 317.864C39.4525 319.376 50.344 319.679 62.5738 312.551L62.735 312.83C54.5541 317.595 46.9886 319.062 40.7272 319.062Z" fill="#2D2D2D"/>
<path d="M67.785 260.14C82.5253 268.661 82.5985 282.476 67.9609 290.998C53.3232 299.52 29.5034 299.524 14.768 290.998C0.0326896 282.471 -0.0454559 268.657 14.5922 260.135C29.2299 251.613 53.0497 251.618 67.785 260.14Z" fill="#FF6457"/>
<path d="M41.3919 297.539C31.7311 297.539 22.0655 295.406 14.6856 291.14C7.48152 286.977 3.52051 281.425 3.52051 275.515C3.52051 269.606 7.42779 264.137 14.5342 259.998C29.1865 251.462 53.1186 251.467 67.8882 259.998C75.0922 264.166 79.063 269.713 79.0728 275.623C79.0825 281.532 75.1655 286.997 68.0591 291.135C60.7085 295.406 51.0575 297.539 41.3919 297.539ZM41.1477 253.917C31.5455 253.917 21.958 256.036 14.6758 260.277C7.672 264.352 3.81844 269.767 3.82821 275.515C3.83798 281.263 7.73549 286.767 14.8468 290.861C29.4991 299.339 53.3042 299.339 67.8784 290.861C74.8822 286.781 78.7358 281.376 78.7309 275.628C78.726 269.88 74.8236 264.376 67.7075 260.287C60.3715 256.041 50.7547 253.917 41.1281 253.917H41.1477Z" fill="#2D2D2D"/>
<path d="M44.5464 299.641C42.0263 299.645 39.5088 299.481 37.0102 299.152C25.2884 297.597 11.0756 292.044 5.66403 283.151C4.39796 281.149 3.64386 278.865 3.46838 276.502C3.2929 274.138 3.70145 271.768 4.6579 269.6C6.3185 265.853 9.54201 262.962 13.3809 260.741C14.3577 257.703 16.5116 254.631 20.458 252.028C22.4452 250.726 24.5947 249.692 26.8513 248.951C27.2107 247.286 27.9797 245.736 29.0885 244.444C30.1973 243.151 31.6107 242.157 33.2006 241.55C36.8881 240.126 49.665 235.915 59.0864 241.305C61.3445 242.603 63.2803 244.396 64.7486 246.55C66.2169 248.703 67.1798 251.162 67.5652 253.741C67.7307 254.712 67.8432 255.692 67.9022 256.676C70.1613 258.319 72.1958 260.251 73.9536 262.424C80.9379 271.229 80.1858 281.928 72.0488 289.667C65.1378 296.198 55.5552 299.641 44.5464 299.641Z" fill="#F76854"/>
<path d="M44.5466 299.803C42.0179 299.799 39.4922 299.627 36.986 299.289C25.2642 297.729 10.9684 292.152 5.52259 283.21C4.24502 281.185 3.48454 278.876 3.30822 276.488C3.13191 274.099 3.54517 271.703 4.51158 269.512C6.02077 266.088 8.95612 263.114 13.2444 260.609C14.3335 257.185 16.7316 254.25 20.3654 251.867C22.3421 250.577 24.476 249.546 26.7147 248.8C27.0884 247.129 27.869 245.576 28.9871 244.281C30.1052 242.985 31.5259 241.987 33.1227 241.374C36.8297 239.946 49.6603 235.709 59.1647 241.139C61.4431 242.45 63.3963 244.259 64.8781 246.432C66.3599 248.605 67.332 251.085 67.7217 253.687C67.8819 254.645 67.9927 255.609 68.0538 256.578C70.3009 258.222 72.3252 260.151 74.0759 262.316C81.1139 271.195 80.3618 281.972 72.1565 289.775C65.2357 296.335 55.6873 299.803 44.5466 299.803ZM47.9264 238.772C41.4989 238.772 35.5599 240.782 33.2399 241.678C31.6786 242.276 30.2912 243.256 29.2038 244.528C28.1163 245.8 27.3632 247.324 27.0127 248.962C24.742 249.768 22.5721 250.835 20.5461 252.141C16.9514 254.514 14.5924 257.415 13.5325 260.766C9.20521 263.336 6.29591 266.295 4.80463 269.645C3.85707 271.787 3.45052 274.13 3.62088 276.466C3.79124 278.803 4.53326 281.062 5.78145 283.043C11.154 291.893 25.3472 297.416 37.0104 298.967C39.5083 299.305 42.0259 299.477 44.5466 299.48C55.6189 299.48 65.0892 296.056 71.9318 289.54C80.0052 281.864 80.7476 271.259 73.822 262.517C72.0734 260.353 70.0487 258.429 67.7998 256.794C67.6777 255.707 67.5654 254.724 67.3994 253.741C67.0182 251.186 66.0649 248.751 64.6109 246.618C63.157 244.485 61.24 242.709 59.0036 241.423C55.5359 239.452 51.6383 238.772 47.9069 238.772H47.9264Z" fill="#F76854"/>
<path d="M51.3848 267.468L51.3457 267.145C67.6391 265.271 68.274 255.487 68.2789 255.404H68.6012C68.6061 255.502 67.9565 265.565 51.3848 267.468Z" fill="white"/>
<path d="M67.2771 282.848C65.2648 280.011 60.6493 280.603 53.6553 281.498C48.4 282.168 41.8553 283.01 34.1188 282.658C24.2041 282.212 17.5129 279.458 14.2991 274.473C10.2795 268.27 13.1611 260.732 13.1905 260.659L13.4933 260.776C13.464 260.849 10.6458 268.241 14.5727 274.297C17.7473 279.189 24.3409 281.894 34.1335 282.335C41.8211 282.682 48.3511 281.846 53.5967 281.175C60.703 280.265 65.3967 279.669 67.5213 282.643L67.2771 282.848Z" fill="white"/>
<path d="M32.6491 253.604C31.7352 253.613 30.8297 253.428 29.9922 253.061C28.3414 252.328 27.0959 250.875 26.2998 248.732L26.6026 248.62C27.3694 250.674 28.5563 252.044 30.1192 252.763C32.5612 253.849 35.1303 252.856 35.1547 252.846C35.1791 252.836 43.277 250.024 48.9474 251.344L48.8741 251.658C43.2916 250.361 35.3501 253.125 35.2719 253.15C34.4309 253.454 33.5432 253.608 32.6491 253.604Z" fill="white"/>
</svg>
