<svg width="386" height="229" viewBox="0 0 386 229" fill="none" xmlns="http://www.w3.org/2000/svg">
<path d="M72.3402 143C69.8503 143.806 67.312 144.454 64.7403 144.94C60.7823 145.695 56.7685 146.12 52.7403 146.21C34.9503 146.64 19.4803 140.75 12.3403 131.91C9.79453 128.911 8.32026 125.15 8.15025 121.22C8.10193 118.585 8.68122 115.977 9.84025 113.61C10.3903 125.04 28.7403 133.83 51.0603 133.29C57.0614 133.167 63.0252 132.314 68.8203 130.75C71.3533 130.064 73.8331 129.195 76.2402 128.15C77.9862 127.394 79.68 126.522 81.3102 125.54C87.6202 121.7 91.3903 116.73 91.3102 111.4C91.2571 109.588 90.7775 107.813 89.9103 106.22C93.7403 109.95 95.9802 114.35 96.0902 119.09C96.3302 129.32 86.6502 138.4 72.3402 143Z" fill="#D44454" stroke="black" stroke-width="0.25" stroke-miterlimit="10"/>
<path d="M81.3501 125.57C74.0001 130.06 63.1901 133 51.0901 133.33C28.7701 133.87 10.4201 125.09 9.87012 113.65C11.8513 109.819 14.7425 106.533 18.2901 104.08C26.2201 98.2902 38.1201 94.4502 51.5001 94.1302C67.7801 93.7302 82.1201 98.6302 89.9001 106.25C90.7673 107.843 91.2469 109.618 91.3001 111.43C91.4301 116.75 87.6601 121.72 81.3501 125.57Z" fill="#D44454" stroke="black" stroke-width="0.25" stroke-miterlimit="10"/>
<g opacity="0.2">
<path opacity="0.2" d="M27.8602 121.871C26.8602 123.171 23.7402 122.461 20.8602 120.271C17.9802 118.081 16.5302 115.271 17.5302 113.951C18.5302 112.631 20.3902 114.951 23.2402 117.181C26.0902 119.411 28.8602 120.561 27.8602 121.871Z" fill="white"/>
</g>
<path d="M243.45 204.83C244.94 212.49 233.02 221.3 216.82 224.51C200.62 227.72 186.28 224.13 184.82 216.51C184.36 214.15 185.17 211.69 186.98 209.31C186.604 210.122 186.472 211.025 186.6 211.91C186.88 213.35 188.17 214.5 190.23 215.35C195.23 217.41 204.84 217.62 215.47 215.51C226.9 213.24 236.22 208.96 239.56 204.84C240.034 204.359 240.394 203.778 240.614 203.139C240.833 202.501 240.907 201.821 240.83 201.15C240.767 200.834 240.663 200.528 240.52 200.24C242.003 201.381 243.04 203.005 243.45 204.83Z" fill="#A09BE2" stroke="black" stroke-width="0.25" stroke-miterlimit="10"/>
<path d="M240.48 200.211C240.623 200.499 240.727 200.805 240.79 201.121C240.867 201.791 240.794 202.471 240.574 203.11C240.354 203.748 239.994 204.329 239.52 204.811C233.52 202.191 224.16 201.551 214.07 203.551C203.35 205.681 194.52 210.251 190.19 215.321C188.13 214.471 186.84 213.321 186.56 211.881C186.432 210.995 186.564 210.092 186.94 209.281C191 203.931 200.19 199.001 211.4 196.801C223.85 194.331 235.21 195.881 240.48 200.211Z" fill="#AFA6DB" stroke="black" stroke-width="0.25" stroke-miterlimit="10"/>
<path d="M192.27 224.09C191.16 222.29 189.88 218.5 192.27 215.66L193.15 216.88C190.8 219.62 193.15 223.18 193.26 223.34L192.36 224.34L192.27 224.09Z" fill="#967CE2"/>
<path d="M238.68 214C239.26 209.46 236.83 207.82 236.81 207.8L237.27 206.4C237.27 206.4 240.63 208.66 239.91 214.4L238.68 214Z" fill="#967CE2"/>
<path d="M205.74 225.9C204.876 224.499 204.338 222.921 204.164 221.284C203.991 219.647 204.188 217.992 204.74 216.44L205.87 217.22C205.403 218.526 205.241 219.922 205.397 221.3C205.553 222.678 206.023 224.002 206.77 225.17L205.9 226.17C205.9 226.17 205.84 226.06 205.74 225.9Z" fill="#967CE2"/>
<path d="M223.75 221.86C223.84 221.72 225.8 218.32 222.32 214L223.13 212.92C227.49 218.32 224.78 222.92 224.75 222.92L223.75 221.86Z" fill="#967CE2"/>
<path d="M213.6 201.901C214.6 210.901 199.94 219.901 180.93 221.971C161.92 224.041 145.71 218.511 144.74 209.541C144.45 206.771 145.62 204.011 147.95 201.441C147.429 202.351 147.186 203.394 147.25 204.441C147.43 206.131 148.81 207.601 151.1 208.781C156.69 211.651 167.74 212.841 180.21 211.451C193.63 209.961 204.81 205.951 209.07 201.531C209.663 201.02 210.135 200.383 210.452 199.667C210.768 198.951 210.921 198.173 210.9 197.391C210.86 197.021 210.772 196.658 210.64 196.311C212.249 197.771 213.296 199.749 213.6 201.901Z" fill="#A09BE2" stroke="black" stroke-width="0.25" stroke-miterlimit="10"/>
<path d="M210.631 196.27C210.763 196.618 210.85 196.981 210.891 197.35C210.912 198.133 210.759 198.911 210.443 199.627C210.126 200.343 209.654 200.98 209.061 201.49C202.401 197.87 191.651 196.21 179.811 197.49C167.241 198.88 156.591 203.28 151.091 208.71C148.801 207.53 147.421 206.06 147.241 204.37C147.176 203.323 147.42 202.281 147.941 201.37C153.171 195.6 164.231 190.84 177.391 189.37C192.001 187.84 205.001 190.76 210.631 196.27Z" fill="#AFA6DB" stroke="black" stroke-width="0.25" stroke-miterlimit="10"/>
<path d="M152.64 219.06C151.53 216.88 150.43 212.38 153.53 209.34L154.42 210.83C151.42 213.76 153.81 218.11 153.91 218.3L152.78 219.3C152.728 219.223 152.681 219.143 152.64 219.06Z" fill="#967CE2"/>
<path d="M207.19 212C208.3 206.82 205.67 204.68 205.64 204.66L206.32 203.09C206.32 203.09 209.97 206.03 208.56 212.58L207.19 212Z" fill="#967CE2"/>
<path d="M168 222.48C167.15 220.777 166.691 218.906 166.656 217.003C166.622 215.1 167.012 213.213 167.8 211.48L169.04 212.48C168.365 213.939 168.037 215.533 168.08 217.14C168.124 218.746 168.537 220.321 169.29 221.74L168.18 222.82C168.111 222.712 168.051 222.598 168 222.48Z" fill="#967CE2"/>
<path d="M189.18 219.6C189.3 219.44 191.9 215.72 188.31 210.39L189.31 209.22C193.81 215.88 190.23 220.86 190.2 220.91L189.18 219.6Z" fill="#967CE2"/>
<path d="M232.38 199.46C230.53 208.31 213.85 212.35 195.11 208.46C176.37 204.57 162.68 194.32 164.52 185.46C165.09 182.74 167.06 180.46 170.06 178.75C169.294 179.445 168.749 180.349 168.49 181.35C168.14 183.02 168.99 184.83 170.81 186.66C175.24 191.12 185.39 195.66 197.68 198.18C210.91 200.9 222.78 200.52 228.19 197.63C228.91 197.325 229.553 196.864 230.072 196.279C230.591 195.694 230.973 195.001 231.19 194.25C231.263 193.889 231.29 193.519 231.27 193.15C232.379 195.055 232.773 197.292 232.38 199.46Z" fill="#A09BE2" stroke="black" stroke-width="0.25" stroke-miterlimit="10"/>
<path d="M231.29 193.19C231.31 193.559 231.283 193.928 231.21 194.29C230.992 195.041 230.61 195.734 230.091 196.319C229.572 196.903 228.93 197.365 228.21 197.67C222.99 192.18 213.28 187.28 201.61 184.88C189.22 182.33 177.73 183.23 170.83 186.7C169.01 184.87 168.16 183.06 168.51 181.39C168.768 180.389 169.314 179.485 170.08 178.79C176.84 174.92 188.83 173.79 201.79 176.47C216.18 179.44 227.61 186.21 231.29 193.19Z" fill="#AFA6DB" stroke="black" stroke-width="0.25" stroke-miterlimit="10"/>
<path d="M169.09 197C168.71 194.58 169.09 190 172.94 188L173.33 189.7C169.59 191.56 170.5 196.43 170.54 196.64L169.14 197.27C169.13 197.21 169.11 197.11 169.09 197Z" fill="#967CE2"/>
<path d="M223.16 207.14C225.81 202.55 223.96 199.7 223.94 199.68L225.07 198.39C225.07 198.39 227.64 202.31 224.28 208.12L223.16 207.14Z" fill="#967CE2"/>
<path d="M182.65 205C182.369 203.117 182.511 201.194 183.066 199.373C183.622 197.551 184.576 195.876 185.86 194.47L186.72 195.81C185.633 196.993 184.832 198.41 184.377 199.951C183.923 201.492 183.828 203.117 184.1 204.7L182.72 205.38C182.689 205.255 182.665 205.128 182.65 205Z" fill="#967CE2"/>
<path d="M203.7 208.78C203.85 208.67 207.48 205.93 205.7 199.78L207.06 198.99C209.28 206.71 204.34 210.35 204.29 210.39L203.7 208.78Z" fill="#967CE2"/>
<path d="M146.621 24.2005C150.541 29.2005 161.221 33.7005 174.141 35.1405C187.061 36.5805 198.461 34.6105 203.401 30.5705C204.776 29.5624 205.699 28.0537 205.971 26.3705C206.058 25.5293 205.945 24.6793 205.641 23.8905C203.471 18.0005 191.641 12.4205 176.871 10.7605C164.021 9.32046 152.671 11.2705 147.691 15.2805C146.98 15.7745 146.376 16.4061 145.914 17.1379C145.452 17.8696 145.141 18.6866 145.001 19.5405C144.95 20.3856 145.068 21.2323 145.346 22.032C145.624 22.8317 146.057 23.5686 146.621 24.2005Z" fill="#F76854" stroke="black" stroke-width="0.25" stroke-miterlimit="10"/>
<path d="M145.94 33.4303C146.214 33.755 146.504 34.0655 146.81 34.3603C151.43 38.8503 161.36 42.6803 173.15 44.0003C177.921 44.559 182.736 44.6227 187.52 44.1903C193.6 43.6003 198.6 42.1203 201.66 39.9703C207.46 36.7303 208.28 28.0603 205.74 24.0803L205.62 23.9003C205.652 23.967 205.676 24.0376 205.69 24.1103C205.938 24.8397 206.027 25.6137 205.95 26.3803C205.678 28.0635 204.755 29.5722 203.38 30.5803C201.06 32.4703 197.33 33.9203 192.69 34.7603C186.55 35.7707 180.297 35.8987 174.12 35.1403C163.42 33.9403 154.26 30.6803 149.2 26.7403C148.234 26.0021 147.361 25.1492 146.6 24.2003C146.04 23.5669 145.611 22.8292 145.336 22.0296C145.061 21.23 144.947 20.3841 145 19.5403C145.136 18.6895 145.44 17.8745 145.895 17.143C146.35 16.4114 146.947 15.7782 147.65 15.2803C142 19.0903 139.86 27.8403 145.94 33.4303Z" fill="#F76854" stroke="black" stroke-width="0.25" stroke-miterlimit="10"/>
<g opacity="0.3">
<path opacity="0.3" d="M177.42 22.0002L190.93 20.7102C191.972 20.6124 193.014 20.8889 193.87 21.4902C199.37 25.3302 196.35 28.7502 186.7 30.5602C186.149 30.6629 185.582 30.6369 185.042 30.4843C184.503 30.3317 184.006 30.0565 183.59 29.6802L176.91 23.6002C176.778 23.4819 176.683 23.3278 176.636 23.1565C176.589 22.9852 176.593 22.8041 176.647 22.635C176.701 22.4658 176.803 22.3159 176.94 22.2033C177.077 22.0906 177.244 22.0201 177.42 22.0002Z" fill="#BE184E"/>
</g>
<g opacity="0.3">
<path opacity="0.3" d="M171.7 21.4701L158.76 23.4701C157.76 23.6197 156.74 23.4107 155.88 22.8801C150.38 19.4801 153.1 16.0201 162.3 13.7601C162.818 13.636 163.359 13.6327 163.879 13.7506C164.399 13.8686 164.885 14.1044 165.3 14.4401L172.06 19.9201C172.187 20.0256 172.282 20.1643 172.335 20.3208C172.387 20.4773 172.395 20.6454 172.358 20.8062C172.321 20.9671 172.239 21.1144 172.123 21.2316C172.007 21.3488 171.86 21.4314 171.7 21.4701Z" fill="#BE184E"/>
</g>
<g opacity="0.3">
<path opacity="0.3" d="M173 23.4003L163.23 26.4003C163.09 26.4424 162.967 26.5256 162.876 26.6391C162.785 26.7526 162.731 26.8909 162.72 27.036C162.709 27.1811 162.742 27.326 162.815 27.4517C162.889 27.5775 162.998 27.6781 163.13 27.7403C166.92 29.5603 171.79 30.3603 176.7 30.4803C176.998 30.5076 177.297 30.4437 177.558 30.2972C177.82 30.1507 178.03 29.9284 178.162 29.6597C178.294 29.3911 178.342 29.0886 178.299 28.7924C178.255 28.4961 178.123 28.2199 177.92 28.0003L174.38 23.8203C174.223 23.6139 174.005 23.4622 173.758 23.3868C173.51 23.3114 173.245 23.3161 173 23.4003Z" fill="#BE184E"/>
</g>
<g opacity="0.3">
<path opacity="0.3" d="M187.16 17.0004C182.05 14.7501 176.486 13.7229 170.91 14.0004C170.767 14.0093 170.631 14.0602 170.517 14.1467C170.404 14.2333 170.319 14.3515 170.273 14.4865C170.227 14.6215 170.222 14.7671 170.259 14.9049C170.296 15.0427 170.372 15.1664 170.48 15.2604L174.23 19.5004C174.363 19.648 174.53 19.7614 174.716 19.831C174.902 19.9006 175.102 19.9244 175.3 19.9004L186.92 18.3504C187.071 18.33 187.212 18.2621 187.322 18.1565C187.432 18.0509 187.505 17.9131 187.532 17.763C187.559 17.6128 187.537 17.4581 187.47 17.321C187.403 17.184 187.295 17.0717 187.16 17.0004Z" fill="#BE184E"/>
</g>
<g opacity="0.8">
<path opacity="0.8" d="M181.16 23.7605C181.564 24.3748 182.079 24.9075 182.68 25.3305C183.74 26.0605 185.12 26.1905 185.48 25.2505C185.84 24.3105 184.9 23.4605 183.62 23.5505C182.34 23.6405 181.16 23.7605 181.16 23.7605Z" fill="#F6B5BA"/>
</g>
<g opacity="0.8">
<path opacity="0.8" d="M175.38 18.5202C175.934 18.4227 176.463 18.2189 176.94 17.9202C177.76 17.4002 178.26 16.4702 177.71 15.9202C177.16 15.3702 176.29 15.8002 175.97 16.7102C175.65 17.6202 175.38 18.5002 175.38 18.5002" fill="#F6B5BA"/>
</g>
<g opacity="0.8">
<path opacity="0.8" d="M168.52 20.2205C168.077 19.7942 167.558 19.455 166.99 19.2205C165.99 18.8105 164.83 18.9605 164.71 19.7905C164.59 20.6205 165.5 21.1505 166.53 20.8605C167.56 20.5705 168.53 20.2505 168.53 20.2505" fill="#F6B5BA"/>
</g>
<g opacity="0.8">
<path opacity="0.8" d="M172.93 25.2104C172.445 25.4319 172.007 25.7442 171.64 26.1304C171.02 26.7904 170.8 27.7704 171.45 28.1304C172.1 28.4904 172.79 27.9104 172.85 26.9904C172.91 26.0704 172.93 25.2204 172.93 25.2204" fill="#F6B5BA"/>
</g>
<path d="M184.44 30.1804C188.23 35.3204 198.78 40.0704 211.66 41.8604C224.54 43.6504 236 42.0004 241 38.0804C241.698 37.6128 242.297 37.0116 242.763 36.3113C243.228 35.6111 243.55 34.8257 243.71 34.0004C243.825 33.1623 243.739 32.3089 243.46 31.5104C241.46 25.5704 229.76 19.6704 215.05 17.6104C202.24 15.8304 190.84 17.4704 185.76 21.3404C184.331 22.299 183.339 23.7835 183 25.4704C182.841 27.1688 183.359 28.8611 184.44 30.1804Z" fill="#F76854" stroke="black" stroke-width="0.25" stroke-miterlimit="10"/>
<path d="M183.51 39.3905C183.77 39.7105 184.05 40.0205 184.36 40.3905C188.86 45.0005 198.68 49.1005 210.43 50.7405C215.184 51.425 219.996 51.616 224.79 51.3105C230.88 50.8805 235.92 49.5305 239.04 47.4705C244.93 44.3905 245.98 35.7405 243.54 31.7005C243.54 31.6305 243.47 31.5705 243.44 31.5105L243.5 31.7305C243.731 32.4637 243.796 33.2391 243.69 34.0005C243.532 34.8242 243.213 35.6086 242.752 36.3088C242.29 37.0089 241.695 37.611 241 38.0805C238.64 39.9105 234.87 41.2505 230.2 41.9705C224.036 42.8142 217.783 42.7738 211.63 41.8505C200.97 40.3605 191.9 36.8505 186.94 32.7705C185.995 32.0094 185.145 31.1364 184.41 30.1705C183.342 28.8493 182.836 27.1615 183 25.4705C183.163 24.6254 183.492 23.821 183.967 23.1036C184.442 22.3862 185.055 21.77 185.77 21.2905C179.92 24.9405 177.59 33.6405 183.51 39.3905Z" fill="#F76854" stroke="black" stroke-width="0.25" stroke-miterlimit="10"/>
<g opacity="0.3">
<path opacity="0.3" d="M215.29 28.8503L228.83 27.9203C229.873 27.844 230.91 28.1457 231.75 28.7703C237.15 32.7703 234.04 36.1003 224.33 37.6503C223.774 37.7326 223.207 37.6852 222.672 37.5117C222.138 37.3382 221.651 37.0434 221.25 36.6503L214.74 30.4003C214.621 30.2772 214.54 30.1236 214.504 29.9568C214.468 29.7899 214.479 29.6164 214.536 29.4556C214.593 29.2948 214.694 29.153 214.827 29.0461C214.96 28.9392 215.12 28.8714 215.29 28.8503Z" fill="#BE184E"/>
</g>
<g opacity="0.3">
<path opacity="0.3" d="M209.59 28.1204L196.59 29.7604C195.588 29.8797 194.575 29.6425 193.73 29.0904C188.32 25.5404 191.13 22.1604 200.39 20.1404C200.915 20.0294 201.459 20.0402 201.979 20.1719C202.499 20.3037 202.982 20.5529 203.39 20.9004L210 26.5704C210.131 26.6773 210.229 26.8197 210.281 26.9806C210.334 27.1415 210.338 27.3141 210.295 27.4776C210.252 27.6412 210.162 27.7888 210.037 27.9028C209.912 28.0168 209.757 28.0924 209.59 28.1204Z" fill="#BE184E"/>
</g>
<g opacity="0.3">
<path opacity="0.3" d="M210.88 30.0901L201 32.8001C200.862 32.8415 200.739 32.9228 200.647 33.0337C200.555 33.1446 200.498 33.2802 200.483 33.4235C200.468 33.5668 200.496 33.7112 200.563 33.8388C200.63 33.9663 200.733 34.0711 200.86 34.1401C204.6 36.0601 209.45 36.9901 214.36 37.2401C214.645 37.2534 214.928 37.1844 215.175 37.0414C215.422 36.8984 215.623 36.6874 215.754 36.4334C215.885 36.1795 215.939 35.8934 215.912 35.6092C215.885 35.3249 215.776 35.0545 215.6 34.8301L212.17 30.5601C212.027 30.3614 211.827 30.2103 211.597 30.1264C211.367 30.0426 211.117 30.03 210.88 30.0901Z" fill="#BE184E"/>
</g>
<g opacity="0.3">
<path opacity="0.3" d="M225.17 24.0504C220.118 21.6728 214.582 20.5053 209 20.6404C208.857 20.6457 208.719 20.6933 208.604 20.7772C208.488 20.861 208.4 20.9773 208.351 21.1113C208.302 21.2452 208.293 21.3908 208.327 21.5296C208.361 21.6683 208.435 21.7939 208.54 21.8904L212.17 26.2204C212.298 26.3726 212.462 26.4912 212.647 26.5661C212.831 26.641 213.032 26.67 213.23 26.6504L224.89 25.4204C225.051 25.414 225.205 25.3539 225.328 25.2496C225.45 25.1453 225.535 25.0029 225.567 24.8451C225.599 24.6874 225.577 24.5233 225.505 24.3793C225.434 24.2352 225.315 24.1194 225.17 24.0504Z" fill="#BE184E"/>
</g>
<g opacity="0.8">
<path opacity="0.8" d="M219 30.6701C219.391 31.2954 219.892 31.8443 220.48 32.2901C221.48 33.0501 222.9 33.2001 223.28 32.2901C223.66 31.3801 222.75 30.4901 221.47 30.5401C220.19 30.5901 219 30.6801 219 30.6801" fill="#F6B5BA"/>
</g>
<g opacity="0.8">
<path opacity="0.8" d="M213.35 25.2805C213.904 25.1968 214.437 25.0066 214.92 24.7205C215.76 24.2205 216.28 23.3005 215.75 22.7705C215.22 22.2405 214.33 22.6005 213.99 23.5105C213.65 24.4205 213.35 25.2805 213.35 25.2805Z" fill="#F6B5BA"/>
</g>
<g opacity="0.8">
<path opacity="0.8" d="M206.45 26.7901C206.017 26.3462 205.505 25.9867 204.94 25.7301C203.94 25.2801 202.79 25.4001 202.65 26.2301C202.51 27.0601 203.4 27.6101 204.44 27.3501C205.48 27.0901 206.44 26.7901 206.44 26.7901" fill="#F6B5BA"/>
</g>
<g opacity="0.8">
<path opacity="0.8" d="M210.71 31.9004C210.224 32.1079 209.783 32.4066 209.41 32.7804C208.76 33.4304 208.52 34.4004 209.16 34.7804C209.8 35.1604 210.51 34.6004 210.59 33.6904C210.67 32.7804 210.71 31.9204 210.71 31.9204" fill="#F6B5BA"/>
</g>
<path d="M162.43 37.0001C166.43 42.0001 177.21 46.2301 190.15 47.4401C203.09 48.6501 214.46 46.4401 219.32 42.3201C219.995 41.8132 220.563 41.1775 220.99 40.4496C221.418 39.7218 221.696 38.9164 221.81 38.0801C221.886 37.2391 221.759 36.3921 221.44 35.6101C219.16 29.7601 207.22 24.4001 192.44 23.0101C179.56 21.8101 168.25 23.9601 163.34 28.0601C162.648 28.5728 162.065 29.2177 161.623 29.9575C161.182 30.6974 160.892 31.5174 160.77 32.3701C160.729 33.2131 160.855 34.0559 161.139 34.8504C161.424 35.6449 161.863 36.3754 162.43 37.0001Z" fill="#F76854" stroke="black" stroke-width="0.25" stroke-miterlimit="10"/>
<path d="M161.92 46.2105C162.202 46.5286 162.499 46.8323 162.81 47.1205C167.51 51.5205 177.51 55.1705 189.32 56.2805C194.104 56.7469 198.923 56.7201 203.7 56.2005C209.77 55.4905 214.7 53.9205 217.77 51.7205C223.5 48.3705 224.17 39.7205 221.55 35.7205L221.43 35.5505C221.464 35.6166 221.488 35.6874 221.5 35.7605C221.767 36.4822 221.869 37.2542 221.8 38.0205C221.686 38.8568 221.408 39.6622 220.98 40.39C220.553 41.1178 219.985 41.7536 219.31 42.2605C217.03 44.2005 213.31 45.7105 208.7 46.6505C202.583 47.7718 196.337 48.0176 190.15 47.3805C179.43 46.3805 170.21 43.2805 165.08 39.4305C164.102 38.7306 163.212 37.9146 162.43 37.0005C161.863 36.3757 161.424 35.6452 161.139 34.8508C160.855 34.0563 160.729 33.2135 160.77 32.3705C160.885 31.5072 161.171 30.6757 161.613 29.925C162.054 29.1744 162.642 28.52 163.34 28.0005C157.68 32.0005 155.74 40.7305 161.92 46.2105Z" fill="#F76854" stroke="black" stroke-width="0.25" stroke-miterlimit="10"/>
<g opacity="0.3">
<path opacity="0.3" d="M193.18 34.2404L206.67 32.7004C207.724 32.5732 208.789 32.8287 209.67 33.4204C215.24 37.1604 212.28 40.6404 202.67 42.6204C202.121 42.732 201.553 42.7161 201.01 42.5739C200.468 42.4318 199.965 42.1672 199.54 41.8004L192.76 35.8004C192.641 35.6862 192.554 35.542 192.51 35.3828C192.465 35.2236 192.464 35.0553 192.507 34.8957C192.55 34.7361 192.635 34.591 192.754 34.4756C192.872 34.3603 193.02 34.2791 193.18 34.2404Z" fill="#BE184E"/>
</g>
<g opacity="0.3">
<path opacity="0.3" d="M187.46 33.7804L174.55 36.0004C173.556 36.1657 172.536 35.9745 171.67 35.4604C166.1 32.1604 168.76 28.6504 177.92 26.2204C178.442 26.0823 178.988 26.0663 179.517 26.1739C180.046 26.2814 180.543 26.5095 180.97 26.8404L187.83 32.2004C187.962 32.3067 188.061 32.4482 188.116 32.6086C188.172 32.769 188.18 32.9417 188.142 33.1068C188.103 33.272 188.019 33.4228 187.898 33.542C187.777 33.6612 187.625 33.7438 187.46 33.7804Z" fill="#BE184E"/>
</g>
<g opacity="0.3">
<path opacity="0.3" d="M188.84 35.6804L179.13 38.8304C178.992 38.8759 178.871 38.9616 178.782 39.0764C178.693 39.1913 178.64 39.3301 178.631 39.4751C178.621 39.6201 178.655 39.7646 178.728 39.8903C178.801 40.0159 178.909 40.1169 179.04 40.1804C182.87 41.9304 187.76 42.6404 192.66 42.6704C192.948 42.6738 193.23 42.5939 193.473 42.4403C193.717 42.2867 193.91 42.066 194.031 41.8049C194.151 41.5437 194.194 41.2532 194.153 40.9685C194.112 40.6838 193.989 40.417 193.8 40.2004L190.18 36.0904C190.025 35.8938 189.814 35.7492 189.574 35.6759C189.335 35.6026 189.079 35.6042 188.84 35.6804Z" fill="#BE184E"/>
</g>
<g opacity="0.3">
<path opacity="0.3" d="M202.84 29.0002C197.684 26.8574 192.1 25.9433 186.53 26.3302C186.388 26.3396 186.251 26.3918 186.139 26.4799C186.027 26.5679 185.944 26.6878 185.9 26.8238C185.857 26.9598 185.856 27.1057 185.897 27.2424C185.938 27.3791 186.019 27.5003 186.13 27.5902L190 31.7602C190.135 31.907 190.304 32.0185 190.493 32.0847C190.681 32.151 190.883 32.17 191.08 32.1402L202.67 30.3802C202.827 30.358 202.972 30.2848 203.083 30.1718C203.194 30.0588 203.264 29.9125 203.284 29.7553C203.303 29.5982 203.27 29.439 203.19 29.3025C203.11 29.166 202.987 29.0597 202.84 29.0002Z" fill="#BE184E"/>
</g>
<g opacity="0.8">
<path opacity="0.8" d="M197 35.8904C197.413 36.5009 197.94 37.0269 198.55 37.4404C199.62 38.1504 201.01 38.2504 201.34 37.3104C201.73 36.2204 200.73 35.5304 199.46 35.6404C198.19 35.7504 197 35.8904 197 35.8904Z" fill="#F6B5BA"/>
</g>
<g opacity="0.8">
<path opacity="0.8" d="M191.09 30.7603C191.638 30.6488 192.161 30.4351 192.63 30.1303C193.45 29.6003 193.93 28.6603 193.37 28.1303C192.81 27.6003 192 28.0003 191.64 29.0003C191.28 30.0003 191.09 30.8003 191.09 30.8003" fill="#F6B5BA"/>
</g>
<g opacity="0.8">
<path opacity="0.8" d="M184.26 32.5902C183.812 32.1604 183.286 31.8208 182.71 31.5902C181.71 31.1902 180.55 31.3602 180.44 32.2002C180.33 33.0402 181.25 33.5402 182.28 33.2002C183.31 32.8602 184.28 32.5602 184.28 32.5602" fill="#F6B5BA"/>
</g>
<g opacity="0.8">
<path opacity="0.8" d="M188.75 37.5005C188.274 37.7273 187.847 38.043 187.49 38.4305C186.87 39.1205 186.68 40.0905 187.33 40.4305C187.98 40.7705 188.67 40.1905 188.71 39.2705C188.75 38.3505 188.71 37.5005 188.71 37.5005" fill="#F6B5BA"/>
</g>
<path d="M1.80002 197.83C1.80002 197.83 10.59 218.48 52.71 217.39C94.83 216.3 105.42 199.14 105.42 199.14C105.42 199.14 114.68 226.23 58.42 228.04C-9.30998 230.21 1.80002 197.83 1.80002 197.83Z" fill="#FFC13D" stroke="black" stroke-width="0.25" stroke-miterlimit="10"/>
<path d="M53.5498 217.79C82.2686 217.79 105.55 209.593 105.55 199.48C105.55 189.368 82.2686 181.17 53.5498 181.17C24.831 181.17 1.5498 189.368 1.5498 199.48C1.5498 209.593 24.831 217.79 53.5498 217.79Z" fill="#FFD98A" stroke="black" stroke-width="0.25" stroke-miterlimit="10"/>
<path d="M315.59 24.5904C315.59 24.5904 318.65 19.7604 322.2 19.6704C322.2 19.6704 324 18.8704 330.27 19.4004C336.54 19.9304 333.27 23.5604 333.27 23.5604L336.54 18.1004L330.31 13.3604L319.4 14.7604L313.83 19.0004L314.28 24.6104L315.59 24.5904Z" fill="#FFC13D" stroke="black" stroke-width="0.25" stroke-miterlimit="10"/>
<path d="M278.62 36.5603C278.62 36.5603 283.02 33.0703 284.77 32.9203C285.647 32.5527 286.589 32.3624 287.54 32.3603C288.098 32.3694 288.654 32.4331 289.2 32.5503L289.46 28.9803L282.2 27.8203L277.92 32.1903L278.62 36.5603Z" fill="#FFC13D" stroke="black" stroke-width="0.25" stroke-miterlimit="10"/>
<path d="M287.54 35.4102V37.9502L297.44 41.5302V38.2102L287.54 35.4102Z" fill="#FFC13D" stroke="black" stroke-width="0.25" stroke-miterlimit="10"/>
<path d="M272.26 31.7505V35.4105C272.26 35.4105 278.26 36.4605 278.62 36.5605L278.93 33.0405L272.26 31.7505Z" fill="#FFC13D" stroke="black" stroke-width="0.25" stroke-miterlimit="10"/>
<path d="M309.41 35.7906C309.41 35.7906 305.52 33.3806 300.62 38.8606C299.612 39.8071 298.554 40.6984 297.45 41.5306V33.0006L307.23 31.0806L310.05 32.7906L309.41 35.7906Z" fill="#FFC13D" stroke="black" stroke-width="0.25" stroke-miterlimit="10"/>
<path d="M373.91 41.7701C373.91 41.7701 384.38 40.7701 385.28 40.9601V37.1301C381.685 37.0736 378.089 37.2172 374.51 37.5601L373.91 41.7701Z" fill="#FFC13D" stroke="black" stroke-width="0.25" stroke-miterlimit="10"/>
<path d="M365.49 34.0003C365.49 34.0003 370.27 32.4103 371.77 37.4403L373.91 41.7803L374.51 37.5703C374.51 37.5703 375.27 33.7003 375.21 33.5703C375.15 33.4403 370.75 30.2603 370.75 30.2603H366.12L364.51 32.7603L365.49 34.0003Z" fill="#FFC13D" stroke="black" stroke-width="0.25" stroke-miterlimit="10"/>
<path d="M306.92 42.5103L306.35 47.0003C306.35 47.0003 316.75 53.7903 321.18 58.1303L322.18 52.8103L322.07 45.4303L306.92 42.5103Z" fill="#FFC13D" stroke="black" stroke-width="0.25" stroke-miterlimit="10"/>
<path d="M321.18 58.1605C321.18 58.1605 341.71 46.0005 349.37 44.2705C354.788 42.9742 360.309 42.1544 365.87 41.8205L366.12 37.1305L351.18 34.4805L325.85 46.3205L322.45 49.1605L321.18 58.1605Z" fill="#FFC13D" stroke="black" stroke-width="0.25" stroke-miterlimit="10"/>
<path d="M363.53 18.4005C348.68 12.1605 330.81 6.56055 330.81 6.56055C330.81 6.56055 310.58 19.6905 298.31 20.7705C286.04 21.8505 272.26 31.7705 272.26 31.7705L278.93 33.0005C278.93 33.0005 284.93 28.4805 287.93 30.4205C290.93 32.3605 287.5 35.3705 287.5 35.3705L297.41 38.1705C297.41 38.1705 302.57 30.6305 307.52 33.6505C312.47 36.6705 306.88 42.4705 306.88 42.4705C306.88 42.4705 319.19 49.0005 322.2 52.8405C322.2 52.8405 349.76 35.6205 366.12 37.1305C366.12 37.1305 363.96 31.1305 367.62 31.3205C371.28 31.5105 372.79 32.3905 374.51 37.5605C378.087 37.1956 381.684 37.052 385.28 37.1305C380.126 28.8014 372.531 22.2616 363.53 18.4005ZM325.69 27.4005C320.33 28.2805 315.55 26.3505 315.02 23.0905C314.49 19.8305 318.39 16.4805 323.75 15.6005C329.11 14.7205 333.88 16.6505 334.42 19.9105C334.96 23.1705 331 26.5605 325.69 27.4405V27.4005Z" fill="#FFC13D" stroke="black" stroke-width="0.25" stroke-miterlimit="10"/>
<g opacity="0.3">
<path opacity="0.3" d="M344.283 21.5935C344.296 20.8314 342.874 20.1892 341.107 20.1589C339.34 20.1287 337.897 20.722 337.884 21.484C337.871 22.246 339.293 22.8883 341.06 22.9185C342.827 22.9487 344.27 22.3555 344.283 21.5935Z" fill="#F76854"/>
</g>
<g opacity="0.3">
<path opacity="0.3" d="M324.799 35.7936C324.812 35.0316 323.39 34.3893 321.623 34.3591C319.856 34.3289 318.413 34.9221 318.4 35.6842C318.387 36.4462 319.808 37.0885 321.576 37.1187C323.343 37.1489 324.786 36.5557 324.799 35.7936Z" fill="#F76854"/>
</g>
<g opacity="0.3">
<path opacity="0.3" d="M349.362 19.4258C349.37 18.9674 348.517 18.5812 347.457 18.563C346.397 18.5449 345.531 18.9017 345.523 19.3601C345.515 19.8184 346.368 20.2046 347.429 20.2228C348.489 20.2409 349.355 19.8841 349.362 19.4258Z" fill="#F76854"/>
</g>
<g opacity="0.3">
<path opacity="0.3" d="M358.334 31.6865C358.342 31.2281 357.489 30.8419 356.429 30.8238C355.368 30.8056 354.503 31.1625 354.495 31.6208C354.487 32.0791 355.34 32.4654 356.4 32.4835C357.46 32.5017 358.326 32.1448 358.334 31.6865Z" fill="#F76854"/>
</g>
<g opacity="0.3">
<path opacity="0.3" d="M348.16 23.5805C348.16 23.8205 347.66 24.0105 347.06 24.0005C346.46 23.9905 345.98 23.7805 345.98 23.5405C345.98 23.3005 346.48 23.1105 347.08 23.1205C347.68 23.1305 348.16 23.3405 348.16 23.5805Z" fill="#F76854"/>
</g>
<g opacity="0.3">
<path opacity="0.3" d="M362.37 32.5903C362.37 32.8303 361.87 33.0203 361.27 33.0103C360.67 33.0003 360.19 32.8003 360.19 32.5503C360.19 32.3003 360.69 32.1203 361.29 32.1303C361.89 32.1403 362.37 32.3503 362.37 32.5903Z" fill="#F76854"/>
</g>
<g opacity="0.3">
<path opacity="0.3" d="M327.22 32.4905C327.22 32.7705 326.65 32.9905 325.96 32.9705C325.27 32.9505 324.71 32.7305 324.72 32.4505C324.73 32.1705 325.29 31.9505 325.98 31.9705C326.67 31.9905 327.23 32.2105 327.22 32.4905Z" fill="#F76854"/>
</g>
<g opacity="0.3">
<path opacity="0.3" d="M316.45 33.1804C316.45 33.4304 315.96 33.6204 315.36 33.6004C314.76 33.5804 314.27 33.3904 314.28 33.1504C314.29 32.9104 314.77 32.7204 315.37 32.7304C315.97 32.7404 316.46 32.9404 316.45 33.1804Z" fill="#F76854"/>
</g>
<path d="M31.4904 61.5903C44.7551 63.4012 58.1961 63.5188 71.4904 61.9403C90.8904 59.5903 106.57 53.4903 105.95 43.8203C105.95 43.3503 105.88 42.8803 105.84 42.4103C104.45 27.1103 96.7204 16.0903 86.0404 9.14033C84.4297 8.0863 82.7603 7.12474 81.0404 6.26032C50.8604 -8.74968 3.89039 4.11032 1.49039 41.2803C1.49039 41.9903 1.41039 42.7103 1.40039 43.4303C1.40039 43.8403 1.40039 44.2603 1.40039 44.6703C1.46039 53.5403 14.5804 59.1403 31.4904 61.5903Z" fill="#FFC13D" stroke="black" stroke-width="0.25" stroke-miterlimit="10"/>
<path d="M62 11.0005C62.1082 11.4823 62.2903 11.9445 62.54 12.3705C62.766 12.7782 63.0306 13.1633 63.33 13.5205C63.6297 13.8858 63.9647 14.2208 64.33 14.5205C64.7137 14.835 65.146 15.0849 65.61 15.2605C65.679 15.2866 65.7555 15.2845 65.8229 15.2545C65.8903 15.2246 65.9432 15.1692 65.97 15.1005C65.985 15.0482 65.985 14.9928 65.97 14.9405C65.8712 14.4558 65.6957 13.9899 65.45 13.5605C65.2215 13.1526 64.95 12.7705 64.64 12.4205C64.3379 12.0573 64.0032 11.7226 63.64 11.4205C63.255 11.1106 62.8273 10.858 62.37 10.6705C62.301 10.6444 62.2245 10.6465 62.1571 10.6765C62.0897 10.7064 62.0369 10.7618 62.01 10.8305C61.9903 10.885 61.9869 10.9441 62 11.0005Z" fill="#11101F"/>
<path d="M54.6399 13.3503C54.4787 13.8176 54.3878 14.3062 54.3699 14.8003C54.3514 15.2684 54.3782 15.7373 54.4499 16.2003C54.5101 16.661 54.6208 17.1137 54.7799 17.5503C54.9396 18.0205 55.1725 18.4626 55.4699 18.8603C55.5185 18.9168 55.5863 18.9532 55.6603 18.9625C55.7342 18.9717 55.809 18.9531 55.8699 18.9103C55.9118 18.8765 55.943 18.8313 55.9599 18.7803C56.1337 18.316 56.2284 17.8259 56.2399 17.3303C56.2585 16.8654 56.2317 16.3999 56.1599 15.9403C56.0822 15.4778 55.9651 15.0228 55.8099 14.5803C55.6538 14.1104 55.4243 13.6683 55.1299 13.2703C55.1047 13.2439 55.0745 13.223 55.0409 13.2087C55.0074 13.1944 54.9714 13.187 54.9349 13.187C54.8985 13.187 54.8624 13.1944 54.8289 13.2087C54.7954 13.223 54.7651 13.2439 54.7399 13.2703C54.7005 13.2882 54.6661 13.3157 54.6399 13.3503Z" fill="#11101F"/>
<path d="M39.8301 13.8901C39.448 14.2056 39.1115 14.5724 38.8301 14.9801C38.5649 15.3641 38.3372 15.7727 38.1501 16.2001C37.9541 16.6231 37.8032 17.0656 37.7001 17.5201C37.5867 18.0048 37.5496 18.5041 37.5901 19.0001C37.5938 19.037 37.6048 19.0727 37.6225 19.1053C37.6401 19.1379 37.664 19.1666 37.6929 19.1899C37.7217 19.2131 37.7549 19.2304 37.7904 19.2408C37.826 19.2511 37.8633 19.2543 37.9001 19.2501C37.9369 19.2416 37.9711 19.2245 38.0001 19.2001C38.391 18.8982 38.729 18.5332 39.0001 18.1201C39.269 17.735 39.4969 17.3228 39.6801 16.8901C39.8652 16.4614 40.0091 16.0161 40.1101 15.5601C40.2259 15.0793 40.2697 14.5839 40.2401 14.0901C40.2363 14.0533 40.2253 14.0176 40.2077 13.985C40.19 13.9524 40.1661 13.9237 40.1373 13.9004C40.1084 13.8772 40.0753 13.8599 40.0397 13.8495C40.0041 13.8392 39.9669 13.836 39.9301 13.8401C39.8939 13.8504 39.86 13.8674 39.8301 13.8901Z" fill="#11101F"/>
<path d="M47.16 13.4705C46.8752 13.8749 46.6527 14.3199 46.5 14.7905C46.3534 15.2335 46.2463 15.6886 46.18 16.1505C46.1147 16.6141 46.0946 17.0829 46.12 17.5505C46.1423 18.0476 46.247 18.5376 46.43 19.0005C46.4421 19.0353 46.4613 19.0673 46.4863 19.0945C46.5113 19.1217 46.5416 19.1434 46.5753 19.1584C46.6091 19.1734 46.6455 19.1814 46.6825 19.1817C46.7194 19.182 46.756 19.1748 46.79 19.1605C46.8377 19.1424 46.8793 19.1112 46.91 19.0705C47.2065 18.6701 47.4362 18.2243 47.59 17.7505C47.7384 17.3092 47.839 16.8532 47.89 16.3905C47.9351 15.9249 47.9351 15.456 47.89 14.9905C47.869 14.495 47.7711 14.0059 47.6 13.5405C47.5732 13.4717 47.5203 13.4164 47.4529 13.3864C47.3855 13.3565 47.309 13.3543 47.24 13.3805C47.2055 13.4024 47.1778 13.4336 47.16 13.4705Z" fill="#11101F"/>
<g opacity="0.3">
<path opacity="0.3" d="M37.2499 50.7801C37.3696 51.1369 37.3478 51.5261 37.1891 51.8674C37.0305 52.2087 36.7469 52.4761 36.3969 52.6145C36.047 52.753 35.6572 52.7519 35.308 52.6116C34.9588 52.4712 34.6767 52.2023 34.5199 51.8601C34.3938 51.5028 34.4096 51.1107 34.564 50.7646C34.7184 50.4186 34.9997 50.1449 35.3499 50.0001C35.7054 49.8537 36.1044 49.8535 36.4602 49.9995C36.8159 50.1456 37.0997 50.4261 37.2499 50.7801Z" fill="#F76854"/>
</g>
<g opacity="0.3">
<path opacity="0.3" d="M52.8803 52.3804C52.9468 52.5731 52.9373 52.7838 52.8536 52.9697C52.77 53.1555 52.6186 53.3024 52.4303 53.3804C52.2376 53.4445 52.0278 53.4337 51.8426 53.3504C51.6574 53.267 51.5103 53.1172 51.4303 52.9304C51.3693 52.7364 51.3826 52.5266 51.4676 52.3418C51.5526 52.157 51.7033 52.0104 51.8903 51.9304C52.0817 51.8669 52.29 51.8779 52.4736 51.9614C52.6571 52.0448 52.8024 52.1945 52.8803 52.3804Z" fill="#F76854"/>
</g>
<g opacity="0.3">
<path opacity="0.3" d="M80.2797 47.6505C80.3463 47.7881 80.3838 47.938 80.3898 48.0908C80.3958 48.2436 80.3702 48.396 80.3145 48.5384C80.2589 48.6808 80.1744 48.8102 80.0664 48.9184C79.9584 49.0267 79.8292 49.1114 79.6869 49.1674C79.5446 49.2233 79.3922 49.2493 79.2394 49.2436C79.0866 49.2379 78.9367 49.2007 78.7989 49.1344C78.6612 49.068 78.5386 48.9739 78.4389 48.8579C78.3393 48.742 78.2646 48.6067 78.2197 48.4605C78.16 48.3245 78.1288 48.1777 78.1279 48.0292C78.1271 47.8806 78.1566 47.7335 78.2146 47.5967C78.2727 47.46 78.3581 47.3366 78.4656 47.2341C78.5731 47.1316 78.7004 47.0521 78.8397 47.0005C78.9768 46.9477 79.1231 46.9226 79.27 46.9267C79.4169 46.9308 79.5616 46.9641 79.6955 47.0246C79.8295 47.085 79.9501 47.1715 80.0504 47.279C80.1507 47.3864 80.2286 47.5127 80.2797 47.6505Z" fill="#F76854"/>
</g>
<g opacity="0.3">
<path opacity="0.3" d="M82.2198 38.8005C82.2661 38.9267 82.2618 39.0659 82.2077 39.1889C82.1536 39.312 82.054 39.4093 81.9298 39.4605C81.8681 39.4846 81.8023 39.4962 81.7361 39.4946C81.6699 39.4931 81.6046 39.4784 81.5442 39.4514C81.4837 39.4244 81.4292 39.3857 81.3838 39.3375C81.3384 39.2893 81.3031 39.2325 81.2798 39.1705C81.2333 39.047 81.2365 38.9103 81.2887 38.789C81.3409 38.6678 81.4381 38.5716 81.5598 38.5205C81.6847 38.4736 81.8229 38.4765 81.9457 38.5286C82.0686 38.5807 82.1667 38.6781 82.2198 38.8005Z" fill="#F76854"/>
</g>
<g opacity="0.3">
<path opacity="0.3" d="M48.2304 46.4402C48.2774 46.5651 48.2745 46.7033 48.2224 46.8261C48.1702 46.949 48.0729 47.0471 47.9504 47.1001C47.8888 47.1242 47.8229 47.1358 47.7567 47.1343C47.6905 47.1327 47.6253 47.118 47.5648 47.091C47.5043 47.064 47.4498 47.0253 47.4045 46.9771C47.3591 46.9289 47.3237 46.8721 47.3004 46.8102C47.2747 46.7493 47.2615 46.6838 47.2617 46.6176C47.2619 46.5515 47.2755 46.4861 47.3017 46.4254C47.3279 46.3647 47.366 46.3098 47.4139 46.2643C47.4618 46.2187 47.5185 46.1833 47.5804 46.1602C47.704 46.1136 47.8407 46.1168 47.9619 46.1691C48.0831 46.2213 48.1794 46.3184 48.2304 46.4402Z" fill="#F76854"/>
</g>
<g opacity="0.3">
<path opacity="0.3" d="M97.5205 32.7605C97.57 32.8852 97.5684 33.0244 97.516 33.148C97.4636 33.2715 97.3646 33.3694 97.2405 33.4205C97.1788 33.4446 97.1129 33.4562 97.0467 33.4546C96.9806 33.453 96.9153 33.4383 96.8549 33.4113C96.7944 33.3844 96.7399 33.3456 96.6945 33.2974C96.6491 33.2492 96.6137 33.1925 96.5905 33.1305C96.5647 33.0696 96.5515 33.0041 96.5518 32.938C96.552 32.8718 96.5656 32.8064 96.5917 32.7457C96.6179 32.685 96.6561 32.6302 96.704 32.5846C96.7519 32.539 96.8085 32.5036 96.8705 32.4805C96.994 32.434 97.1307 32.4371 97.2519 32.4894C97.3732 32.5416 97.4694 32.6388 97.5205 32.7605Z" fill="#F76854"/>
</g>
<g opacity="0.3">
<path opacity="0.3" d="M66.6103 45.0004C66.745 45.3324 66.7781 45.697 66.7054 46.0479C66.6327 46.3987 66.4575 46.7202 66.202 46.9714C65.9465 47.2226 65.6221 47.3923 65.2701 47.459C64.918 47.5258 64.5541 47.4865 64.2243 47.3462C63.8946 47.2059 63.614 46.9709 63.4179 46.6709C63.2219 46.3709 63.1193 46.0195 63.1232 45.6612C63.127 45.3029 63.2371 44.9538 63.4396 44.6581C63.642 44.3625 63.9277 44.1335 64.2603 44.0004C64.4802 43.9109 64.7156 43.8658 64.953 43.8677C65.1903 43.8696 65.425 43.9185 65.6434 44.0114C65.8618 44.1043 66.0597 44.2396 66.2256 44.4093C66.3916 44.579 66.5223 44.7799 66.6103 45.0004Z" fill="#F76854"/>
</g>
<g opacity="0.3">
<path opacity="0.3" d="M95.7298 41.0005C96.5416 41.0005 97.1998 40.3424 97.1998 39.5305C97.1998 38.7187 96.5416 38.0605 95.7298 38.0605C94.9179 38.0605 94.2598 38.7187 94.2598 39.5305C94.2598 40.3424 94.9179 41.0005 95.7298 41.0005Z" fill="#F76854"/>
</g>
<g opacity="0.3">
<path opacity="0.3" d="M10.4797 35.1002C10.4738 35.3892 10.3829 35.67 10.2182 35.9076C10.0536 36.1451 9.8226 36.3289 9.5541 36.4358C9.2856 36.5428 8.99153 36.5682 8.70865 36.509C8.42577 36.4497 8.16663 36.3084 7.96364 36.1027C7.76065 35.8969 7.62281 35.6359 7.56735 35.3523C7.5119 35.0686 7.54129 34.7749 7.65185 34.5079C7.76242 34.2408 7.94924 34.0123 8.18898 33.8509C8.42872 33.6894 8.71072 33.6023 8.99973 33.6002C9.19655 33.5975 9.3919 33.6345 9.57403 33.7092C9.75616 33.7838 9.92132 33.8946 10.0596 34.0347C10.1978 34.1748 10.3063 34.3414 10.3785 34.5245C10.4507 34.7077 10.4851 34.9035 10.4797 35.1002Z" fill="#F76854"/>
</g>
<g opacity="0.3">
<path opacity="0.3" d="M24.3104 42.5603C24.3084 42.7205 24.2589 42.8765 24.1683 43.0086C24.0776 43.1406 23.9499 43.2429 23.8011 43.3024C23.6524 43.3618 23.4893 43.3758 23.3326 43.3427C23.1759 43.3095 23.0325 43.2305 22.9206 43.1159C22.8088 43.0012 22.7334 42.8559 22.7041 42.6985C22.6748 42.541 22.6928 42.3783 22.756 42.2311C22.8191 42.0838 22.9244 41.9586 23.0587 41.8713C23.193 41.7839 23.3502 41.7383 23.5104 41.7403C23.7244 41.7455 23.9278 41.8342 24.0773 41.9874C24.2268 42.1406 24.3104 42.3462 24.3104 42.5603Z" fill="#F76854"/>
</g>
<g opacity="0.3">
<path opacity="0.3" d="M24.8098 51.8805C24.7866 51.996 24.7241 52.0999 24.6329 52.1746C24.5418 52.2492 24.4276 52.29 24.3098 52.29C24.192 52.29 24.0778 52.2492 23.9867 52.1746C23.8955 52.0999 23.833 51.996 23.8098 51.8805C23.7949 51.8065 23.7967 51.7301 23.8149 51.6568C23.8331 51.5836 23.8674 51.5153 23.9152 51.4569C23.9631 51.3985 24.0233 51.3514 24.0915 51.3191C24.1598 51.2868 24.2343 51.27 24.3098 51.27C24.3853 51.27 24.4599 51.2868 24.5281 51.3191C24.5963 51.3514 24.6565 51.3985 24.7044 51.4569C24.7522 51.5153 24.7865 51.5836 24.8047 51.6568C24.8229 51.7301 24.8247 51.8065 24.8098 51.8805Z" fill="#F76854"/>
</g>
<g opacity="0.3">
<path opacity="0.3" d="M22.2803 35.3003C22.2803 35.4329 22.2276 35.5601 22.1338 35.6538C22.0401 35.7476 21.9129 35.8003 21.7803 35.8003C21.6477 35.8003 21.5205 35.7476 21.4267 35.6538C21.333 35.5601 21.2803 35.4329 21.2803 35.3003C21.2803 35.1677 21.333 35.0405 21.4267 34.9467C21.5205 34.853 21.6477 34.8003 21.7803 34.8003C21.9129 34.8003 22.0401 34.853 22.1338 34.9467C22.2276 35.0405 22.2803 35.1677 22.2803 35.3003Z" fill="#F76854"/>
</g>
<g opacity="0.3">
<path opacity="0.3" d="M13.1201 45.6405C13.0969 45.756 13.0344 45.8599 12.9433 45.9346C12.8521 46.0092 12.7379 46.05 12.6201 46.05C12.5023 46.05 12.3881 46.0092 12.297 45.9346C12.2058 45.8599 12.1433 45.756 12.1201 45.6405C12.1214 45.5748 12.1356 45.5101 12.162 45.4499C12.1883 45.3897 12.2262 45.3353 12.2736 45.2898C12.321 45.2443 12.3768 45.2086 12.438 45.1847C12.4992 45.1608 12.5645 45.1492 12.6301 45.1505C12.7593 45.1531 12.8824 45.2055 12.9738 45.2968C13.0651 45.3882 13.1176 45.5113 13.1201 45.6405Z" fill="#F76854"/>
</g>
<g opacity="0.3">
<path opacity="0.3" d="M39.8205 41.0002C39.8107 41.3554 39.6965 41.6999 39.4921 41.9907C39.2878 42.2815 39.0024 42.5057 38.6715 42.6354C38.3406 42.765 37.9788 42.7944 37.6314 42.7198C37.2839 42.6453 36.966 42.47 36.7175 42.216C36.4689 41.962 36.3006 41.6404 36.2336 41.2914C36.1666 40.9424 36.2039 40.5813 36.3407 40.2533C36.4775 39.9253 36.7078 39.6449 37.003 39.4469C37.2982 39.2489 37.6451 39.1423 38.0005 39.1402C38.2433 39.1387 38.4839 39.1862 38.708 39.2796C38.9321 39.3731 39.1351 39.5107 39.3049 39.6843C39.4747 39.8578 39.6078 40.0637 39.6964 40.2898C39.785 40.5159 39.8272 40.7575 39.8205 41.0002Z" fill="#F76854"/>
</g>
<path d="M233.49 106.43L233.4 111.66C233.4 114.15 231.72 116.37 229.1 117.93C227.298 118.973 225.317 119.671 223.26 119.99C222.19 120.175 221.106 120.272 220.02 120.28H219.37C218.44 120.264 217.511 120.191 216.59 120.06C210.4 119.14 205.77 115.63 205.59 111.46V110.91L205.67 105.91C205.664 106.818 205.859 107.716 206.24 108.54C207.67 111.62 211.65 114.05 216.63 114.78C217.551 114.914 218.479 114.991 219.41 115.01H220.06C221.146 114.997 222.229 114.9 223.3 114.72C225.357 114.401 227.338 113.703 229.14 112.66C230.677 111.807 231.939 110.534 232.78 108.99C233.211 108.203 233.454 107.327 233.49 106.43Z" fill="#00E599" stroke="black" stroke-width="0.25" stroke-miterlimit="10"/>
<path d="M233.49 106.431C233.476 107.337 233.25 108.227 232.83 109.031C232.12 110.35 231.088 111.468 229.83 112.281C228.167 113.379 226.311 114.152 224.36 114.561C223.398 114.773 222.422 114.917 221.44 114.991C220.78 115.041 220.12 115.061 219.44 115.051C218.76 115.041 218.26 115.051 217.68 114.951C212.23 114.411 207.8 111.881 206.27 108.581C205.828 107.649 205.638 106.619 205.717 105.591C205.796 104.563 206.141 103.574 206.72 102.721C207.23 101.939 207.861 101.243 208.59 100.661C209.237 100.134 209.937 99.6786 210.68 99.3005C212.528 98.3569 214.529 97.7507 216.59 97.5105C217.634 97.3689 218.687 97.3087 219.74 97.3305C227.43 97.4605 233.58 101.531 233.49 106.431Z" fill="#00E599" stroke="black" stroke-width="0.25" stroke-miterlimit="10"/>
<path d="M219.64 110.93C213.95 110.83 209.77 108.37 208.73 106.11C208.547 105.744 208.455 105.339 208.46 104.93C208.46 102.19 213.38 99.2102 219.84 99.3302C226.3 99.4502 231.08 102.58 231.03 105.33C231.016 105.738 230.91 106.138 230.72 106.5C229.6 108.72 225.34 111 219.64 110.93Z" fill="#00AF92"/>
<g opacity="0.3">
<path opacity="0.3" d="M219.67 109.28C215.3 109.2 212.08 107.28 211.28 105.57C211.146 105.289 211.074 104.982 211.07 104.67C211.07 102.56 214.86 100.27 219.83 100.36C224.8 100.45 228.46 102.86 228.43 104.97C228.415 105.284 228.334 105.591 228.19 105.87C227.33 107.58 224.05 109.35 219.67 109.28Z" fill="white"/>
</g>
<path d="M220.239 106.57C220.248 106.04 220.117 105.608 219.945 105.605C219.774 105.602 219.628 106.03 219.619 106.56C219.61 107.09 219.741 107.522 219.912 107.525C220.084 107.528 220.23 107.1 220.239 106.57Z" fill="#11101F"/>
<path d="M217.17 104.86C216.65 104.76 216.25 104.54 216.28 104.37C216.31 104.2 216.76 104.15 217.28 104.25C217.8 104.35 218.2 104.57 218.16 104.74C218.12 104.91 217.69 105 217.17 104.86Z" fill="#11101F"/>
<path d="M217.07 105.82C216.57 106.01 216.12 106.04 216.07 105.88C216.02 105.72 216.36 105.43 216.86 105.24C217.36 105.05 217.86 105.03 217.86 105.24C217.86 105.45 217.57 105.63 217.07 105.82Z" fill="#11101F"/>
<path d="M217.94 106.541C217.55 106.911 217.15 107.121 217.03 106.991C216.91 106.861 217.12 106.471 217.51 106.101C217.9 105.731 218.3 105.531 218.42 105.651C218.54 105.771 218.32 106.171 217.94 106.541Z" fill="#11101F"/>
<path d="M221.42 106C221.85 106.45 222.1 106.91 221.98 107C221.86 107.09 221.41 106.85 220.98 106.4C220.55 105.95 220.29 105.5 220.41 105.4C220.53 105.3 221 105.51 221.42 106Z" fill="#11101F"/>
<path d="M222.11 105.34C222.65 105.61 223.04 105.94 222.97 106.08C222.9 106.22 222.41 106.08 221.86 105.84C221.31 105.6 220.93 105.24 221 105.1C221.07 104.96 221.56 105.08 222.11 105.34Z" fill="#11101F"/>
<path d="M221.4 103.151C221.91 103.001 222.4 103.021 222.4 103.151C222.4 103.281 222.07 103.571 221.56 103.721C221.05 103.871 220.56 103.851 220.56 103.721C220.56 103.591 220.88 103.301 221.4 103.151Z" fill="#11101F"/>
<path d="M218.85 103C218.85 102.6 218.94 102.27 219.1 102.26C219.26 102.25 219.43 102.56 219.45 102.96C219.47 103.36 219.37 103.69 219.2 103.7C219.03 103.71 218.88 103.41 218.85 103Z" fill="#11101F"/>
<path d="M220 102.84C220.22 102.5 220.52 102.29 220.66 102.38C220.8 102.47 220.73 102.83 220.51 103.17C220.29 103.51 219.99 103.72 219.85 103.63C219.71 103.54 219.74 103.19 220 102.84Z" fill="#11101F"/>
<path d="M217.83 103.44C217.45 103.23 217.19 102.95 217.26 102.82C217.33 102.69 217.71 102.74 218.09 102.95C218.47 103.16 218.73 103.44 218.66 103.57C218.59 103.7 218.22 103.65 217.83 103.44Z" fill="#11101F"/>
<path d="M222.88 104.67C223.36 104.67 223.74 104.87 223.73 105C223.72 105.13 223.31 105.19 222.83 105.15C222.35 105.11 221.97 104.95 221.98 104.82C221.99 104.69 222.4 104.63 222.88 104.67Z" fill="#11101F"/>
<path d="M210.36 104.91L210.29 109.18C210.29 111.18 208.92 113.02 206.78 114.3C205.307 115.16 203.686 115.736 202 116C201.128 116.152 200.245 116.232 199.36 116.24H198.82C198.06 116.224 197.302 116.16 196.55 116.05C191.55 115.31 187.72 112.44 187.62 109.05V108.6L187.69 104.6C187.676 105.343 187.834 106.078 188.15 106.75C189.32 109.27 192.56 111.24 196.62 111.84C197.372 111.95 198.13 112.013 198.89 112.03H199.43C200.315 112.022 201.198 111.942 202.07 111.79C203.75 111.528 205.367 110.959 206.84 110.11C208.106 109.416 209.147 108.376 209.84 107.11C210.186 106.429 210.364 105.674 210.36 104.91Z" fill="#00E599" stroke="black" stroke-width="0.25" stroke-miterlimit="10"/>
<path d="M210.36 104.91C210.347 105.653 210.162 106.382 209.82 107.04C209.246 108.114 208.41 109.025 207.39 109.69C206.035 110.588 204.521 111.219 202.93 111.55C202.143 111.726 201.344 111.843 200.54 111.9C200.01 111.9 199.47 111.96 198.91 111.9C198.35 111.84 197.91 111.9 197.48 111.81C193.03 111.38 189.42 109.31 188.17 106.62C187.854 105.949 187.696 105.213 187.71 104.47C187.734 103.533 188.022 102.622 188.54 101.84C188.952 101.202 189.465 100.634 190.06 100.16C190.591 99.7335 191.164 99.3616 191.77 99.0504C193.277 98.2803 194.909 97.7858 196.59 97.5904C197.441 97.469 198.3 97.4188 199.16 97.4404C205.42 97.6004 210.43 100.92 210.36 104.91Z" fill="#00E599" stroke="black" stroke-width="0.25" stroke-miterlimit="10"/>
<path d="M199.07 108.591C194.42 108.511 191.01 106.501 190.16 104.661C190.001 104.352 189.926 104.007 189.94 103.661C189.94 101.421 193.94 98.9906 199.23 99.0806C204.52 99.1706 208.39 101.741 208.36 103.971C208.354 104.32 208.265 104.663 208.1 104.971C207.19 106.781 203.71 108.671 199.07 108.591Z" fill="#00AF92"/>
<g opacity="0.3">
<path opacity="0.3" d="M199.09 107.24C195.52 107.18 192.9 105.64 192.24 104.24C192.128 104.01 192.07 103.757 192.07 103.5C192.07 101.78 195.16 99.9104 199.21 99.9804C203.26 100.05 206.21 101.98 206.21 103.74C206.204 103.998 206.139 104.251 206.02 104.48C205.33 105.85 202.66 107.3 199.09 107.24Z" fill="white"/>
</g>
<path d="M199.547 105.04C199.554 104.604 199.448 104.248 199.31 104.246C199.172 104.243 199.054 104.595 199.047 105.031C199.039 105.468 199.145 105.823 199.283 105.826C199.421 105.828 199.539 105.476 199.547 105.04Z" fill="#11101F"/>
<path d="M197.05 103.63C196.62 103.55 196.29 103.37 196.32 103.23C196.35 103.09 196.72 103.05 197.14 103.14C197.56 103.23 197.89 103.4 197.87 103.54C197.85 103.68 197.47 103.72 197.05 103.63Z" fill="#11101F"/>
<path d="M197 104.42C196.59 104.58 196.22 104.59 196.17 104.42C196.12 104.25 196.41 104.06 196.82 103.91C197.23 103.76 197.59 103.73 197.64 103.91C197.69 104.09 197.37 104.27 197 104.42Z" fill="#11101F"/>
<path d="M197.67 105C197.36 105.3 197.03 105.47 196.93 105.37C196.83 105.27 197.01 104.94 197.32 104.64C197.63 104.34 197.97 104.17 198.06 104.27C198.15 104.37 198 104.71 197.67 105Z" fill="#11101F"/>
<path d="M200.51 104.541C200.86 104.901 201.07 105.271 200.97 105.371C200.87 105.471 200.51 105.241 200.16 104.881C199.81 104.521 199.6 104.141 199.69 104.041C199.78 103.941 200.16 104.171 200.51 104.541Z" fill="#11101F"/>
<path d="M201.08 104C201.52 104.22 201.83 104.49 201.78 104.6C201.73 104.71 201.32 104.6 200.88 104.4C200.44 104.2 200.12 103.92 200.17 103.8C200.22 103.68 200.63 103.81 201.08 104Z" fill="#11101F"/>
<path d="M200.49 102.24C200.91 102.12 201.28 102.13 201.32 102.24C201.36 102.35 201.05 102.58 200.63 102.7C200.21 102.82 199.85 102.81 199.81 102.7C199.77 102.59 200.08 102.36 200.49 102.24Z" fill="#11101F"/>
<path d="M198.42 102.13C198.42 101.8 198.49 101.53 198.62 101.52C198.75 101.51 198.89 101.77 198.91 102.09C198.93 102.41 198.84 102.69 198.7 102.7C198.56 102.71 198.44 102.45 198.42 102.13Z" fill="#11101F"/>
<path d="M199.33 102C199.51 101.72 199.75 101.55 199.87 101.63C199.99 101.71 199.93 101.99 199.74 102.27C199.55 102.55 199.32 102.72 199.21 102.64C199.1 102.56 199.15 102.27 199.33 102Z" fill="#11101F"/>
<path d="M197.59 102.471C197.27 102.301 197.07 102.081 197.12 101.971C197.17 101.861 197.49 101.911 197.8 102.081C198.11 102.251 198.32 102.481 198.26 102.591C198.2 102.701 197.9 102.641 197.59 102.471Z" fill="#11101F"/>
<path d="M201.7 103.48C202.1 103.48 202.41 103.64 202.4 103.75C202.39 103.86 202.06 103.91 201.67 103.87C201.28 103.83 200.96 103.71 200.98 103.61C201 103.51 201.31 103.44 201.7 103.48Z" fill="#11101F"/>
<path d="M192.58 109.34L192.48 115.17C192.48 117.94 190.6 120.41 187.69 122.17C185.681 123.336 183.474 124.119 181.18 124.48C179.986 124.675 178.78 124.782 177.57 124.8H176.84C175.802 124.781 174.767 124.694 173.74 124.54C166.85 123.54 161.68 119.61 161.54 114.96V114.35L161.62 108.82C161.611 109.833 161.83 110.834 162.26 111.75C163.85 115.19 168.26 117.89 173.83 118.75C174.857 118.901 175.892 118.984 176.93 119C177.17 119 177.42 119 177.66 119C178.87 118.99 180.077 118.887 181.27 118.69C183.564 118.329 185.771 117.546 187.78 116.38C189.488 115.43 190.892 114.015 191.83 112.3C192.305 111.385 192.561 110.372 192.58 109.34Z" fill="#00E599" stroke="black" stroke-width="0.25" stroke-miterlimit="10"/>
<path d="M192.58 109.341C192.555 110.351 192.302 111.342 191.84 112.241C191.056 113.705 189.914 114.947 188.52 115.851C186.673 117.084 184.605 117.95 182.43 118.401C181.356 118.635 180.267 118.796 179.17 118.881C178.44 118.931 177.7 118.961 176.94 118.941C176.18 118.921 175.62 118.941 174.94 118.831C168.87 118.241 163.94 115.411 162.23 111.731C161.8 110.814 161.581 109.813 161.59 108.801C161.631 107.522 162.025 106.279 162.73 105.211C163.296 104.337 163.998 103.561 164.81 102.911C165.533 102.329 166.314 101.823 167.14 101.401C169.195 100.344 171.424 99.6664 173.72 99.4006C174.886 99.242 176.063 99.1751 177.24 99.2006C185.82 99.3406 192.67 103.881 192.58 109.341Z" fill="#00E599" stroke="black" stroke-width="0.25" stroke-miterlimit="10"/>
<path d="M177.15 114.35C170.81 114.24 166.15 111.51 164.98 108.99C164.778 108.58 164.675 108.128 164.68 107.67C164.68 104.67 170.17 101.3 177.37 101.42C184.57 101.54 189.89 105.05 189.84 108.1C189.828 108.558 189.708 109.007 189.49 109.41C188.24 111.89 183.49 114.46 177.15 114.35Z" fill="#00AF92"/>
<g opacity="0.3">
<path opacity="0.3" d="M177.18 112.51C172.3 112.43 168.72 110.33 167.83 108.39C167.677 108.079 167.598 107.737 167.6 107.39C167.6 105.04 171.82 102.49 177.35 102.58C182.88 102.67 186.97 105.37 186.93 107.72C186.923 108.07 186.834 108.412 186.67 108.72C185.71 110.62 182.05 112.6 177.18 112.51Z" fill="white"/>
</g>
<path d="M177.823 109.495C177.833 108.899 177.685 108.413 177.491 108.409C177.298 108.406 177.133 108.887 177.123 109.483C177.113 110.08 177.261 110.566 177.454 110.569C177.648 110.572 177.813 110.091 177.823 109.495Z" fill="#11101F"/>
<path d="M174.39 107.59C173.81 107.47 173.39 107.23 173.39 107.04C173.39 106.85 173.93 106.8 174.51 106.91C175.09 107.02 175.51 107.27 175.51 107.46C175.51 107.65 175 107.7 174.39 107.59Z" fill="#11101F"/>
<path d="M174.28 108.66C173.72 108.87 173.22 108.9 173.15 108.72C173.08 108.54 173.48 108.23 174.03 108.02C174.58 107.81 175.09 107.78 175.16 107.96C175.23 108.14 174.83 108.45 174.28 108.66Z" fill="#11101F"/>
<path d="M175.24 109.47C174.82 109.88 174.36 110.1 174.24 109.97C174.12 109.84 174.35 109.38 174.78 108.97C175.21 108.56 175.66 108.34 175.78 108.47C175.9 108.6 175.67 109.06 175.24 109.47Z" fill="#11101F"/>
<path d="M179.12 108.82C179.6 109.32 179.89 109.82 179.75 109.96C179.61 110.1 179.12 109.79 178.64 109.29C178.16 108.79 177.87 108.29 178.01 108.15C178.15 108.01 178.64 108.32 179.12 108.82Z" fill="#11101F"/>
<path d="M179.89 108.13C180.5 108.43 180.89 108.79 180.89 108.95C180.89 109.11 180.27 108.95 179.66 108.68C179.05 108.41 178.66 108.01 178.66 107.86C178.66 107.71 179.29 107.83 179.89 108.13Z" fill="#11101F"/>
<path d="M179.1 105.69C179.67 105.52 180.18 105.54 180.23 105.69C180.28 105.84 179.86 106.16 179.29 106.32C178.72 106.48 178.21 106.47 178.16 106.32C178.11 106.17 178.53 105.85 179.1 105.69Z" fill="#11101F"/>
<path d="M176.26 105.531C176.26 105.091 176.36 104.721 176.54 104.701C176.72 104.681 176.91 105.041 176.94 105.481C176.97 105.921 176.84 106.301 176.65 106.311C176.46 106.321 176.29 106.001 176.26 105.531Z" fill="#11101F"/>
<path d="M177.51 105.341C177.76 104.961 178.09 104.731 178.25 104.831C178.41 104.931 178.32 105.331 178.07 105.711C177.82 106.091 177.5 106.321 177.34 106.221C177.18 106.121 177.26 105.731 177.51 105.341Z" fill="#11101F"/>
<path d="M175.13 106C174.7 105.77 174.42 105.46 174.5 105.31C174.58 105.16 174.99 105.23 175.42 105.47C175.85 105.71 176.13 106.01 176.05 106.16C175.97 106.31 175.56 106.24 175.13 106Z" fill="#11101F"/>
<path d="M180.75 107.38C181.29 107.44 181.75 107.6 181.7 107.74C181.65 107.88 181.24 107.96 180.7 107.91C180.16 107.86 179.7 107.7 179.76 107.55C179.82 107.4 180.22 107.33 180.75 107.38Z" fill="#11101F"/>
<path d="M208 114.86L207.9 120.69C207.9 123.46 206.02 125.94 203.11 127.69C201.101 128.853 198.893 129.633 196.6 129.99C195.406 130.186 194.2 130.293 192.99 130.31H192.26C191.223 130.289 190.187 130.206 189.16 130.06C182.27 129.06 177.1 125.12 176.96 120.48V119.86L177.05 114.34C177.035 115.352 177.25 116.354 177.68 117.27C179.28 120.71 183.68 123.41 189.25 124.22C190.276 124.376 191.312 124.459 192.35 124.47H193C194.21 124.453 195.416 124.346 196.61 124.15C198.902 123.788 201.109 123.008 203.12 121.85C204.831 120.9 206.236 119.481 207.17 117.76C207.668 116.871 207.952 115.878 208 114.86Z" fill="#00E599" stroke="black" stroke-width="0.25" stroke-miterlimit="10"/>
<path d="M208 114.86C207.98 115.871 207.727 116.863 207.26 117.76C206.479 119.229 205.337 120.475 203.94 121.38C202.09 122.607 200.023 123.469 197.85 123.92C196.777 124.16 195.687 124.32 194.59 124.4C193.86 124.4 193.12 124.48 192.36 124.46C191.6 124.44 191.04 124.46 190.41 124.35C184.33 123.76 179.41 120.93 177.69 117.26C177.261 116.344 177.045 115.342 177.06 114.33C177.091 113.048 177.483 111.8 178.19 110.73C178.757 109.86 179.459 109.087 180.27 108.44C180.995 107.857 181.775 107.348 182.6 106.92C184.66 105.874 186.887 105.197 189.18 104.92C190.347 104.762 191.524 104.695 192.7 104.72C201.19 104.87 208.05 109.4 208 114.86Z" fill="#00E599" stroke="black" stroke-width="0.25" stroke-miterlimit="10"/>
<path d="M192.52 119.88C186.18 119.77 181.52 117.03 180.35 114.51C180.152 114.098 180.05 113.647 180.05 113.19C180.11 110.19 185.54 106.82 192.74 106.95C199.94 107.08 205.26 110.58 205.21 113.63C205.196 114.085 205.076 114.53 204.86 114.93C203.61 117.41 198.86 120 192.52 119.88Z" fill="#00AF92"/>
<g opacity="0.3">
<path opacity="0.3" d="M192.55 118C187.68 117.91 184.09 115.81 183.2 113.87C183.047 113.559 182.968 113.217 182.97 112.87C182.97 110.52 187.19 107.97 192.72 108.07C198.25 108.17 202.35 110.86 202.31 113.2C202.296 113.55 202.203 113.891 202.04 114.2C201.08 116.14 197.43 118.12 192.55 118Z" fill="white"/>
</g>
<path d="M193.195 115.021C193.205 114.425 193.057 113.939 192.863 113.936C192.67 113.932 192.505 114.413 192.495 115.01C192.485 115.606 192.633 116.092 192.827 116.095C193.02 116.099 193.185 115.618 193.195 115.021Z" fill="#11101F"/>
<path d="M189.76 113.11C189.18 113 188.76 112.75 188.76 112.56C188.76 112.37 189.3 112.32 189.88 112.43C190.46 112.54 190.88 112.79 190.88 112.98C190.88 113.17 190.34 113.23 189.76 113.11Z" fill="#11101F"/>
<path d="M189.65 114.19C189.1 114.4 188.59 114.42 188.52 114.25C188.45 114.08 188.85 113.75 189.41 113.54C189.97 113.33 190.47 113.3 190.53 113.48C190.59 113.66 190.21 114 189.65 114.19Z" fill="#11101F"/>
<path d="M190.62 115C190.19 115.41 189.74 115.64 189.62 115.5C189.5 115.36 189.73 114.92 190.16 114.5C190.59 114.08 191.04 113.87 191.16 114C191.28 114.13 191 114.58 190.62 115Z" fill="#11101F"/>
<path d="M194.49 114.34C194.98 114.84 195.26 115.34 195.13 115.48C195 115.62 194.49 115.31 194.01 114.81C193.53 114.31 193.24 113.81 193.38 113.67C193.52 113.53 194 113.84 194.49 114.34Z" fill="#11101F"/>
<path d="M195.27 113.65C195.87 113.95 196.27 114.32 196.27 114.47C196.27 114.62 195.64 114.47 195.03 114.2C194.42 113.93 194.03 113.54 194.03 113.39C194.03 113.24 194.66 113.35 195.27 113.65Z" fill="#11101F"/>
<path d="M194.47 111.21C195.04 111.04 195.55 111.06 195.6 111.21C195.65 111.36 195.23 111.68 194.66 111.84C194.09 112 193.59 111.99 193.53 111.84C193.47 111.69 193.9 111.37 194.47 111.21Z" fill="#11101F"/>
<path d="M191.63 111.05C191.63 110.61 191.73 110.24 191.92 110.23C192.11 110.22 192.28 110.56 192.31 111.01C192.34 111.46 192.21 111.82 192.03 111.83C191.85 111.84 191.67 111.5 191.63 111.05Z" fill="#11101F"/>
<path d="M192.88 110.871C193.13 110.481 193.46 110.251 193.62 110.351C193.78 110.451 193.7 110.851 193.45 111.231C193.2 111.611 192.87 111.851 192.71 111.741C192.55 111.631 192.63 111.251 192.88 110.871Z" fill="#11101F"/>
<path d="M190.5 111.53C190.07 111.29 189.79 110.99 189.87 110.84C189.95 110.69 190.36 110.76 190.79 110.99C191.22 111.22 191.51 111.53 191.43 111.68C191.35 111.83 190.93 111.76 190.5 111.53Z" fill="#11101F"/>
<path d="M196.12 112.91C196.66 112.91 197.12 113.12 197.07 113.27C197.02 113.42 196.61 113.49 196.07 113.43C195.53 113.37 195.07 113.22 195.13 113.07C195.19 112.92 195.59 112.85 196.12 112.91Z" fill="#11101F"/>
<path d="M230 117.23L229.9 123.06C229.9 125.83 228.02 128.31 225.1 130.06C223.092 131.226 220.884 132.006 218.59 132.36C217.401 132.565 216.197 132.672 214.99 132.68H214.25C213.216 132.665 212.184 132.581 211.16 132.43C204.27 131.43 199.1 127.49 198.95 122.85V122.24L199.04 116.71C199.028 117.723 199.247 118.725 199.68 119.64C201.27 123.08 205.68 125.78 211.25 126.64C212.274 126.786 213.306 126.869 214.34 126.89H215C216.206 126.872 217.41 126.765 218.6 126.57C220.893 126.211 223.1 125.432 225.11 124.27C226.821 123.321 228.229 121.906 229.17 120.19C229.67 119.28 229.954 118.268 230 117.23Z" fill="#00E599" stroke="black" stroke-width="0.25" stroke-miterlimit="10"/>
<path d="M230.001 117.23C229.974 118.244 229.722 119.238 229.261 120.14C228.473 121.603 227.332 122.844 225.941 123.75C224.087 124.977 222.017 125.839 219.841 126.29C218.768 126.536 217.678 126.696 216.581 126.77C215.861 126.83 215.111 126.85 214.351 126.84C213.591 126.83 213.041 126.84 212.351 126.72C206.271 126.13 201.351 123.3 199.641 119.63C199.207 118.715 198.988 117.713 199.001 116.7C199.031 115.418 199.423 114.17 200.131 113.1C200.7 112.23 201.406 111.457 202.221 110.81C202.94 110.225 203.717 109.716 204.541 109.29C206.603 108.243 208.834 107.566 211.131 107.29C212.294 107.137 213.467 107.07 214.641 107.09C223.191 107.24 230.001 111.77 230.001 117.23Z" fill="#00E599" stroke="black" stroke-width="0.25" stroke-miterlimit="10"/>
<path d="M214.52 122.25C208.17 122.14 203.52 119.4 202.35 116.88C202.149 116.473 202.046 116.024 202.05 115.57C202.05 112.51 207.54 109.19 214.74 109.32C221.94 109.45 227.26 113 227.2 116C227.19 116.454 227.073 116.899 226.86 117.3C225.61 119.78 220.86 122.36 214.52 122.25Z" fill="#00AF92"/>
<g opacity="0.3">
<path opacity="0.3" d="M214.55 120.41C209.67 120.32 206.09 118.22 205.19 116.28C205.041 115.968 204.962 115.627 204.96 115.28C204.96 112.93 209.18 110.38 214.72 110.48C220.26 110.58 224.34 113.27 224.3 115.61C224.288 115.959 224.199 116.3 224.04 116.61C223.08 118.51 219.42 120.49 214.55 120.41Z" fill="white"/>
</g>
<path d="M215.191 117.386C215.201 116.789 215.053 116.303 214.86 116.3C214.666 116.297 214.501 116.777 214.491 117.374C214.481 117.97 214.629 118.456 214.823 118.46C215.016 118.463 215.181 117.982 215.191 117.386Z" fill="#11101F"/>
<path d="M211.76 115.48C211.17 115.37 210.76 115.12 210.76 114.94C210.76 114.76 211.3 114.69 211.88 114.81C212.46 114.93 212.88 115.16 212.88 115.35C212.88 115.54 212.34 115.6 211.76 115.48Z" fill="#11101F"/>
<path d="M211.65 116.56C211.09 116.77 210.59 116.79 210.52 116.62C210.45 116.45 210.85 116.12 211.4 115.91C211.95 115.7 212.46 115.68 212.53 115.85C212.6 116.02 212.2 116.35 211.65 116.56Z" fill="#11101F"/>
<path d="M212.61 117.36C212.19 117.77 211.73 118 211.61 117.86C211.49 117.72 211.72 117.28 212.14 116.86C212.56 116.44 213.02 116.22 213.14 116.36C213.26 116.5 213 117 212.61 117.36Z" fill="#11101F"/>
<path d="M216.49 116.711C216.97 117.211 217.25 117.711 217.12 117.851C216.99 117.991 216.49 117.681 216 117.181C215.51 116.681 215.24 116.181 215.37 116.041C215.5 115.901 216 116.211 216.49 116.711Z" fill="#11101F"/>
<path d="M217.26 116C217.87 116.3 218.26 116.67 218.26 116.82C218.26 116.97 217.64 116.82 217.03 116.55C216.42 116.28 216.03 115.89 216.03 115.74C216.03 115.59 216.66 115.72 217.26 116Z" fill="#11101F"/>
<path d="M216.47 113.58C217.04 113.42 217.54 113.43 217.6 113.58C217.66 113.73 217.23 114.05 216.66 114.21C216.09 114.37 215.58 114.36 215.53 114.21C215.48 114.06 215.9 113.74 216.47 113.58Z" fill="#11101F"/>
<path d="M213.63 113.42C213.63 112.98 213.73 112.61 213.91 112.6C214.09 112.59 214.27 112.93 214.3 113.38C214.33 113.83 214.21 114.19 214.02 114.2C213.83 114.21 213.66 113.87 213.63 113.42Z" fill="#11101F"/>
<path d="M214.88 113.24C215.13 112.85 215.46 112.62 215.61 112.73C215.76 112.84 215.69 113.22 215.44 113.61C215.19 114 214.86 114.22 214.71 114.12C214.56 114.02 214.63 113.62 214.88 113.24Z" fill="#11101F"/>
<path d="M212.5 113.9C212.07 113.67 211.78 113.36 211.86 113.21C211.94 113.06 212.36 113.13 212.79 113.36C213.22 113.59 213.5 113.9 213.42 114.05C213.34 114.2 212.93 114.13 212.5 113.9Z" fill="#11101F"/>
<path d="M218.12 115.28C218.66 115.28 219.12 115.49 219.06 115.64C219 115.79 218.6 115.86 218.06 115.8C217.52 115.74 217.06 115.59 217.11 115.44C217.16 115.29 217.58 115.22 218.12 115.28Z" fill="#11101F"/>
<path d="M160.94 128.87L163.84 133.43C165.21 135.59 167.84 136.66 171 136.63C173.148 136.578 175.267 136.127 177.25 135.3C178.289 134.884 179.292 134.386 180.25 133.81L180.83 133.46C181.639 132.943 182.414 132.375 183.15 131.76C188.15 127.63 190.29 122.04 188.15 118.3L187.85 117.82L185.11 113.49C185.607 114.288 185.918 115.186 186.02 116.12C186.43 119.6 184.23 123.88 180.24 127.2C179.504 127.815 178.729 128.383 177.92 128.9L177.34 129.25C176.381 129.824 175.378 130.323 174.34 130.74C172.354 131.566 170.231 132.017 168.08 132.07C166.27 132.143 164.475 131.706 162.9 130.81C162.11 130.318 161.44 129.655 160.94 128.87Z" fill="#00E599" stroke="black" stroke-width="0.25" stroke-miterlimit="10"/>
<path d="M160.94 128.87C161.451 129.66 162.135 130.323 162.94 130.81C164.271 131.581 165.772 132.011 167.31 132.06C169.368 132.133 171.421 131.814 173.36 131.12C174.325 130.791 175.264 130.39 176.17 129.92C176.784 129.619 177.382 129.286 177.96 128.92C178.48 128.59 178.96 128.24 179.45 127.92C183.96 124.51 186.45 119.92 186.06 116.17C185.951 115.113 185.566 114.102 184.945 113.239C184.324 112.375 183.488 111.69 182.52 111.25C181.648 110.836 180.717 110.563 179.76 110.44C178.908 110.331 178.047 110.307 177.19 110.37C175.055 110.539 172.967 111.08 171.02 111.97C170.025 112.409 169.065 112.924 168.15 113.51C161.45 117.71 158.23 124.6 160.94 128.87Z" fill="#00E599" stroke="black" stroke-width="0.25" stroke-miterlimit="10"/>
<path d="M175.56 125.37C180.51 122.22 182.87 117.81 182.56 115.26C182.514 114.84 182.378 114.434 182.16 114.07C180.64 111.69 174.74 111.69 169.11 115.27C163.48 118.85 160.98 124.18 162.49 126.57C162.721 126.922 163.029 127.216 163.39 127.43C165.6 128.79 170.6 128.53 175.56 125.37Z" fill="#00AF92"/>
<g opacity="0.3">
<path opacity="0.3" d="M174.64 123.94C178.45 121.51 180.27 118.12 180.04 116.16C180.01 115.837 179.904 115.525 179.73 115.25C178.56 113.41 174.03 113.42 169.73 116.17C165.43 118.92 163.48 123.02 164.64 124.85C164.822 125.122 165.061 125.35 165.34 125.52C167 126.56 170.83 126.36 174.64 123.94Z" fill="white"/>
</g>
<path d="M173.481 122.567C173.63 122.472 173.511 122.018 173.215 121.552C172.919 121.085 172.558 120.784 172.409 120.879C172.26 120.974 172.379 121.429 172.675 121.895C172.971 122.361 173.332 122.662 173.481 122.567Z" fill="#11101F"/>
<path d="M174.47 118.7C174.87 118.32 175.1 117.92 174.98 117.79C174.86 117.66 174.44 117.85 174.03 118.23C173.62 118.61 173.4 119.01 173.52 119.14C173.64 119.27 174.06 119.07 174.47 118.7Z" fill="#11101F"/>
<path d="M175.07 119.49C175.61 119.39 176.07 119.17 175.99 119C175.91 118.83 175.49 118.76 174.99 118.87C174.49 118.98 174.04 119.19 174.07 119.36C174.1 119.53 174.53 119.6 175.07 119.49Z" fill="#11101F"/>
<path d="M174.7 120.6C175.23 120.72 175.7 120.67 175.7 120.5C175.7 120.33 175.33 120.09 174.8 119.97C174.27 119.85 173.8 119.89 173.8 120.07C173.8 120.25 174.16 120.48 174.7 120.6Z" fill="#11101F"/>
<path d="M171.32 122C171.18 122.62 171.2 123.16 171.37 123.2C171.54 123.24 171.79 122.76 171.93 122.13C172.07 121.5 172.05 120.97 171.88 120.93C171.71 120.89 171.46 121.33 171.32 122Z" fill="#11101F"/>
<path d="M170.38 121.78C170.04 122.31 169.88 122.78 170.01 122.89C170.14 123 170.52 122.62 170.86 122.09C171.2 121.56 171.36 121.09 171.22 120.98C171.08 120.87 170.71 121.26 170.38 121.78Z" fill="#11101F"/>
<path d="M169.83 119.47C169.3 119.62 168.9 119.87 168.95 120.04C169 120.21 169.46 120.23 169.95 120.04C170.44 119.85 170.88 119.63 170.83 119.46C170.78 119.29 170.36 119.32 169.83 119.47Z" fill="#11101F"/>
<path d="M172 118C171.81 117.63 171.53 117.4 171.38 117.48C171.23 117.56 171.26 117.92 171.45 118.28C171.64 118.64 171.92 118.88 172.07 118.8C172.22 118.72 172.18 118.34 172 118Z" fill="#11101F"/>
<path d="M170.92 118.43C170.53 118.25 170.16 118.23 170.09 118.38C170.02 118.53 170.26 118.81 170.65 118.99C171.04 119.17 171.4 119.2 171.48 119.04C171.56 118.88 171.3 118.61 170.92 118.43Z" fill="#11101F"/>
<path d="M173.12 117.801C173.34 117.411 173.42 117.031 173.28 116.951C173.14 116.871 172.85 117.131 172.63 117.521C172.41 117.911 172.32 118.291 172.46 118.371C172.6 118.451 172.89 118.191 173.12 117.801Z" fill="#11101F"/>
<path d="M169.34 121.61C168.94 121.91 168.69 122.24 168.77 122.35C168.85 122.46 169.24 122.35 169.64 122C170.04 121.65 170.29 121.37 170.21 121.26C170.13 121.15 169.74 121.31 169.34 121.61Z" fill="#11101F"/>
<path d="M278 201.901C280.77 202.291 281.35 200.801 281.75 198.381C282.17 195.381 282.75 194.531 286.12 195.141C289.34 195.761 290.4 193.341 290.51 189.411C290.64 183.001 294.83 182.211 297.19 187.681C298.33 190.331 301.31 192.041 304.83 193.491C306.477 194.165 308.251 194.478 310.03 194.411C314.31 194.241 317.7 194.991 319.57 197.321C322.72 201.041 325.89 204.131 329.26 203.321C336.53 201.651 336.93 206.841 333.37 209.111C333.37 210.891 338.76 211.391 338.76 211.391C345.42 212.911 340.83 219.471 332.14 216.691C334.41 219.571 330.73 221.691 328.07 218.401C327.89 218.181 327.69 217.961 327.49 217.751C326.926 217.16 326.279 216.655 325.57 216.251C323.344 215.003 320.999 213.981 318.57 213.201C313.564 211.623 308.183 211.708 303.23 213.441C300.23 214.441 296.49 215.011 294.62 212.441C291.22 207.821 285.77 207.671 284.42 207.741C283.776 207.818 283.127 207.841 282.48 207.811C274.58 207.601 270.61 200.471 278 201.901Z" fill="#00E599" stroke="black" stroke-width="0.25" stroke-miterlimit="10"/>
<path d="M275.59 205C275.59 205 307.19 199.62 316.59 203.78" stroke="#00AF92" stroke-linecap="round" stroke-linejoin="round"/>
<path d="M309.44 203.07C309.44 203.07 314.13 208.37 317.51 210.18" stroke="#00AF92" stroke-linecap="round" stroke-linejoin="round"/>
<path d="M304.36 201.88C304.36 201.88 309.27 198.88 312.36 198.28" stroke="#00AF92" stroke-linecap="round" stroke-linejoin="round"/>
<path d="M296.78 202.3C296.78 202.3 298.37 198.05 299.98 196.18" stroke="#00AF92" stroke-linecap="round" stroke-linejoin="round"/>
<path d="M300.64 202.74C300.64 202.74 302.64 207.23 306.03 209.05" stroke="#00AF92" stroke-linecap="round" stroke-linejoin="round"/>
<path d="M291.3 203.23C292.972 205.309 295.004 207.071 297.3 208.43" stroke="#00AF92" stroke-linecap="round" stroke-linejoin="round"/>
<path d="M363.86 193.881C360.15 194.881 360.25 197.131 361.09 200.411C362.21 204.411 361.99 205.811 357.39 206.931C352.97 207.931 352.99 211.581 355.03 216.601C358.43 224.761 353.59 228.101 347.57 222.501C344.65 219.791 339.93 219.291 334.7 219.431C332.246 219.49 329.834 220.08 327.63 221.161C322.32 223.761 317.63 224.701 313.96 222.811C307.96 219.811 302.19 217.721 298.38 220.591C290.14 226.741 286.74 220.421 289.97 215.591C288.97 213.351 281.9 215.711 281.9 215.711C272.65 217.511 274.79 206.711 287.3 205.351C282.83 202.971 286.3 198.301 291.48 200.911C291.84 201.101 292.211 201.271 292.59 201.421C293.624 201.849 294.716 202.122 295.83 202.231C299.314 202.576 302.825 202.576 306.31 202.231C313.503 201.429 320.244 198.325 325.53 193.381C328.75 190.441 333.17 187.651 336.94 189.811C343.81 193.741 350.77 190.901 352.42 190.051C353.199 189.606 354.007 189.215 354.84 188.881C365 184.801 374 191.581 363.86 193.881Z" fill="#00E599" stroke="black" stroke-width="0.25" stroke-miterlimit="10"/>
<path d="M365.17 188.71C365.17 188.71 328.3 213.09 314.07 213.09" stroke="#00AF92" stroke-linecap="round" stroke-linejoin="round"/>
<path d="M323.51 209.92C323.51 209.92 314.64 205.85 309.36 205.44" stroke="#00AF92" stroke-linecap="round" stroke-linejoin="round"/>
<path d="M330.57 208.6C330.57 208.6 326.05 215.11 322.52 217.6" stroke="#00AF92" stroke-linecap="round" stroke-linejoin="round"/>
<path d="M339.91 203.84C339.91 203.84 340.27 210.09 339.27 213.35" stroke="#00AF92" stroke-linecap="round" stroke-linejoin="round"/>
<path d="M334.79 205.44C334.79 205.44 329.79 200.89 324.48 200.44" stroke="#00AF92" stroke-linecap="round" stroke-linejoin="round"/>
<path d="M346.3 199.62C343.017 197.929 339.457 196.842 335.79 196.41" stroke="#00AF92" stroke-linecap="round" stroke-linejoin="round"/>
<path d="M280.76 137.47C280.76 137.47 289.99 141.27 293.17 139.29C296.35 137.31 297.36 132.02 300.66 132.4C303.96 132.78 309.51 136.02 313.17 135.61C316.83 135.2 315.91 131.38 320.97 131.2C326.03 131.02 326.73 133.77 330.59 133.53C334.45 133.29 342.46 127.35 344.16 127.34C345.86 127.33 347.71 129.01 351.89 130.4C356.07 131.79 359.25 128.12 361.61 127.15L360.43 115C358.536 115.994 356.518 116.73 354.43 117.19C352.11 117.47 349.08 114.08 345.65 114.82C342.22 115.56 336.29 119.82 334.71 120.52C333.71 120.96 329 120.78 327.25 120.11C325.5 119.44 321.25 118.72 316.45 123.57C311.65 128.42 306.94 124.4 306.22 124.2C305.5 124 300 122.69 296 126C292 129.31 285.3 127.75 283.93 126.83C282.56 125.91 280.76 137.47 280.76 137.47Z" fill="#F76854" stroke="black" stroke-width="0.25" stroke-miterlimit="10"/>
<path opacity="0.6" d="M281.38 134.81C281.38 134.81 290.02 138.38 293.2 136.4C296.38 134.42 297.39 129.14 300.69 129.51C303.99 129.88 309.55 133.14 313.2 132.72C316.85 132.3 315.94 128.49 321 128.31C326.06 128.13 326.77 130.89 330.62 130.64C334.47 130.39 342.49 124.46 344.19 124.45C345.89 124.44 347.74 126.12 351.92 127.52C356.1 128.92 358.92 125.32 361.26 124.35L360.56 117.96C358.603 118.946 356.53 119.682 354.39 120.15C352.07 120.43 349.03 117.03 345.61 117.78C342.19 118.53 336.25 122.78 334.66 123.48C333.66 123.92 328.95 123.74 327.2 123.07C325.45 122.4 321.2 121.68 316.41 126.53C311.62 131.38 306.89 127.36 306.17 127.16C305.45 126.96 299.94 125.66 296 128.97C292.06 132.28 284.77 130.53 283.4 129.61C282.03 128.69 281.38 134.81 281.38 134.81Z" fill="#F9D97C"/>
<path d="M356.37 122.051C356.37 122.051 355.97 122.931 352.59 121.361C349.21 119.791 348.13 120.101 348.13 120.101" stroke="#F9D97C" stroke-width="0.5" stroke-linecap="round" stroke-linejoin="round"/>
<path d="M321.32 124.19C317.91 125.67 317.42 126.69 317.42 126.69" stroke="#F9D97C" stroke-width="0.5" stroke-linecap="round" stroke-linejoin="round"/>
<path d="M303.1 129.35C302.262 129.007 301.347 128.893 300.45 129.02" stroke="#F9D97C" stroke-width="0.5" stroke-linecap="round" stroke-linejoin="round"/>
<path d="M293.45 135.09C295 133.71 295.15 133.021 295.15 133.021" stroke="#F9D97C" stroke-width="0.5" stroke-linecap="round" stroke-linejoin="round"/>
<path d="M283.85 119.76C283.85 119.76 292.25 125.15 295.73 123.76C299.21 122.37 301.15 117.36 304.33 118.32C307.51 119.28 312.4 123.47 316.07 123.71C319.74 123.95 319.52 120.04 324.53 120.77C329.54 121.5 329.74 124.33 333.58 124.77C337.42 125.21 346.37 120.77 348.04 121.11C349.71 121.45 351.23 123.39 355.04 125.51C358.85 127.63 362.7 124.58 365.19 124.05L366.19 111.87C364.14 112.505 362.014 112.865 359.87 112.94C357.53 112.81 355.15 108.94 351.65 109.05C348.15 109.16 341.55 112.28 339.86 112.69C338.86 112.95 334.2 111.93 332.6 110.95C331 109.97 326.98 108.52 321.36 112.43C315.74 116.34 311.85 111.54 311.18 111.22C310.51 110.9 305.31 108.63 300.84 111.22C296.37 113.81 290 111.02 288.84 109.87C287.68 108.72 283.85 119.76 283.85 119.76Z" fill="#F76854" stroke="black" stroke-width="0.25" stroke-miterlimit="10"/>
<path opacity="0.6" d="M284.94 117.261C284.94 117.261 292.8 122.321 296.28 120.941C299.76 119.561 301.7 114.541 304.88 115.501C308.06 116.461 312.95 120.651 316.62 120.901C320.29 121.151 320.07 117.221 325.08 117.901C330.09 118.581 330.29 121.471 334.13 121.901C337.97 122.331 346.92 117.901 348.59 118.241C350.26 118.581 351.78 120.511 355.64 122.631C359.5 124.751 362.9 121.721 365.39 121.191L365.85 114.771C363.748 115.373 361.577 115.709 359.39 115.771C357.05 115.631 354.67 111.771 351.17 111.871C347.67 111.971 341.07 115.111 339.39 115.521C338.39 115.781 333.72 114.761 332.12 113.781C330.52 112.801 326.5 111.351 320.88 115.251C315.26 119.151 311.37 114.371 310.7 114.051C310.03 113.731 304.83 111.451 300.36 114.051C295.89 116.651 289.03 113.581 287.85 112.431C286.67 111.281 284.94 117.261 284.94 117.261Z" fill="#F9D97C"/>
<path d="M361 118.121C361 118.121 360.45 118.911 357.41 116.761C354.37 114.611 353.24 114.761 353.24 114.761" stroke="#F9D97C" stroke-width="0.5" stroke-linecap="round" stroke-linejoin="round"/>
<path d="M326.13 114C322.51 114.85 321.84 115.77 321.84 115.77" stroke="#F9D97C" stroke-width="0.5" stroke-linecap="round" stroke-linejoin="round"/>
<path d="M307.29 115.77C306.521 115.286 305.639 115.011 304.73 114.97" stroke="#F9D97C" stroke-width="0.5" stroke-linecap="round" stroke-linejoin="round"/>
<path d="M296.76 119.69C298.53 118.61 298.81 117.96 298.81 117.96" stroke="#F9D97C" stroke-width="0.5" stroke-linecap="round" stroke-linejoin="round"/>
</svg>
