<svg width="158" height="158" viewBox="0 0 158 158" fill="none" xmlns="http://www.w3.org/2000/svg">
<path fill-rule="evenodd" clip-rule="evenodd" d="M110.476 46.791L60.1427 98.0492L47.0176 74.7217C45.4961 72.0222 42.1303 71.086 39.4715 72.6308C36.8126 74.1755 35.8905 77.5928 37.412 80.2922L54.1334 110.017C55.1478 111.827 57.0228 112.857 58.9439 112.857C59.8814 112.857 60.819 112.623 61.6796 112.124C62.1714 111.827 62.6171 111.484 62.986 111.078C63.0013 111.063 63.0321 111.032 63.0475 111.016L118.299 54.7489C120.451 52.5488 120.451 48.9911 118.284 46.8066C116.132 44.5909 112.643 44.5909 110.476 46.791ZM79 0C35.3648 0 0 35.3648 0 79C0 122.635 35.3648 158 79 158C122.635 158 158 122.635 158 79C158 35.3648 122.635 0 79 0ZM126.67 128.081C120.388 134.363 113.064 139.308 104.916 142.745C96.4881 146.321 87.5313 148.125 78.2946 148.125C69.058 148.125 60.1012 146.321 51.6732 142.76C43.525 139.308 36.2166 134.379 29.9188 128.097C23.6367 121.815 18.6918 114.491 15.2553 106.342C11.6788 97.8988 9.875 88.942 9.875 79.7054C9.875 70.4687 11.6788 61.5119 15.2397 53.0839C18.6918 44.9357 23.6211 37.6273 29.9033 31.3296C36.1855 25.0474 43.5095 20.1025 51.6576 16.666C60.1012 13.0895 69.058 11.2857 78.2946 11.2857C87.5313 11.2857 96.4881 13.0895 104.916 16.6504C113.064 20.1025 120.373 25.0318 126.67 31.314C132.953 37.5962 137.897 44.9202 141.334 53.0683C144.91 61.5119 146.714 70.4687 146.714 79.7054C146.714 88.942 144.91 97.8988 141.35 106.327C137.897 114.475 132.968 121.799 126.67 128.081Z" fill="#00E599"/>
</svg>
