<svg width="48" height="48" viewBox="0 0 48 48" fill="none" xmlns="http://www.w3.org/2000/svg">
<g id="Group 2">
<path id="Oval" fill-rule="evenodd" clip-rule="evenodd" d="M-2.09815e-06 24C-9.39372e-07 10.7452 10.7452 -3.25692e-06 24 -2.09815e-06C37.2548 -9.39372e-07 48 10.7452 48 24C48 37.2548 37.2548 48 24 48C10.7452 48 -3.25692e-06 37.2548 -2.09815e-06 24ZM46.0781 23.9999C46.0781 11.8055 36.1926 1.91992 23.9981 1.91992C11.8037 1.91992 1.91812 11.8055 1.91812 23.9999C1.91812 36.1944 11.8037 46.0799 23.9981 46.0799C36.1926 46.0799 46.0781 36.1944 46.0781 23.9999Z" fill="#FFC13D"/>
<g id="down">
<path id="Shape" d="M30.7203 27.9797C30.7203 27.7995 30.6603 27.6173 30.5402 27.4652L24.1426 19.5069C23.9869 19.3135 23.7523 19.2008 23.5027 19.2008C23.255 19.2008 23.0185 19.3135 22.8646 19.5069L16.5009 27.4314C16.2175 27.7845 16.2738 28.3009 16.6266 28.5844C16.9794 28.868 17.4955 28.8116 17.7789 28.4586L23.5046 21.3303L29.2621 28.4943C29.5455 28.8473 30.0616 28.9037 30.4144 28.6201C30.6152 28.4567 30.7203 28.2201 30.7203 27.9797Z" fill="#FFC13D"/>
</g>
</g>
</svg>
