<svg width="955" height="322" viewBox="0 0 955 322" fill="none" xmlns="http://www.w3.org/2000/svg">
<rect x="357" y="1" width="240" height="320" rx="20" fill="white" stroke="black"/>
<rect x="1" y="1" width="240" height="320" rx="20" fill="white" stroke="black"/>
<rect x="714" y="1" width="240" height="320" rx="20" fill="white" stroke="black"/>
<path d="M897.944 96.9453H772.778V191.196H897.944V96.9453Z" fill="#DFDFDF"/>
<path d="M806.73 114.088H794.064V130.38H806.73V114.088Z" fill="#DFDFDF" stroke="black" stroke-width="1.1" stroke-miterlimit="10"/>
<path d="M843.621 114.088H830.956V130.38H843.621V114.088Z" fill="#DFDFDF" stroke="black" stroke-width="1.1" stroke-miterlimit="10"/>
<path d="M878.254 114.088H865.588V130.38H878.254V114.088Z" fill="#DFDFDF" stroke="black" stroke-width="1.1" stroke-miterlimit="10"/>
<path d="M806.73 141.023H794.064V157.315H806.73V141.023Z" fill="#DFDFDF" stroke="black" stroke-width="1.1" stroke-miterlimit="10"/>
<path d="M856.817 146.548H817.759V175.918H856.817V146.548Z" fill="#00E599" stroke="black" stroke-width="1.1" stroke-miterlimit="10"/>
<path d="M878.254 141.023H865.588V157.315H878.254V141.023Z" fill="#DFDFDF" stroke="black" stroke-width="1.1" stroke-miterlimit="10"/>
<path d="M923.432 187.536H748.762V194.867H923.432V187.536Z" fill="#BCCFE9" stroke="black" stroke-width="1.1" stroke-miterlimit="10"/>
<path d="M779.952 103.274H765.611V179.825H779.952V103.274Z" fill="#BCCFE9" stroke="black" stroke-width="1.1" stroke-miterlimit="10"/>
<path d="M784.187 95.4199H761.382V105.625H784.187V95.4199Z" fill="#BCCFE9" stroke="black" stroke-width="1.1" stroke-miterlimit="10"/>
<path d="M784.187 179.314H761.382V189.519H784.187V179.314Z" fill="#BCCFE9" stroke="black" stroke-width="1.1" stroke-miterlimit="10"/>
<path d="M905.11 103.274H890.769V179.825H905.11V103.274Z" fill="#BCCFE9" stroke="black" stroke-width="1.1" stroke-miterlimit="10"/>
<path d="M909.346 95.4199H886.541V105.625H909.346V95.4199Z" fill="#BCCFE9" stroke="black" stroke-width="1.1" stroke-miterlimit="10"/>
<path d="M909.346 179.314H886.541V189.519H909.346V179.314Z" fill="#BCCFE9" stroke="black" stroke-width="1.1" stroke-miterlimit="10"/>
<path d="M830.262 154.703H821.752C821.752 154.703 822.145 160.103 826.485 160.692H834.994C834.994 160.692 834.608 155.292 830.262 154.703Z" fill="white"/>
<path d="M835.145 160.831H826.465C822.047 160.235 821.602 154.769 821.595 154.717V154.566H830.294C834.7 155.162 835.145 160.628 835.145 160.68V160.831ZM821.883 154.848C821.988 155.712 822.701 160.052 826.465 160.562H834.824C834.719 159.698 834.006 155.365 830.242 154.848H821.883Z" fill="black"/>
<path d="M829.633 160.693C831.188 160.693 832.448 159.353 832.448 157.701C832.448 156.049 831.188 154.71 829.633 154.71C828.079 154.71 826.819 156.049 826.819 157.701C826.819 159.353 828.079 160.693 829.633 160.693Z" fill="black"/>
<path d="M829.633 160.83C829.006 160.866 828.383 160.714 827.843 160.392C827.304 160.071 826.874 159.594 826.608 159.025C826.343 158.456 826.254 157.82 826.354 157.2C826.454 156.581 826.738 156.005 827.169 155.548C827.6 155.091 828.158 154.775 828.772 154.639C829.385 154.503 830.024 154.554 830.608 154.786C831.192 155.018 831.692 155.42 832.045 155.94C832.397 156.459 832.585 157.073 832.585 157.701C832.606 158.507 832.308 159.288 831.755 159.874C831.201 160.461 830.439 160.804 829.633 160.83ZM829.633 154.841C829.061 154.804 828.491 154.94 827.997 155.231C827.503 155.522 827.108 155.955 826.863 156.473C826.619 156.992 826.535 157.572 826.624 158.138C826.713 158.705 826.97 159.231 827.361 159.65C827.753 160.068 828.262 160.359 828.821 160.486C829.38 160.612 829.964 160.567 830.498 160.357C831.031 160.147 831.489 159.781 831.812 159.308C832.136 158.834 832.309 158.274 832.31 157.701C832.331 156.968 832.062 156.257 831.56 155.722C831.059 155.187 830.366 154.873 829.633 154.847V154.841Z" fill="black"/>
<path d="M848.93 154.703H840.42C840.42 154.703 840.813 160.103 845.159 160.692H853.669C853.669 160.692 853.269 155.292 848.93 154.703Z" fill="white"/>
<path d="M853.806 160.831H845.133C840.708 160.235 840.263 154.769 840.257 154.717V154.566H848.949C853.355 155.162 853.8 160.628 853.806 160.68V160.831ZM840.551 154.848C840.656 155.712 841.37 160.052 845.133 160.562H853.486C853.381 159.698 852.674 155.365 848.904 154.848H840.551Z" fill="black"/>
<path d="M848.282 160.693C849.825 160.693 851.077 159.353 851.077 157.701C851.077 156.049 849.825 154.71 848.282 154.71C846.738 154.71 845.487 156.049 845.487 157.701C845.487 159.353 846.738 160.693 848.282 160.693Z" fill="black"/>
<path d="M848.282 160.83C847.655 160.869 847.03 160.719 846.489 160.399C845.948 160.079 845.516 159.604 845.248 159.035C844.981 158.467 844.89 157.831 844.989 157.21C845.087 156.589 845.37 156.012 845.8 155.554C846.231 155.096 846.789 154.778 847.402 154.641C848.015 154.504 848.656 154.554 849.24 154.786C849.824 155.017 850.326 155.419 850.679 155.939C851.032 156.459 851.221 157.073 851.221 157.701C851.244 158.505 850.948 159.286 850.397 159.872C849.846 160.458 849.086 160.803 848.282 160.83ZM848.282 154.841C847.708 154.799 847.134 154.931 846.635 155.219C846.137 155.508 845.737 155.94 845.488 156.459C845.239 156.978 845.152 157.561 845.238 158.13C845.324 158.699 845.58 159.23 845.972 159.651C846.364 160.073 846.874 160.367 847.436 160.495C847.997 160.623 848.584 160.579 849.12 160.369C849.656 160.158 850.117 159.791 850.441 159.315C850.766 158.84 850.939 158.277 850.939 157.701C850.962 156.971 850.696 156.262 850.198 155.727C849.701 155.192 849.012 154.876 848.282 154.847V154.841Z" fill="black"/>
<path d="M837.796 170.243C838.851 170.243 839.707 169.328 839.707 168.2C839.707 167.073 838.851 166.158 837.796 166.158C836.74 166.158 835.884 167.073 835.884 168.2C835.884 169.328 836.74 170.243 837.796 170.243Z" fill="black"/>
<path d="M837.795 170.381C837.358 170.408 836.922 170.304 836.545 170.081C836.168 169.857 835.866 169.526 835.68 169.129C835.493 168.733 835.43 168.289 835.499 167.856C835.567 167.423 835.765 167.021 836.065 166.702C836.365 166.382 836.754 166.16 837.182 166.065C837.61 165.97 838.057 166.005 838.464 166.167C838.872 166.328 839.221 166.609 839.467 166.972C839.713 167.334 839.845 167.763 839.844 168.201C839.86 168.761 839.653 169.305 839.27 169.714C838.886 170.122 838.356 170.362 837.795 170.381ZM837.795 166.296C837.412 166.269 837.03 166.357 836.698 166.55C836.366 166.743 836.1 167.031 835.934 167.377C835.768 167.724 835.711 168.112 835.769 168.492C835.827 168.871 835.998 169.224 836.259 169.505C836.521 169.786 836.861 169.982 837.236 170.067C837.61 170.152 838.001 170.122 838.359 169.981C838.716 169.84 839.022 169.595 839.238 169.278C839.454 168.96 839.57 168.585 839.569 168.201C839.585 167.714 839.408 167.24 839.075 166.883C838.743 166.526 838.283 166.315 837.795 166.296Z" fill="black"/>
<path d="M836.552 59L746 82.6297V96.9449H836.552H927.104V82.6297L836.552 59Z" fill="#BCCFE9" stroke="black" stroke-width="1.1" stroke-miterlimit="10"/>
<path d="M790.582 87.9902H882.522" stroke="black" stroke-width="1.1" stroke-miterlimit="10"/>
<path d="M837.285 80.7969C840.495 80.7969 843.098 78.1945 843.098 74.9844C843.098 71.7742 840.495 69.1719 837.285 69.1719C834.075 69.1719 831.473 71.7742 831.473 74.9844C831.473 78.1945 834.075 80.7969 837.285 80.7969Z" stroke="black" stroke-width="1.1" stroke-miterlimit="10"/>
<path d="M534.653 207.684H418.299L421.412 202.146H530.516L534.653 207.684Z" fill="#BCCFE9"/>
<path d="M535 207.857H418L421.311 201.973H530.6L530.654 202.044L535 207.857ZM418.599 207.51H534.306L530.426 202.32H421.514L418.599 207.51Z" fill="black"/>
<path d="M530.516 97.209H421.412V202.014H530.516V97.209Z" fill="#DFDFDF"/>
<path d="M530.69 202.182H421.239V97.0352H530.69V202.182ZM421.592 201.835H530.343V97.3824H421.592V201.835Z" fill="black"/>
<path d="M526.38 101.849H425.148V143.209H526.38V101.849Z" fill="#A09BE2"/>
<path d="M526.553 143.39H424.974V101.676H526.553V143.39ZM425.321 143.042H526.206V102.023H425.321V143.042Z" fill="black"/>
<path d="M439.779 122.173C441.696 122.173 443.251 120.618 443.251 118.701C443.251 116.783 441.696 115.229 439.779 115.229C437.861 115.229 436.307 116.783 436.307 118.701C436.307 120.618 437.861 122.173 439.779 122.173Z" fill="#F76854"/>
<path d="M439.779 122.346C439.056 122.348 438.349 122.134 437.748 121.734C437.146 121.333 436.677 120.762 436.4 120.095C436.123 119.427 436.05 118.693 436.191 117.984C436.332 117.275 436.68 116.624 437.191 116.113C437.702 115.601 438.353 115.254 439.062 115.113C439.771 114.972 440.506 115.045 441.173 115.322C441.841 115.599 442.411 116.068 442.812 116.67C443.212 117.271 443.426 117.978 443.425 118.701C443.423 119.667 443.038 120.594 442.355 121.277C441.672 121.96 440.745 122.345 439.779 122.346ZM439.779 115.396C439.125 115.395 438.486 115.588 437.941 115.95C437.397 116.313 436.973 116.828 436.722 117.432C436.471 118.036 436.404 118.7 436.531 119.342C436.658 119.983 436.972 120.573 437.434 121.035C437.896 121.498 438.485 121.813 439.126 121.941C439.767 122.069 440.432 122.004 441.036 121.754C441.64 121.504 442.157 121.081 442.52 120.537C442.883 119.994 443.077 119.355 443.077 118.701C443.076 117.826 442.728 116.987 442.11 116.368C441.492 115.749 440.654 115.399 439.779 115.396Z" fill="black"/>
<path d="M439.988 122.173H439.641V129.842H439.988V122.173Z" fill="black"/>
<path d="M441.641 129.668H437.983V130.015H441.641V129.668Z" fill="black"/>
<path d="M509.904 122.173C511.822 122.173 513.376 120.618 513.376 118.701C513.376 116.783 511.822 115.229 509.904 115.229C507.987 115.229 506.432 116.783 506.432 118.701C506.432 120.618 507.987 122.173 509.904 122.173Z" fill="#F76854"/>
<path d="M509.905 122.346C509.182 122.348 508.475 122.134 507.874 121.734C507.272 121.333 506.803 120.762 506.526 120.095C506.249 119.427 506.176 118.693 506.317 117.984C506.458 117.275 506.806 116.624 507.317 116.113C507.828 115.601 508.479 115.254 509.188 115.113C509.897 114.972 510.632 115.045 511.299 115.322C511.967 115.599 512.537 116.068 512.938 116.67C513.338 117.271 513.552 117.978 513.551 118.701C513.549 119.667 513.164 120.594 512.481 121.277C511.798 121.96 510.871 122.345 509.905 122.346ZM509.905 115.396C509.251 115.395 508.611 115.588 508.067 115.95C507.523 116.313 507.099 116.828 506.848 117.432C506.597 118.036 506.53 118.7 506.657 119.342C506.784 119.983 507.098 120.573 507.56 121.035C508.022 121.498 508.611 121.813 509.252 121.941C509.893 122.069 510.558 122.004 511.162 121.754C511.766 121.504 512.283 121.081 512.646 120.537C513.009 119.994 513.203 119.355 513.203 118.701C513.202 117.826 512.854 116.987 512.236 116.368C511.618 115.749 510.78 115.399 509.905 115.396Z" fill="black"/>
<path d="M510.114 122.173H509.767V129.842H510.114V122.173Z" fill="black"/>
<path d="M511.767 129.668H508.109V130.015H511.767V129.668Z" fill="black"/>
<path d="M484.731 122.748V113.379H475.363V122.748H484.731Z" fill="#BCCFE9"/>
<path d="M484.905 122.915H475.189V113.199H484.905V122.915ZM475.536 122.568H484.558V113.546H475.536V122.568Z" fill="black"/>
<path d="M475.362 122.742V113.373H465.993V122.742H475.362Z" fill="#84DDF4"/>
<path d="M475.536 122.915H465.814V113.199H475.536V122.915ZM466.161 122.568H475.189V113.546H466.161V122.568Z" fill="black"/>
<path d="M494.1 132.117V122.748H484.731V132.117H494.1Z" fill="#84DDF4"/>
<path d="M494.274 132.29H484.558V122.568H494.274V132.29ZM484.905 131.943H493.926V122.916H484.905V131.943Z" fill="black"/>
<path d="M465.994 132.11V122.741H456.625V132.11H465.994Z" fill="#DFDFDF"/>
<path d="M466.161 132.29H456.445V122.568H466.161V132.29ZM456.793 131.943H465.814V122.916H456.793V131.943Z" fill="black"/>
<path d="M484.731 132.117V122.748H475.363V132.117H484.731Z" fill="#00E599"/>
<path d="M484.905 132.29H475.189V122.568H484.905V132.29ZM475.536 131.943H484.558V122.916H475.536V131.943Z" fill="black"/>
<path d="M494.1 122.742V113.373H484.731V122.742H494.1Z" fill="#00E599"/>
<path d="M494.274 122.915H484.558V113.199H494.274V122.915ZM484.905 122.568H493.926V113.546H484.905V122.568Z" fill="black"/>
<path d="M465.994 122.742V113.373H456.625V122.742H465.994Z" fill="#F76854"/>
<path d="M466.161 122.915H456.445V113.199H466.161V122.915ZM456.793 122.568H465.814V113.546H456.793V122.568Z" fill="black"/>
<path d="M475.362 132.11V122.741H465.993V132.11H475.362Z" fill="#FFC13D"/>
<path d="M475.536 132.29H465.814V122.568H475.536V132.29ZM466.161 131.943H475.189V122.916H466.161V131.943Z" fill="black"/>
<path d="M457.589 163.264C461.841 163.264 465.287 159.818 465.287 155.566C465.287 151.314 461.841 147.867 457.589 147.867C453.337 147.867 449.89 151.314 449.89 155.566C449.89 159.818 453.337 163.264 457.589 163.264Z" fill="#BCCFE9"/>
<path d="M457.589 163.438C456.031 163.438 454.509 162.976 453.214 162.111C451.92 161.245 450.911 160.016 450.315 158.577C449.719 157.138 449.564 155.555 449.868 154.028C450.172 152.5 450.923 151.098 452.024 149.997C453.126 148.896 454.529 148.147 456.056 147.844C457.584 147.541 459.167 147.698 460.605 148.294C462.044 148.891 463.273 149.901 464.137 151.196C465.001 152.492 465.462 154.014 465.461 155.572C465.458 157.658 464.627 159.658 463.151 161.132C461.675 162.607 459.675 163.436 457.589 163.438ZM457.589 148.047C456.1 148.047 454.645 148.488 453.408 149.315C452.17 150.142 451.206 151.317 450.636 152.692C450.067 154.067 449.918 155.58 450.208 157.04C450.498 158.499 451.215 159.84 452.268 160.893C453.32 161.945 454.661 162.662 456.12 162.952C457.58 163.242 459.093 163.093 460.468 162.524C461.843 161.954 463.019 160.99 463.845 159.752C464.672 158.515 465.114 157.06 465.114 155.572C465.11 153.577 464.317 151.665 462.906 150.254C461.496 148.844 459.583 148.05 457.589 148.047Z" fill="black"/>
<path d="M457.972 155.063C457.948 155.063 457.925 155.058 457.903 155.049C457.882 155.04 457.862 155.026 457.846 155.009C457.815 154.976 457.797 154.932 457.797 154.887C457.797 154.841 457.815 154.797 457.846 154.764L460.707 151.902C460.74 151.871 460.784 151.854 460.829 151.855C460.875 151.855 460.918 151.873 460.95 151.905C460.982 151.937 461 151.981 461.001 152.026C461.001 152.071 460.984 152.115 460.953 152.148L458.109 155.009C458.092 155.029 458.071 155.044 458.047 155.053C458.023 155.062 457.997 155.066 457.972 155.063Z" fill="black"/>
<path d="M457.589 157.93C458.895 157.93 459.953 156.872 459.953 155.566C459.953 154.26 458.895 153.201 457.589 153.201C456.283 153.201 455.224 154.26 455.224 155.566C455.224 156.872 456.283 157.93 457.589 157.93Z" fill="#84DDF4"/>
<path d="M457.589 158.11C457.085 158.111 456.592 157.963 456.173 157.684C455.754 157.405 455.427 157.007 455.233 156.542C455.04 156.077 454.989 155.565 455.087 155.071C455.185 154.577 455.428 154.123 455.784 153.767C456.14 153.411 456.594 153.168 457.088 153.07C457.582 152.972 458.094 153.023 458.559 153.216C459.024 153.41 459.422 153.737 459.701 154.156C459.98 154.575 460.128 155.068 460.127 155.572C460.127 156.245 459.86 156.891 459.384 157.367C458.908 157.843 458.262 158.11 457.589 158.11ZM457.589 153.375C457.154 153.373 456.729 153.501 456.367 153.742C456.004 153.983 455.722 154.325 455.555 154.727C455.388 155.128 455.343 155.57 455.427 155.997C455.511 156.423 455.72 156.815 456.027 157.123C456.334 157.431 456.726 157.641 457.152 157.726C457.578 157.811 458.02 157.768 458.422 157.602C458.824 157.436 459.168 157.154 459.409 156.793C459.651 156.432 459.78 156.007 459.78 155.572C459.78 154.99 459.549 154.432 459.138 154.02C458.728 153.608 458.17 153.376 457.589 153.375Z" fill="black"/>
<path d="M494.699 163.264C498.951 163.264 502.398 159.818 502.398 155.566C502.398 151.314 498.951 147.867 494.699 147.867C490.447 147.867 487 151.314 487 155.566C487 159.818 490.447 163.264 494.699 163.264Z" fill="#BCCFE9"/>
<path d="M494.699 163.438C493.142 163.438 491.619 162.976 490.325 162.111C489.03 161.245 488.021 160.016 487.425 158.577C486.83 157.138 486.674 155.555 486.978 154.028C487.283 152.5 488.033 151.098 489.135 149.997C490.236 148.896 491.639 148.147 493.167 147.844C494.694 147.541 496.277 147.698 497.716 148.294C499.154 148.891 500.383 149.901 501.247 151.196C502.112 152.492 502.572 154.014 502.571 155.572C502.568 157.658 501.737 159.658 500.262 161.132C498.786 162.607 496.785 163.436 494.699 163.438ZM494.699 148.047C493.211 148.047 491.756 148.488 490.518 149.315C489.281 150.142 488.316 151.317 487.747 152.692C487.177 154.067 487.028 155.58 487.318 157.04C487.609 158.499 488.326 159.84 489.378 160.893C490.43 161.945 491.771 162.662 493.231 162.952C494.691 163.242 496.204 163.093 497.579 162.524C498.954 161.954 500.129 160.99 500.956 159.752C501.783 158.515 502.224 157.06 502.224 155.572C502.221 153.577 501.427 151.665 500.016 150.254C498.606 148.844 496.694 148.05 494.699 148.047Z" fill="black"/>
<path d="M491.454 159.284C491.41 159.282 491.368 159.265 491.335 159.236C491.303 159.202 491.286 159.157 491.286 159.11C491.286 159.064 491.303 159.019 491.335 158.985L494.196 156.129C494.229 156.098 494.273 156.081 494.318 156.081C494.363 156.082 494.407 156.1 494.439 156.132C494.471 156.164 494.489 156.207 494.49 156.253C494.49 156.298 494.473 156.342 494.442 156.374L491.58 159.236C491.545 159.267 491.501 159.284 491.454 159.284Z" fill="black"/>
<path d="M494.699 157.93C496.005 157.93 497.063 156.872 497.063 155.566C497.063 154.26 496.005 153.201 494.699 153.201C493.393 153.201 492.334 154.26 492.334 155.566C492.334 156.872 493.393 157.93 494.699 157.93Z" fill="#84DDF4"/>
<path d="M494.699 158.11C494.195 158.111 493.703 157.963 493.283 157.684C492.864 157.405 492.537 157.007 492.344 156.542C492.15 156.077 492.1 155.565 492.198 155.071C492.296 154.577 492.538 154.123 492.894 153.767C493.25 153.411 493.704 153.168 494.198 153.07C494.692 152.972 495.204 153.023 495.67 153.216C496.135 153.41 496.532 153.737 496.811 154.156C497.09 154.575 497.239 155.068 497.237 155.572C497.237 156.245 496.97 156.891 496.494 157.367C496.018 157.843 495.372 158.11 494.699 158.11ZM494.699 153.375C494.264 153.373 493.839 153.501 493.477 153.742C493.115 153.983 492.832 154.325 492.665 154.727C492.498 155.128 492.454 155.57 492.538 155.997C492.622 156.423 492.83 156.815 493.138 157.123C493.445 157.431 493.836 157.641 494.262 157.726C494.689 157.811 495.131 157.768 495.533 157.602C495.934 157.436 496.278 157.154 496.52 156.793C496.761 156.432 496.89 156.007 496.89 155.572C496.89 154.99 496.66 154.432 496.249 154.02C495.838 153.608 495.281 153.376 494.699 153.375Z" fill="black"/>
<path d="M441.773 174.076H441.425V191.198H441.773V174.076Z" fill="black"/>
<path d="M465.898 174.076H465.551V191.198H465.898V174.076Z" fill="black"/>
<path d="M514.161 174.076H513.814V191.198H514.161V174.076Z" fill="black"/>
<path d="M490.029 174.076H489.682V191.198H490.029V174.076Z" fill="black"/>
<path d="M441.599 189.593C442.879 189.593 443.916 188.555 443.916 187.276C443.916 185.996 442.879 184.959 441.599 184.959C440.319 184.959 439.282 185.996 439.282 187.276C439.282 188.555 440.319 189.593 441.599 189.593Z" fill="#DFDFDF"/>
<path d="M441.599 189.767C441.106 189.767 440.625 189.621 440.215 189.347C439.806 189.074 439.486 188.685 439.298 188.23C439.109 187.774 439.06 187.274 439.156 186.791C439.252 186.308 439.49 185.864 439.838 185.516C440.186 185.167 440.63 184.93 441.113 184.834C441.596 184.738 442.097 184.787 442.552 184.976C443.007 185.164 443.396 185.483 443.669 185.893C443.943 186.302 444.089 186.784 444.089 187.277C444.088 187.937 443.825 188.569 443.358 189.036C442.891 189.502 442.259 189.765 441.599 189.767ZM441.599 185.133C441.175 185.133 440.761 185.259 440.408 185.495C440.056 185.73 439.781 186.065 439.619 186.456C439.457 186.848 439.414 187.279 439.497 187.695C439.579 188.11 439.784 188.492 440.083 188.792C440.383 189.092 440.765 189.296 441.181 189.378C441.596 189.461 442.027 189.419 442.419 189.257C442.811 189.094 443.145 188.82 443.381 188.467C443.616 188.115 443.742 187.7 443.742 187.277C443.742 186.708 443.516 186.163 443.114 185.761C442.712 185.359 442.167 185.133 441.599 185.133Z" fill="black"/>
<path d="M465.724 183.348C467.004 183.348 468.041 182.311 468.041 181.032C468.041 179.752 467.004 178.715 465.724 178.715C464.445 178.715 463.408 179.752 463.408 181.032C463.408 182.311 464.445 183.348 465.724 183.348Z" fill="#DFDFDF"/>
<path d="M465.724 183.529C465.231 183.529 464.748 183.382 464.337 183.108C463.927 182.834 463.607 182.444 463.418 181.988C463.229 181.532 463.18 181.03 463.276 180.545C463.372 180.061 463.61 179.616 463.959 179.267C464.308 178.918 464.753 178.68 465.237 178.584C465.722 178.488 466.224 178.537 466.68 178.726C467.136 178.915 467.526 179.235 467.8 179.646C468.074 180.056 468.221 180.539 468.221 181.033C468.221 181.695 467.958 182.33 467.49 182.798C467.021 183.266 466.386 183.529 465.724 183.529ZM465.724 178.889C465.299 178.889 464.883 179.016 464.53 179.252C464.176 179.488 463.901 179.824 463.738 180.217C463.576 180.61 463.534 181.043 463.617 181.46C463.7 181.877 463.906 182.26 464.207 182.56C464.508 182.861 464.892 183.065 465.309 183.147C465.726 183.229 466.158 183.186 466.551 183.022C466.944 182.859 467.279 182.582 467.514 182.228C467.75 181.874 467.875 181.458 467.874 181.033C467.872 180.464 467.645 179.918 467.242 179.517C466.839 179.115 466.293 178.889 465.724 178.889Z" fill="black"/>
<path d="M489.856 187.276C491.135 187.276 492.173 186.239 492.173 184.959C492.173 183.68 491.135 182.643 489.856 182.643C488.576 182.643 487.539 183.68 487.539 184.959C487.539 186.239 488.576 187.276 489.856 187.276Z" fill="#DFDFDF"/>
<path d="M489.838 187.45C489.344 187.451 488.86 187.305 488.449 187.032C488.037 186.758 487.716 186.368 487.527 185.911C487.337 185.455 487.287 184.953 487.383 184.468C487.479 183.983 487.717 183.538 488.067 183.188C488.416 182.839 488.861 182.601 489.346 182.505C489.831 182.409 490.334 182.459 490.79 182.648C491.246 182.838 491.636 183.159 491.91 183.57C492.184 183.982 492.329 184.465 492.328 184.959C492.328 185.62 492.066 186.253 491.599 186.72C491.132 187.187 490.498 187.45 489.838 187.45ZM489.838 182.81C489.412 182.809 488.996 182.934 488.642 183.17C488.288 183.405 488.012 183.74 487.848 184.133C487.684 184.525 487.641 184.958 487.723 185.375C487.805 185.792 488.01 186.176 488.31 186.477C488.61 186.778 488.993 186.983 489.41 187.067C489.827 187.15 490.26 187.108 490.653 186.946C491.046 186.783 491.382 186.508 491.618 186.154C491.855 185.8 491.981 185.385 491.981 184.959C491.981 184.39 491.755 183.845 491.354 183.442C490.952 183.039 490.407 182.812 489.838 182.81Z" fill="black"/>
<path d="M513.987 178.716C515.267 178.716 516.304 177.678 516.304 176.399C516.304 175.119 515.267 174.082 513.987 174.082C512.708 174.082 511.67 175.119 511.67 176.399C511.67 177.678 512.708 178.716 513.987 178.716Z" fill="#DFDFDF"/>
<path d="M513.987 178.889C513.493 178.89 513.009 178.745 512.598 178.471C512.187 178.197 511.866 177.807 511.676 177.351C511.486 176.895 511.436 176.392 511.533 175.907C511.629 175.422 511.867 174.977 512.216 174.628C512.566 174.278 513.011 174.04 513.496 173.944C513.98 173.848 514.483 173.898 514.939 174.088C515.396 174.277 515.786 174.598 516.059 175.01C516.333 175.421 516.479 175.905 516.478 176.399C516.476 177.059 516.213 177.691 515.746 178.158C515.28 178.625 514.647 178.888 513.987 178.889ZM513.987 174.25C513.562 174.248 513.146 174.374 512.792 174.609C512.437 174.844 512.161 175.18 511.997 175.572C511.834 175.965 511.79 176.397 511.873 176.814C511.955 177.232 512.159 177.615 512.459 177.916C512.76 178.218 513.143 178.423 513.56 178.506C513.977 178.59 514.409 178.547 514.802 178.385C515.195 178.222 515.531 177.947 515.768 177.593C516.004 177.24 516.13 176.824 516.13 176.399C516.13 175.83 515.905 175.284 515.503 174.881C515.101 174.478 514.556 174.251 513.987 174.25Z" fill="black"/>
<path d="M449.07 97.0299H502.218L509.929 73.5928H441.593L449.07 97.0299Z" fill="#FFC13D"/>
<path d="M502.344 97.2033H448.944L448.902 97.0835L441.347 73.4189H510.192L510.114 73.6524L502.344 97.2033ZM449.195 96.8561H502.092L509.689 73.7662H441.832L449.195 96.8561Z" fill="black"/>
<path d="M490.401 86.7266C491.76 86.7266 492.861 85.625 492.861 84.2661C492.861 82.9072 491.76 81.8057 490.401 81.8057C489.042 81.8057 487.94 82.9072 487.94 84.2661C487.94 85.625 489.042 86.7266 490.401 86.7266Z" fill="#020B02"/>
<path d="M489.509 84.8592C490.104 84.8592 490.586 84.3768 490.586 83.7817C490.586 83.1865 490.104 82.7041 489.509 82.7041C488.914 82.7041 488.431 83.1865 488.431 83.7817C488.431 84.3768 488.914 84.8592 489.509 84.8592Z" fill="#FEFFFC"/>
<path d="M496.974 86.7266C498.333 86.7266 499.435 85.625 499.435 84.2661C499.435 82.9072 498.333 81.8057 496.974 81.8057C495.615 81.8057 494.514 82.9072 494.514 84.2661C494.514 85.625 495.615 86.7266 496.974 86.7266Z" fill="#020B02"/>
<path d="M497.459 84.4579C498.054 84.4579 498.536 83.9754 498.536 83.3803C498.536 82.7852 498.054 82.3027 497.459 82.3027C496.864 82.3027 496.381 82.7852 496.381 83.3803C496.381 83.9754 496.864 84.4579 497.459 84.4579Z" fill="#FEFFFC"/>
<path d="M493.723 87.6133L490.934 92.1211H496.549L493.723 87.6133Z" fill="#F76854" stroke="black" stroke-width="0.6" stroke-miterlimit="10"/>
<path d="M447.765 50.1738H503.511L511.605 74.7544H439.923L447.765 50.1738Z" fill="#FFC13D"/>
<path d="M511.844 74.9278H439.683L439.755 74.7003L447.633 50H503.637L511.844 74.9278ZM440.15 74.5805H511.389L503.385 50.3472H447.891L440.15 74.5805Z" fill="black"/>
<path d="M457.334 67H456.002L452.988 62.4447V67H451.656V60.3525H452.988L456.002 64.9173V60.3525H457.334V67ZM463.547 64.2516C463.547 64.4418 463.534 64.613 463.509 64.7651H459.657C459.689 65.1455 459.822 65.4435 460.057 65.6591C460.291 65.8746 460.58 65.9824 460.922 65.9824C461.417 65.9824 461.769 65.77 461.978 65.3453H463.414C463.262 65.8525 462.97 66.2709 462.539 66.6006C462.108 66.9239 461.578 67.0856 460.951 67.0856C460.444 67.0856 459.987 66.9746 459.581 66.7527C459.182 66.5245 458.868 66.2043 458.64 65.7922C458.418 65.3801 458.307 64.9046 458.307 64.3657C458.307 63.8205 458.418 63.3418 458.64 62.9297C458.862 62.5176 459.172 62.2006 459.572 61.9787C459.971 61.7568 460.431 61.6459 460.951 61.6459C461.452 61.6459 461.899 61.7536 462.292 61.9692C462.691 62.1848 462.999 62.4923 463.214 62.8917C463.436 63.2848 463.547 63.7381 463.547 64.2516ZM462.168 63.8712C462.162 63.5288 462.038 63.2562 461.797 63.0533C461.556 62.8441 461.261 62.7395 460.913 62.7395C460.583 62.7395 460.304 62.841 460.076 63.0438C459.854 63.2404 459.718 63.5162 459.667 63.8712H462.168ZM466.858 67.0856C466.351 67.0856 465.895 66.9746 465.489 66.7527C465.083 66.5245 464.763 66.2043 464.528 65.7922C464.3 65.3801 464.186 64.9046 464.186 64.3657C464.186 63.8268 464.303 63.3513 464.538 62.9392C464.779 62.5271 465.105 62.2101 465.517 61.9882C465.929 61.76 466.389 61.6459 466.896 61.6459C467.404 61.6459 467.863 61.76 468.275 61.9882C468.687 62.2101 469.011 62.5271 469.245 62.9392C469.486 63.3513 469.607 63.8268 469.607 64.3657C469.607 64.9046 469.483 65.3801 469.236 65.7922C468.995 66.2043 468.665 66.5245 468.247 66.7527C467.835 66.9746 467.372 67.0856 466.858 67.0856ZM466.858 65.9254C467.099 65.9254 467.324 65.8683 467.534 65.7542C467.749 65.6337 467.92 65.4562 468.047 65.2216C468.174 64.987 468.237 64.7017 468.237 64.3657C468.237 63.8649 468.104 63.4813 467.838 63.215C467.578 62.9424 467.258 62.8061 466.877 62.8061C466.497 62.8061 466.177 62.9424 465.917 63.215C465.663 63.4813 465.536 63.8649 465.536 64.3657C465.536 64.8666 465.66 65.2533 465.907 65.5259C466.161 65.7922 466.478 65.9254 466.858 65.9254ZM474.349 63.5954C474.723 63.6652 475.031 63.8522 475.272 64.1565C475.513 64.4608 475.633 64.8095 475.633 65.2026C475.633 65.5576 475.544 65.8715 475.367 66.1441C475.196 66.4104 474.945 66.6196 474.616 66.7718C474.286 66.9239 473.896 67 473.446 67H470.583V60.362H473.322C473.772 60.362 474.159 60.4349 474.482 60.5807C474.812 60.7266 475.059 60.9294 475.224 61.1894C475.395 61.4493 475.481 61.7441 475.481 62.0738C475.481 62.4606 475.376 62.7839 475.167 63.0438C474.964 63.3038 474.692 63.4876 474.349 63.5954ZM471.915 63.1009H473.132C473.449 63.1009 473.693 63.0312 473.864 62.8917C474.035 62.7459 474.121 62.5398 474.121 62.2735C474.121 62.0072 474.035 61.8012 473.864 61.6554C473.693 61.5096 473.449 61.4366 473.132 61.4366H471.915V63.1009ZM473.256 65.9159C473.579 65.9159 473.829 65.8398 474.007 65.6876C474.191 65.5355 474.283 65.3199 474.283 65.0409C474.283 64.7556 474.188 64.5337 473.997 64.3752C473.807 64.2104 473.55 64.128 473.227 64.128H471.915V65.9159H473.256ZM481.668 61.7315V67H480.327V66.3343C480.156 66.5625 479.931 66.7432 479.652 66.8764C479.379 67.0032 479.081 67.0666 478.758 67.0666C478.346 67.0666 477.981 66.981 477.664 66.8098C477.347 66.6323 477.097 66.3755 476.913 66.0395C476.735 65.6971 476.647 65.2914 476.647 64.8222V61.7315H477.978V64.632C477.978 65.0504 478.083 65.3738 478.292 65.602C478.501 65.8239 478.786 65.9349 479.148 65.9349C479.516 65.9349 479.804 65.8239 480.013 65.602C480.222 65.3738 480.327 65.0504 480.327 64.632V61.7315H481.668ZM484.313 62.5493C484.484 62.2704 484.706 62.0516 484.979 61.8931C485.258 61.7346 485.575 61.6554 485.93 61.6554V63.0533H485.578C485.159 63.0533 484.842 63.1516 484.627 63.3482C484.418 63.5447 484.313 63.8871 484.313 64.3752V67H482.982V61.7315H484.313V62.5493ZM488.89 61.6459C489.283 61.6459 489.629 61.7251 489.927 61.8836C490.225 62.0358 490.459 62.2355 490.63 62.4827V61.7315H491.971V67.038C491.971 67.5262 491.873 67.9605 491.677 68.3409C491.48 68.7277 491.185 69.032 490.792 69.2539C490.399 69.4821 489.924 69.5962 489.366 69.5962C488.618 69.5962 488.003 69.4219 487.521 69.0732C487.045 68.7245 486.776 68.249 486.712 67.6467H488.034C488.104 67.8876 488.253 68.0778 488.481 68.2173C488.716 68.3631 488.998 68.436 489.328 68.436C489.714 68.436 490.028 68.3187 490.269 68.0841C490.51 67.8559 490.63 67.5072 490.63 67.038V66.2202C490.459 66.4674 490.222 66.6735 489.917 66.8383C489.619 67.0032 489.277 67.0856 488.89 67.0856C488.446 67.0856 488.041 66.9715 487.673 66.7432C487.305 66.515 487.014 66.1948 486.798 65.7827C486.589 65.3643 486.484 64.8856 486.484 64.3467C486.484 63.8141 486.589 63.3418 486.798 62.9297C487.014 62.5176 487.302 62.2006 487.663 61.9787C488.031 61.7568 488.44 61.6459 488.89 61.6459ZM490.63 64.3657C490.63 64.0424 490.567 63.7666 490.44 63.5384C490.313 63.3038 490.142 63.1263 489.927 63.0058C489.711 62.879 489.48 62.8156 489.233 62.8156C488.985 62.8156 488.757 62.8758 488.548 62.9963C488.339 63.1167 488.167 63.2943 488.034 63.5288C487.907 63.7571 487.844 64.0297 487.844 64.3467C487.844 64.6637 487.907 64.9427 488.034 65.1836C488.167 65.4182 488.339 65.5989 488.548 65.7257C488.763 65.8525 488.992 65.9159 489.233 65.9159C489.48 65.9159 489.711 65.8556 489.927 65.7352C490.142 65.6084 490.313 65.4308 490.44 65.2026C490.567 64.968 490.63 64.6891 490.63 64.3657ZM498.169 64.2516C498.169 64.4418 498.157 64.613 498.131 64.7651H494.28C494.311 65.1455 494.445 65.4435 494.679 65.6591C494.914 65.8746 495.202 65.9824 495.545 65.9824C496.039 65.9824 496.391 65.77 496.6 65.3453H498.036C497.884 65.8525 497.592 66.2709 497.161 66.6006C496.73 66.9239 496.201 67.0856 495.573 67.0856C495.066 67.0856 494.609 66.9746 494.204 66.7527C493.804 66.5245 493.49 66.2043 493.262 65.7922C493.04 65.3801 492.929 64.9046 492.929 64.3657C492.929 63.8205 493.04 63.3418 493.262 62.9297C493.484 62.5176 493.795 62.2006 494.194 61.9787C494.594 61.7568 495.053 61.6459 495.573 61.6459C496.074 61.6459 496.521 61.7536 496.914 61.9692C497.313 62.1848 497.621 62.4923 497.837 62.8917C498.058 63.2848 498.169 63.7381 498.169 64.2516ZM496.79 63.8712C496.784 63.5288 496.66 63.2562 496.42 63.0533C496.179 62.8441 495.884 62.7395 495.535 62.7395C495.205 62.7395 494.926 62.841 494.698 63.0438C494.476 63.2404 494.34 63.5162 494.289 63.8712H496.79ZM500.473 62.5493C500.644 62.2704 500.866 62.0516 501.138 61.8931C501.417 61.7346 501.734 61.6554 502.089 61.6554V63.0533H501.737C501.319 63.0533 501.002 63.1516 500.786 63.3482C500.577 63.5447 500.473 63.8871 500.473 64.3752V67H499.141V61.7315H500.473V62.5493Z" fill="#11101F"/>
<path d="M179.135 76.3262H52.3262V166.416H179.135V76.3262Z" fill="#BCCFE9"/>
<path d="M179.466 166.747H52V76H179.466V166.747ZM52.6573 166.09H178.809V76.6573H52.6573V166.09Z" fill="black"/>
<path d="M179.135 76.3262H52.3262V93.5421H179.135V76.3262Z" fill="#BCCFE9"/>
<path d="M179.466 93.8732H52V76H179.466V93.8732ZM52.6573 93.216H178.809V76.6573H52.6573V93.216Z" fill="black"/>
<path d="M61.777 88.2283C61.2112 88.2293 60.6579 88.0624 60.1871 87.7487C59.7162 87.435 59.3491 86.9887 59.1321 86.4662C58.9152 85.9437 58.8581 85.3686 58.9682 84.8136C59.0784 84.2587 59.3507 83.7489 59.7507 83.3489C60.1508 82.9488 60.6606 82.6765 61.2155 82.5664C61.7704 82.4563 62.3455 82.5133 62.868 82.7303C63.3905 82.9472 63.8369 83.3144 64.1506 83.7852C64.4642 84.256 64.6312 84.8093 64.6301 85.3751C64.6288 86.1314 64.3278 86.8563 63.793 87.3911C63.2582 87.9259 62.5333 88.2269 61.777 88.2283ZM61.777 83.1741C61.3416 83.1741 60.9161 83.3032 60.5541 83.545C60.1922 83.7869 59.9101 84.1306 59.7435 84.5328C59.5769 84.935 59.5333 85.3775 59.6182 85.8045C59.7031 86.2315 59.9128 86.6236 60.2206 86.9315C60.5284 87.2393 60.9206 87.4489 61.3476 87.5338C61.7745 87.6188 62.2171 87.5752 62.6193 87.4086C63.0214 87.242 63.3652 86.9599 63.607 86.5979C63.8489 86.236 63.978 85.8104 63.978 85.3751C63.9726 84.7949 63.7383 84.2403 63.3262 83.8319C62.914 83.4235 62.3572 83.1944 61.777 83.1944V83.1741Z" fill="black"/>
<path d="M70.6117 87.9832C70.0464 87.9832 69.4938 87.8155 69.0237 87.5015C68.5537 87.1874 68.1873 86.741 67.971 86.2187C67.7547 85.6964 67.6981 85.1217 67.8083 84.5673C67.9186 84.0128 68.1909 83.5035 68.5906 83.1038C68.9903 82.704 69.4996 82.4318 70.0541 82.3215C70.6085 82.2112 71.1832 82.2678 71.7055 82.4842C72.2278 82.7005 72.6742 83.0669 72.9883 83.5369C73.3024 84.007 73.47 84.5596 73.47 85.1249C73.47 85.883 73.1689 86.61 72.6328 87.146C72.0968 87.682 71.3698 87.9832 70.6117 87.9832ZM70.6117 82.9239C70.1764 82.9239 69.7508 83.0529 69.3889 83.2948C69.0269 83.5366 68.7448 83.8804 68.5782 84.2826C68.4116 84.6848 68.368 85.1273 68.453 85.5543C68.5379 85.9812 68.7475 86.3734 69.0553 86.6813C69.3632 86.9891 69.7553 87.1987 70.1823 87.2836C70.6093 87.3686 71.0518 87.325 71.454 87.1584C71.8562 86.9918 72.1999 86.7097 72.4418 86.3477C72.6837 85.9858 72.8127 85.5602 72.8127 85.1249C72.8114 84.5416 72.5791 83.9825 72.1666 83.57C71.7541 83.1575 71.195 82.9252 70.6117 82.9239Z" fill="black"/>
<path d="M79.5487 87.9832C78.9834 87.9832 78.4308 87.8155 77.9607 87.5015C77.4907 87.1874 77.1243 86.741 76.908 86.2187C76.6917 85.6964 76.6351 85.1217 76.7454 84.5673C76.8556 84.0128 77.1279 83.5035 77.5276 83.1038C77.9273 82.704 78.4366 82.4318 78.9911 82.3215C79.5455 82.2112 80.1203 82.2678 80.6425 82.4842C81.1648 82.7005 81.6112 83.0669 81.9253 83.5369C82.2394 84.007 82.407 84.5596 82.407 85.1249C82.407 85.883 82.1059 86.61 81.5698 87.146C81.0338 87.682 80.3068 87.9832 79.5487 87.9832ZM79.5487 82.9239C79.1134 82.9239 78.6878 83.0529 78.3259 83.2948C77.9639 83.5366 77.6818 83.8804 77.5152 84.2826C77.3486 84.6848 77.305 85.1273 77.39 85.5543C77.4749 85.9812 77.6845 86.3734 77.9924 86.6813C78.3002 86.9891 78.6924 87.1987 79.1193 87.2836C79.5463 87.3686 79.9888 87.325 80.391 87.1584C80.7932 86.9918 81.137 86.7097 81.3788 86.3477C81.6207 85.9858 81.7498 85.5602 81.7498 85.1249C81.7484 84.5416 81.5161 83.9825 81.1036 83.57C80.6911 83.1575 80.1321 82.9252 79.5487 82.9239Z" fill="black"/>
<path d="M74.9272 192.955C74.1714 192.955 73.4326 192.731 72.8042 192.311C72.1758 191.891 71.6861 191.294 71.3968 190.596C71.1076 189.898 71.0319 189.13 71.1794 188.388C71.3268 187.647 71.6908 186.966 72.2252 186.432C72.7596 185.897 73.4405 185.533 74.1817 185.386C74.923 185.238 75.6913 185.314 76.3895 185.603C77.0878 185.893 77.6846 186.382 78.1044 187.011C78.5243 187.639 78.7484 188.378 78.7484 189.134C78.7457 190.146 78.3423 191.117 77.6262 191.833C76.9102 192.549 75.9398 192.952 74.9272 192.955ZM74.9272 185.97C74.3014 185.97 73.6897 186.155 73.1694 186.503C72.6491 186.851 72.2435 187.345 72.0041 187.923C71.7646 188.501 71.7019 189.137 71.824 189.751C71.9461 190.365 72.2474 190.929 72.6899 191.371C73.1324 191.814 73.6962 192.115 74.3099 192.237C74.9237 192.359 75.5599 192.296 76.138 192.057C76.7161 191.817 77.2103 191.412 77.558 190.892C77.9056 190.371 78.0912 189.76 78.0912 189.134C78.0898 188.295 77.7561 187.491 77.163 186.898C76.5699 186.305 75.7659 185.971 74.9272 185.97Z" fill="black"/>
<path d="M75.274 166.416H74.6167V185.232H75.274V166.416Z" fill="black"/>
<path d="M148.28 103.844H83.1864C73.5067 103.844 65.6597 111.691 65.6597 121.37C65.6597 131.05 73.5067 138.897 83.1864 138.897H148.28C157.96 138.897 165.807 131.05 165.807 121.37C165.807 111.691 157.96 103.844 148.28 103.844Z" fill="#A09BE2"/>
<path d="M148.295 139.229H83.1864C80.8416 139.229 78.5198 138.767 76.3535 137.87C74.1872 136.973 72.2188 135.658 70.5608 134C68.9027 132.342 67.5875 130.373 66.6902 128.207C65.7929 126.041 65.3311 123.719 65.3311 121.374C65.3311 119.029 65.7929 116.707 66.6902 114.541C67.5875 112.375 68.9027 110.406 70.5608 108.748C72.2188 107.09 74.1872 105.775 76.3535 104.878C78.5198 103.98 80.8416 103.519 83.1864 103.519H148.295C153.031 103.519 157.572 105.4 160.921 108.748C164.269 112.097 166.151 116.638 166.151 121.374C166.151 126.109 164.269 130.651 160.921 134C157.572 137.348 153.031 139.229 148.295 139.229ZM83.1864 104.176C80.903 104.137 78.6347 104.552 76.5137 105.399C74.3927 106.246 72.4615 107.506 70.8328 109.107C69.2041 110.708 67.9105 112.617 67.0275 114.723C66.1445 116.829 65.6897 119.09 65.6897 121.374C65.6897 123.658 66.1445 125.919 67.0275 128.025C67.9105 130.131 69.2041 132.04 70.8328 133.641C72.4615 135.242 74.3927 136.502 76.5137 137.349C78.6347 138.196 80.903 138.611 83.1864 138.572H148.295C150.579 138.611 152.847 138.196 154.968 137.349C157.089 136.502 159.02 135.242 160.649 133.641C162.278 132.04 163.571 130.131 164.454 128.025C165.337 125.919 165.792 123.658 165.792 121.374C165.792 119.09 165.337 116.829 164.454 114.723C163.571 112.617 162.278 110.708 160.649 109.107C159.02 107.506 157.089 106.246 154.968 105.399C152.847 104.552 150.579 104.137 148.295 104.176H83.1864Z" fill="black"/>
<path d="M98.064 115.456H77.791C77.791 115.456 78.7183 128.29 89.0407 129.686H109.319C109.319 129.686 108.386 116.852 98.064 115.456Z" fill="white"/>
<path d="M109.67 130.007H89.0407C78.5349 128.596 77.4751 115.614 77.4751 115.481V115.13H98.1098C108.575 116.541 109.635 129.528 109.645 129.656L109.67 130.007ZM78.1527 115.787C78.4024 117.825 80.099 128.148 89.0866 129.36H108.957C108.707 127.322 107.016 117.015 98.0486 115.787H78.1527Z" fill="black"/>
<path d="M96.5657 129.686C100.26 129.686 103.255 126.502 103.255 122.574C103.255 118.645 100.26 115.461 96.5657 115.461C92.8711 115.461 89.876 118.645 89.876 122.574C89.876 126.502 92.8711 129.686 96.5657 129.686Z" fill="black"/>
<path d="M96.5659 130.007C92.6988 130.007 89.5552 126.67 89.5552 122.569C89.5552 118.467 92.6988 115.13 96.5659 115.13C100.433 115.13 103.582 118.467 103.582 122.574C103.582 126.68 100.438 130.007 96.5659 130.007ZM96.5659 115.782C93.0605 115.782 90.2073 118.839 90.2073 122.569C90.2073 126.298 93.0605 129.355 96.5659 129.355C100.071 129.355 102.95 126.313 102.95 122.574C102.95 118.834 100.076 115.787 96.5659 115.787V115.782Z" fill="black"/>
<path d="M142.421 115.456H122.148C122.148 115.456 123.08 128.29 133.403 129.686H153.676C153.676 129.686 152.743 116.852 142.421 115.456Z" fill="white"/>
<path d="M154.027 130.007H133.403C122.892 128.591 121.832 115.609 121.822 115.477V115.125H142.492C152.957 116.536 154.017 129.523 154.027 129.651V130.007ZM122.515 115.787C122.764 117.825 124.456 128.148 133.449 129.36H153.319C153.074 127.322 151.383 117.015 142.411 115.787H122.515Z" fill="black"/>
<path d="M140.892 129.686C144.564 129.686 147.541 126.502 147.541 122.574C147.541 118.645 144.564 115.461 140.892 115.461C137.22 115.461 134.243 118.645 134.243 122.574C134.243 126.502 137.22 129.686 140.892 129.686Z" fill="black"/>
<path d="M140.887 130.007C137.04 130.007 133.912 126.67 133.912 122.569C133.912 118.467 137.04 115.125 140.887 115.125C144.734 115.125 147.867 118.462 147.867 122.569C147.867 126.675 144.729 130.007 140.887 130.007ZM140.887 115.782C137.402 115.782 134.569 118.839 134.569 122.569C134.569 126.298 137.402 129.355 140.887 129.355C144.372 129.355 147.21 126.298 147.21 122.569C147.21 118.839 144.377 115.787 140.887 115.787V115.782Z" fill="black"/>
<path d="M115.968 152.389C118.472 152.389 120.502 150.215 120.502 147.533C120.502 144.852 118.472 142.678 115.968 142.678C113.463 142.678 111.433 144.852 111.433 147.533C111.433 150.215 113.463 152.389 115.968 152.389Z" fill="black"/>
<path d="M115.967 152.716C113.282 152.716 111.102 150.392 111.102 147.534C111.102 144.676 113.282 142.353 115.967 142.353C118.652 142.353 120.828 144.676 120.828 147.534C120.828 150.392 118.647 152.716 115.967 152.716ZM115.967 143.035C113.644 143.035 111.759 145.073 111.759 147.56C111.759 150.046 113.644 152.084 115.967 152.084C118.291 152.084 120.176 150.046 120.176 147.56C120.176 145.073 118.285 143.01 115.967 143.01V143.035Z" fill="black"/>
<path d="M172.716 184.1L179.772 192.955L181.871 184.803C181.97 184.416 182.195 184.073 182.511 183.829C182.826 183.584 183.215 183.452 183.614 183.453C185.896 183.453 190.477 183.173 193.248 181.155C197.06 178.378 198.491 175.153 198.812 173.925C199.133 172.697 202.684 162.115 195.714 157.275C188.744 152.435 169.73 153.657 169.73 153.657C169.73 153.657 142.727 152.883 132.17 161.341C126.723 165.687 125.088 170.873 124.782 174.888C124.596 176.987 124.924 179.1 125.736 181.045C126.548 182.99 127.82 184.708 129.444 186.051C130.257 186.776 131.252 187.265 132.323 187.468C135.614 187.855 139.94 186.759 139.94 186.759C139.94 186.759 151.694 184.11 162.979 183.983L171.253 183.473C171.53 183.451 171.807 183.497 172.062 183.606C172.316 183.715 172.541 183.885 172.716 184.1Z" fill="#FFC13D" stroke="black" stroke-width="1.1" stroke-miterlimit="10"/>
<path d="M141.208 168.122C141.208 168.122 153.818 162.976 162.515 162.874C168.278 162.722 174.01 161.964 179.614 160.612" fill="#FFC13D"/>
<path d="M141.208 168.122C141.208 168.122 153.818 162.976 162.515 162.874C168.278 162.722 174.01 161.964 179.614 160.612" stroke="black" stroke-width="1.1" stroke-miterlimit="10"/>
<path d="M143.48 178.262C143.48 178.262 156.396 174.359 165.073 175.103C170.81 175.513 176.574 175.315 182.269 174.512" fill="#FFC13D"/>
<path d="M143.48 178.262C143.48 178.262 156.396 174.359 165.073 175.103C170.81 175.513 176.574 175.315 182.269 174.512" stroke="black" stroke-width="1.1" stroke-miterlimit="10"/>
<path d="M141.335 172.127C141.335 172.127 155.678 169.712 158.852 170.125C162.026 170.538 180.903 167.241 181.413 166.727" fill="#FFC13D"/>
<path d="M141.335 172.127C141.335 172.127 155.678 169.712 158.852 170.125C162.026 170.538 180.903 167.241 181.413 166.727" stroke="black" stroke-width="1.1" stroke-miterlimit="10"/>
<path d="M105.4 270.66V268.2H109.62V270.66H105.4ZM99.18 270.66C99.22 269.92 99.24 269.2 99.24 268.56V268.2H103V270.66H99.18ZM103 263.66V265.98H99.24V263.66H103ZM109.62 265.98H105.4V263.66H109.62V265.98ZM111.98 261.4H96.88V268.54C96.88 271.34 96.7 274.9 94.52 277.3C95.06 277.58 96.02 278.4 96.4 278.84C97.84 277.28 98.56 275.08 98.92 272.9H103V278.48H105.4V272.9H109.62V275.9C109.62 276.26 109.48 276.38 109.1 276.38C108.74 276.38 107.42 276.4 106.3 276.34C106.6 276.96 106.98 277.98 107.06 278.62C108.86 278.64 110.08 278.6 110.9 278.2C111.7 277.84 111.98 277.2 111.98 275.92V261.4ZM119.42 268.4C119.42 268.12 119.42 267.82 119.42 267.58V265.26H128.84V268.4H119.42ZM124.68 263.06L125.92 262.7C125.68 261.96 125.2 260.8 124.76 259.96L122.38 260.54C122.72 261.32 123.12 262.3 123.36 263.06H116.92V267.58C116.92 270.48 116.72 274.6 114.56 277.44C115.14 277.68 116.2 278.44 116.66 278.9C118.34 276.66 119.04 273.48 119.3 270.62H128.84V271.66H131.28V263.06H124.68Z" fill="black"/>
<path d="M283.186 75H284.594V68.84C284.594 67.608 284.482 66.36 284.418 65.176H284.482L285.746 67.592L290.018 75H291.538V63.272H290.13V69.368C290.13 70.584 290.242 71.896 290.322 73.08H290.242L288.994 70.664L284.722 63.272H283.186V75ZM294.733 75H301.677V73.736H296.221V69.464H300.669V68.2H296.221V64.52H301.501V63.272H294.733V75ZM308.475 75.208C311.419 75.208 313.483 72.856 313.483 69.096C313.483 65.336 311.419 63.048 308.475 63.048C305.531 63.048 303.467 65.336 303.467 69.096C303.467 72.856 305.531 75.208 308.475 75.208ZM308.475 73.912C306.363 73.912 304.987 72.024 304.987 69.096C304.987 66.152 306.363 64.344 308.475 64.344C310.571 64.344 311.963 66.152 311.963 69.096C311.963 72.024 310.571 73.912 308.475 73.912Z" fill="black"/>
<path d="M281.937 151.208C283.937 151.208 285.713 149.496 285.713 146.504C285.713 143.848 284.497 142.088 282.241 142.088C281.281 142.088 280.305 142.632 279.521 143.32L279.569 141.752V138.264H278.113V151H279.281L279.409 150.104H279.457C280.225 150.808 281.137 151.208 281.937 151.208ZM281.697 149.992C281.121 149.992 280.337 149.752 279.569 149.08V144.52C280.401 143.736 281.169 143.32 281.905 143.32C283.553 143.32 284.193 144.616 284.193 146.536C284.193 148.696 283.137 149.992 281.697 149.992ZM288.131 151H289.539V144.84C289.539 143.608 289.427 142.36 289.363 141.176H289.427L290.691 143.592L294.963 151H296.483V139.272H295.075V145.368C295.075 146.584 295.187 147.896 295.267 149.08H295.187L293.939 146.664L289.667 139.272H288.131V151ZM299.678 151H306.622V149.736H301.166V145.464H305.614V144.2H301.166V140.52H306.446V139.272H299.678V151ZM313.42 151.208C316.364 151.208 318.428 148.856 318.428 145.096C318.428 141.336 316.364 139.048 313.42 139.048C310.476 139.048 308.412 141.336 308.412 145.096C308.412 148.856 310.476 151.208 313.42 151.208ZM313.42 149.912C311.308 149.912 309.932 148.024 309.932 145.096C309.932 142.152 311.308 140.344 313.42 140.344C315.516 140.344 316.908 142.152 316.908 145.096C316.908 148.024 315.516 149.912 313.42 149.912Z" fill="black"/>
<path d="M289.091 226.208C290.675 226.208 291.971 225.632 292.723 224.848V219.92H288.883V221.152H291.363V224.224C290.899 224.656 290.083 224.912 289.235 224.912C286.723 224.912 285.331 223.056 285.331 220.096C285.331 217.168 286.867 215.344 289.219 215.344C290.419 215.344 291.171 215.84 291.763 216.464L292.563 215.504C291.891 214.784 290.819 214.048 289.187 214.048C286.083 214.048 283.811 216.352 283.811 220.144C283.811 223.952 286.003 226.208 289.091 226.208ZM296.908 221.232L297.484 219.44C297.9 218.112 298.284 216.848 298.652 215.472H298.716C299.1 216.832 299.468 218.112 299.9 219.44L300.46 221.232H296.908ZM301.948 226H303.516L299.532 214.272H297.884L293.9 226H295.404L296.54 222.416H300.828L301.948 226ZM308.434 226.208C310.882 226.208 312.418 224.736 312.418 222.88C312.418 221.136 311.362 220.336 310.002 219.744L308.322 219.024C307.41 218.64 306.386 218.208 306.386 217.072C306.386 216.016 307.25 215.344 308.578 215.344C309.666 215.344 310.53 215.776 311.25 216.448L312.034 215.504C311.202 214.64 309.97 214.048 308.578 214.048C306.45 214.048 304.882 215.36 304.882 217.168C304.882 218.88 306.178 219.712 307.266 220.176L308.962 220.912C310.066 221.408 310.914 221.792 310.914 222.992C310.914 224.144 309.986 224.912 308.45 224.912C307.234 224.912 306.05 224.336 305.202 223.456L304.322 224.464C305.346 225.536 306.77 226.208 308.434 226.208Z" fill="black"/>
<path d="M640.186 75H641.594V68.84C641.594 67.608 641.482 66.36 641.418 65.176H641.482L642.746 67.592L647.018 75H648.538V63.272H647.13V69.368C647.13 70.584 647.242 71.896 647.322 73.08H647.242L645.994 70.664L641.722 63.272H640.186V75ZM651.733 75H658.677V73.736H653.221V69.464H657.669V68.2H653.221V64.52H658.501V63.272H651.733V75ZM665.475 75.208C668.419 75.208 670.483 72.856 670.483 69.096C670.483 65.336 668.419 63.048 665.475 63.048C662.531 63.048 660.467 65.336 660.467 69.096C660.467 72.856 662.531 75.208 665.475 75.208ZM665.475 73.912C663.363 73.912 661.987 72.024 661.987 69.096C661.987 66.152 663.363 64.344 665.475 64.344C667.571 64.344 668.963 66.152 668.963 69.096C668.963 72.024 667.571 73.912 665.475 73.912Z" fill="black"/>
<path d="M646.091 226.208C647.675 226.208 648.971 225.632 649.723 224.848V219.92H645.883V221.152H648.363V224.224C647.899 224.656 647.083 224.912 646.235 224.912C643.723 224.912 642.331 223.056 642.331 220.096C642.331 217.168 643.867 215.344 646.219 215.344C647.419 215.344 648.171 215.84 648.763 216.464L649.563 215.504C648.891 214.784 647.819 214.048 646.187 214.048C643.083 214.048 640.811 216.352 640.811 220.144C640.811 223.952 643.003 226.208 646.091 226.208ZM653.908 221.232L654.484 219.44C654.9 218.112 655.284 216.848 655.652 215.472H655.716C656.1 216.832 656.468 218.112 656.9 219.44L657.46 221.232H653.908ZM658.948 226H660.516L656.532 214.272H654.884L650.9 226H652.404L653.54 222.416H657.828L658.948 226ZM665.434 226.208C667.882 226.208 669.418 224.736 669.418 222.88C669.418 221.136 668.362 220.336 667.002 219.744L665.322 219.024C664.41 218.64 663.386 218.208 663.386 217.072C663.386 216.016 664.25 215.344 665.578 215.344C666.666 215.344 667.53 215.776 668.25 216.448L669.034 215.504C668.202 214.64 666.97 214.048 665.578 214.048C663.45 214.048 661.882 215.36 661.882 217.168C661.882 218.88 663.178 219.712 664.266 220.176L665.962 220.912C667.066 221.408 667.914 221.792 667.914 222.992C667.914 224.144 666.986 224.912 665.45 224.912C664.234 224.912 663.05 224.336 662.202 223.456L661.322 224.464C662.346 225.536 663.77 226.208 665.434 226.208Z" fill="black"/>
<path d="M423.4 278H426.2V272.06C426.2 270.36 425.98 268.5 425.84 266.9H425.94L427.44 270.08L431.72 278H434.72V263.2H431.92V269.1C431.92 270.78 432.14 272.74 432.3 274.28H432.2L430.72 271.08L426.42 263.2H423.4V278ZM443.001 278.28C444.401 278.28 445.821 277.8 446.921 277.04L445.921 275.24C445.121 275.74 444.321 276.02 443.401 276.02C441.741 276.02 440.541 275.06 440.301 273.22H447.201C447.281 272.96 447.341 272.42 447.341 271.88C447.341 268.78 445.741 266.52 442.661 266.52C439.981 266.52 437.441 268.78 437.441 272.42C437.441 276.1 439.881 278.28 443.001 278.28ZM440.261 271.28C440.481 269.64 441.521 268.8 442.701 268.8C444.141 268.8 444.821 269.76 444.821 271.28H440.261ZM454.442 278.28C457.242 278.28 459.822 276.12 459.822 272.42C459.822 268.68 457.242 266.52 454.442 266.52C451.642 266.52 449.062 268.68 449.062 272.42C449.062 276.12 451.642 278.28 454.442 278.28ZM454.442 275.88C452.922 275.88 452.062 274.52 452.062 272.42C452.062 270.3 452.922 268.92 454.442 268.92C455.962 268.92 456.822 270.3 456.822 272.42C456.822 274.52 455.962 275.88 454.442 275.88ZM462.521 278H467.801C471.061 278 473.541 276.62 473.541 273.64C473.541 271.64 472.361 270.52 470.761 270.14V270.04C472.021 269.6 472.781 268.2 472.781 266.84C472.781 264.08 470.461 263.2 467.421 263.2H462.521V278ZM465.481 269.22V265.46H467.241C469.021 265.46 469.901 265.98 469.901 267.28C469.901 268.46 469.081 269.22 467.201 269.22H465.481ZM465.481 275.72V271.42H467.541C469.581 271.42 470.661 272.02 470.661 273.46C470.661 275 469.561 275.72 467.541 275.72H465.481ZM479.214 278.28C480.754 278.28 481.834 277.54 482.794 276.4H482.874L483.094 278H485.494V266.8H482.554V274.36C481.794 275.36 481.194 275.76 480.274 275.76C479.194 275.76 478.714 275.16 478.714 273.42V266.8H475.774V273.8C475.774 276.6 476.814 278.28 479.214 278.28ZM488.629 278H491.549V271.32C492.189 269.7 493.249 269.12 494.129 269.12C494.589 269.12 494.909 269.18 495.289 269.3L495.809 266.76C495.469 266.62 495.109 266.52 494.489 266.52C493.329 266.52 492.129 267.32 491.309 268.78H491.229L491.029 266.8H488.629V278ZM501.045 282.86C504.785 282.86 507.125 281.14 507.125 278.88C507.125 276.92 505.665 276.08 502.965 276.08H501.065C499.745 276.08 499.305 275.76 499.305 275.16C499.305 274.72 499.465 274.46 499.785 274.2C500.265 274.36 500.785 274.46 501.225 274.46C503.625 274.46 505.545 273.18 505.545 270.66C505.545 269.96 505.325 269.34 505.025 268.96H506.945V266.8H502.905C502.445 266.64 501.845 266.52 501.225 266.52C498.845 266.52 496.705 267.94 496.705 270.58C496.705 271.88 497.425 272.94 498.185 273.5V273.58C497.525 274.06 496.945 274.84 496.945 275.68C496.945 276.6 497.385 277.18 497.965 277.56V277.66C496.945 278.24 496.365 279.04 496.365 279.98C496.365 281.96 498.405 282.86 501.045 282.86ZM501.225 272.64C500.245 272.64 499.465 271.9 499.465 270.58C499.465 269.26 500.225 268.52 501.225 268.52C502.225 268.52 502.965 269.26 502.965 270.58C502.965 271.9 502.205 272.64 501.225 272.64ZM501.485 281C499.845 281 498.805 280.46 498.805 279.52C498.805 279.06 499.045 278.62 499.545 278.22C499.945 278.32 500.425 278.38 501.105 278.38H502.465C503.665 278.38 504.325 278.58 504.325 279.38C504.325 280.26 503.165 281 501.485 281ZM513.528 278.28C514.928 278.28 516.348 277.8 517.448 277.04L516.448 275.24C515.648 275.74 514.848 276.02 513.928 276.02C512.268 276.02 511.068 275.06 510.828 273.22H517.728C517.808 272.96 517.868 272.42 517.868 271.88C517.868 268.78 516.268 266.52 513.188 266.52C510.508 266.52 507.968 268.78 507.968 272.42C507.968 276.1 510.408 278.28 513.528 278.28ZM510.788 271.28C511.008 269.64 512.048 268.8 513.228 268.8C514.668 268.8 515.348 269.76 515.348 271.28H510.788ZM520.289 278H523.209V271.32C523.849 269.7 524.909 269.12 525.789 269.12C526.249 269.12 526.569 269.18 526.949 269.3L527.469 266.76C527.129 266.62 526.769 266.52 526.149 266.52C524.989 266.52 523.789 267.32 522.969 268.78H522.889L522.689 266.8H520.289V278Z" fill="black"/>
<path d="M793.494 278H796.294V272.06C796.294 270.36 796.074 268.5 795.934 266.9H796.034L797.534 270.08L801.814 278H804.814V263.2H802.014V269.1C802.014 270.78 802.234 272.74 802.394 274.28H802.294L800.814 271.08L796.514 263.2H793.494V278ZM813.094 278.28C814.494 278.28 815.914 277.8 817.014 277.04L816.014 275.24C815.214 275.74 814.414 276.02 813.494 276.02C811.834 276.02 810.634 275.06 810.394 273.22H817.294C817.374 272.96 817.434 272.42 817.434 271.88C817.434 268.78 815.834 266.52 812.754 266.52C810.074 266.52 807.534 268.78 807.534 272.42C807.534 276.1 809.974 278.28 813.094 278.28ZM810.354 271.28C810.574 269.64 811.614 268.8 812.794 268.8C814.234 268.8 814.914 269.76 814.914 271.28H810.354ZM824.535 278.28C827.335 278.28 829.915 276.12 829.915 272.42C829.915 268.68 827.335 266.52 824.535 266.52C821.735 266.52 819.155 268.68 819.155 272.42C819.155 276.12 821.735 278.28 824.535 278.28ZM824.535 275.88C823.015 275.88 822.155 274.52 822.155 272.42C822.155 270.3 823.015 268.92 824.535 268.92C826.055 268.92 826.915 270.3 826.915 272.42C826.915 274.52 826.055 275.88 824.535 275.88ZM842.326 263.3C841.486 262.7 839.726 261.82 838.546 261.3L837.246 263.02C838.446 263.64 840.146 264.6 840.946 265.24L842.326 263.3ZM841.106 268.7C840.226 268.12 838.486 267.26 837.306 266.74L836.026 268.52C837.266 269.14 838.966 270.08 839.766 270.68L841.106 268.7ZM838.466 279.52C839.686 277.58 840.946 275.28 841.986 273.2L840.246 271.6C839.066 273.92 837.526 276.4 836.466 277.9L838.466 279.52ZM854.506 269.18C853.746 267.54 852.106 265.16 850.526 263.36L848.486 264.38C849.186 265.2 849.886 266.16 850.526 267.12L844.906 267.42C846.106 265.76 847.326 263.74 848.266 261.72L845.806 261.02C844.826 263.52 843.266 266.08 842.726 266.72C842.206 267.42 841.826 267.84 841.386 267.96C841.646 268.58 842.006 269.7 842.146 270.18C842.946 269.86 844.066 269.78 851.786 269.24C851.986 269.66 852.186 270.04 852.326 270.4L854.506 269.18ZM850.606 273.6V276.74H844.986V273.6H850.606ZM842.666 279.76H844.986V278.92H850.606V279.68H853.026V271.4H842.666V279.76ZM862.506 273.5C861.866 273.72 861.206 273.92 860.546 274.12V270.12H862.346V267.94H860.546V264.42H862.686V262.2H856.086V264.42H858.286V267.94H856.266V270.12H858.286V274.82C857.366 275.08 856.546 275.3 855.846 275.48L856.386 277.9C858.306 277.28 860.706 276.52 862.906 275.74L862.506 273.5ZM865.586 267.46H867.646V269.18H865.586V267.46ZM865.586 263.92H867.646V265.58H865.586V263.92ZM871.626 265.58H869.646V263.92H871.626V265.58ZM871.626 269.18H869.646V267.46H871.626V269.18ZM869.866 276.96V275.06H874.106V272.92H869.866V271.2H873.886V261.9H863.446V271.2H867.446V272.92H863.306V275.06H867.446V276.96H861.926V279.12H874.786V276.96H869.866Z" fill="black"/>
<path d="M357 82.5L352 79.6132V85.3868L357 82.5ZM240 83H352.5V82H240V83Z" fill="black"/>
<path d="M241 233L246 235.887L246 230.113L241 233ZM356 232.5L245.5 232.5L245.5 233.5L356 233.5L356 232.5Z" fill="black"/>
<path d="M599 233L604 235.887L604 230.113L599 233ZM714 232.5L603.5 232.5L603.5 233.5L714 233.5L714 232.5Z" fill="black"/>
<path d="M241 153L246 155.887L246 150.113L241 153ZM356 152.5L245.5 152.5L245.5 153.5L356 153.5L356 152.5Z" fill="black"/>
<line x1="596" y1="81.5" x2="714" y2="81.5" stroke="black" stroke-dasharray="2 2"/>
</svg>
