<svg width="955" height="322" viewBox="0 0 955 322" fill="none" xmlns="http://www.w3.org/2000/svg">
<rect x="357" y="1" width="240" height="320" rx="20" fill="white" stroke="black"/>
<rect x="1" y="1" width="240" height="320" rx="20" fill="white" stroke="black"/>
<rect x="714" y="1" width="240" height="320" rx="20" fill="white" stroke="black"/>
<path d="M897.944 96.9448H772.778V191.195H897.944V96.9448Z" fill="#DFDFDF"/>
<path d="M806.73 114.088H794.064V130.38H806.73V114.088Z" fill="#DFDFDF" stroke="black" stroke-width="1.1" stroke-miterlimit="10"/>
<path d="M843.621 114.088H830.956V130.38H843.621V114.088Z" fill="#DFDFDF" stroke="black" stroke-width="1.1" stroke-miterlimit="10"/>
<path d="M878.254 114.088H865.588V130.38H878.254V114.088Z" fill="#DFDFDF" stroke="black" stroke-width="1.1" stroke-miterlimit="10"/>
<path d="M806.73 141.023H794.064V157.315H806.73V141.023Z" fill="#DFDFDF" stroke="black" stroke-width="1.1" stroke-miterlimit="10"/>
<path d="M856.817 146.548H817.759V175.918H856.817V146.548Z" fill="#00E599" stroke="black" stroke-width="1.1" stroke-miterlimit="10"/>
<path d="M878.254 141.023H865.588V157.315H878.254V141.023Z" fill="#DFDFDF" stroke="black" stroke-width="1.1" stroke-miterlimit="10"/>
<path d="M923.432 187.537H748.762V194.868H923.432V187.537Z" fill="#BCCFE9" stroke="black" stroke-width="1.1" stroke-miterlimit="10"/>
<path d="M779.952 103.274H765.611V179.825H779.952V103.274Z" fill="#BCCFE9" stroke="black" stroke-width="1.1" stroke-miterlimit="10"/>
<path d="M784.187 95.4199H761.382V105.625H784.187V95.4199Z" fill="#BCCFE9" stroke="black" stroke-width="1.1" stroke-miterlimit="10"/>
<path d="M784.187 179.315H761.382V189.52H784.187V179.315Z" fill="#BCCFE9" stroke="black" stroke-width="1.1" stroke-miterlimit="10"/>
<path d="M905.11 103.274H890.769V179.825H905.11V103.274Z" fill="#BCCFE9" stroke="black" stroke-width="1.1" stroke-miterlimit="10"/>
<path d="M909.346 95.4199H886.541V105.625H909.346V95.4199Z" fill="#BCCFE9" stroke="black" stroke-width="1.1" stroke-miterlimit="10"/>
<path d="M909.346 179.315H886.541V189.52H909.346V179.315Z" fill="#BCCFE9" stroke="black" stroke-width="1.1" stroke-miterlimit="10"/>
<path d="M830.262 154.703H821.752C821.752 154.703 822.145 160.103 826.485 160.692H834.994C834.994 160.692 834.608 155.292 830.262 154.703Z" fill="white"/>
<path d="M835.145 160.83H826.465C822.047 160.234 821.602 154.769 821.595 154.716V154.566H830.294C834.7 155.162 835.145 160.627 835.145 160.68V160.83ZM821.883 154.847C821.988 155.711 822.701 160.051 826.465 160.562H834.824C834.719 159.698 834.006 155.364 830.242 154.847H821.883Z" fill="black"/>
<path d="M829.633 160.693C831.188 160.693 832.448 159.353 832.448 157.701C832.448 156.049 831.188 154.71 829.633 154.71C828.079 154.71 826.819 156.049 826.819 157.701C826.819 159.353 828.079 160.693 829.633 160.693Z" fill="black"/>
<path d="M829.633 160.83C829.006 160.867 828.383 160.715 827.843 160.393C827.304 160.071 826.874 159.595 826.608 159.026C826.343 158.457 826.254 157.821 826.354 157.201C826.454 156.581 826.738 156.005 827.169 155.549C827.6 155.092 828.158 154.775 828.772 154.639C829.385 154.503 830.024 154.555 830.608 154.787C831.192 155.019 831.692 155.421 832.045 155.94C832.397 156.46 832.585 157.073 832.585 157.701C832.606 158.507 832.308 159.289 831.755 159.875C831.201 160.461 830.439 160.805 829.633 160.83ZM829.633 154.841C829.061 154.804 828.491 154.94 827.997 155.231C827.503 155.523 827.108 155.955 826.863 156.474C826.619 156.992 826.535 157.572 826.624 158.139C826.713 158.705 826.97 159.232 827.361 159.65C827.753 160.069 828.262 160.36 828.821 160.486C829.38 160.612 829.964 160.567 830.498 160.357C831.031 160.147 831.489 159.782 831.812 159.308C832.136 158.834 832.309 158.275 832.31 157.701C832.331 156.969 832.062 156.257 831.56 155.722C831.059 155.188 830.366 154.873 829.633 154.848V154.841Z" fill="black"/>
<path d="M848.93 154.703H840.42C840.42 154.703 840.813 160.103 845.159 160.692H853.669C853.669 160.692 853.269 155.292 848.93 154.703Z" fill="white"/>
<path d="M853.806 160.83H845.133C840.708 160.234 840.263 154.769 840.257 154.716V154.566H848.949C853.355 155.162 853.8 160.627 853.806 160.68V160.83ZM840.551 154.847C840.656 155.711 841.37 160.051 845.133 160.562H853.486C853.381 159.698 852.674 155.364 848.904 154.847H840.551Z" fill="black"/>
<path d="M848.282 160.693C849.825 160.693 851.077 159.353 851.077 157.701C851.077 156.049 849.825 154.71 848.282 154.71C846.738 154.71 845.487 156.049 845.487 157.701C845.487 159.353 846.738 160.693 848.282 160.693Z" fill="black"/>
<path d="M848.282 160.83C847.655 160.869 847.03 160.719 846.489 160.399C845.948 160.079 845.516 159.604 845.248 159.035C844.981 158.467 844.89 157.831 844.989 157.21C845.087 156.589 845.37 156.012 845.8 155.554C846.231 155.096 846.789 154.778 847.402 154.641C848.015 154.504 848.656 154.554 849.24 154.786C849.824 155.017 850.326 155.419 850.679 155.939C851.032 156.459 851.221 157.073 851.221 157.701C851.244 158.505 850.948 159.286 850.397 159.872C849.846 160.458 849.086 160.803 848.282 160.83ZM848.282 154.841C847.708 154.799 847.134 154.931 846.635 155.219C846.137 155.508 845.737 155.94 845.488 156.459C845.239 156.978 845.152 157.561 845.238 158.13C845.324 158.699 845.58 159.23 845.972 159.651C846.364 160.073 846.874 160.367 847.436 160.495C847.997 160.623 848.584 160.579 849.12 160.369C849.656 160.158 850.117 159.791 850.441 159.315C850.766 158.84 850.939 158.277 850.939 157.701C850.962 156.971 850.696 156.262 850.198 155.727C849.701 155.192 849.012 154.876 848.282 154.847V154.841Z" fill="black"/>
<path d="M837.796 170.243C838.851 170.243 839.707 169.328 839.707 168.2C839.707 167.073 838.851 166.158 837.796 166.158C836.74 166.158 835.884 167.073 835.884 168.2C835.884 169.328 836.74 170.243 837.796 170.243Z" fill="black"/>
<path d="M837.795 170.38C837.358 170.408 836.922 170.303 836.545 170.08C836.168 169.857 835.866 169.526 835.68 169.129C835.493 168.732 835.43 168.289 835.499 167.856C835.567 167.423 835.765 167.021 836.065 166.701C836.365 166.382 836.754 166.16 837.182 166.065C837.61 165.969 838.057 166.005 838.464 166.166C838.872 166.328 839.221 166.608 839.467 166.971C839.713 167.334 839.845 167.762 839.844 168.201C839.86 168.761 839.653 169.305 839.27 169.713C838.886 170.122 838.356 170.362 837.795 170.38ZM837.795 166.296C837.412 166.268 837.03 166.357 836.698 166.549C836.366 166.742 836.1 167.031 835.934 167.377C835.768 167.723 835.711 168.111 835.769 168.491C835.827 168.871 835.998 169.224 836.259 169.505C836.521 169.786 836.861 169.981 837.236 170.066C837.61 170.151 838.001 170.121 838.359 169.981C838.716 169.84 839.022 169.595 839.238 169.277C839.454 168.96 839.57 168.585 839.569 168.201C839.585 167.713 839.408 167.239 839.075 166.882C838.743 166.526 838.283 166.315 837.795 166.296Z" fill="black"/>
<path d="M836.552 59L746 82.6297V96.9449H836.552H927.104V82.6297L836.552 59Z" fill="#BCCFE9" stroke="black" stroke-width="1.1" stroke-miterlimit="10"/>
<path d="M790.582 87.9902H882.522" stroke="black" stroke-width="1.1" stroke-miterlimit="10"/>
<path d="M837.285 80.7974C840.495 80.7974 843.098 78.195 843.098 74.9849C843.098 71.7747 840.495 69.1724 837.285 69.1724C834.075 69.1724 831.473 71.7747 831.473 74.9849C831.473 78.195 834.075 80.7974 837.285 80.7974Z" stroke="black" stroke-width="1.1" stroke-miterlimit="10"/>
<path d="M534.653 207.684H418.299L421.412 202.146H530.516L534.653 207.684Z" fill="#BCCFE9"/>
<path d="M535 207.857H418L421.311 201.973H530.6L530.654 202.044L535 207.857ZM418.599 207.51H534.306L530.426 202.32H421.514L418.599 207.51Z" fill="black"/>
<path d="M530.516 97.2095H421.412V202.015H530.516V97.2095Z" fill="#DFDFDF"/>
<path d="M530.69 202.182H421.239V97.0356H530.69V202.182ZM421.592 201.835H530.343V97.3829H421.592V201.835Z" fill="black"/>
<path d="M526.38 101.849H425.148V143.21H526.38V101.849Z" fill="#A09BE2"/>
<path d="M526.553 143.39H424.974V101.676H526.553V143.39ZM425.321 143.042H526.206V102.023H425.321V143.042Z" fill="black"/>
<path d="M439.779 122.173C441.696 122.173 443.251 120.618 443.251 118.701C443.251 116.783 441.696 115.229 439.779 115.229C437.861 115.229 436.307 116.783 436.307 118.701C436.307 120.618 437.861 122.173 439.779 122.173Z" fill="#F76854"/>
<path d="M439.779 122.347C439.056 122.348 438.349 122.135 437.748 121.734C437.146 121.333 436.677 120.763 436.4 120.095C436.123 119.428 436.05 118.693 436.191 117.984C436.332 117.275 436.68 116.624 437.191 116.113C437.702 115.602 438.353 115.254 439.062 115.113C439.771 114.973 440.506 115.045 441.173 115.323C441.841 115.6 442.411 116.069 442.812 116.67C443.212 117.272 443.426 117.978 443.425 118.701C443.423 119.668 443.038 120.594 442.355 121.277C441.672 121.961 440.745 122.345 439.779 122.347ZM439.779 115.397C439.125 115.395 438.486 115.588 437.941 115.951C437.397 116.313 436.973 116.829 436.722 117.432C436.471 118.036 436.404 118.701 436.531 119.342C436.658 119.984 436.972 120.573 437.434 121.036C437.896 121.498 438.485 121.814 439.126 121.942C439.767 122.07 440.432 122.005 441.036 121.755C441.64 121.505 442.157 121.081 442.52 120.538C442.883 119.994 443.077 119.355 443.077 118.701C443.076 117.826 442.728 116.988 442.11 116.368C441.492 115.749 440.654 115.4 439.779 115.397Z" fill="black"/>
<path d="M439.988 122.173H439.641V129.842H439.988V122.173Z" fill="black"/>
<path d="M441.641 129.668H437.983V130.015H441.641V129.668Z" fill="black"/>
<path d="M509.904 122.173C511.822 122.173 513.376 120.618 513.376 118.701C513.376 116.783 511.822 115.229 509.904 115.229C507.987 115.229 506.432 116.783 506.432 118.701C506.432 120.618 507.987 122.173 509.904 122.173Z" fill="#F76854"/>
<path d="M509.905 122.347C509.182 122.348 508.475 122.135 507.874 121.734C507.272 121.333 506.803 120.763 506.526 120.095C506.249 119.428 506.176 118.693 506.317 117.984C506.458 117.275 506.806 116.624 507.317 116.113C507.828 115.602 508.479 115.254 509.188 115.113C509.897 114.973 510.632 115.045 511.299 115.323C511.967 115.6 512.537 116.069 512.938 116.67C513.338 117.272 513.552 117.978 513.551 118.701C513.549 119.668 513.164 120.594 512.481 121.277C511.798 121.961 510.871 122.345 509.905 122.347ZM509.905 115.397C509.251 115.395 508.611 115.588 508.067 115.951C507.523 116.313 507.099 116.829 506.848 117.432C506.597 118.036 506.53 118.701 506.657 119.342C506.784 119.984 507.098 120.573 507.56 121.036C508.022 121.498 508.611 121.814 509.252 121.942C509.893 122.07 510.558 122.005 511.162 121.755C511.766 121.505 512.283 121.081 512.646 120.538C513.009 119.994 513.203 119.355 513.203 118.701C513.202 117.826 512.854 116.988 512.236 116.368C511.618 115.749 510.78 115.4 509.905 115.397Z" fill="black"/>
<path d="M510.114 122.173H509.767V129.842H510.114V122.173Z" fill="black"/>
<path d="M511.767 129.668H508.109V130.015H511.767V129.668Z" fill="black"/>
<path d="M484.731 122.748V113.379H475.363V122.748H484.731Z" fill="#BCCFE9"/>
<path d="M484.905 122.915H475.189V113.199H484.905V122.915ZM475.536 122.568H484.558V113.546H475.536V122.568Z" fill="black"/>
<path d="M475.362 122.741V113.373H465.993V122.741H475.362Z" fill="#84DDF4"/>
<path d="M475.536 122.915H465.814V113.199H475.536V122.915ZM466.161 122.568H475.189V113.546H466.161V122.568Z" fill="black"/>
<path d="M494.1 132.116V122.748H484.731V132.116H494.1Z" fill="#84DDF4"/>
<path d="M494.274 132.29H484.558V122.568H494.274V132.29ZM484.905 131.943H493.926V122.916H484.905V131.943Z" fill="black"/>
<path d="M465.994 132.111V122.742H456.625V132.111H465.994Z" fill="#DFDFDF"/>
<path d="M466.161 132.29H456.445V122.568H466.161V132.29ZM456.793 131.943H465.814V122.916H456.793V131.943Z" fill="black"/>
<path d="M484.731 132.116V122.748H475.363V132.116H484.731Z" fill="#00E599"/>
<path d="M484.905 132.29H475.189V122.568H484.905V132.29ZM475.536 131.943H484.558V122.916H475.536V131.943Z" fill="black"/>
<path d="M494.1 122.741V113.373H484.731V122.741H494.1Z" fill="#00E599"/>
<path d="M494.274 122.915H484.558V113.199H494.274V122.915ZM484.905 122.568H493.926V113.546H484.905V122.568Z" fill="black"/>
<path d="M465.994 122.741V113.373H456.625V122.741H465.994Z" fill="#F76854"/>
<path d="M466.161 122.915H456.445V113.199H466.161V122.915ZM456.793 122.568H465.814V113.546H456.793V122.568Z" fill="black"/>
<path d="M475.362 132.111V122.742H465.993V132.111H475.362Z" fill="#FFC13D"/>
<path d="M475.536 132.29H465.814V122.568H475.536V132.29ZM466.161 131.943H475.189V122.916H466.161V131.943Z" fill="black"/>
<path d="M457.589 163.264C461.841 163.264 465.287 159.818 465.287 155.566C465.287 151.314 461.841 147.867 457.589 147.867C453.337 147.867 449.89 151.314 449.89 155.566C449.89 159.818 453.337 163.264 457.589 163.264Z" fill="#BCCFE9"/>
<path d="M457.589 163.438C456.031 163.438 454.509 162.976 453.214 162.111C451.92 161.245 450.911 160.016 450.315 158.577C449.719 157.138 449.564 155.555 449.868 154.028C450.172 152.5 450.923 151.098 452.024 149.997C453.126 148.896 454.529 148.147 456.056 147.844C457.584 147.541 459.167 147.698 460.605 148.294C462.044 148.891 463.273 149.901 464.137 151.196C465.001 152.492 465.462 154.014 465.461 155.572C465.458 157.658 464.627 159.658 463.151 161.132C461.675 162.607 459.675 163.436 457.589 163.438ZM457.589 148.047C456.1 148.047 454.645 148.488 453.408 149.315C452.17 150.142 451.206 151.317 450.636 152.692C450.067 154.067 449.918 155.58 450.208 157.04C450.498 158.499 451.215 159.84 452.268 160.893C453.32 161.945 454.661 162.662 456.12 162.952C457.58 163.242 459.093 163.093 460.468 162.524C461.843 161.954 463.019 160.99 463.845 159.752C464.672 158.515 465.114 157.06 465.114 155.572C465.11 153.577 464.317 151.665 462.906 150.254C461.496 148.844 459.583 148.05 457.589 148.047Z" fill="black"/>
<path d="M457.972 155.063C457.948 155.063 457.925 155.058 457.903 155.049C457.882 155.039 457.862 155.026 457.846 155.009C457.815 154.976 457.797 154.932 457.797 154.886C457.797 154.841 457.815 154.797 457.846 154.763L460.707 151.902C460.74 151.871 460.784 151.853 460.829 151.854C460.875 151.855 460.918 151.873 460.95 151.905C460.982 151.937 461 151.98 461.001 152.026C461.001 152.071 460.984 152.115 460.953 152.147L458.109 155.009C458.092 155.028 458.071 155.043 458.047 155.052C458.023 155.062 457.997 155.065 457.972 155.063Z" fill="black"/>
<path d="M457.589 157.93C458.895 157.93 459.953 156.872 459.953 155.566C459.953 154.26 458.895 153.201 457.589 153.201C456.283 153.201 455.224 154.26 455.224 155.566C455.224 156.872 456.283 157.93 457.589 157.93Z" fill="#84DDF4"/>
<path d="M457.589 158.11C457.085 158.111 456.592 157.963 456.173 157.684C455.754 157.405 455.427 157.007 455.233 156.542C455.04 156.077 454.989 155.565 455.087 155.071C455.185 154.577 455.428 154.123 455.784 153.767C456.14 153.411 456.594 153.168 457.088 153.07C457.582 152.972 458.094 153.023 458.559 153.216C459.024 153.41 459.422 153.737 459.701 154.156C459.98 154.575 460.128 155.068 460.127 155.572C460.127 156.245 459.86 156.891 459.384 157.367C458.908 157.843 458.262 158.11 457.589 158.11ZM457.589 153.375C457.154 153.373 456.729 153.501 456.367 153.742C456.004 153.983 455.722 154.325 455.555 154.727C455.388 155.128 455.343 155.57 455.427 155.997C455.511 156.423 455.72 156.815 456.027 157.123C456.334 157.431 456.726 157.641 457.152 157.726C457.578 157.811 458.02 157.768 458.422 157.602C458.824 157.436 459.168 157.154 459.409 156.793C459.651 156.432 459.78 156.007 459.78 155.572C459.78 154.99 459.549 154.432 459.138 154.02C458.728 153.608 458.17 153.376 457.589 153.375Z" fill="black"/>
<path d="M494.699 163.264C498.951 163.264 502.398 159.818 502.398 155.566C502.398 151.314 498.951 147.867 494.699 147.867C490.447 147.867 487 151.314 487 155.566C487 159.818 490.447 163.264 494.699 163.264Z" fill="#BCCFE9"/>
<path d="M494.699 163.438C493.142 163.438 491.619 162.976 490.325 162.111C489.03 161.245 488.021 160.016 487.425 158.577C486.83 157.138 486.674 155.555 486.978 154.028C487.283 152.5 488.033 151.098 489.135 149.997C490.236 148.896 491.639 148.147 493.167 147.844C494.694 147.541 496.277 147.698 497.716 148.294C499.154 148.891 500.383 149.901 501.247 151.196C502.112 152.492 502.572 154.014 502.571 155.572C502.568 157.658 501.737 159.658 500.262 161.132C498.786 162.607 496.785 163.436 494.699 163.438ZM494.699 148.047C493.211 148.047 491.756 148.488 490.518 149.315C489.281 150.142 488.316 151.317 487.747 152.692C487.177 154.067 487.028 155.58 487.318 157.04C487.609 158.499 488.326 159.84 489.378 160.893C490.43 161.945 491.771 162.662 493.231 162.952C494.691 163.242 496.204 163.093 497.579 162.524C498.954 161.954 500.129 160.99 500.956 159.752C501.783 158.515 502.224 157.06 502.224 155.572C502.221 153.577 501.427 151.665 500.016 150.254C498.606 148.844 496.694 148.05 494.699 148.047Z" fill="black"/>
<path d="M491.454 159.283C491.41 159.282 491.368 159.265 491.335 159.235C491.303 159.201 491.286 159.156 491.286 159.11C491.286 159.063 491.303 159.018 491.335 158.984L494.196 156.128C494.229 156.097 494.273 156.08 494.318 156.081C494.363 156.081 494.407 156.099 494.439 156.131C494.471 156.163 494.489 156.207 494.49 156.252C494.49 156.297 494.473 156.341 494.442 156.374L491.58 159.235C491.545 159.266 491.501 159.283 491.454 159.283Z" fill="black"/>
<path d="M494.699 157.93C496.005 157.93 497.063 156.872 497.063 155.566C497.063 154.26 496.005 153.201 494.699 153.201C493.393 153.201 492.334 154.26 492.334 155.566C492.334 156.872 493.393 157.93 494.699 157.93Z" fill="#84DDF4"/>
<path d="M494.699 158.11C494.195 158.111 493.703 157.963 493.283 157.684C492.864 157.405 492.537 157.007 492.344 156.542C492.15 156.077 492.1 155.565 492.198 155.071C492.296 154.577 492.538 154.123 492.894 153.767C493.25 153.411 493.704 153.168 494.198 153.07C494.692 152.972 495.204 153.023 495.67 153.216C496.135 153.41 496.532 153.737 496.811 154.156C497.09 154.575 497.239 155.068 497.237 155.572C497.237 156.245 496.97 156.891 496.494 157.367C496.018 157.843 495.372 158.11 494.699 158.11ZM494.699 153.375C494.264 153.373 493.839 153.501 493.477 153.742C493.115 153.983 492.832 154.325 492.665 154.727C492.498 155.128 492.454 155.57 492.538 155.997C492.622 156.423 492.83 156.815 493.138 157.123C493.445 157.431 493.836 157.641 494.262 157.726C494.689 157.811 495.131 157.768 495.533 157.602C495.934 157.436 496.278 157.154 496.52 156.793C496.761 156.432 496.89 156.007 496.89 155.572C496.89 154.99 496.66 154.432 496.249 154.02C495.838 153.608 495.281 153.376 494.699 153.375Z" fill="black"/>
<path d="M441.773 174.076H441.425V191.198H441.773V174.076Z" fill="black"/>
<path d="M465.898 174.076H465.551V191.198H465.898V174.076Z" fill="black"/>
<path d="M514.161 174.076H513.814V191.198H514.161V174.076Z" fill="black"/>
<path d="M490.029 174.076H489.682V191.198H490.029V174.076Z" fill="black"/>
<path d="M441.599 189.593C442.879 189.593 443.916 188.555 443.916 187.276C443.916 185.996 442.879 184.959 441.599 184.959C440.319 184.959 439.282 185.996 439.282 187.276C439.282 188.555 440.319 189.593 441.599 189.593Z" fill="#DFDFDF"/>
<path d="M441.599 189.766C441.106 189.766 440.625 189.62 440.215 189.347C439.806 189.073 439.486 188.684 439.298 188.229C439.109 187.774 439.06 187.273 439.156 186.79C439.252 186.307 439.49 185.863 439.838 185.515C440.186 185.167 440.63 184.93 441.113 184.833C441.596 184.737 442.097 184.787 442.552 184.975C443.007 185.164 443.396 185.483 443.669 185.892C443.943 186.302 444.089 186.783 444.089 187.276C444.088 187.936 443.825 188.569 443.358 189.035C442.891 189.502 442.259 189.765 441.599 189.766ZM441.599 185.133C441.175 185.133 440.761 185.259 440.408 185.494C440.056 185.73 439.781 186.064 439.619 186.456C439.457 186.847 439.414 187.278 439.497 187.694C439.579 188.11 439.784 188.492 440.083 188.791C440.383 189.091 440.765 189.295 441.181 189.378C441.596 189.461 442.027 189.418 442.419 189.256C442.811 189.094 443.145 188.819 443.381 188.467C443.616 188.114 443.742 187.7 443.742 187.276C443.742 186.708 443.516 186.163 443.114 185.761C442.712 185.359 442.167 185.133 441.599 185.133Z" fill="black"/>
<path d="M465.724 183.349C467.004 183.349 468.041 182.312 468.041 181.032C468.041 179.753 467.004 178.715 465.724 178.715C464.445 178.715 463.408 179.753 463.408 181.032C463.408 182.312 464.445 183.349 465.724 183.349Z" fill="#DFDFDF"/>
<path d="M465.724 183.528C465.231 183.528 464.748 183.382 464.337 183.108C463.927 182.833 463.607 182.443 463.418 181.987C463.229 181.531 463.18 181.029 463.276 180.545C463.372 180.061 463.61 179.616 463.959 179.267C464.308 178.918 464.753 178.68 465.237 178.584C465.722 178.487 466.224 178.537 466.68 178.726C467.136 178.915 467.526 179.235 467.8 179.645C468.074 180.056 468.221 180.538 468.221 181.032C468.221 181.694 467.958 182.329 467.49 182.797C467.021 183.265 466.386 183.528 465.724 183.528ZM465.724 178.889C465.299 178.889 464.883 179.015 464.53 179.251C464.176 179.488 463.901 179.824 463.738 180.217C463.576 180.61 463.534 181.042 463.617 181.459C463.7 181.877 463.906 182.259 464.207 182.56C464.508 182.86 464.892 183.064 465.309 183.147C465.726 183.229 466.158 183.185 466.551 183.022C466.944 182.858 467.279 182.582 467.514 182.228C467.75 181.873 467.875 181.457 467.874 181.032C467.872 180.463 467.645 179.918 467.242 179.516C466.839 179.114 466.293 178.889 465.724 178.889Z" fill="black"/>
<path d="M489.856 187.276C491.135 187.276 492.173 186.239 492.173 184.959C492.173 183.68 491.135 182.643 489.856 182.643C488.576 182.643 487.539 183.68 487.539 184.959C487.539 186.239 488.576 187.276 489.856 187.276Z" fill="#DFDFDF"/>
<path d="M489.838 187.45C489.344 187.451 488.86 187.305 488.449 187.032C488.037 186.758 487.716 186.368 487.527 185.911C487.337 185.455 487.287 184.953 487.383 184.468C487.479 183.983 487.717 183.538 488.067 183.188C488.416 182.839 488.861 182.601 489.346 182.505C489.831 182.409 490.334 182.459 490.79 182.648C491.246 182.838 491.636 183.159 491.91 183.57C492.184 183.982 492.329 184.465 492.328 184.959C492.328 185.62 492.066 186.253 491.599 186.72C491.132 187.187 490.498 187.45 489.838 187.45ZM489.838 182.81C489.412 182.809 488.996 182.934 488.642 183.17C488.288 183.405 488.012 183.74 487.848 184.133C487.684 184.525 487.641 184.958 487.723 185.375C487.805 185.792 488.01 186.176 488.31 186.477C488.61 186.778 488.993 186.983 489.41 187.067C489.827 187.15 490.26 187.108 490.653 186.946C491.046 186.783 491.382 186.508 491.618 186.154C491.855 185.8 491.981 185.385 491.981 184.959C491.981 184.39 491.755 183.845 491.354 183.442C490.952 183.039 490.407 182.812 489.838 182.81Z" fill="black"/>
<path d="M513.987 178.715C515.267 178.715 516.304 177.678 516.304 176.398C516.304 175.119 515.267 174.082 513.987 174.082C512.708 174.082 511.67 175.119 511.67 176.398C511.67 177.678 512.708 178.715 513.987 178.715Z" fill="#DFDFDF"/>
<path d="M513.987 178.889C513.493 178.89 513.009 178.745 512.598 178.471C512.187 178.197 511.866 177.807 511.676 177.351C511.486 176.895 511.436 176.392 511.533 175.907C511.629 175.422 511.867 174.977 512.216 174.628C512.566 174.278 513.011 174.04 513.496 173.944C513.98 173.848 514.483 173.898 514.939 174.088C515.396 174.277 515.786 174.598 516.059 175.01C516.333 175.421 516.479 175.905 516.478 176.399C516.476 177.059 516.213 177.691 515.746 178.158C515.28 178.625 514.647 178.888 513.987 178.889ZM513.987 174.25C513.562 174.248 513.146 174.374 512.792 174.609C512.437 174.844 512.161 175.18 511.997 175.572C511.834 175.965 511.79 176.397 511.873 176.814C511.955 177.232 512.159 177.615 512.459 177.916C512.76 178.218 513.143 178.423 513.56 178.506C513.977 178.59 514.409 178.547 514.802 178.385C515.195 178.222 515.531 177.947 515.768 177.593C516.004 177.24 516.13 176.824 516.13 176.399C516.13 175.83 515.905 175.284 515.503 174.881C515.101 174.478 514.556 174.251 513.987 174.25Z" fill="black"/>
<path d="M449.07 97.0299H502.218L509.929 73.5928H441.593L449.07 97.0299Z" fill="#FFC13D"/>
<path d="M502.344 97.2038H448.944L448.902 97.084L441.347 73.4194H510.192L510.114 73.6529L502.344 97.2038ZM449.195 96.8565H502.092L509.689 73.7667H441.832L449.195 96.8565Z" fill="black"/>
<path d="M490.401 86.727C491.76 86.727 492.861 85.6255 492.861 84.2666C492.861 82.9077 491.76 81.8062 490.401 81.8062C489.042 81.8062 487.94 82.9077 487.94 84.2666C487.94 85.6255 489.042 86.727 490.401 86.727Z" fill="#020B02"/>
<path d="M489.509 84.8592C490.104 84.8592 490.586 84.3768 490.586 83.7817C490.586 83.1865 490.104 82.7041 489.509 82.7041C488.914 82.7041 488.431 83.1865 488.431 83.7817C488.431 84.3768 488.914 84.8592 489.509 84.8592Z" fill="#FEFFFC"/>
<path d="M496.974 86.727C498.333 86.727 499.435 85.6255 499.435 84.2666C499.435 82.9077 498.333 81.8062 496.974 81.8062C495.615 81.8062 494.514 82.9077 494.514 84.2666C494.514 85.6255 495.615 86.727 496.974 86.727Z" fill="#020B02"/>
<path d="M497.459 84.4579C498.054 84.4579 498.536 83.9754 498.536 83.3803C498.536 82.7852 498.054 82.3027 497.459 82.3027C496.864 82.3027 496.381 82.7852 496.381 83.3803C496.381 83.9754 496.864 84.4579 497.459 84.4579Z" fill="#FEFFFC"/>
<path d="M493.723 87.6133L490.934 92.1211H496.549L493.723 87.6133Z" fill="#F76854" stroke="black" stroke-width="0.6" stroke-miterlimit="10"/>
<path d="M447.765 50.1733H503.511L511.605 74.7539H439.923L447.765 50.1733Z" fill="#FFC13D"/>
<path d="M511.844 74.9278H439.683L439.755 74.7003L447.633 50H503.637L511.844 74.9278ZM440.15 74.5805H511.389L503.385 50.3472H447.891L440.15 74.5805Z" fill="black"/>
<path d="M456.334 69H455.002L451.988 64.4447V69H450.656V62.3525H451.988L455.002 66.9173V62.3525H456.334V69ZM462.547 66.2516C462.547 66.4418 462.534 66.613 462.509 66.7651H458.657C458.689 67.1455 458.822 67.4435 459.057 67.6591C459.291 67.8746 459.58 67.9824 459.922 67.9824C460.417 67.9824 460.769 67.77 460.978 67.3453H462.414C462.262 67.8525 461.97 68.2709 461.539 68.6006C461.108 68.9239 460.578 69.0856 459.951 69.0856C459.444 69.0856 458.987 68.9746 458.581 68.7527C458.182 68.5245 457.868 68.2043 457.64 67.7922C457.418 67.3801 457.307 66.9046 457.307 66.3657C457.307 65.8205 457.418 65.3418 457.64 64.9297C457.862 64.5176 458.172 64.2006 458.572 63.9787C458.971 63.7568 459.431 63.6459 459.951 63.6459C460.452 63.6459 460.899 63.7536 461.292 63.9692C461.691 64.1848 461.999 64.4923 462.214 64.8917C462.436 65.2848 462.547 65.7381 462.547 66.2516ZM461.168 65.8712C461.162 65.5288 461.038 65.2562 460.797 65.0533C460.556 64.8441 460.261 64.7395 459.913 64.7395C459.583 64.7395 459.304 64.841 459.076 65.0438C458.854 65.2404 458.718 65.5162 458.667 65.8712H461.168ZM465.858 69.0856C465.351 69.0856 464.895 68.9746 464.489 68.7527C464.083 68.5245 463.763 68.2043 463.528 67.7922C463.3 67.3801 463.186 66.9046 463.186 66.3657C463.186 65.8268 463.303 65.3513 463.538 64.9392C463.779 64.5271 464.105 64.2101 464.517 63.9882C464.929 63.76 465.389 63.6459 465.896 63.6459C466.404 63.6459 466.863 63.76 467.275 63.9882C467.687 64.2101 468.011 64.5271 468.245 64.9392C468.486 65.3513 468.607 65.8268 468.607 66.3657C468.607 66.9046 468.483 67.3801 468.236 67.7922C467.995 68.2043 467.665 68.5245 467.247 68.7527C466.835 68.9746 466.372 69.0856 465.858 69.0856ZM465.858 67.9254C466.099 67.9254 466.324 67.8683 466.534 67.7542C466.749 67.6337 466.92 67.4562 467.047 67.2216C467.174 66.987 467.237 66.7017 467.237 66.3657C467.237 65.8649 467.104 65.4813 466.838 65.215C466.578 64.9424 466.258 64.8061 465.877 64.8061C465.497 64.8061 465.177 64.9424 464.917 65.215C464.663 65.4813 464.536 65.8649 464.536 66.3657C464.536 66.8666 464.66 67.2533 464.907 67.5259C465.161 67.7922 465.478 67.9254 465.858 67.9254ZM473.349 65.5954C473.723 65.6652 474.031 65.8522 474.272 66.1565C474.513 66.4608 474.633 66.8095 474.633 67.2026C474.633 67.5576 474.544 67.8715 474.367 68.1441C474.196 68.4104 473.945 68.6196 473.616 68.7718C473.286 68.9239 472.896 69 472.446 69H469.583V62.362H472.322C472.772 62.362 473.159 62.4349 473.482 62.5807C473.812 62.7266 474.059 62.9294 474.224 63.1894C474.395 63.4493 474.481 63.7441 474.481 64.0738C474.481 64.4606 474.376 64.7839 474.167 65.0438C473.964 65.3038 473.692 65.4876 473.349 65.5954ZM470.915 65.1009H472.132C472.449 65.1009 472.693 65.0312 472.864 64.8917C473.035 64.7459 473.121 64.5398 473.121 64.2735C473.121 64.0072 473.035 63.8012 472.864 63.6554C472.693 63.5096 472.449 63.4366 472.132 63.4366H470.915V65.1009ZM472.256 67.9159C472.579 67.9159 472.829 67.8398 473.007 67.6876C473.191 67.5355 473.283 67.3199 473.283 67.0409C473.283 66.7556 473.188 66.5337 472.997 66.3752C472.807 66.2104 472.55 66.128 472.227 66.128H470.915V67.9159H472.256ZM480.668 63.7315V69H479.327V68.3343C479.156 68.5625 478.931 68.7432 478.652 68.8764C478.379 69.0032 478.081 69.0666 477.758 69.0666C477.346 69.0666 476.981 68.981 476.664 68.8098C476.347 68.6323 476.097 68.3755 475.913 68.0395C475.735 67.6971 475.647 67.2914 475.647 66.8222V63.7315H476.978V66.632C476.978 67.0504 477.083 67.3738 477.292 67.602C477.501 67.8239 477.786 67.9349 478.148 67.9349C478.516 67.9349 478.804 67.8239 479.013 67.602C479.222 67.3738 479.327 67.0504 479.327 66.632V63.7315H480.668ZM483.313 64.5493C483.484 64.2704 483.706 64.0516 483.979 63.8931C484.258 63.7346 484.575 63.6554 484.93 63.6554V65.0533H484.578C484.159 65.0533 483.842 65.1516 483.627 65.3482C483.418 65.5447 483.313 65.8871 483.313 66.3752V69H481.982V63.7315H483.313V64.5493ZM487.89 63.6459C488.283 63.6459 488.629 63.7251 488.927 63.8836C489.225 64.0358 489.459 64.2355 489.63 64.4827V63.7315H490.971V69.038C490.971 69.5262 490.873 69.9605 490.677 70.3409C490.48 70.7277 490.185 71.032 489.792 71.2539C489.399 71.4821 488.924 71.5962 488.366 71.5962C487.618 71.5962 487.003 71.4219 486.521 71.0732C486.045 70.7245 485.776 70.249 485.712 69.6467H487.034C487.104 69.8876 487.253 70.0778 487.481 70.2173C487.716 70.3631 487.998 70.436 488.328 70.436C488.714 70.436 489.028 70.3187 489.269 70.0841C489.51 69.8559 489.63 69.5072 489.63 69.038V68.2202C489.459 68.4674 489.222 68.6735 488.917 68.8383C488.619 69.0032 488.277 69.0856 487.89 69.0856C487.446 69.0856 487.041 68.9715 486.673 68.7432C486.305 68.515 486.014 68.1948 485.798 67.7827C485.589 67.3643 485.484 66.8856 485.484 66.3467C485.484 65.8141 485.589 65.3418 485.798 64.9297C486.014 64.5176 486.302 64.2006 486.663 63.9787C487.031 63.7568 487.44 63.6459 487.89 63.6459ZM489.63 66.3657C489.63 66.0424 489.567 65.7666 489.44 65.5384C489.313 65.3038 489.142 65.1263 488.927 65.0058C488.711 64.879 488.48 64.8156 488.233 64.8156C487.985 64.8156 487.757 64.8758 487.548 64.9963C487.339 65.1167 487.167 65.2943 487.034 65.5288C486.907 65.7571 486.844 66.0297 486.844 66.3467C486.844 66.6637 486.907 66.9427 487.034 67.1836C487.167 67.4182 487.339 67.5989 487.548 67.7257C487.763 67.8525 487.992 67.9159 488.233 67.9159C488.48 67.9159 488.711 67.8556 488.927 67.7352C489.142 67.6084 489.313 67.4308 489.44 67.2026C489.567 66.968 489.63 66.6891 489.63 66.3657ZM497.169 66.2516C497.169 66.4418 497.157 66.613 497.131 66.7651H493.28C493.311 67.1455 493.445 67.4435 493.679 67.6591C493.914 67.8746 494.202 67.9824 494.545 67.9824C495.039 67.9824 495.391 67.77 495.6 67.3453H497.036C496.884 67.8525 496.592 68.2709 496.161 68.6006C495.73 68.9239 495.201 69.0856 494.573 69.0856C494.066 69.0856 493.609 68.9746 493.204 68.7527C492.804 68.5245 492.49 68.2043 492.262 67.7922C492.04 67.3801 491.929 66.9046 491.929 66.3657C491.929 65.8205 492.04 65.3418 492.262 64.9297C492.484 64.5176 492.795 64.2006 493.194 63.9787C493.594 63.7568 494.053 63.6459 494.573 63.6459C495.074 63.6459 495.521 63.7536 495.914 63.9692C496.313 64.1848 496.621 64.4923 496.837 64.8917C497.058 65.2848 497.169 65.7381 497.169 66.2516ZM495.79 65.8712C495.784 65.5288 495.66 65.2562 495.42 65.0533C495.179 64.8441 494.884 64.7395 494.535 64.7395C494.205 64.7395 493.926 64.841 493.698 65.0438C493.476 65.2404 493.34 65.5162 493.289 65.8712H495.79ZM499.473 64.5493C499.644 64.2704 499.866 64.0516 500.138 63.8931C500.417 63.7346 500.734 63.6554 501.089 63.6554V65.0533H500.737C500.319 65.0533 500.002 65.1516 499.786 65.3482C499.577 65.5447 499.473 65.8871 499.473 66.3752V69H498.141V63.7315H499.473V64.5493Z" fill="#11101F"/>
<path d="M179.135 76.3267H52.3262V166.416H179.135V76.3267Z" fill="#BCCFE9"/>
<path d="M179.466 166.747H52V76H179.466V166.747ZM52.6573 166.09H178.809V76.6573H52.6573V166.09Z" fill="black"/>
<path d="M179.135 76.3267H52.3262V93.5426H179.135V76.3267Z" fill="#BCCFE9"/>
<path d="M179.466 93.8732H52V76H179.466V93.8732ZM52.6573 93.216H178.809V76.6573H52.6573V93.216Z" fill="black"/>
<path d="M61.777 88.2278C61.2112 88.2288 60.6579 88.0619 60.1871 87.7482C59.7162 87.4345 59.3491 86.9882 59.1321 86.4657C58.9152 85.9432 58.8581 85.3681 58.9682 84.8131C59.0784 84.2582 59.3507 83.7484 59.7507 83.3484C60.1508 82.9484 60.6606 82.676 61.2155 82.5659C61.7704 82.4558 62.3455 82.5128 62.868 82.7298C63.3905 82.9467 63.8369 83.3139 64.1506 83.7847C64.4642 84.2555 64.6312 84.8089 64.6301 85.3746C64.6288 86.1309 64.3278 86.8558 63.793 87.3906C63.2582 87.9254 62.5333 88.2265 61.777 88.2278ZM61.777 83.1736C61.3416 83.1736 60.9161 83.3027 60.5541 83.5445C60.1922 83.7864 59.9101 84.1301 59.7435 84.5323C59.5769 84.9345 59.5333 85.3771 59.6182 85.804C59.7031 86.231 59.9128 86.6232 60.2206 86.931C60.5284 87.2388 60.9206 87.4484 61.3476 87.5333C61.7745 87.6183 62.2171 87.5747 62.6193 87.4081C63.0214 87.2415 63.3652 86.9594 63.607 86.5974C63.8489 86.2355 63.978 85.8099 63.978 85.3746C63.9726 84.7944 63.7383 84.2398 63.3262 83.8314C62.914 83.423 62.3572 83.1939 61.777 83.194V83.1736Z" fill="black"/>
<path d="M70.6117 87.9832C70.0464 87.9832 69.4938 87.8155 69.0237 87.5015C68.5537 87.1874 68.1873 86.741 67.971 86.2187C67.7547 85.6964 67.6981 85.1217 67.8083 84.5673C67.9186 84.0128 68.1909 83.5035 68.5906 83.1038C68.9903 82.704 69.4996 82.4318 70.0541 82.3215C70.6085 82.2112 71.1832 82.2678 71.7055 82.4842C72.2278 82.7005 72.6742 83.0669 72.9883 83.5369C73.3024 84.007 73.47 84.5596 73.47 85.1249C73.47 85.883 73.1689 86.61 72.6328 87.146C72.0968 87.682 71.3698 87.9832 70.6117 87.9832ZM70.6117 82.9239C70.1764 82.9239 69.7508 83.0529 69.3889 83.2948C69.0269 83.5366 68.7448 83.8804 68.5782 84.2826C68.4116 84.6848 68.368 85.1273 68.453 85.5543C68.5379 85.9812 68.7475 86.3734 69.0553 86.6813C69.3632 86.9891 69.7553 87.1987 70.1823 87.2836C70.6093 87.3686 71.0518 87.325 71.454 87.1584C71.8562 86.9918 72.1999 86.7097 72.4418 86.3477C72.6837 85.9858 72.8127 85.5602 72.8127 85.1249C72.8114 84.5416 72.5791 83.9825 72.1666 83.57C71.7541 83.1575 71.195 82.9252 70.6117 82.9239Z" fill="black"/>
<path d="M79.5487 87.9832C78.9834 87.9832 78.4308 87.8155 77.9607 87.5015C77.4907 87.1874 77.1243 86.741 76.908 86.2187C76.6917 85.6964 76.6351 85.1217 76.7454 84.5673C76.8556 84.0128 77.1279 83.5035 77.5276 83.1038C77.9273 82.704 78.4366 82.4318 78.9911 82.3215C79.5455 82.2112 80.1203 82.2678 80.6425 82.4842C81.1648 82.7005 81.6112 83.0669 81.9253 83.5369C82.2394 84.007 82.407 84.5596 82.407 85.1249C82.407 85.883 82.1059 86.61 81.5698 87.146C81.0338 87.682 80.3068 87.9832 79.5487 87.9832ZM79.5487 82.9239C79.1134 82.9239 78.6878 83.0529 78.3259 83.2948C77.9639 83.5366 77.6818 83.8804 77.5152 84.2826C77.3486 84.6848 77.305 85.1273 77.39 85.5543C77.4749 85.9812 77.6845 86.3734 77.9924 86.6813C78.3002 86.9891 78.6924 87.1987 79.1193 87.2836C79.5463 87.3686 79.9888 87.325 80.391 87.1584C80.7932 86.9918 81.137 86.7097 81.3788 86.3477C81.6207 85.9858 81.7498 85.5602 81.7498 85.1249C81.7484 84.5416 81.5161 83.9825 81.1036 83.57C80.6911 83.1575 80.1321 82.9252 79.5487 82.9239Z" fill="black"/>
<path d="M74.9272 192.955C74.1714 192.955 73.4326 192.731 72.8042 192.311C72.1758 191.892 71.6861 191.295 71.3968 190.597C71.1076 189.898 71.0319 189.13 71.1794 188.389C71.3268 187.647 71.6908 186.967 72.2252 186.432C72.7596 185.898 73.4405 185.534 74.1817 185.386C74.923 185.239 75.6913 185.315 76.3895 185.604C77.0878 185.893 77.6846 186.383 78.1044 187.011C78.5243 187.64 78.7484 188.378 78.7484 189.134C78.7457 190.147 78.3423 191.117 77.6262 191.833C76.9102 192.549 75.9398 192.953 74.9272 192.955ZM74.9272 185.97C74.3014 185.97 73.6897 186.156 73.1694 186.503C72.6491 186.851 72.2435 187.345 72.0041 187.923C71.7646 188.502 71.7019 189.138 71.824 189.751C71.9461 190.365 72.2474 190.929 72.6899 191.372C73.1324 191.814 73.6962 192.115 74.3099 192.237C74.9237 192.359 75.5599 192.297 76.138 192.057C76.7161 191.818 77.2103 191.412 77.558 190.892C77.9056 190.372 78.0912 189.76 78.0912 189.134C78.0898 188.296 77.7561 187.492 77.163 186.898C76.5699 186.305 75.7659 185.972 74.9272 185.97Z" fill="black"/>
<path d="M75.274 166.416H74.6167V185.232H75.274V166.416Z" fill="black"/>
<path d="M148.28 103.844H83.1864C73.5067 103.844 65.6597 111.691 65.6597 121.371C65.6597 131.051 73.5067 138.898 83.1864 138.898H148.28C157.96 138.898 165.807 131.051 165.807 121.371C165.807 111.691 157.96 103.844 148.28 103.844Z" fill="#A09BE2"/>
<path d="M148.295 139.229H83.1864C80.8416 139.229 78.5198 138.767 76.3535 137.87C74.1872 136.973 72.2188 135.658 70.5608 134C68.9027 132.342 67.5875 130.373 66.6902 128.207C65.7929 126.041 65.3311 123.719 65.3311 121.374C65.3311 119.029 65.7929 116.707 66.6902 114.541C67.5875 112.375 68.9027 110.406 70.5608 108.748C72.2188 107.09 74.1872 105.775 76.3535 104.878C78.5198 103.98 80.8416 103.519 83.1864 103.519H148.295C153.031 103.519 157.572 105.4 160.921 108.748C164.269 112.097 166.151 116.638 166.151 121.374C166.151 126.109 164.269 130.651 160.921 134C157.572 137.348 153.031 139.229 148.295 139.229ZM83.1864 104.176C80.903 104.137 78.6347 104.552 76.5137 105.399C74.3927 106.246 72.4615 107.506 70.8328 109.107C69.2041 110.708 67.9105 112.617 67.0275 114.723C66.1445 116.829 65.6897 119.09 65.6897 121.374C65.6897 123.658 66.1445 125.919 67.0275 128.025C67.9105 130.131 69.2041 132.04 70.8328 133.641C72.4615 135.242 74.3927 136.502 76.5137 137.349C78.6347 138.196 80.903 138.611 83.1864 138.572H148.295C150.579 138.611 152.847 138.196 154.968 137.349C157.089 136.502 159.02 135.242 160.649 133.641C162.278 132.04 163.571 130.131 164.454 128.025C165.337 125.919 165.792 123.658 165.792 121.374C165.792 119.09 165.337 116.829 164.454 114.723C163.571 112.617 162.278 110.708 160.649 109.107C159.02 107.506 157.089 106.246 154.968 105.399C152.847 104.552 150.579 104.137 148.295 104.176H83.1864Z" fill="black"/>
<path d="M98.064 115.456H77.791C77.791 115.456 78.7183 128.29 89.0407 129.686H109.319C109.319 129.686 108.386 116.852 98.064 115.456Z" fill="white"/>
<path d="M109.67 130.007H89.0407C78.5349 128.595 77.4751 115.613 77.4751 115.481V115.129H98.1098C108.575 116.541 109.635 129.528 109.645 129.655L109.67 130.007ZM78.1527 115.787C78.4024 117.825 80.099 128.147 89.0866 129.36H108.957C108.707 127.322 107.016 117.015 98.0486 115.787H78.1527Z" fill="black"/>
<path d="M96.5657 129.686C100.26 129.686 103.255 126.502 103.255 122.574C103.255 118.645 100.26 115.461 96.5657 115.461C92.8711 115.461 89.876 118.645 89.876 122.574C89.876 126.502 92.8711 129.686 96.5657 129.686Z" fill="black"/>
<path d="M96.5659 130.007C92.6988 130.007 89.5552 126.67 89.5552 122.568C89.5552 118.467 92.6988 115.129 96.5659 115.129C100.433 115.129 103.582 118.467 103.582 122.573C103.582 126.68 100.438 130.007 96.5659 130.007ZM96.5659 115.782C93.0605 115.782 90.2073 118.839 90.2073 122.568C90.2073 126.298 93.0605 129.355 96.5659 129.355C100.071 129.355 102.95 126.313 102.95 122.573C102.95 118.833 100.076 115.787 96.5659 115.787V115.782Z" fill="black"/>
<path d="M142.421 115.456H122.148C122.148 115.456 123.08 128.29 133.403 129.686H153.676C153.676 129.686 152.743 116.852 142.421 115.456Z" fill="white"/>
<path d="M154.027 130.007H133.403C122.892 128.591 121.832 115.609 121.822 115.477V115.125H142.492C152.957 116.536 154.017 129.523 154.027 129.651V130.007ZM122.515 115.787C122.764 117.825 124.456 128.148 133.449 129.36H153.319C153.074 127.322 151.383 117.015 142.411 115.787H122.515Z" fill="black"/>
<path d="M140.892 129.686C144.564 129.686 147.541 126.502 147.541 122.574C147.541 118.645 144.564 115.461 140.892 115.461C137.22 115.461 134.243 118.645 134.243 122.574C134.243 126.502 137.22 129.686 140.892 129.686Z" fill="black"/>
<path d="M140.887 130.007C137.04 130.007 133.912 126.67 133.912 122.569C133.912 118.467 137.04 115.125 140.887 115.125C144.734 115.125 147.867 118.462 147.867 122.569C147.867 126.675 144.729 130.007 140.887 130.007ZM140.887 115.782C137.402 115.782 134.569 118.839 134.569 122.569C134.569 126.298 137.402 129.355 140.887 129.355C144.372 129.355 147.21 126.298 147.21 122.569C147.21 118.839 144.377 115.787 140.887 115.787V115.782Z" fill="black"/>
<path d="M115.968 152.389C118.472 152.389 120.502 150.215 120.502 147.533C120.502 144.852 118.472 142.678 115.968 142.678C113.463 142.678 111.433 144.852 111.433 147.533C111.433 150.215 113.463 152.389 115.968 152.389Z" fill="black"/>
<path d="M115.967 152.715C113.282 152.715 111.102 150.392 111.102 147.534C111.102 144.675 113.282 142.352 115.967 142.352C118.652 142.352 120.828 144.675 120.828 147.534C120.828 150.392 118.647 152.715 115.967 152.715ZM115.967 143.035C113.644 143.035 111.759 145.073 111.759 147.559C111.759 150.045 113.644 152.083 115.967 152.083C118.291 152.083 120.176 150.045 120.176 147.559C120.176 145.073 118.285 143.009 115.967 143.009V143.035Z" fill="black"/>
<path d="M172.716 184.1L179.772 192.955L181.871 184.803C181.97 184.417 182.195 184.074 182.511 183.829C182.826 183.584 183.215 183.452 183.614 183.453C185.896 183.453 190.477 183.173 193.248 181.155C197.06 178.379 198.491 175.154 198.812 173.926C199.133 172.698 202.684 162.115 195.714 157.275C188.744 152.435 169.73 153.658 169.73 153.658C169.73 153.658 142.727 152.883 132.17 161.341C126.723 165.687 125.088 170.874 124.782 174.889C124.596 176.988 124.924 179.101 125.736 181.045C126.548 182.99 127.82 184.708 129.444 186.052C130.257 186.776 131.252 187.266 132.323 187.468C135.614 187.855 139.94 186.76 139.94 186.76C139.94 186.76 151.694 184.111 162.979 183.983L171.253 183.474C171.53 183.452 171.807 183.498 172.062 183.607C172.316 183.716 172.541 183.885 172.716 184.1Z" fill="#FFC13D" stroke="black" stroke-width="1.1" stroke-miterlimit="10"/>
<path d="M141.208 168.123C141.208 168.123 153.818 162.977 162.515 162.875C168.278 162.723 174.01 161.964 179.614 160.613" fill="#FFC13D"/>
<path d="M141.208 168.123C141.208 168.123 153.818 162.977 162.515 162.875C168.278 162.723 174.01 161.964 179.614 160.613" stroke="black" stroke-width="1.1" stroke-miterlimit="10"/>
<path d="M143.48 178.262C143.48 178.262 156.396 174.359 165.073 175.103C170.81 175.513 176.574 175.315 182.269 174.512" fill="#FFC13D"/>
<path d="M143.48 178.262C143.48 178.262 156.396 174.359 165.073 175.103C170.81 175.513 176.574 175.315 182.269 174.512" stroke="black" stroke-width="1.1" stroke-miterlimit="10"/>
<path d="M141.335 172.127C141.335 172.127 155.678 169.712 158.852 170.125C162.026 170.538 180.903 167.241 181.413 166.727" fill="#FFC13D"/>
<path d="M141.335 172.127C141.335 172.127 155.678 169.712 158.852 170.125C162.026 170.538 180.903 167.241 181.413 166.727" stroke="black" stroke-width="1.1" stroke-miterlimit="10"/>
<path d="M89.022 268.34V259.96H92.442V268.34C92.442 269.18 92.6487 269.827 93.062 270.28C93.4754 270.733 94.082 270.96 94.882 270.96C95.682 270.96 96.2954 270.733 96.722 270.28C97.1487 269.827 97.362 269.18 97.362 268.34V259.96H100.782V268.34C100.782 269.58 100.489 270.653 99.902 271.56C99.3287 272.453 98.5954 273.107 97.702 273.52C96.822 273.933 95.862 274.14 94.822 274.14C93.1954 274.14 91.822 273.633 90.702 272.62C89.582 271.607 89.022 270.18 89.022 268.34ZM102.951 266.2C102.951 265.213 103.371 264.387 104.211 263.72C105.051 263.053 106.184 262.72 107.611 262.72C109.051 262.72 110.211 263.047 111.091 263.7C111.971 264.353 112.438 265.247 112.491 266.38H108.991C108.951 265.993 108.818 265.733 108.591 265.6C108.364 265.453 108.024 265.38 107.571 265.38C106.678 265.38 106.231 265.653 106.231 266.2C106.231 266.693 106.778 267.033 107.871 267.22C108.978 267.407 109.984 267.693 110.891 268.08C111.358 268.267 111.744 268.58 112.051 269.02C112.371 269.447 112.531 269.973 112.531 270.6C112.531 271.64 112.084 272.493 111.191 273.16C110.298 273.813 109.171 274.14 107.811 274.14C106.451 274.14 105.318 273.833 104.411 273.22C103.504 272.593 103.011 271.673 102.931 270.46H106.431C106.524 271.14 107.004 271.48 107.871 271.48C108.271 271.48 108.598 271.387 108.851 271.2C109.118 271.013 109.251 270.773 109.251 270.48C109.251 270.187 109.031 269.953 108.591 269.78C108.164 269.607 107.644 269.46 107.031 269.34C106.418 269.22 105.798 269.073 105.171 268.9C104.558 268.713 104.031 268.4 103.591 267.96C103.164 267.507 102.951 266.92 102.951 266.2ZM119.545 274.14C117.918 274.14 116.585 273.62 115.545 272.58C114.505 271.527 113.985 270.133 113.985 268.4C113.985 266.667 114.498 265.287 115.525 264.26C116.565 263.233 117.905 262.72 119.545 262.72C121.185 262.72 122.545 263.227 123.625 264.24C124.705 265.253 125.245 266.66 125.245 268.46C125.245 268.847 125.218 269.207 125.165 269.54H117.485C117.551 270.033 117.771 270.44 118.145 270.76C118.518 271.067 118.918 271.22 119.345 271.22C119.785 271.22 120.111 271.18 120.325 271.1C120.538 271.007 120.691 270.92 120.785 270.84C120.891 270.747 121.025 270.6 121.185 270.4H124.885C124.565 271.52 123.925 272.427 122.965 273.12C122.005 273.8 120.865 274.14 119.545 274.14ZM121.685 267.4C121.631 266.88 121.405 266.46 121.005 266.14C120.605 265.807 120.131 265.64 119.585 265.64C119.038 265.64 118.578 265.807 118.205 266.14C117.831 266.46 117.598 266.88 117.505 267.4H121.685ZM130.861 262.84V264.92C131.661 263.453 132.728 262.72 134.061 262.72V266.2H133.221C132.435 266.2 131.841 266.387 131.441 266.76C131.055 267.133 130.861 267.787 130.861 268.72V274H127.441V262.84H130.861Z" fill="black"/>
<path d="M290.629 62.912H292.085V74H290.629L284.773 65.2V74H283.317V62.912H284.773L290.629 71.712V62.912ZM300.361 62.912V64.064H295.945V67.84H299.881V68.976H295.945V72.848H300.361V74H294.489V62.912H300.361ZM310.615 71.616C311.394 70.816 311.783 69.76 311.783 68.448C311.783 67.136 311.394 66.0853 310.615 65.296C309.837 64.496 308.839 64.096 307.623 64.096C306.418 64.096 305.421 64.496 304.631 65.296C303.853 66.0853 303.463 67.136 303.463 68.448C303.463 69.76 303.858 70.816 304.647 71.616C305.437 72.416 306.434 72.816 307.639 72.816C308.845 72.816 309.837 72.416 310.615 71.616ZM307.639 74.112C306.05 74.112 304.711 73.5787 303.623 72.512C302.535 71.4347 301.991 70.08 301.991 68.448C301.991 66.8053 302.535 65.456 303.623 64.4C304.711 63.3333 306.05 62.8 307.639 62.8C309.229 62.8 310.562 63.3333 311.639 64.4C312.727 65.456 313.271 66.8053 313.271 68.448C313.271 70.0907 312.727 71.4453 311.639 72.512C310.562 73.5787 309.229 74.112 307.639 74.112Z" fill="black"/>
<path d="M282.374 141.896C283.195 141.896 283.894 141.592 284.47 140.984C285.056 140.365 285.35 139.56 285.35 138.568C285.35 137.565 285.056 136.776 284.47 136.2C283.894 135.624 283.195 135.336 282.374 135.336C281.563 135.336 280.864 135.635 280.278 136.232C279.702 136.829 279.414 137.624 279.414 138.616C279.414 139.597 279.702 140.392 280.278 141C280.864 141.597 281.563 141.896 282.374 141.896ZM282.662 134.072C283.867 134.072 284.864 134.488 285.654 135.32C286.454 136.141 286.854 137.224 286.854 138.568C286.854 139.901 286.454 141 285.654 141.864C284.854 142.717 283.856 143.144 282.662 143.144C281.915 143.144 281.259 142.968 280.694 142.616C280.139 142.253 279.712 141.784 279.414 141.208V143H277.958V131.16H279.414V135.976C279.712 135.411 280.139 134.952 280.694 134.6C281.259 134.248 281.915 134.072 282.662 134.072ZM295.989 131.912H297.445V143H295.989L290.133 134.2V143H288.677V131.912H290.133L295.989 140.712V131.912ZM305.72 131.912V133.064H301.304V136.84H305.24V137.976H301.304V141.848H305.72V143H299.848V131.912H305.72ZM315.975 140.616C316.753 139.816 317.143 138.76 317.143 137.448C317.143 136.136 316.753 135.085 315.975 134.296C315.196 133.496 314.199 133.096 312.983 133.096C311.777 133.096 310.78 133.496 309.991 134.296C309.212 135.085 308.823 136.136 308.823 137.448C308.823 138.76 309.217 139.816 310.007 140.616C310.796 141.416 311.793 141.816 312.999 141.816C314.204 141.816 315.196 141.416 315.975 140.616ZM312.999 143.112C311.409 143.112 310.071 142.579 308.983 141.512C307.895 140.435 307.351 139.08 307.351 137.448C307.351 135.805 307.895 134.456 308.983 133.4C310.071 132.333 311.409 131.8 312.999 131.8C314.588 131.8 315.921 132.333 316.999 133.4C318.087 134.456 318.631 135.805 318.631 137.448C318.631 139.091 318.087 140.445 316.999 141.512C315.921 142.579 314.588 143.112 312.999 143.112Z" fill="black"/>
<path d="M287.731 225.096C286.205 225.096 284.899 224.563 283.811 223.496C282.723 222.429 282.179 221.08 282.179 219.448C282.179 217.805 282.723 216.456 283.811 215.4C284.899 214.333 286.237 213.8 287.827 213.8C288.979 213.8 290.003 214.072 290.899 214.616C291.805 215.16 292.472 215.944 292.899 216.968H291.139C290.477 215.72 289.373 215.096 287.827 215.096C286.621 215.096 285.624 215.496 284.835 216.296C284.056 217.085 283.667 218.136 283.667 219.448C283.667 220.76 284.056 221.816 284.835 222.616C285.624 223.416 286.6 223.816 287.763 223.816C288.936 223.816 289.875 223.485 290.579 222.824C291.293 222.163 291.709 221.267 291.827 220.136H287.251V218.984H293.363V220.136C293.213 221.565 292.621 222.749 291.587 223.688C290.552 224.627 289.267 225.096 287.731 225.096ZM302.84 225L301.976 222.568H297.048L296.184 225H294.696L298.728 213.912H300.328L304.344 225H302.84ZM297.464 221.416H301.56L299.512 215.688L297.464 221.416ZM307.439 216.872C307.439 217.277 307.551 217.613 307.775 217.88C307.999 218.147 308.287 218.344 308.639 218.472C308.991 218.6 309.38 218.712 309.807 218.808C310.244 218.904 310.676 219.016 311.103 219.144C311.54 219.261 311.935 219.416 312.287 219.608C312.639 219.8 312.927 220.088 313.151 220.472C313.375 220.856 313.487 221.331 313.487 221.896C313.487 222.76 313.156 223.512 312.495 224.152C311.833 224.792 310.937 225.112 309.807 225.112C308.687 225.112 307.775 224.856 307.071 224.344C306.367 223.821 306.015 223.117 306.015 222.232H307.567C307.609 222.733 307.807 223.139 308.159 223.448C308.521 223.757 309.055 223.912 309.759 223.912C310.463 223.912 311.023 223.731 311.439 223.368C311.855 223.005 312.063 222.584 312.063 222.104C312.063 221.613 311.951 221.24 311.727 220.984C311.503 220.717 311.215 220.52 310.863 220.392C310.511 220.264 310.116 220.157 309.679 220.072C309.252 219.976 308.82 219.864 308.383 219.736C307.956 219.608 307.567 219.448 307.215 219.256C306.863 219.053 306.575 218.76 306.351 218.376C306.127 217.981 306.015 217.496 306.015 216.92C306.015 215.981 306.345 215.229 307.007 214.664C307.679 214.088 308.548 213.8 309.615 213.8C310.692 213.8 311.545 214.051 312.175 214.552C312.815 215.043 313.183 215.725 313.279 216.6H311.663C311.62 216.163 311.412 215.789 311.039 215.48C310.676 215.171 310.18 215.016 309.551 215.016C308.932 215.016 308.425 215.176 308.031 215.496C307.636 215.805 307.439 216.264 307.439 216.872Z" fill="black"/>
<path d="M647.629 62.912H649.085V74H647.629L641.773 65.2V74H640.317V62.912H641.773L647.629 71.712V62.912ZM657.361 62.912V64.064H652.945V67.84H656.881V68.976H652.945V72.848H657.361V74H651.489V62.912H657.361ZM667.615 71.616C668.394 70.816 668.783 69.76 668.783 68.448C668.783 67.136 668.394 66.0853 667.615 65.296C666.837 64.496 665.839 64.096 664.623 64.096C663.418 64.096 662.421 64.496 661.631 65.296C660.853 66.0853 660.463 67.136 660.463 68.448C660.463 69.76 660.858 70.816 661.647 71.616C662.437 72.416 663.434 72.816 664.639 72.816C665.845 72.816 666.837 72.416 667.615 71.616ZM664.639 74.112C663.05 74.112 661.711 73.5787 660.623 72.512C659.535 71.4347 658.991 70.08 658.991 68.448C658.991 66.8053 659.535 65.456 660.623 64.4C661.711 63.3333 663.05 62.8 664.639 62.8C666.229 62.8 667.562 63.3333 668.639 64.4C669.727 65.456 670.271 66.8053 670.271 68.448C670.271 70.0907 669.727 71.4453 668.639 72.512C667.562 73.5787 666.229 74.112 664.639 74.112Z" fill="black"/>
<path d="M644.731 225.096C643.205 225.096 641.899 224.563 640.811 223.496C639.723 222.429 639.179 221.08 639.179 219.448C639.179 217.805 639.723 216.456 640.811 215.4C641.899 214.333 643.237 213.8 644.827 213.8C645.979 213.8 647.003 214.072 647.899 214.616C648.805 215.16 649.472 215.944 649.899 216.968H648.139C647.477 215.72 646.373 215.096 644.827 215.096C643.621 215.096 642.624 215.496 641.835 216.296C641.056 217.085 640.667 218.136 640.667 219.448C640.667 220.76 641.056 221.816 641.835 222.616C642.624 223.416 643.6 223.816 644.763 223.816C645.936 223.816 646.875 223.485 647.579 222.824C648.293 222.163 648.709 221.267 648.827 220.136H644.251V218.984H650.363V220.136C650.213 221.565 649.621 222.749 648.587 223.688C647.552 224.627 646.267 225.096 644.731 225.096ZM659.84 225L658.976 222.568H654.048L653.184 225H651.696L655.728 213.912H657.328L661.344 225H659.84ZM654.464 221.416H658.56L656.512 215.688L654.464 221.416ZM664.439 216.872C664.439 217.277 664.551 217.613 664.775 217.88C664.999 218.147 665.287 218.344 665.639 218.472C665.991 218.6 666.38 218.712 666.807 218.808C667.244 218.904 667.676 219.016 668.103 219.144C668.54 219.261 668.935 219.416 669.287 219.608C669.639 219.8 669.927 220.088 670.151 220.472C670.375 220.856 670.487 221.331 670.487 221.896C670.487 222.76 670.156 223.512 669.495 224.152C668.833 224.792 667.937 225.112 666.807 225.112C665.687 225.112 664.775 224.856 664.071 224.344C663.367 223.821 663.015 223.117 663.015 222.232H664.567C664.609 222.733 664.807 223.139 665.159 223.448C665.521 223.757 666.055 223.912 666.759 223.912C667.463 223.912 668.023 223.731 668.439 223.368C668.855 223.005 669.063 222.584 669.063 222.104C669.063 221.613 668.951 221.24 668.727 220.984C668.503 220.717 668.215 220.52 667.863 220.392C667.511 220.264 667.116 220.157 666.679 220.072C666.252 219.976 665.82 219.864 665.383 219.736C664.956 219.608 664.567 219.448 664.215 219.256C663.863 219.053 663.575 218.76 663.351 218.376C663.127 217.981 663.015 217.496 663.015 216.92C663.015 215.981 663.345 215.229 664.007 214.664C664.679 214.088 665.548 213.8 666.615 213.8C667.692 213.8 668.545 214.051 669.175 214.552C669.815 215.043 670.183 215.725 670.279 216.6H668.663C668.62 216.163 668.412 215.789 668.039 215.48C667.676 215.171 667.18 215.016 666.551 215.016C665.932 215.016 665.425 215.176 665.031 215.496C664.636 215.805 664.439 216.264 664.439 216.872Z" fill="black"/>
<path d="M422.988 261.92H426.408V276H422.988L417.268 267.14V276H413.848V261.92H417.268L422.988 270.78V261.92ZM434.154 276.14C432.527 276.14 431.194 275.62 430.154 274.58C429.114 273.527 428.594 272.133 428.594 270.4C428.594 268.667 429.107 267.287 430.134 266.26C431.174 265.233 432.514 264.72 434.154 264.72C435.794 264.72 437.154 265.227 438.234 266.24C439.314 267.253 439.854 268.66 439.854 270.46C439.854 270.847 439.827 271.207 439.774 271.54H432.094C432.161 272.033 432.381 272.44 432.754 272.76C433.127 273.067 433.527 273.22 433.954 273.22C434.394 273.22 434.721 273.18 434.934 273.1C435.147 273.007 435.301 272.92 435.394 272.84C435.501 272.747 435.634 272.6 435.794 272.4H439.494C439.174 273.52 438.534 274.427 437.574 275.12C436.614 275.8 435.474 276.14 434.154 276.14ZM436.294 269.4C436.241 268.88 436.014 268.46 435.614 268.14C435.214 267.807 434.741 267.64 434.194 267.64C433.647 267.64 433.187 267.807 432.814 268.14C432.441 268.46 432.207 268.88 432.114 269.4H436.294ZM448.751 272.5C449.204 272.02 449.431 271.327 449.431 270.42C449.431 269.513 449.197 268.827 448.731 268.36C448.264 267.88 447.711 267.64 447.071 267.64C446.431 267.64 445.877 267.88 445.411 268.36C444.957 268.827 444.731 269.513 444.731 270.42C444.731 271.327 444.964 272.02 445.431 272.5C445.911 272.98 446.471 273.22 447.111 273.22C447.751 273.22 448.297 272.98 448.751 272.5ZM442.931 274.56C441.811 273.507 441.251 272.12 441.251 270.4C441.251 268.68 441.811 267.307 442.931 266.28C444.051 265.24 445.437 264.72 447.091 264.72C448.744 264.72 450.124 265.24 451.231 266.28C452.351 267.307 452.911 268.68 452.911 270.4C452.911 272.12 452.357 273.507 451.251 274.56C450.144 275.613 448.764 276.14 447.111 276.14C445.457 276.14 444.064 275.613 442.931 274.56ZM455.117 261.96H461.217C462.644 261.96 463.777 262.307 464.617 263C465.471 263.693 465.897 264.573 465.897 265.64C465.897 267.227 464.971 268.3 463.117 268.86C464.064 268.993 464.817 269.387 465.377 270.04C465.937 270.693 466.217 271.46 466.217 272.34C466.217 273.46 465.804 274.353 464.977 275.02C464.164 275.673 463.024 276 461.557 276H455.117V261.96ZM458.537 264.56V267.6H460.777C461.271 267.6 461.664 267.473 461.957 267.22C462.264 266.967 462.417 266.593 462.417 266.1C462.417 265.593 462.264 265.213 461.957 264.96C461.664 264.693 461.271 264.56 460.777 264.56H458.537ZM458.537 273.4H461.117C461.584 273.4 461.971 273.26 462.277 272.98C462.584 272.7 462.737 272.313 462.737 271.82C462.737 271.327 462.591 270.933 462.297 270.64C462.004 270.347 461.624 270.2 461.157 270.2H458.537V273.4ZM476.174 264.84H479.594V276H476.174V274.36C475.467 275.533 474.34 276.12 472.794 276.12C471.514 276.12 470.474 275.693 469.674 274.84C468.887 273.987 468.494 272.827 468.494 271.36V264.84H471.894V270.9C471.894 271.62 472.08 272.18 472.454 272.58C472.84 272.967 473.367 273.16 474.034 273.16C474.7 273.16 475.22 272.967 475.594 272.58C475.98 272.18 476.174 271.62 476.174 270.9V264.84ZM486.018 264.84V266.92C486.818 265.453 487.884 264.72 489.218 264.72V268.2H488.378C487.591 268.2 486.998 268.387 486.598 268.76C486.211 269.133 486.018 269.787 486.018 270.72V276H482.598V264.84H486.018ZM491.734 274.54C490.748 273.473 490.254 272.107 490.254 270.44C490.254 268.773 490.748 267.407 491.734 266.34C492.721 265.26 493.921 264.72 495.334 264.72C496.761 264.72 497.854 265.247 498.614 266.3V264.84H502.034V275.94C502.034 277.5 501.608 278.8 500.754 279.84C500.328 280.373 499.741 280.787 498.994 281.08C498.261 281.373 497.408 281.52 496.434 281.52C494.728 281.52 493.374 281.173 492.374 280.48C491.374 279.787 490.808 278.727 490.674 277.3H494.034C494.354 278.14 495.154 278.56 496.434 278.56C497.061 278.56 497.581 278.347 497.994 277.92C498.408 277.507 498.614 276.847 498.614 275.94V274.38C497.788 275.553 496.681 276.14 495.294 276.14C493.908 276.14 492.721 275.607 491.734 274.54ZM497.874 272.46C498.368 271.98 498.614 271.3 498.614 270.42C498.614 269.54 498.368 268.867 497.874 268.4C497.381 267.92 496.814 267.68 496.174 267.68C495.534 267.68 494.968 267.92 494.474 268.4C493.981 268.88 493.734 269.56 493.734 270.44C493.734 271.32 493.981 272 494.474 272.48C494.968 272.947 495.534 273.18 496.174 273.18C496.814 273.18 497.381 272.94 497.874 272.46ZM509.779 276.14C508.152 276.14 506.819 275.62 505.779 274.58C504.739 273.527 504.219 272.133 504.219 270.4C504.219 268.667 504.732 267.287 505.759 266.26C506.799 265.233 508.139 264.72 509.779 264.72C511.419 264.72 512.779 265.227 513.859 266.24C514.939 267.253 515.479 268.66 515.479 270.46C515.479 270.847 515.452 271.207 515.399 271.54H507.719C507.786 272.033 508.006 272.44 508.379 272.76C508.752 273.067 509.152 273.22 509.579 273.22C510.019 273.22 510.346 273.18 510.559 273.1C510.772 273.007 510.926 272.92 511.019 272.84C511.126 272.747 511.259 272.6 511.419 272.4H515.119C514.799 273.52 514.159 274.427 513.199 275.12C512.239 275.8 511.099 276.14 509.779 276.14ZM511.919 269.4C511.866 268.88 511.639 268.46 511.239 268.14C510.839 267.807 510.366 267.64 509.819 267.64C509.272 267.64 508.812 267.807 508.439 268.14C508.066 268.46 507.832 268.88 507.739 269.4H511.919ZM521.096 264.84V266.92C521.896 265.453 522.962 264.72 524.296 264.72V268.2H523.456C522.669 268.2 522.076 268.387 521.676 268.76C521.289 269.133 521.096 269.787 521.096 270.72V276H517.676V264.84H521.096Z" fill="black"/>
<path d="M756.22 261.92H759.64V276H756.22L750.5 267.14V276H747.08V261.92H750.5L756.22 270.78V261.92ZM767.386 276.14C765.76 276.14 764.426 275.62 763.386 274.58C762.346 273.527 761.826 272.133 761.826 270.4C761.826 268.667 762.34 267.287 763.366 266.26C764.406 265.233 765.746 264.72 767.386 264.72C769.026 264.72 770.386 265.227 771.466 266.24C772.546 267.253 773.086 268.66 773.086 270.46C773.086 270.847 773.06 271.207 773.006 271.54H765.326C765.393 272.033 765.613 272.44 765.986 272.76C766.36 273.067 766.76 273.22 767.186 273.22C767.626 273.22 767.953 273.18 768.166 273.1C768.38 273.007 768.533 272.92 768.626 272.84C768.733 272.747 768.866 272.6 769.026 272.4H772.726C772.406 273.52 771.766 274.427 770.806 275.12C769.846 275.8 768.706 276.14 767.386 276.14ZM769.526 269.4C769.473 268.88 769.246 268.46 768.846 268.14C768.446 267.807 767.973 267.64 767.426 267.64C766.88 267.64 766.42 267.807 766.046 268.14C765.673 268.46 765.44 268.88 765.346 269.4H769.526ZM781.983 272.5C782.437 272.02 782.663 271.327 782.663 270.42C782.663 269.513 782.43 268.827 781.963 268.36C781.497 267.88 780.943 267.64 780.303 267.64C779.663 267.64 779.11 267.88 778.643 268.36C778.19 268.827 777.963 269.513 777.963 270.42C777.963 271.327 778.197 272.02 778.663 272.5C779.143 272.98 779.703 273.22 780.343 273.22C780.983 273.22 781.53 272.98 781.983 272.5ZM776.163 274.56C775.043 273.507 774.483 272.12 774.483 270.4C774.483 268.68 775.043 267.307 776.163 266.28C777.283 265.24 778.67 264.72 780.323 264.72C781.977 264.72 783.357 265.24 784.463 266.28C785.583 267.307 786.143 268.68 786.143 270.4C786.143 272.12 785.59 273.507 784.483 274.56C783.377 275.613 781.997 276.14 780.343 276.14C778.69 276.14 777.297 275.613 776.163 274.56ZM795.606 274.1C794.219 272.74 793.526 271.02 793.526 268.94C793.526 266.86 794.219 265.147 795.606 263.8C797.006 262.44 798.712 261.76 800.726 261.76C802.286 261.76 803.672 262.173 804.886 263C806.099 263.827 806.946 264.973 807.426 266.44H803.346C802.812 265.413 801.959 264.9 800.786 264.9C799.612 264.9 798.686 265.267 798.006 266C797.339 266.733 797.006 267.713 797.006 268.94C797.006 270.167 797.339 271.147 798.006 271.88C798.686 272.613 799.592 272.98 800.726 272.98C801.539 272.98 802.199 272.78 802.706 272.38C803.226 271.967 803.572 271.42 803.746 270.74H799.786V268.14H807.426V270.74C807.172 272.02 806.472 273.213 805.326 274.32C804.779 274.853 804.099 275.287 803.286 275.62C802.486 275.953 801.632 276.12 800.726 276.12C798.712 276.12 797.006 275.447 795.606 274.1ZM816.319 272.5C816.772 272.02 816.999 271.327 816.999 270.42C816.999 269.513 816.766 268.827 816.299 268.36C815.832 267.88 815.279 267.64 814.639 267.64C813.999 267.64 813.446 267.88 812.979 268.36C812.526 268.827 812.299 269.513 812.299 270.42C812.299 271.327 812.532 272.02 812.999 272.5C813.479 272.98 814.039 273.22 814.679 273.22C815.319 273.22 815.866 272.98 816.319 272.5ZM810.499 274.56C809.379 273.507 808.819 272.12 808.819 270.4C808.819 268.68 809.379 267.307 810.499 266.28C811.619 265.24 813.006 264.72 814.659 264.72C816.312 264.72 817.692 265.24 818.799 266.28C819.919 267.307 820.479 268.68 820.479 270.4C820.479 272.12 819.926 273.507 818.819 274.56C817.712 275.613 816.332 276.14 814.679 276.14C813.026 276.14 811.632 275.613 810.499 274.56ZM821.266 264.84H824.906L827.446 273.14L829.986 264.84H833.626L829.666 276H825.226L821.266 264.84ZM839.945 276.14C838.318 276.14 836.985 275.62 835.945 274.58C834.905 273.527 834.385 272.133 834.385 270.4C834.385 268.667 834.898 267.287 835.925 266.26C836.965 265.233 838.305 264.72 839.945 264.72C841.585 264.72 842.945 265.227 844.025 266.24C845.105 267.253 845.645 268.66 845.645 270.46C845.645 270.847 845.618 271.207 845.565 271.54H837.885C837.952 272.033 838.172 272.44 838.545 272.76C838.918 273.067 839.318 273.22 839.745 273.22C840.185 273.22 840.512 273.18 840.725 273.1C840.938 273.007 841.092 272.92 841.185 272.84C841.292 272.747 841.425 272.6 841.585 272.4H845.285C844.965 273.52 844.325 274.427 843.365 275.12C842.405 275.8 841.265 276.14 839.945 276.14ZM842.085 269.4C842.032 268.88 841.805 268.46 841.405 268.14C841.005 267.807 840.532 267.64 839.985 267.64C839.438 267.64 838.978 267.807 838.605 268.14C838.232 268.46 837.998 268.88 837.905 269.4H842.085ZM851.262 264.84V266.92C852.062 265.453 853.128 264.72 854.462 264.72V268.2H853.622C852.835 268.2 852.242 268.387 851.842 268.76C851.455 269.133 851.262 269.787 851.262 270.72V276H847.842V264.84H851.262ZM859.738 264.84V266.48C860.445 265.307 861.572 264.72 863.118 264.72C864.398 264.72 865.432 265.147 866.218 266C867.018 266.853 867.418 268.013 867.418 269.48V276H864.018V269.94C864.018 269.22 863.825 268.667 863.438 268.28C863.065 267.88 862.545 267.68 861.878 267.68C861.212 267.68 860.685 267.88 860.298 268.28C859.925 268.667 859.738 269.22 859.738 269.94V276H856.318V264.84H859.738ZM877.122 272.46C877.616 271.98 877.862 271.3 877.862 270.42C877.862 269.54 877.616 268.867 877.122 268.4C876.629 267.92 876.062 267.68 875.422 267.68C874.782 267.68 874.216 267.92 873.722 268.4C873.229 268.88 872.982 269.56 872.982 270.44C872.982 271.32 873.229 272 873.722 272.48C874.216 272.947 874.782 273.18 875.422 273.18C876.062 273.18 876.629 272.94 877.122 272.46ZM870.982 274.54C869.996 273.473 869.502 272.107 869.502 270.44C869.502 268.773 869.996 267.407 870.982 266.34C871.969 265.26 873.169 264.72 874.582 264.72C876.009 264.72 877.102 265.247 877.862 266.3V264.84H881.282V276H877.862V274.38C877.036 275.553 875.929 276.14 874.542 276.14C873.156 276.14 871.969 275.607 870.982 274.54ZM887.707 264.84V266.48C888.414 265.307 889.54 264.72 891.087 264.72C892.367 264.72 893.4 265.147 894.187 266C894.987 266.853 895.387 268.013 895.387 269.48V276H891.987V269.94C891.987 269.22 891.794 268.667 891.407 268.28C891.034 267.88 890.514 267.68 889.847 267.68C889.18 267.68 888.654 267.88 888.267 268.28C887.894 268.667 887.707 269.22 887.707 269.94V276H884.287V264.84H887.707ZM899.011 274.58C897.984 273.54 897.471 272.153 897.471 270.42C897.471 268.687 897.984 267.307 899.011 266.28C900.051 265.24 901.391 264.72 903.031 264.72C904.391 264.72 905.544 265.06 906.491 265.74C907.438 266.407 908.064 267.367 908.371 268.62H904.671C904.351 267.953 903.824 267.62 903.091 267.62C902.371 267.62 901.831 267.88 901.471 268.4C901.124 268.907 900.951 269.58 900.951 270.42C900.951 271.26 901.124 271.94 901.471 272.46C901.831 272.967 902.351 273.22 903.031 273.22C903.458 273.22 903.791 273.147 904.031 273C904.271 272.853 904.484 272.593 904.671 272.22H908.371C908.064 273.42 907.431 274.373 906.471 275.08C905.511 275.787 904.364 276.14 903.031 276.14C901.391 276.14 900.051 275.62 899.011 274.58ZM915.023 276.14C913.397 276.14 912.063 275.62 911.023 274.58C909.983 273.527 909.463 272.133 909.463 270.4C909.463 268.667 909.977 267.287 911.003 266.26C912.043 265.233 913.383 264.72 915.023 264.72C916.663 264.72 918.023 265.227 919.103 266.24C920.183 267.253 920.723 268.66 920.723 270.46C920.723 270.847 920.697 271.207 920.643 271.54H912.963C913.03 272.033 913.25 272.44 913.623 272.76C913.997 273.067 914.397 273.22 914.823 273.22C915.263 273.22 915.59 273.18 915.803 273.1C916.017 273.007 916.17 272.92 916.263 272.84C916.37 272.747 916.503 272.6 916.663 272.4H920.363C920.043 273.52 919.403 274.427 918.443 275.12C917.483 275.8 916.343 276.14 915.023 276.14ZM917.163 269.4C917.11 268.88 916.883 268.46 916.483 268.14C916.083 267.807 915.61 267.64 915.063 267.64C914.517 267.64 914.057 267.807 913.683 268.14C913.31 268.46 913.077 268.88 912.983 269.4H917.163Z" fill="black"/>
<path d="M357 82.5L352 79.6132V85.3868L357 82.5ZM240 83H352.5V82H240V83Z" fill="black"/>
<path d="M241 233L246 235.887L246 230.113L241 233ZM356 232.5L245.5 232.5L245.5 233.5L356 233.5L356 232.5Z" fill="black"/>
<path d="M599 233L604 235.887L604 230.113L599 233ZM714 232.5L603.5 232.5L603.5 233.5L714 233.5L714 232.5Z" fill="black"/>
<path d="M241 153L246 155.887L246 150.113L241 153ZM356 152.5L245.5 152.5L245.5 153.5L356 153.5L356 152.5Z" fill="black"/>
<line x1="596" y1="81.5" x2="714" y2="81.5" stroke="black" stroke-dasharray="2 2"/>
</svg>
