<svg width="26" height="26" viewBox="0 0 26 26" fill="none" xmlns="http://www.w3.org/2000/svg">
<circle cx="13" cy="13" r="13" fill="#FFC13E"/>
<path d="M13.5635 7.30566V9.03418H12.6495V7.30566H13.5635ZM13.4522 16.874V18.4502H12.5381V16.874H13.4522ZM14.0967 14.9521C14.0967 14.7295 14.0557 14.54 13.9737 14.3838C13.8956 14.2275 13.7667 14.0889 13.587 13.9678C13.4112 13.8467 13.1729 13.7295 12.8721 13.6162C12.3643 13.4209 11.917 13.2139 11.5303 12.9951C11.1475 12.7725 10.8487 12.4971 10.6338 12.1689C10.419 11.8369 10.3116 11.417 10.3116 10.9092C10.3116 10.4248 10.4268 10.0049 10.6573 9.64941C10.8877 9.29395 11.2061 9.02051 11.6124 8.8291C12.0225 8.63379 12.4991 8.53613 13.042 8.53613C13.4561 8.53613 13.8311 8.59863 14.167 8.72363C14.503 8.84473 14.792 9.02441 15.0342 9.2627C15.2764 9.49707 15.462 9.78418 15.5909 10.124C15.7198 10.4639 15.7842 10.8525 15.7842 11.29H14.1026C14.1026 11.0557 14.0772 10.8486 14.0264 10.6689C13.9756 10.4893 13.9014 10.3389 13.8038 10.2178C13.71 10.0967 13.5967 10.0068 13.4639 9.94824C13.3311 9.88574 13.1846 9.85449 13.0245 9.85449C12.7862 9.85449 12.5909 9.90137 12.4385 9.99512C12.2862 10.0889 12.1749 10.2158 12.1045 10.376C12.0381 10.5322 12.0049 10.7119 12.0049 10.915C12.0049 11.1143 12.0401 11.2881 12.1104 11.4365C12.1846 11.585 12.3116 11.7217 12.4913 11.8467C12.6709 11.9678 12.917 12.0928 13.2295 12.2217C13.7374 12.417 14.1827 12.6279 14.5655 12.8545C14.9483 13.0811 15.2471 13.3584 15.462 13.6865C15.6768 14.0146 15.7842 14.4326 15.7842 14.9404C15.7842 15.4443 15.667 15.874 15.4327 16.2295C15.1983 16.5811 14.8702 16.8506 14.4483 17.0381C14.0264 17.2217 13.5381 17.3135 12.9834 17.3135C12.6241 17.3135 12.2667 17.2666 11.9112 17.1729C11.5557 17.0752 11.2334 16.9189 10.9444 16.7041C10.6553 16.4893 10.4249 16.2041 10.253 15.8486C10.0811 15.4893 9.99517 15.0479 9.99517 14.5244H11.6827C11.6827 14.8096 11.7198 15.0479 11.794 15.2393C11.8682 15.4268 11.9659 15.5771 12.087 15.6904C12.212 15.7998 12.3526 15.8779 12.5088 15.9248C12.6651 15.9717 12.8233 15.9951 12.9834 15.9951C13.2334 15.9951 13.4385 15.9502 13.5987 15.8604C13.7627 15.7705 13.8858 15.6475 13.9678 15.4912C14.0538 15.3311 14.0967 15.1514 14.0967 14.9521Z" fill="white"/>
<circle cx="13" cy="13" r="9.5" stroke="#E69C00"/>
</svg>
