<svg width="12" height="12" viewBox="0 0 12 12" fill="none" xmlns="http://www.w3.org/2000/svg">
<path d="M10.148 11.354L0.605225 1.81128C0.27148 1.47753 0.27148 0.937505 0.605225 0.60376V0.60376C0.93897 0.270015 1.479 0.270015 1.81274 0.60376L11.3555 10.1465C11.6892 10.4803 11.6892 11.0203 11.3555 11.354V11.354C11.0218 11.6878 10.4817 11.6878 10.148 11.354Z" fill="#D44454"/>
<path d="M0.602994 10.147L10.1458 0.604248C10.4795 0.270503 11.0195 0.270503 11.3533 0.604248V0.604248C11.687 0.937993 11.687 1.47802 11.3533 1.81177L1.81051 11.3545C1.47677 11.6883 0.936739 11.6883 0.602994 11.3545V11.3545C0.269249 11.0208 0.269249 10.4808 0.602994 10.147Z" fill="#D44454"/>
</svg>
