<svg width="156" height="156" viewBox="0 0 156 156" fill="none" xmlns="http://www.w3.org/2000/svg">
<path fill-rule="evenodd" clip-rule="evenodd" d="M78.6964 12.5357C87.6281 12.5357 96.2892 14.28 104.439 17.7233C112.318 21.0614 119.385 25.828 125.475 31.9028C131.55 37.9775 136.331 45.0597 139.654 52.9389C143.113 61.1037 144.857 69.7647 144.857 78.6964C144.857 87.6281 143.113 96.2892 139.67 104.439C136.331 112.318 131.565 119.385 125.49 125.475C119.415 131.55 112.333 136.331 104.454 139.654C96.2892 143.113 87.6281 144.857 78.6964 144.857C69.7647 144.857 61.1037 143.113 52.9539 139.67C45.0748 136.331 38.0076 131.565 31.9178 125.49C25.843 119.415 21.0614 112.333 17.7384 104.454C14.28 96.2892 12.5357 87.6281 12.5357 78.6964C12.5357 69.7647 14.28 61.1037 17.7233 52.9539C21.0614 45.0748 25.828 38.0076 31.9028 31.9178C37.9775 25.843 45.0597 21.0614 52.9389 17.7384C61.1037 14.28 69.7647 12.5357 78.6964 12.5357ZM78 0C34.9172 0 0 34.9172 0 78C0 121.083 34.9172 156 78 156C121.083 156 156 121.083 156 78C156 34.9172 121.083 0 78 0Z" fill="#D44454"/>
<path d="M102.369 109.428L46.5755 53.634C44.6241 51.6827 44.6241 48.5253 46.5755 46.574C48.5268 44.6226 51.6842 44.6226 53.6355 46.574L109.429 102.368C111.381 104.319 111.381 107.476 109.429 109.428C107.478 111.379 104.321 111.379 102.369 109.428Z" fill="#D44454"/>
<path d="M46.5732 102.367L102.367 46.573C104.318 44.6217 107.476 44.6217 109.427 46.573C111.378 48.5243 111.378 51.6817 109.427 53.633L53.6333 109.427C51.682 111.378 48.5246 111.378 46.5732 109.427C44.6219 107.475 44.6219 104.318 46.5732 102.367Z" fill="#D44454"/>
</svg>
