<svg width="418" height="299" viewBox="0 0 418 299" fill="none" xmlns="http://www.w3.org/2000/svg">
<mask id="mask0_1634_391" style="mask-type:alpha" maskUnits="userSpaceOnUse" x="0" y="0" width="418" height="299">
<rect width="418" height="299" fill="#F7F3EC"/>
</mask>
<g mask="url(#mask0_1634_391)">
<path d="M396.783 229.403C396.399 228.835 357.393 174.33 354.819 161.002C353.282 153.228 379.535 110.886 397.558 84.2994C397.735 84.0267 397.825 83.7063 397.814 83.3813C397.803 83.0564 397.693 82.7425 397.498 82.4821C397.314 82.2151 397.049 82.014 396.743 81.9082C396.436 81.8024 396.104 81.7975 395.794 81.8942C380.577 86.2958 336.007 93.1207 321.911 95.1505L325.633 57.828C325.675 55.8515 325.175 53.9012 324.188 52.1889C314.448 33.6123 273.368 36.8883 220.643 43.22C176.657 48.3746 122.237 60.6989 101.716 65.507L102.677 57.5116C104.836 56.8368 106.754 55.5511 108.199 53.8098C109.643 52.0685 110.553 49.9461 110.818 47.699C111.011 46.1776 110.894 44.6328 110.473 43.1581C110.052 41.6834 109.336 40.3095 108.369 39.1195C107.315 37.7083 105.99 36.5213 104.472 35.6275C102.954 34.7338 101.273 34.1513 99.528 33.9139C97.947 33.7904 96.3573 33.9882 94.8547 34.4956C93.3522 35.0029 91.9678 35.8093 90.7851 36.866C89.6187 37.8685 88.6756 39.1046 88.0169 40.4946C87.3581 41.8845 86.9984 43.3972 86.961 44.9349C86.8866 47.1858 87.3984 49.4173 88.4462 51.4107C89.4939 53.4041 91.0416 55.0909 92.9376 56.3057C92.9376 56.3057 92.9087 56.5459 92.8963 56.6489L61.2131 320.154C61.2336 321.353 61.7083 322.5 62.5413 323.362C63.3743 324.225 64.5035 324.739 65.701 324.801C66.9537 325.092 68.2703 324.886 69.3747 324.227C70.4791 323.568 71.2856 322.507 71.6251 321.267L82.3031 232.459C103.428 226.68 162.525 210.775 204.357 203.273C224.492 199.45 244.841 196.863 265.292 195.526L260.795 240.449C260.503 241.677 260.487 242.955 260.747 244.19C261.008 245.425 261.539 246.587 262.303 247.592C265.114 251.133 271.188 253.012 281.481 253.379C309.385 254.611 366.561 240.495 395.95 231.984C396.193 231.912 396.414 231.784 396.597 231.61C396.779 231.436 396.918 231.221 397.001 230.982C397.084 230.744 397.109 230.489 397.074 230.239C397.04 229.989 396.946 229.751 396.801 229.545L396.783 229.403Z" fill="#FFC13D"/>
<path d="M74.3155 30.8495C74.3315 29.5943 74.6154 28.3569 75.1482 27.2202C75.681 26.0836 76.4505 25.0739 77.405 24.2588C78.4238 23.3596 79.6199 22.6843 80.9159 22.2765C82.212 21.8687 83.5792 21.7374 84.9291 21.8912C86.3909 22.0971 87.7977 22.5892 89.0692 23.3394C90.3406 24.0896 91.4517 25.0832 92.3389 26.2632C93.1143 27.2316 93.6865 28.3465 94.0212 29.5411C94.356 30.7357 94.4465 31.9856 94.2873 33.2161C94.1599 34.5189 93.7678 35.782 93.1348 36.9279C92.5019 38.0737 91.6415 39.0781 90.6065 39.8794C89.5715 40.6807 88.3838 41.2621 87.1161 41.5878C85.8484 41.9135 84.5275 41.9767 83.2346 41.7735C80.6444 41.4136 78.2859 40.0878 76.6319 38.062C74.9778 36.0361 74.1504 33.4599 74.3155 30.8495Z" fill="#E0AB3A"/>
<path d="M84.8551 52.8968L78.7668 54.323L80.248 42.0039C81.1231 42.403 82.0535 42.6675 83.0077 42.7883C84.0173 42.9 85.037 42.8822 86.0421 42.7354L84.829 52.824C84.829 52.824 84.8592 52.8625 84.8551 52.8968Z" fill="white"/>
<path d="M55.076 304.901C54.3152 304.119 53.2978 303.638 52.2108 303.547C50.9638 303.39 49.701 303.669 48.6355 304.335L58.8307 219.543L65.5984 217.676L55.076 304.901Z" fill="white"/>
<path d="M189.366 186.99C138.729 196.218 62.4872 217.511 59.0285 218.487L78.6351 55.4221C81.6792 54.709 152.248 37.4686 206.339 31.0575C258.212 24.8669 298.641 21.5126 307.749 38.9689C308.555 40.3562 308.978 41.9328 308.974 43.5373L294.577 186.725C293.779 185.226 292.656 183.925 291.289 182.918C289.923 181.91 288.348 181.221 286.681 180.902C269.855 176.686 233.489 178.962 189.366 186.99Z" fill="white"/>
<path d="M252.899 180.215C264.099 179.298 275.371 179.892 286.412 181.981C288.285 182.248 290.033 183.076 291.426 184.356C292.819 185.636 293.792 187.307 294.217 189.151C294.789 194.233 289.428 200.028 279.598 205.077C276.224 206.795 272.691 208.39 269.304 209.932C260.065 214.112 251.888 217.863 248.62 223.04L252.899 180.215Z" fill="#E0AB3A"/>
<path d="M266.949 237.045C257.461 236.635 251.71 234.969 249.356 231.971C248.773 231.203 248.373 230.313 248.185 229.367C247.998 228.422 248.027 227.446 248.272 226.514C249.544 219.983 258.898 215.712 269.754 210.821C273.141 209.279 276.674 207.685 280.086 205.937C292.474 199.594 295.083 193.816 295.255 190.355L305.986 83.4524C317.705 81.7981 363.256 74.9171 380.414 70.2964C374.186 79.5384 336.079 136.816 338.148 147.403C340.704 160.591 375.553 209.722 380.053 216.007C350.603 224.441 294.373 238.219 266.949 237.045Z" fill="white"/>
<path d="M382.192 215.292C381.803 214.758 342.797 160.253 340.228 146.89C338.721 139.155 364.944 96.7745 382.967 70.1876C383.146 69.9165 383.238 69.5969 383.23 69.2719C383.223 68.9469 383.115 68.6321 382.923 68.37C382.731 68.1079 382.463 67.9111 382.155 67.806C381.848 67.7009 381.515 67.6927 381.203 67.7824C365.982 72.2182 321.416 79.0088 307.32 81.0387L311.076 43.7203C311.118 41.7438 310.618 39.7935 309.631 38.0812C299.891 19.5046 258.811 22.7806 206.086 29.1123C162.134 34.271 107.684 46.5569 87.1587 51.3993L88.1201 43.4039C90.2794 42.7291 92.1972 41.4434 93.6418 39.7021C95.0864 37.9608 95.9961 35.8384 96.2608 33.5913C96.4501 32.07 96.3308 30.5261 95.91 29.052C95.4892 27.5779 94.7757 26.2038 93.8119 25.0118C92.7552 23.6051 91.4288 22.4232 89.91 21.5353C88.3913 20.6474 86.7108 20.0713 84.9668 19.8405C83.3259 19.6526 81.6638 19.8107 80.0877 20.3047C78.5116 20.7987 77.0566 21.6177 75.8164 22.7088C74.6499 23.7112 73.7068 24.9474 73.0481 26.3373C72.3894 27.7273 72.0296 29.24 71.9922 30.7777C71.9179 33.0286 72.4297 35.2601 73.4774 37.2535C74.5252 39.2468 76.0729 40.9337 77.9688 42.1485C77.9688 42.1485 77.9399 42.3887 77.9234 42.526L46.2443 305.997C46.2339 306.625 46.3476 307.248 46.5788 307.832C46.81 308.416 47.1541 308.948 47.5915 309.398C48.0288 309.849 48.5508 310.208 49.1274 310.457C49.7041 310.705 50.324 310.837 50.9518 310.845C52.2097 311.135 53.5314 310.925 54.6375 310.259C55.7437 309.593 56.5478 308.523 56.88 307.276L67.5745 218.331C88.6998 212.551 147.831 196.651 189.633 189.11C209.77 185.304 230.119 182.717 250.567 181.364L246.067 226.321C245.764 227.548 245.743 228.828 246.004 230.065C246.265 231.302 246.802 232.464 247.575 233.464C250.382 237.039 256.46 238.884 266.752 239.251C294.661 240.449 351.837 226.332 381.26 217.825C381.536 217.751 381.787 217.606 381.988 217.404C382.19 217.202 382.335 216.951 382.408 216.675C382.485 216.444 382.506 216.198 382.469 215.957C382.431 215.716 382.336 215.488 382.192 215.292ZM75.3614 30.8347C75.4182 29.732 75.7071 28.6536 76.2092 27.6702C76.7113 26.6868 77.4153 25.8205 78.2751 25.1279C79.1815 24.3275 80.2452 23.7255 81.398 23.3606C82.5507 22.9956 83.767 22.8757 84.9688 23.0086C86.2905 23.1983 87.5619 23.6469 88.7102 24.3285C89.8585 25.0101 90.8612 25.9115 91.6609 26.981C92.3462 27.8402 92.8525 28.828 93.1497 29.8862C93.4469 30.9443 93.529 32.0513 93.3913 33.1418C93.2713 34.3149 92.9105 35.4507 92.3316 36.4781C91.7527 37.5054 90.968 38.4023 90.0267 39.1125C89.0854 39.8227 88.0078 40.331 86.8611 40.6056C85.7144 40.8802 84.5235 40.9152 83.3627 40.7084C81.0215 40.3937 78.889 39.1962 77.4017 37.3607C75.9143 35.5253 75.1844 33.1907 75.3614 30.8347ZM82.9872 43.831C83.632 43.9601 84.2858 44.0388 84.9428 44.0662L83.9897 51.993L80.1193 52.92L81.254 43.4834C81.8241 43.6343 82.4029 43.7504 82.9872 43.831ZM51.5715 307.716C50.0962 307.539 49.5996 306.748 49.6409 306.405C49.9583 306.067 50.3588 305.817 50.8025 305.681C51.2463 305.545 51.7178 305.528 52.1704 305.63C53.4741 305.787 54.0133 306.513 53.9638 306.925C53.9143 307.337 53.0125 307.89 51.4686 307.704L51.5715 307.716ZM54.43 303.047C53.8391 302.757 53.201 302.574 52.5459 302.508C51.7246 302.413 50.8931 302.466 50.0906 302.665L59.9929 220.309L64.5304 219.044L54.43 303.047ZM189.284 185.935C141.281 194.68 70.6497 214.175 60.2476 217.032L79.5736 56.3007C81.5816 55.8111 152.047 38.5583 206.422 32.1116C257.904 25.9786 298.054 22.6256 306.752 39.4408C307.483 40.6593 307.868 42.0532 307.868 43.4739L293.792 183.706C291.901 181.812 289.515 180.488 286.907 179.885C269.983 175.622 233.445 177.878 189.181 185.923L189.284 185.935ZM286.257 182.974C287.921 183.18 289.483 183.887 290.735 185.001C291.988 186.115 292.871 187.584 293.269 189.213C293.269 189.491 293.236 189.767 293.17 190.037L293.145 190.243C292.827 194.625 287.809 199.592 279.095 204.044C275.721 205.762 272.223 207.36 268.835 208.903C262.087 211.495 255.781 215.117 250.142 219.639L253.97 181.146C264.731 180.321 275.554 180.932 286.155 182.962L286.257 182.974ZM267.11 235.987C258.073 235.597 252.392 234.217 250.265 231.351C249.779 230.695 249.448 229.938 249.298 229.136C249.147 228.334 249.18 227.508 249.395 226.721C250.567 220.735 260.105 216.382 270.259 211.824C273.681 210.286 277.218 208.657 280.63 206.909C293.424 200.371 296.086 194.147 296.54 190.372L307.198 84.3659C321.367 82.31 360.121 76.3871 378.291 72.0273C368.365 86.8469 335.369 137.22 337.428 147.597C339.896 160.357 371.662 205.601 378.626 215.42C348.555 223.814 293.84 237.147 267.007 235.975L267.11 235.987Z" fill="black"/>
<path d="M101.89 176.92L114.244 71.6703L126.067 69.9379L113.717 175.153L101.89 176.92Z" fill="#FFC13D"/>
<path d="M101.794 176.875L125.693 173.335C131.117 172.266 136.08 169.547 139.903 165.55C143.726 161.553 146.224 156.473 147.055 151.002L154.995 84.862C155.451 82.5536 155.328 80.1681 154.636 77.9193C153.945 75.6706 152.706 73.6289 151.032 71.9772C149.358 70.3256 147.301 69.1157 145.044 68.4559C142.788 67.7962 140.403 67.7073 138.104 68.1971L114.239 71.7407L112.884 83.0287L136.852 79.4976C137.82 79.292 138.823 79.3299 139.772 79.6081C140.721 79.8862 141.586 80.3958 142.29 81.0911C142.993 81.7865 143.514 82.6459 143.804 83.5921C144.094 84.5384 144.144 85.542 143.951 86.5128L135.913 152.606C135.561 154.917 134.503 157.063 132.886 158.75C131.268 160.436 129.169 161.581 126.876 162.027L102.976 165.566L101.794 176.875Z" fill="#FFC13D"/>
<path d="M235.884 157.077C223.846 158.854 215.18 150.32 216.62 138.026L223.728 77.354C224.691 71.0915 227.562 65.2789 231.949 60.71C236.336 56.1412 242.024 53.0389 248.238 51.8269C260.276 50.0503 268.942 58.5843 267.497 70.9121L260.217 131.564C259.263 137.8 256.416 143.592 252.064 148.155C247.711 152.719 242.063 155.833 235.884 157.077ZM249.141 128.238L254.37 84.674L249.141 128.238ZM255.817 72.6265C256.059 71.4164 255.996 70.1651 255.634 68.9854C255.273 67.8056 254.624 66.7345 253.746 65.8684C252.868 65.0023 251.788 64.3685 250.604 64.024C249.42 63.6795 248.17 63.6352 246.964 63.8951C244.102 64.4237 241.477 65.8386 239.461 67.9401C237.445 70.0417 236.139 72.7237 235.728 75.6078L234.281 87.6552L229.056 131.185L228.447 136.259C228.202 137.468 228.26 138.718 228.617 139.898C228.974 141.079 229.619 142.151 230.493 143.02C231.367 143.889 232.443 144.527 233.624 144.876C234.806 145.225 236.055 145.275 237.261 145.021C240.12 144.464 242.737 143.037 244.755 140.935C246.773 138.834 248.094 136.159 248.536 133.278" fill="#FFC13D"/>
<path d="M191.782 60.2125C185.575 61.4203 179.893 64.5182 175.513 69.0823C171.132 73.6464 168.268 79.4536 167.311 85.7092L157.573 168.582L169.43 166.854L172.708 139.548L177.937 95.9842L179.375 84.0058C179.781 81.1423 181.053 78.4719 183.022 76.3541C184.99 74.2363 187.559 72.7727 190.383 72.1605C191.588 71.9007 192.839 71.945 194.023 72.2895C195.207 72.634 196.286 73.2678 197.164 74.1339C198.042 74.9999 198.691 76.0711 199.053 77.2508C199.414 78.4306 199.477 79.6818 199.235 80.892L196.782 101.328L176.784 104.425L175.338 116.473L195.427 113.491L192.651 136.62L189.373 163.925L201.338 162.175L211.076 79.3018C212.49 66.9353 203.858 58.4055 191.782 60.2125Z" fill="#FFC13D"/>
</g>
</svg>
