<svg width="16" height="16" viewBox="0 0 16 16" fill="none" xmlns="http://www.w3.org/2000/svg">
<path fill-rule="evenodd" clip-rule="evenodd" d="M8.04885 4.14966C8.72775 4.14966 9.38181 4.4276 9.84544 4.9149C10.276 5.3667 10.4948 5.9498 10.4605 6.55773C10.4321 7.08878 10.3268 7.57844 9.26944 8.63582C8.76205 9.14322 8.44034 9.52761 8.40604 9.87652C8.38475 10.0965 8.19906 10.2609 7.98262 10.2609C7.96843 10.2609 7.95424 10.2597 7.94005 10.2585L7.94004 10.2585C7.70585 10.2349 7.53554 10.0267 7.55801 9.79254C7.62424 9.12547 8.11981 8.58023 8.66743 8.03262C9.57788 7.12216 9.59351 6.8252 9.61006 6.51069L9.61008 6.51042C9.63018 6.14022 9.49417 5.78303 9.22687 5.50154C8.92527 5.18338 8.49711 5.00124 8.05358 5.00124H8.05003C7.19372 5.00242 6.49709 5.70142 6.49709 6.55773C6.49709 6.7931 6.30666 6.98352 6.0713 6.98352C5.83593 6.98352 5.64551 6.7931 5.64551 6.55773C5.64551 5.9155 5.89507 5.31112 6.34924 4.85694C6.80342 4.40158 7.40662 4.15084 8.04885 4.14966ZM7.97253 11.9591C7.69034 11.9591 7.46158 11.7304 7.46158 11.4482C7.46158 11.2656 7.55897 11.0969 7.71706 11.0057C7.87515 10.9144 8.06992 10.9144 8.228 11.0057C8.38609 11.0969 8.48348 11.2656 8.48348 11.4482C8.48348 11.7304 8.25472 11.9591 7.97253 11.9591Z" fill="#000033"/>
<circle cx="8" cy="8" r="7.5" stroke="#000033"/>
</svg>
