<?xml version="1.0" encoding="UTF-8"?>
<svg width="24px" height="24px" viewBox="0 0 84 84" version="1.1" xmlns="http://www.w3.org/2000/svg" xmlns:xlink="http://www.w3.org/1999/xlink">
    <title>Combined Shape</title>
    <g id="03-Wallet-and-landing" stroke="none" stroke-width="1" fill="none" fill-rule="evenodd">
        <path d="M42,0 C65.1959595,0 84,18.8040405 84,42 C84,65.1959595 65.1959595,84 42,84 C18.8040405,84 0,65.1959595 0,42 C0,18.8040405 18.8040405,0 42,0 Z M63.8031982,20.5116279 L57.5085896,26.8059083 L51.2139809,20.5116279 L44.9197005,26.8059083 L38.7009029,20.5874389 L13.6744186,45.613595 L38.7009029,70.6397511 L63.7273872,45.613595 L57.4327786,39.3193146 L70.0216676,26.7300974 L63.8031982,20.5116279 Z M44.9955115,39.3193146 L51.2139809,45.537784 L38.7009029,58.0511902 L26.1878248,45.537784 L32.4066225,39.3193146 L38.7009029,45.613595 L44.9955115,39.3193146 Z" id="Combined-Shape" fill="#4CFFB3"></path>
    </g>
</svg>
