<svg width="26" height="26" viewBox="0 0 26 26" fill="none" xmlns="http://www.w3.org/2000/svg">
<circle cx="13" cy="13" r="13" fill="#282B34"/>
<path d="M11.4977 5.30788L8.6272 6.4957L8.82311 6.96913L11.6936 5.78131L11.4977 5.30788Z" fill="white"/>
<path d="M11.6508 4.94048L8.26324 6.34229L8.67313 7.33282L12.0607 5.93102L11.6508 4.94048Z" fill="white"/>
<path d="M11.6938 4.84354L8.16577 6.30273L8.63348 7.43355L12.1615 5.97435L11.6938 4.84354Z" fill="white"/>
<path d="M8.47686 7.79802L7.79785 6.15147L11.8396 4.47757L12.5236 6.12411L8.47686 7.79802ZM8.52661 6.45491L8.77533 7.06926L11.7849 5.82565L11.5362 5.20881L8.52661 6.45491Z" fill="white"/>
<path d="M11.6956 4.83028L8.14948 6.2977L8.62594 7.44911L12.1721 5.98169L11.6956 4.83028Z" fill="white"/>
<path d="M8.47705 7.81299L7.78809 6.14654L11.8472 4.46518L12.5362 6.13162L8.47705 7.81299ZM8.51684 6.4475L8.778 7.08174L11.8099 5.83813L11.5438 5.19394L8.51684 6.4475Z" fill="white"/>
<path d="M8.4322 7.91234L7.68604 6.10413L11.887 4.36307L12.6331 6.16879L8.4322 7.91234ZM8.61377 6.48716L8.81772 6.9846L11.7104 5.78576L11.5064 5.28832L8.61377 6.48716Z" fill="white"/>
<path d="M8.28299 8.27554L7.32043 5.95247L12.0387 4L13.0013 6.32307L8.28299 8.27554ZM8.04919 6.25591L8.58395 7.54678L12.2725 6.01963L11.7377 4.72876L8.04919 6.25591ZM8.66602 7.34781L8.24817 6.33799L11.6532 4.92774L12.0735 5.93755L8.66602 7.34781Z" fill="white"/>
<path d="M6.46314 8.61711L5.28265 11.4751L5.75403 11.6698L6.93452 8.81181L6.46314 8.61711Z" fill="white"/>
<path d="M6.34628 8.25243L4.9433 11.6395L5.93369 12.0498L7.33667 8.66266L6.34628 8.25243Z" fill="white"/>
<path d="M6.27105 8.15474L4.82025 11.6672L5.94607 12.1322L7.39687 8.61976L6.27105 8.15474Z" fill="white"/>
<path d="M6.12396 12.5138L4.47742 11.8323L6.15381 7.79056L7.80035 8.47703L6.12396 12.5138ZM5.20617 11.5189L5.82301 11.7676L7.06662 8.7556L6.45227 8.50688L5.20617 11.5189Z" fill="white"/>
<path d="M6.29832 8.14207L4.82904 11.6875L5.9802 12.1645L7.44948 8.61913L6.29832 8.14207Z" fill="white"/>
<path d="M6.12904 12.5288L4.46509 11.8373L6.14645 7.7757L7.81289 8.47709L6.12904 12.5288ZM5.19385 11.5339L5.82809 11.7951L7.08414 8.7681L6.44989 8.50445L5.19385 11.5339Z" fill="white"/>
<path d="M6.17145 12.6282L4.36572 11.8821L6.10678 7.67865L7.91251 8.42482L6.17145 12.6282ZM5.29346 11.4941L5.7909 11.698L6.98477 8.81034L6.48733 8.6039L5.29346 11.4941Z" fill="white"/>
<path d="M6.32307 12.9913L4 12.0287L5.95496 7.30301L8.27803 8.26557L6.32307 12.9913ZM4.72876 11.7278L6.01963 12.2625L7.54927 8.57647L6.2584 8.04172L4.72876 11.7278ZM5.93755 12.0636L4.92774 11.6457L6.33799 8.24069L7.35029 8.65855L5.93755 12.0636Z" fill="white"/>
<path d="M19.4996 8.63811L19.0262 8.83411L20.2146 11.7044L20.688 11.5084L19.4996 8.63811Z" fill="white"/>
<path d="M19.6523 8.27392L18.6617 8.68381L20.0635 12.0714L21.0541 11.6615L19.6523 8.27392Z" fill="white"/>
<path d="M19.6944 8.17256L18.5638 8.64066L20.0242 12.1682L21.1549 11.7001L19.6944 8.17256Z" fill="white"/>
<path d="M19.8712 12.5337L18.1973 8.49197L19.8438 7.80798L21.5177 11.8522L19.8712 12.5337ZM18.926 8.80287L20.1696 11.8149L20.784 11.5662L19.5404 8.55664L18.926 8.80287Z" fill="white"/>
<path d="M19.6999 8.1596L18.5485 8.63626L20.0166 12.1822L21.1679 11.7055L19.6999 8.1596Z" fill="white"/>
<path d="M19.8659 12.5487L18.1771 8.47708L19.8435 7.78812L21.5249 11.8498L19.8659 12.5487ZM18.9232 8.78798L20.1668 11.8174L20.8011 11.5563L19.5575 8.52434L18.9232 8.78798Z" fill="white"/>
<path d="M19.8237 12.6481L18.0826 8.44468L19.8884 7.69852L21.6294 11.9019L19.8237 12.6481ZM19.0129 8.82772L20.2092 11.7104L20.7067 11.5065L19.5128 8.6163L19.0129 8.82772Z" fill="white"/>
<path d="M19.6696 13.0112L17.7147 8.28549L20.0377 7.32294L21.9902 12.0487L19.6696 13.0112ZM18.4484 8.59391L19.9756 12.2825L21.2664 11.7477L19.7393 8.06164L18.4484 8.59391ZM20.0576 12.076L18.6474 8.67848L19.6696 8.25813L21.0799 11.6656L20.0576 12.076Z" fill="white"/>
<path d="M14.512 5.30764L14.3159 5.78098L17.1857 6.9703L17.3819 6.49697L14.512 5.30764Z" fill="white"/>
<path d="M14.3622 4.94147L13.9518 5.93179L17.3386 7.33537L17.749 6.34505L14.3622 4.94147Z" fill="white"/>
<path d="M14.3229 4.8415L13.8544 5.97198L17.3814 7.43364L17.8499 6.30316L14.3229 4.8415Z" fill="white"/>
<path d="M17.5306 7.8005L13.4888 6.12411L14.1703 4.47757L18.2121 6.15396L17.5306 7.8005ZM14.2176 5.82316L17.2296 7.06677L17.4783 6.45243L14.4688 5.20881L14.2176 5.82316Z" fill="white"/>
<path d="M14.3152 4.82766L13.8381 5.97882L17.3835 7.4481L17.8606 6.29693L14.3152 4.82766Z" fill="white"/>
<path d="M17.5355 7.81299L13.4739 6.12913L14.1653 4.46518L18.227 6.14654L17.5355 7.81299ZM14.1977 5.82818L17.2346 7.08423L17.4982 6.44999L14.4663 5.20637L14.1977 5.82818Z" fill="white"/>
<path d="M17.5777 7.91245L13.3743 6.17139L14.1205 4.36566L18.3239 6.10672L17.5777 7.91245ZM14.3021 5.78587L17.1823 6.98471L17.3887 6.48727L14.5085 5.2934L14.3021 5.78587Z" fill="white"/>
<path d="M17.7271 8.27803L13.0013 6.32307L13.9738 4L18.6996 5.95496L17.7271 8.27803ZM13.7475 6.01963L17.4311 7.54927L17.9658 6.2584L14.2748 4.72876L13.7475 6.01963ZM17.3515 7.35029L13.949 5.93755L14.3668 4.92774L17.7743 6.34048L17.3515 7.35029Z" fill="white"/>
<path d="M17.1721 19.0303L14.3016 20.2181L14.4975 20.6915L17.368 19.5037L17.1721 19.0303Z" fill="white"/>
<path d="M17.3244 18.6616L13.9368 20.0634L14.3467 21.0539L17.7342 19.6521L17.3244 18.6616Z" fill="white"/>
<path d="M17.3656 18.5664L13.8375 20.0256L14.3052 21.1564L17.8333 19.6972L17.3656 18.5664Z" fill="white"/>
<path d="M14.1552 21.5201L13.4713 19.8736L17.5155 18.2021L18.197 19.8487L14.1552 21.5201ZM14.1975 20.1671L14.4462 20.7814L17.4583 19.5378L17.2096 18.9234L14.1975 20.1671Z" fill="white"/>
<path d="M17.3701 18.5528L13.8239 20.0202L14.3004 21.1716L17.8465 19.7042L17.3701 18.5528Z" fill="white"/>
<path d="M14.1478 21.5349L13.4514 19.8685L17.5205 18.1772L18.212 19.8436L14.1478 21.5349ZM14.1976 20.167L14.4463 20.8062L17.4757 19.5626L17.2196 18.9234L14.1976 20.167Z" fill="white"/>
<path d="M17.5628 18.0876L18.309 19.8933L14.1055 21.6344L13.3594 19.8262L17.5628 18.0876ZM17.3812 19.5103L17.1773 19.0129L14.2871 20.2117L14.4911 20.7092L17.3812 19.5103Z" fill="white"/>
<path d="M13.9489 21.9976L12.9938 19.6696L17.7195 17.7146L18.6746 20.0451L13.9489 21.9976ZM13.7176 19.978L14.2523 21.2688L17.9458 19.7442L17.4111 18.4533L13.7176 19.978ZM14.3344 21.0699L13.924 20.0601L17.329 18.6498L17.7469 19.6696L14.3344 21.0699Z" fill="white"/>
<path d="M20.214 14.3129L19.0247 17.1827L19.498 17.3789L20.6873 14.509L20.214 14.3129Z" fill="white"/>
<path d="M20.0643 13.9492L18.6608 17.336L19.6511 17.7464L21.0547 14.3596L20.0643 13.9492Z" fill="white"/>
<path d="M20.0215 13.8483L18.5599 17.3753L19.6904 17.8438L21.152 14.3168L20.0215 13.8483Z" fill="white"/>
<path d="M19.8438 18.2095L18.1973 17.528L19.8712 13.4863L21.5177 14.1678L19.8438 18.2095ZM18.926 17.2146L19.5404 17.4633L20.784 14.4513L20.1696 14.2026L18.926 17.2146Z" fill="white"/>
<path d="M20.0162 13.8352L18.5469 17.3806L19.6981 17.8577L21.1674 14.3123L20.0162 13.8352Z" fill="white"/>
<path d="M19.8485 18.2245L18.1771 17.5331L19.8609 13.4714L21.5274 14.1629L19.8485 18.2245ZM18.9232 17.2321L19.5575 17.4808L20.8011 14.4514L20.1668 14.1977L18.9232 17.2321Z" fill="white"/>
<path d="M19.8237 13.3719L21.6319 14.1181L19.8908 18.319L18.0851 17.5728L19.8237 13.3719ZM20.7016 14.5036L20.2042 14.2996L19.0103 17.1823L19.5078 17.3863L20.7016 14.5036Z" fill="white"/>
<path d="M20.04 18.6872L17.7169 17.7246L19.6744 12.9989L21.9949 13.9614L20.04 18.6872ZM18.4482 17.4311L19.739 17.9659L21.2662 14.2723L19.9753 13.7376L18.4482 17.4311ZM19.6694 17.7594L18.6596 17.3416L20.0698 13.9341L21.0796 14.3544L19.6694 17.7594Z" fill="white"/>
<path d="M5.78084 14.2942L5.30743 14.4902L6.49576 17.3605L6.96916 17.1645L5.78084 14.2942Z" fill="white"/>
<path d="M5.93163 13.9319L4.94116 14.3419L6.34355 17.7293L7.33402 17.3192L5.93163 13.9319Z" fill="white"/>
<path d="M5.97342 13.8296L4.84277 14.2977L6.3032 17.8252L7.43385 17.3571L5.97342 13.8296Z" fill="white"/>
<path d="M6.15132 18.1896L4.47742 14.1479L6.12396 13.4664L7.79786 17.5081L6.15132 18.1896ZM5.20617 14.4463L6.44979 17.4584L7.06662 17.2096L5.82301 14.1976L5.20617 14.4463Z" fill="white"/>
<path d="M5.98116 13.8156L4.82983 14.2923L6.29787 17.8382L7.4492 17.3615L5.98116 13.8156Z" fill="white"/>
<path d="M6.14645 18.2046L4.46509 14.1405L6.12904 13.4515L7.81289 17.5131L6.14645 18.2046ZM5.19385 14.4464L6.43746 17.4758L7.0717 17.2147L5.82809 14.1828L5.19385 14.4464Z" fill="white"/>
<path d="M6.17145 13.352L7.91251 17.5554L6.10678 18.3016L4.36572 14.0982L6.17145 13.352ZM6.98477 17.1823L5.78593 14.2797L5.28848 14.4837L6.48733 17.3763L6.98477 17.1823Z" fill="white"/>
<path d="M5.95247 18.6746L4 13.9489L6.32307 12.9863L8.27554 17.7121L5.95247 18.6746ZM4.72876 14.2523L6.25591 17.9284L7.54678 17.3937L6.01963 13.7176L4.72876 14.2523ZM6.33799 17.7344L4.92774 14.3344L5.93755 13.9166L7.34781 17.3216L6.33799 17.7344Z" fill="white"/>
<path d="M8.80736 19.0283L8.61121 19.5016L11.4811 20.6909L11.6772 20.2176L8.80736 19.0283Z" fill="white"/>
<path d="M8.65766 18.662L8.24725 19.6523L11.6341 21.0559L12.0445 20.0656L8.65766 18.662Z" fill="white"/>
<path d="M8.61595 18.5612L8.14746 19.6917L11.6745 21.1533L12.143 20.0228L8.61595 18.5612Z" fill="white"/>
<path d="M11.8249 21.52L7.78314 19.8461L8.47708 18.1996L12.5064 19.8735L11.8249 21.52ZM8.5119 19.5427L11.5239 20.7863L11.7727 20.1719L8.76311 18.9283L8.5119 19.5427Z" fill="white"/>
<path d="M8.61049 18.5481L8.13342 19.6992L11.6788 21.1685L12.1559 20.0174L8.61049 18.5481Z" fill="white"/>
<path d="M11.8299 21.5349L7.76825 19.8511L8.4597 18.1772L12.5213 19.8685L11.8299 21.5349ZM8.49949 19.5452L11.5289 20.7888L11.7926 20.167L8.76065 18.9234L8.49949 19.5452Z" fill="white"/>
<path d="M8.41719 18.0851L12.6206 19.8262L11.8744 21.6319L7.67102 19.8909L8.41719 18.0851ZM11.6929 20.2117L8.80271 19.0129L8.59627 19.5103L11.4864 20.7067L11.6929 20.2117Z" fill="white"/>
<path d="M12.0238 22L7.29803 20.0426L8.26059 17.722L12.9863 19.6769L12.0238 22ZM8.0442 19.7416L11.7104 21.2688L12.2451 19.9779L8.56901 18.4507L8.0442 19.7416ZM11.6482 21.0698L8.22826 19.6695L8.65109 18.6497L12.0561 20.06L11.6482 21.0698Z" fill="white"/>
</svg>
