<svg width="220" height="228" viewBox="0 0 220 228" fill="none" xmlns="http://www.w3.org/2000/svg">
<path fill-rule="evenodd" clip-rule="evenodd" d="M191.386 51.2146L109.14 15.8842L26.8949 51.2146L109.14 89.721L191.386 51.2146ZM0.0453601 50.7606C0.0996351 48.2242 1.52024 45.6061 4.32095 44.403L106.351 0.573784L108.324 5.16612L106.351 0.57378C108.132 -0.191259 110.149 -0.191256 111.93 0.573768L109.956 5.16784L109.89 5.32252M0.0453601 50.7606C0.0153012 51.0346 5.24521e-06 51.3117 5.24521e-06 51.5908L0 172.53C0 176.719 3.39553 180.114 7.58417 180.114C11.7728 180.114 15.1683 176.719 15.1683 172.53L15.1684 62.4728L99.2309 101.83V219.562C99.2309 223.751 102.626 227.146 106.815 227.146C111.004 227.146 114.399 223.751 114.399 219.562L114.399 104.007L204.148 61.988V172.53C204.148 176.719 207.544 180.114 211.732 180.114C215.921 180.114 219.316 176.719 219.316 172.53V51.5908C219.316 48.0272 216.862 45.0432 213.55 44.227L111.93 0.573781L109.956 5.16784M83.9049 38.172C85.816 34.4448 90.3867 32.9724 94.114 34.8834L131.157 53.8761C134.885 55.7872 136.357 60.3579 134.446 64.0852C132.535 67.8124 127.964 69.2848 124.237 67.3738L87.1935 48.3811C83.4663 46.4701 81.9939 41.8993 83.9049 38.172ZM126.595 62.7747C126.594 62.7741 126.592 62.7734 126.591 62.7728L126.595 62.7747ZM91.7596 39.4844L91.756 39.4825L91.7596 39.4844Z" fill="url(#paint0_linear_1710_2569)"/>
<defs>
<linearGradient id="paint0_linear_1710_2569" x1="145.5" y1="-163.5" x2="32" y2="263.5" gradientUnits="userSpaceOnUse">
<stop stop-color="#FFC13D"/>
<stop offset="1" stop-color="#F7F3EC" stop-opacity="0"/>
</linearGradient>
</defs>
</svg>
