<svg width="156" height="156" viewBox="0 0 156 156" fill="none" xmlns="http://www.w3.org/2000/svg">
<path fill-rule="evenodd" clip-rule="evenodd" d="M78.6964 12.5357C87.6281 12.5357 96.2892 14.28 104.439 17.7233C112.318 21.0614 119.385 25.828 125.475 31.9028C131.55 37.9775 136.331 45.0597 139.654 52.9389C143.113 61.1037 144.857 69.7647 144.857 78.6964C144.857 87.6281 143.113 96.2892 139.67 104.439C136.331 112.318 131.565 119.385 125.49 125.475C119.415 131.55 112.333 136.331 104.454 139.654C96.2892 143.113 87.6281 144.857 78.6964 144.857C69.7647 144.857 61.1037 143.113 52.9539 139.67C45.0748 136.331 38.0076 131.565 31.9178 125.49C25.843 119.415 21.0614 112.333 17.7384 104.454C14.28 96.2892 12.5357 87.6281 12.5357 78.6964C12.5357 69.7647 14.28 61.1037 17.7233 52.9539C21.0614 45.0748 25.828 38.0076 31.9028 31.9178C37.9775 25.843 45.0597 21.0614 52.9389 17.7384C61.1037 14.28 69.7647 12.5357 78.6964 12.5357ZM78 0C34.9172 0 0 34.9172 0 78C0 121.083 34.9172 156 78 156C121.083 156 156 121.083 156 78C156 34.9172 121.083 0 78 0ZM78 97.5C74.9218 97.5 72.4286 94.7791 72.4286 91.4198V35.3302C72.4286 31.9709 74.9218 29.25 78 29.25C81.0782 29.25 83.5714 31.9709 83.5714 35.3302V91.4198C83.5714 94.7791 81.0782 97.5 78 97.5ZM71.0357 114.214C71.0357 110.368 74.1537 107.25 78 107.25C81.8463 107.25 84.9643 110.368 84.9643 114.214C84.9643 118.061 81.8463 121.179 78 121.179C74.1537 121.179 71.0357 118.061 71.0357 114.214Z" fill="black" fill-opacity="0.4"/>
</svg>
